M48
; DRILL file {KiCad (5.1.10)-1} date 12/18/21 14:31:13
; FORMAT={-:-/ absolute / inch / decimal}
; #@! TF.CreationDate,2021-12-18T14:31:13-08:00
; #@! TF.GenerationSoftware,Kicad,Pcbnew,(5.1.10)-1
; #@! TF.FileFunction,Plated,1,4,PTH
FMAT,2
INCH
T1C0.0079
T2C0.0197
T3C0.0217
%
G90
G05
T1
X3.5905Y-2.6205
X3.5937Y-3.98
X3.5937Y-3.85
X3.5995Y-3.7805
X3.61Y-3.17
X3.63Y-2.53
X3.6358Y-3.7242
X3.64Y-3.98
X3.66Y-3.14
X3.67Y-2.62
X3.6858Y-3.7242
X3.7Y-3.81
X3.726Y-2.704
X3.726Y-2.534
X3.78Y-2.62
X3.79Y-3.25
X3.79Y-3.66
X3.85Y-2.62
X3.86Y-3.66
X3.88Y-2.43
X3.89Y-2.8
X3.92Y-2.62
X3.9205Y-2.7105
X4.0105Y-3.8805
X4.0294Y-2.7106
X4.0303Y-3.9395
X4.14Y-2.86
X4.14Y-4.14
X4.14Y-4.21
X4.255Y-2.995
X4.26Y-3.63
X4.29Y-3.52
X4.33Y-3.52
X4.35Y-2.76
X4.37Y-3.45
X4.41Y-3.42
X4.4188Y-2.4988
X4.4432Y-3.48
X4.47Y-3.28
X4.4708Y-3.4992
X4.48Y-2.79
X4.5352Y-3.6348
X4.5605Y-3.2205
X4.5692Y-3.2808
X4.5852Y-4.2452
X4.63Y-3.36
X4.63Y-3.4
X4.63Y-3.43
X4.6333Y-3.0933
X4.65Y-3.17
X4.67Y-3.28
X4.67Y-3.52
X4.7095Y-3.4295
X4.77Y-2.93
X4.7833Y-3.0067
X4.7852Y-3.71
X4.81Y-3.38
X4.8352Y-3.71
X4.86Y-3.82
X4.86Y-3.85
X4.86Y-3.92
X4.86Y-3.95
X4.89Y-3.82
X4.89Y-3.85
X4.89Y-3.92
X4.89Y-3.95
X4.9022Y-2.5578
X4.91Y-3.87
X4.91Y-3.9
X4.94Y-3.87
X4.94Y-3.9
X4.9457Y-2.9357
X4.96Y-3.82
X4.96Y-3.85
X4.96Y-3.92
X4.96Y-3.95
X4.9852Y-4.09
X4.99Y-3.82
X4.99Y-3.85
X4.99Y-3.92
X4.99Y-3.95
X5.0079Y-3.38
X5.0352Y-4.2248
X5.04Y-3.71
X5.07Y-3.4
X5.07Y-3.71
X5.0852Y-4.2252
X5.1076Y-3.71
X5.15Y-3.43
X5.168Y-3.068
X5.18Y-3.4
X5.18Y-3.55
X5.1852Y-3.6348
X5.2113Y-2.9313
X5.2352Y-3.6352
X5.2352Y-3.5552
X5.2352Y-4.2452
X5.2405Y-3.4005
X5.2532Y-3.0632
X5.298Y-3.022
X5.3413Y-3.0613
X5.3846Y-3.0554
X5.4378Y-2.5578
X5.4651Y-2.9751
T2
G00X4.3322Y-2.4416
M15
G01X4.3322Y-2.416
M16
G05
G00X4.6078Y-2.4416
M15
G01X4.6078Y-2.416
M16
G05
T3
G00X4.3775Y-2.5351
M15
G01X4.3657Y-2.5351
M16
G05
G00X4.5743Y-2.5351
M15
G01X4.5625Y-2.5351
M16
G05
T0
M30
