%TF.GenerationSoftware,KiCad,Pcbnew,(5.1.10)-1*%
%TF.CreationDate,2021-12-18T14:31:07-08:00*%
%TF.ProjectId,ESP32_Playboard,45535033-325f-4506-9c61-79626f617264,rev?*%
%TF.SameCoordinates,Original*%
%TF.FileFunction,Copper,L1,Top*%
%TF.FilePolarity,Positive*%
%FSLAX46Y46*%
G04 Gerber Fmt 4.6, Leading zero omitted, Abs format (unit mm)*
G04 Created by KiCad (PCBNEW (5.1.10)-1) date 2021-12-18 14:31:07*
%MOMM*%
%LPD*%
G01*
G04 APERTURE LIST*
%TA.AperFunction,SMDPad,CuDef*%
%ADD10R,0.700000X1.400000*%
%TD*%
%TA.AperFunction,SMDPad,CuDef*%
%ADD11R,4.000000X4.000000*%
%TD*%
%TA.AperFunction,SMDPad,CuDef*%
%ADD12R,1.000000X1.200000*%
%TD*%
%TA.AperFunction,ComponentPad*%
%ADD13O,0.890000X1.550000*%
%TD*%
%TA.AperFunction,SMDPad,CuDef*%
%ADD14R,1.200000X1.550000*%
%TD*%
%TA.AperFunction,SMDPad,CuDef*%
%ADD15R,1.500000X1.550000*%
%TD*%
%TA.AperFunction,ComponentPad*%
%ADD16O,1.250000X0.950000*%
%TD*%
%TA.AperFunction,SMDPad,CuDef*%
%ADD17R,0.400000X1.350000*%
%TD*%
%TA.AperFunction,SMDPad,CuDef*%
%ADD18R,0.700000X1.600000*%
%TD*%
%TA.AperFunction,SMDPad,CuDef*%
%ADD19R,1.200000X2.200000*%
%TD*%
%TA.AperFunction,SMDPad,CuDef*%
%ADD20R,1.200000X1.500000*%
%TD*%
%TA.AperFunction,SMDPad,CuDef*%
%ADD21R,1.600000X1.500000*%
%TD*%
%TA.AperFunction,SMDPad,CuDef*%
%ADD22R,0.800000X0.900000*%
%TD*%
%TA.AperFunction,SMDPad,CuDef*%
%ADD23R,2.000000X3.800000*%
%TD*%
%TA.AperFunction,SMDPad,CuDef*%
%ADD24R,2.000000X1.500000*%
%TD*%
%TA.AperFunction,SMDPad,CuDef*%
%ADD25R,0.650000X1.060000*%
%TD*%
%TA.AperFunction,SMDPad,CuDef*%
%ADD26C,0.100000*%
%TD*%
%TA.AperFunction,SMDPad,CuDef*%
%ADD27R,0.550000X0.250000*%
%TD*%
%TA.AperFunction,SMDPad,CuDef*%
%ADD28R,1.200000X1.400000*%
%TD*%
%TA.AperFunction,ViaPad*%
%ADD29C,0.400000*%
%TD*%
%TA.AperFunction,Conductor*%
%ADD30C,0.508000*%
%TD*%
%TA.AperFunction,Conductor*%
%ADD31C,0.254000*%
%TD*%
G04 APERTURE END LIST*
D10*
%TO.P,D1,2*%
%TO.N,GND*%
X94234000Y-94594000D03*
%TO.P,D1,3*%
%TO.N,/IR_RECV*%
X94234000Y-88794000D03*
%TO.P,D1,1*%
%TO.N,GND*%
X91694000Y-94594000D03*
%TO.P,D1,4*%
%TO.N,Net-(C7-Pad1)*%
X91694000Y-88794000D03*
%TD*%
%TO.P,U5,1*%
%TO.N,GND*%
%TA.AperFunction,SMDPad,CuDef*%
G36*
G01*
X132722900Y-90541000D02*
X133225100Y-90541000D01*
G75*
G02*
X133439000Y-90754900I0J-213900D01*
G01*
X133439000Y-91777100D01*
G75*
G02*
X133225100Y-91991000I-213900J0D01*
G01*
X132722900Y-91991000D01*
G75*
G02*
X132509000Y-91777100I0J213900D01*
G01*
X132509000Y-90754900D01*
G75*
G02*
X132722900Y-90541000I213900J0D01*
G01*
G37*
%TD.AperFunction*%
%TO.P,U5,2*%
%TO.N,/REG_3V3*%
%TA.AperFunction,SMDPad,CuDef*%
G36*
G01*
X131452900Y-90541000D02*
X131955100Y-90541000D01*
G75*
G02*
X132169000Y-90754900I0J-213900D01*
G01*
X132169000Y-91777100D01*
G75*
G02*
X131955100Y-91991000I-213900J0D01*
G01*
X131452900Y-91991000D01*
G75*
G02*
X131239000Y-91777100I0J213900D01*
G01*
X131239000Y-90754900D01*
G75*
G02*
X131452900Y-90541000I213900J0D01*
G01*
G37*
%TD.AperFunction*%
%TO.P,U5,3*%
%TO.N,/RESET*%
%TA.AperFunction,SMDPad,CuDef*%
G36*
G01*
X130182900Y-90541000D02*
X130685100Y-90541000D01*
G75*
G02*
X130899000Y-90754900I0J-213900D01*
G01*
X130899000Y-91777100D01*
G75*
G02*
X130685100Y-91991000I-213900J0D01*
G01*
X130182900Y-91991000D01*
G75*
G02*
X129969000Y-91777100I0J213900D01*
G01*
X129969000Y-90754900D01*
G75*
G02*
X130182900Y-90541000I213900J0D01*
G01*
G37*
%TD.AperFunction*%
%TO.P,U5,4*%
%TO.N,Net-(U5-Pad4)*%
%TA.AperFunction,SMDPad,CuDef*%
G36*
G01*
X128912900Y-90541000D02*
X129415100Y-90541000D01*
G75*
G02*
X129629000Y-90754900I0J-213900D01*
G01*
X129629000Y-91777100D01*
G75*
G02*
X129415100Y-91991000I-213900J0D01*
G01*
X128912900Y-91991000D01*
G75*
G02*
X128699000Y-91777100I0J213900D01*
G01*
X128699000Y-90754900D01*
G75*
G02*
X128912900Y-90541000I213900J0D01*
G01*
G37*
%TD.AperFunction*%
%TO.P,U5,5*%
%TO.N,Net-(U5-Pad5)*%
%TA.AperFunction,SMDPad,CuDef*%
G36*
G01*
X127642900Y-90541000D02*
X128145100Y-90541000D01*
G75*
G02*
X128359000Y-90754900I0J-213900D01*
G01*
X128359000Y-91777100D01*
G75*
G02*
X128145100Y-91991000I-213900J0D01*
G01*
X127642900Y-91991000D01*
G75*
G02*
X127429000Y-91777100I0J213900D01*
G01*
X127429000Y-90754900D01*
G75*
G02*
X127642900Y-90541000I213900J0D01*
G01*
G37*
%TD.AperFunction*%
%TO.P,U5,6*%
%TO.N,/IR_RECV*%
%TA.AperFunction,SMDPad,CuDef*%
G36*
G01*
X126372900Y-90541000D02*
X126875100Y-90541000D01*
G75*
G02*
X127089000Y-90754900I0J-213900D01*
G01*
X127089000Y-91777100D01*
G75*
G02*
X126875100Y-91991000I-213900J0D01*
G01*
X126372900Y-91991000D01*
G75*
G02*
X126159000Y-91777100I0J213900D01*
G01*
X126159000Y-90754900D01*
G75*
G02*
X126372900Y-90541000I213900J0D01*
G01*
G37*
%TD.AperFunction*%
%TO.P,U5,7*%
%TO.N,Net-(U5-Pad7)*%
%TA.AperFunction,SMDPad,CuDef*%
G36*
G01*
X125102900Y-90541000D02*
X125605100Y-90541000D01*
G75*
G02*
X125819000Y-90754900I0J-213900D01*
G01*
X125819000Y-91777100D01*
G75*
G02*
X125605100Y-91991000I-213900J0D01*
G01*
X125102900Y-91991000D01*
G75*
G02*
X124889000Y-91777100I0J213900D01*
G01*
X124889000Y-90754900D01*
G75*
G02*
X125102900Y-90541000I213900J0D01*
G01*
G37*
%TD.AperFunction*%
%TO.P,U5,8*%
%TO.N,/IR_SEND*%
%TA.AperFunction,SMDPad,CuDef*%
G36*
G01*
X123832900Y-90541000D02*
X124335100Y-90541000D01*
G75*
G02*
X124549000Y-90754900I0J-213900D01*
G01*
X124549000Y-91777100D01*
G75*
G02*
X124335100Y-91991000I-213900J0D01*
G01*
X123832900Y-91991000D01*
G75*
G02*
X123619000Y-91777100I0J213900D01*
G01*
X123619000Y-90754900D01*
G75*
G02*
X123832900Y-90541000I213900J0D01*
G01*
G37*
%TD.AperFunction*%
%TO.P,U5,9*%
%TO.N,Net-(U5-Pad9)*%
%TA.AperFunction,SMDPad,CuDef*%
G36*
G01*
X122562900Y-90541000D02*
X123065100Y-90541000D01*
G75*
G02*
X123279000Y-90754900I0J-213900D01*
G01*
X123279000Y-91777100D01*
G75*
G02*
X123065100Y-91991000I-213900J0D01*
G01*
X122562900Y-91991000D01*
G75*
G02*
X122349000Y-91777100I0J213900D01*
G01*
X122349000Y-90754900D01*
G75*
G02*
X122562900Y-90541000I213900J0D01*
G01*
G37*
%TD.AperFunction*%
%TO.P,U5,10*%
%TO.N,Net-(U5-Pad10)*%
%TA.AperFunction,SMDPad,CuDef*%
G36*
G01*
X121292900Y-90541000D02*
X121795100Y-90541000D01*
G75*
G02*
X122009000Y-90754900I0J-213900D01*
G01*
X122009000Y-91777100D01*
G75*
G02*
X121795100Y-91991000I-213900J0D01*
G01*
X121292900Y-91991000D01*
G75*
G02*
X121079000Y-91777100I0J213900D01*
G01*
X121079000Y-90754900D01*
G75*
G02*
X121292900Y-90541000I213900J0D01*
G01*
G37*
%TD.AperFunction*%
%TO.P,U5,11*%
%TO.N,Net-(U5-Pad11)*%
%TA.AperFunction,SMDPad,CuDef*%
G36*
G01*
X120022900Y-90541000D02*
X120525100Y-90541000D01*
G75*
G02*
X120739000Y-90754900I0J-213900D01*
G01*
X120739000Y-91777100D01*
G75*
G02*
X120525100Y-91991000I-213900J0D01*
G01*
X120022900Y-91991000D01*
G75*
G02*
X119809000Y-91777100I0J213900D01*
G01*
X119809000Y-90754900D01*
G75*
G02*
X120022900Y-90541000I213900J0D01*
G01*
G37*
%TD.AperFunction*%
%TO.P,U5,12*%
%TO.N,Net-(U5-Pad12)*%
%TA.AperFunction,SMDPad,CuDef*%
G36*
G01*
X118752900Y-90541000D02*
X119255100Y-90541000D01*
G75*
G02*
X119469000Y-90754900I0J-213900D01*
G01*
X119469000Y-91777100D01*
G75*
G02*
X119255100Y-91991000I-213900J0D01*
G01*
X118752900Y-91991000D01*
G75*
G02*
X118539000Y-91777100I0J213900D01*
G01*
X118539000Y-90754900D01*
G75*
G02*
X118752900Y-90541000I213900J0D01*
G01*
G37*
%TD.AperFunction*%
%TO.P,U5,13*%
%TO.N,Net-(U5-Pad13)*%
%TA.AperFunction,SMDPad,CuDef*%
G36*
G01*
X117482900Y-90541000D02*
X117985100Y-90541000D01*
G75*
G02*
X118199000Y-90754900I0J-213900D01*
G01*
X118199000Y-91777100D01*
G75*
G02*
X117985100Y-91991000I-213900J0D01*
G01*
X117482900Y-91991000D01*
G75*
G02*
X117269000Y-91777100I0J213900D01*
G01*
X117269000Y-90754900D01*
G75*
G02*
X117482900Y-90541000I213900J0D01*
G01*
G37*
%TD.AperFunction*%
%TO.P,U5,14*%
%TO.N,Net-(U5-Pad14)*%
%TA.AperFunction,SMDPad,CuDef*%
G36*
G01*
X116212900Y-90541000D02*
X116715100Y-90541000D01*
G75*
G02*
X116929000Y-90754900I0J-213900D01*
G01*
X116929000Y-91777100D01*
G75*
G02*
X116715100Y-91991000I-213900J0D01*
G01*
X116212900Y-91991000D01*
G75*
G02*
X115999000Y-91777100I0J213900D01*
G01*
X115999000Y-90754900D01*
G75*
G02*
X116212900Y-90541000I213900J0D01*
G01*
G37*
%TD.AperFunction*%
%TO.P,U5,15*%
%TO.N,GND*%
%TA.AperFunction,SMDPad,CuDef*%
G36*
G01*
X114942900Y-90541000D02*
X115445100Y-90541000D01*
G75*
G02*
X115659000Y-90754900I0J-213900D01*
G01*
X115659000Y-91777100D01*
G75*
G02*
X115445100Y-91991000I-213900J0D01*
G01*
X114942900Y-91991000D01*
G75*
G02*
X114729000Y-91777100I0J213900D01*
G01*
X114729000Y-90754900D01*
G75*
G02*
X114942900Y-90541000I213900J0D01*
G01*
G37*
%TD.AperFunction*%
%TO.P,U5,16*%
%TO.N,Net-(U5-Pad16)*%
%TA.AperFunction,SMDPad,CuDef*%
G36*
G01*
X113672900Y-90541000D02*
X114175100Y-90541000D01*
G75*
G02*
X114389000Y-90754900I0J-213900D01*
G01*
X114389000Y-91777100D01*
G75*
G02*
X114175100Y-91991000I-213900J0D01*
G01*
X113672900Y-91991000D01*
G75*
G02*
X113459000Y-91777100I0J213900D01*
G01*
X113459000Y-90754900D01*
G75*
G02*
X113672900Y-90541000I213900J0D01*
G01*
G37*
%TD.AperFunction*%
%TO.P,U5,17*%
%TO.N,N/C*%
%TA.AperFunction,SMDPad,CuDef*%
G36*
G01*
X112402900Y-90541000D02*
X112905100Y-90541000D01*
G75*
G02*
X113119000Y-90754900I0J-213900D01*
G01*
X113119000Y-91777100D01*
G75*
G02*
X112905100Y-91991000I-213900J0D01*
G01*
X112402900Y-91991000D01*
G75*
G02*
X112189000Y-91777100I0J213900D01*
G01*
X112189000Y-90754900D01*
G75*
G02*
X112402900Y-90541000I213900J0D01*
G01*
G37*
%TD.AperFunction*%
%TO.P,U5,18*%
%TA.AperFunction,SMDPad,CuDef*%
G36*
G01*
X111132900Y-90541000D02*
X111635100Y-90541000D01*
G75*
G02*
X111849000Y-90754900I0J-213900D01*
G01*
X111849000Y-91777100D01*
G75*
G02*
X111635100Y-91991000I-213900J0D01*
G01*
X111132900Y-91991000D01*
G75*
G02*
X110919000Y-91777100I0J213900D01*
G01*
X110919000Y-90754900D01*
G75*
G02*
X111132900Y-90541000I213900J0D01*
G01*
G37*
%TD.AperFunction*%
%TO.P,U5,19*%
%TA.AperFunction,SMDPad,CuDef*%
G36*
G01*
X109862900Y-90541000D02*
X110365100Y-90541000D01*
G75*
G02*
X110579000Y-90754900I0J-213900D01*
G01*
X110579000Y-91777100D01*
G75*
G02*
X110365100Y-91991000I-213900J0D01*
G01*
X109862900Y-91991000D01*
G75*
G02*
X109649000Y-91777100I0J213900D01*
G01*
X109649000Y-90754900D01*
G75*
G02*
X109862900Y-90541000I213900J0D01*
G01*
G37*
%TD.AperFunction*%
%TO.P,U5,20*%
%TA.AperFunction,SMDPad,CuDef*%
G36*
G01*
X109862900Y-108161000D02*
X110365100Y-108161000D01*
G75*
G02*
X110579000Y-108374900I0J-213900D01*
G01*
X110579000Y-109397100D01*
G75*
G02*
X110365100Y-109611000I-213900J0D01*
G01*
X109862900Y-109611000D01*
G75*
G02*
X109649000Y-109397100I0J213900D01*
G01*
X109649000Y-108374900D01*
G75*
G02*
X109862900Y-108161000I213900J0D01*
G01*
G37*
%TD.AperFunction*%
%TO.P,U5,21*%
%TA.AperFunction,SMDPad,CuDef*%
G36*
G01*
X111132900Y-108161000D02*
X111635100Y-108161000D01*
G75*
G02*
X111849000Y-108374900I0J-213900D01*
G01*
X111849000Y-109397100D01*
G75*
G02*
X111635100Y-109611000I-213900J0D01*
G01*
X111132900Y-109611000D01*
G75*
G02*
X110919000Y-109397100I0J213900D01*
G01*
X110919000Y-108374900D01*
G75*
G02*
X111132900Y-108161000I213900J0D01*
G01*
G37*
%TD.AperFunction*%
%TO.P,U5,22*%
%TA.AperFunction,SMDPad,CuDef*%
G36*
G01*
X112402900Y-108161000D02*
X112905100Y-108161000D01*
G75*
G02*
X113119000Y-108374900I0J-213900D01*
G01*
X113119000Y-109397100D01*
G75*
G02*
X112905100Y-109611000I-213900J0D01*
G01*
X112402900Y-109611000D01*
G75*
G02*
X112189000Y-109397100I0J213900D01*
G01*
X112189000Y-108374900D01*
G75*
G02*
X112402900Y-108161000I213900J0D01*
G01*
G37*
%TD.AperFunction*%
%TO.P,U5,23*%
%TO.N,Net-(U5-Pad23)*%
%TA.AperFunction,SMDPad,CuDef*%
G36*
G01*
X113672900Y-108161000D02*
X114175100Y-108161000D01*
G75*
G02*
X114389000Y-108374900I0J-213900D01*
G01*
X114389000Y-109397100D01*
G75*
G02*
X114175100Y-109611000I-213900J0D01*
G01*
X113672900Y-109611000D01*
G75*
G02*
X113459000Y-109397100I0J213900D01*
G01*
X113459000Y-108374900D01*
G75*
G02*
X113672900Y-108161000I213900J0D01*
G01*
G37*
%TD.AperFunction*%
%TO.P,U5,24*%
%TO.N,/I2C0_SDA*%
%TA.AperFunction,SMDPad,CuDef*%
G36*
G01*
X114942900Y-108161000D02*
X115445100Y-108161000D01*
G75*
G02*
X115659000Y-108374900I0J-213900D01*
G01*
X115659000Y-109397100D01*
G75*
G02*
X115445100Y-109611000I-213900J0D01*
G01*
X114942900Y-109611000D01*
G75*
G02*
X114729000Y-109397100I0J213900D01*
G01*
X114729000Y-108374900D01*
G75*
G02*
X114942900Y-108161000I213900J0D01*
G01*
G37*
%TD.AperFunction*%
%TO.P,U5,25*%
%TO.N,/GPIO0*%
%TA.AperFunction,SMDPad,CuDef*%
G36*
G01*
X116212900Y-108161000D02*
X116715100Y-108161000D01*
G75*
G02*
X116929000Y-108374900I0J-213900D01*
G01*
X116929000Y-109397100D01*
G75*
G02*
X116715100Y-109611000I-213900J0D01*
G01*
X116212900Y-109611000D01*
G75*
G02*
X115999000Y-109397100I0J213900D01*
G01*
X115999000Y-108374900D01*
G75*
G02*
X116212900Y-108161000I213900J0D01*
G01*
G37*
%TD.AperFunction*%
%TO.P,U5,26*%
%TO.N,/I2C0_SCL*%
%TA.AperFunction,SMDPad,CuDef*%
G36*
G01*
X117482900Y-108161000D02*
X117985100Y-108161000D01*
G75*
G02*
X118199000Y-108374900I0J-213900D01*
G01*
X118199000Y-109397100D01*
G75*
G02*
X117985100Y-109611000I-213900J0D01*
G01*
X117482900Y-109611000D01*
G75*
G02*
X117269000Y-109397100I0J213900D01*
G01*
X117269000Y-108374900D01*
G75*
G02*
X117482900Y-108161000I213900J0D01*
G01*
G37*
%TD.AperFunction*%
%TO.P,U5,27*%
%TO.N,N/C*%
%TA.AperFunction,SMDPad,CuDef*%
G36*
G01*
X118752900Y-108161000D02*
X119255100Y-108161000D01*
G75*
G02*
X119469000Y-108374900I0J-213900D01*
G01*
X119469000Y-109397100D01*
G75*
G02*
X119255100Y-109611000I-213900J0D01*
G01*
X118752900Y-109611000D01*
G75*
G02*
X118539000Y-109397100I0J213900D01*
G01*
X118539000Y-108374900D01*
G75*
G02*
X118752900Y-108161000I213900J0D01*
G01*
G37*
%TD.AperFunction*%
%TO.P,U5,28*%
%TA.AperFunction,SMDPad,CuDef*%
G36*
G01*
X120022900Y-108161000D02*
X120525100Y-108161000D01*
G75*
G02*
X120739000Y-108374900I0J-213900D01*
G01*
X120739000Y-109397100D01*
G75*
G02*
X120525100Y-109611000I-213900J0D01*
G01*
X120022900Y-109611000D01*
G75*
G02*
X119809000Y-109397100I0J213900D01*
G01*
X119809000Y-108374900D01*
G75*
G02*
X120022900Y-108161000I213900J0D01*
G01*
G37*
%TD.AperFunction*%
%TO.P,U5,29*%
%TO.N,/SPI3_CS0*%
%TA.AperFunction,SMDPad,CuDef*%
G36*
G01*
X121292900Y-108161000D02*
X121795100Y-108161000D01*
G75*
G02*
X122009000Y-108374900I0J-213900D01*
G01*
X122009000Y-109397100D01*
G75*
G02*
X121795100Y-109611000I-213900J0D01*
G01*
X121292900Y-109611000D01*
G75*
G02*
X121079000Y-109397100I0J213900D01*
G01*
X121079000Y-108374900D01*
G75*
G02*
X121292900Y-108161000I213900J0D01*
G01*
G37*
%TD.AperFunction*%
%TO.P,U5,30*%
%TO.N,/SPI3_CLK*%
%TA.AperFunction,SMDPad,CuDef*%
G36*
G01*
X122562900Y-108161000D02*
X123065100Y-108161000D01*
G75*
G02*
X123279000Y-108374900I0J-213900D01*
G01*
X123279000Y-109397100D01*
G75*
G02*
X123065100Y-109611000I-213900J0D01*
G01*
X122562900Y-109611000D01*
G75*
G02*
X122349000Y-109397100I0J213900D01*
G01*
X122349000Y-108374900D01*
G75*
G02*
X122562900Y-108161000I213900J0D01*
G01*
G37*
%TD.AperFunction*%
%TO.P,U5,31*%
%TO.N,/SPI3_D0*%
%TA.AperFunction,SMDPad,CuDef*%
G36*
G01*
X123832900Y-108161000D02*
X124335100Y-108161000D01*
G75*
G02*
X124549000Y-108374900I0J-213900D01*
G01*
X124549000Y-109397100D01*
G75*
G02*
X124335100Y-109611000I-213900J0D01*
G01*
X123832900Y-109611000D01*
G75*
G02*
X123619000Y-109397100I0J213900D01*
G01*
X123619000Y-108374900D01*
G75*
G02*
X123832900Y-108161000I213900J0D01*
G01*
G37*
%TD.AperFunction*%
%TO.P,U5,32*%
%TO.N,N/C*%
%TA.AperFunction,SMDPad,CuDef*%
G36*
G01*
X125102900Y-108161000D02*
X125605100Y-108161000D01*
G75*
G02*
X125819000Y-108374900I0J-213900D01*
G01*
X125819000Y-109397100D01*
G75*
G02*
X125605100Y-109611000I-213900J0D01*
G01*
X125102900Y-109611000D01*
G75*
G02*
X124889000Y-109397100I0J213900D01*
G01*
X124889000Y-108374900D01*
G75*
G02*
X125102900Y-108161000I213900J0D01*
G01*
G37*
%TD.AperFunction*%
%TO.P,U5,33*%
%TO.N,/SPI3_D2*%
%TA.AperFunction,SMDPad,CuDef*%
G36*
G01*
X126372900Y-108161000D02*
X126875100Y-108161000D01*
G75*
G02*
X127089000Y-108374900I0J-213900D01*
G01*
X127089000Y-109397100D01*
G75*
G02*
X126875100Y-109611000I-213900J0D01*
G01*
X126372900Y-109611000D01*
G75*
G02*
X126159000Y-109397100I0J213900D01*
G01*
X126159000Y-108374900D01*
G75*
G02*
X126372900Y-108161000I213900J0D01*
G01*
G37*
%TD.AperFunction*%
%TO.P,U5,34*%
%TO.N,/ESP_RX*%
%TA.AperFunction,SMDPad,CuDef*%
G36*
G01*
X127642900Y-108161000D02*
X128145100Y-108161000D01*
G75*
G02*
X128359000Y-108374900I0J-213900D01*
G01*
X128359000Y-109397100D01*
G75*
G02*
X128145100Y-109611000I-213900J0D01*
G01*
X127642900Y-109611000D01*
G75*
G02*
X127429000Y-109397100I0J213900D01*
G01*
X127429000Y-108374900D01*
G75*
G02*
X127642900Y-108161000I213900J0D01*
G01*
G37*
%TD.AperFunction*%
%TO.P,U5,35*%
%TO.N,/ESP_TX*%
%TA.AperFunction,SMDPad,CuDef*%
G36*
G01*
X128912900Y-108161000D02*
X129415100Y-108161000D01*
G75*
G02*
X129629000Y-108374900I0J-213900D01*
G01*
X129629000Y-109397100D01*
G75*
G02*
X129415100Y-109611000I-213900J0D01*
G01*
X128912900Y-109611000D01*
G75*
G02*
X128699000Y-109397100I0J213900D01*
G01*
X128699000Y-108374900D01*
G75*
G02*
X128912900Y-108161000I213900J0D01*
G01*
G37*
%TD.AperFunction*%
%TO.P,U5,36*%
%TO.N,/SPI3_D3*%
%TA.AperFunction,SMDPad,CuDef*%
G36*
G01*
X130182900Y-108161000D02*
X130685100Y-108161000D01*
G75*
G02*
X130899000Y-108374900I0J-213900D01*
G01*
X130899000Y-109397100D01*
G75*
G02*
X130685100Y-109611000I-213900J0D01*
G01*
X130182900Y-109611000D01*
G75*
G02*
X129969000Y-109397100I0J213900D01*
G01*
X129969000Y-108374900D01*
G75*
G02*
X130182900Y-108161000I213900J0D01*
G01*
G37*
%TD.AperFunction*%
%TO.P,U5,37*%
%TO.N,/SPI3_D1*%
%TA.AperFunction,SMDPad,CuDef*%
G36*
G01*
X131452900Y-108161000D02*
X131955100Y-108161000D01*
G75*
G02*
X132169000Y-108374900I0J-213900D01*
G01*
X132169000Y-109397100D01*
G75*
G02*
X131955100Y-109611000I-213900J0D01*
G01*
X131452900Y-109611000D01*
G75*
G02*
X131239000Y-109397100I0J213900D01*
G01*
X131239000Y-108374900D01*
G75*
G02*
X131452900Y-108161000I213900J0D01*
G01*
G37*
%TD.AperFunction*%
%TO.P,U5,38*%
%TO.N,GND*%
%TA.AperFunction,SMDPad,CuDef*%
G36*
G01*
X132722900Y-108161000D02*
X133225100Y-108161000D01*
G75*
G02*
X133439000Y-108374900I0J-213900D01*
G01*
X133439000Y-109397100D01*
G75*
G02*
X133225100Y-109611000I-213900J0D01*
G01*
X132722900Y-109611000D01*
G75*
G02*
X132509000Y-109397100I0J213900D01*
G01*
X132509000Y-108374900D01*
G75*
G02*
X132722900Y-108161000I213900J0D01*
G01*
G37*
%TD.AperFunction*%
D11*
%TO.P,U5,39*%
X125184000Y-98696000D03*
%TD*%
%TO.P,R5,2*%
%TO.N,/RESET*%
%TA.AperFunction,SMDPad,CuDef*%
G36*
G01*
X129519000Y-88563000D02*
X130069000Y-88563000D01*
G75*
G02*
X130269000Y-88763000I0J-200000D01*
G01*
X130269000Y-89163000D01*
G75*
G02*
X130069000Y-89363000I-200000J0D01*
G01*
X129519000Y-89363000D01*
G75*
G02*
X129319000Y-89163000I0J200000D01*
G01*
X129319000Y-88763000D01*
G75*
G02*
X129519000Y-88563000I200000J0D01*
G01*
G37*
%TD.AperFunction*%
%TO.P,R5,1*%
%TO.N,/REG_3V3*%
%TA.AperFunction,SMDPad,CuDef*%
G36*
G01*
X129519000Y-86913000D02*
X130069000Y-86913000D01*
G75*
G02*
X130269000Y-87113000I0J-200000D01*
G01*
X130269000Y-87513000D01*
G75*
G02*
X130069000Y-87713000I-200000J0D01*
G01*
X129519000Y-87713000D01*
G75*
G02*
X129319000Y-87513000I0J200000D01*
G01*
X129319000Y-87113000D01*
G75*
G02*
X129519000Y-86913000I200000J0D01*
G01*
G37*
%TD.AperFunction*%
%TD*%
%TO.P,C11,2*%
%TO.N,/REG_3V3*%
%TA.AperFunction,SMDPad,CuDef*%
G36*
G01*
X132009000Y-88650000D02*
X132009000Y-89150000D01*
G75*
G02*
X131784000Y-89375000I-225000J0D01*
G01*
X131334000Y-89375000D01*
G75*
G02*
X131109000Y-89150000I0J225000D01*
G01*
X131109000Y-88650000D01*
G75*
G02*
X131334000Y-88425000I225000J0D01*
G01*
X131784000Y-88425000D01*
G75*
G02*
X132009000Y-88650000I0J-225000D01*
G01*
G37*
%TD.AperFunction*%
%TO.P,C11,1*%
%TO.N,GND*%
%TA.AperFunction,SMDPad,CuDef*%
G36*
G01*
X133559000Y-88650000D02*
X133559000Y-89150000D01*
G75*
G02*
X133334000Y-89375000I-225000J0D01*
G01*
X132884000Y-89375000D01*
G75*
G02*
X132659000Y-89150000I0J225000D01*
G01*
X132659000Y-88650000D01*
G75*
G02*
X132884000Y-88425000I225000J0D01*
G01*
X133334000Y-88425000D01*
G75*
G02*
X133559000Y-88650000I0J-225000D01*
G01*
G37*
%TD.AperFunction*%
%TD*%
%TO.P,C10,2*%
%TO.N,/REG_3V3*%
%TA.AperFunction,SMDPad,CuDef*%
G36*
G01*
X132009000Y-86872000D02*
X132009000Y-87372000D01*
G75*
G02*
X131784000Y-87597000I-225000J0D01*
G01*
X131334000Y-87597000D01*
G75*
G02*
X131109000Y-87372000I0J225000D01*
G01*
X131109000Y-86872000D01*
G75*
G02*
X131334000Y-86647000I225000J0D01*
G01*
X131784000Y-86647000D01*
G75*
G02*
X132009000Y-86872000I0J-225000D01*
G01*
G37*
%TD.AperFunction*%
%TO.P,C10,1*%
%TO.N,GND*%
%TA.AperFunction,SMDPad,CuDef*%
G36*
G01*
X133559000Y-86872000D02*
X133559000Y-87372000D01*
G75*
G02*
X133334000Y-87597000I-225000J0D01*
G01*
X132884000Y-87597000D01*
G75*
G02*
X132659000Y-87372000I0J225000D01*
G01*
X132659000Y-86872000D01*
G75*
G02*
X132884000Y-86647000I225000J0D01*
G01*
X133334000Y-86647000D01*
G75*
G02*
X133559000Y-86872000I0J-225000D01*
G01*
G37*
%TD.AperFunction*%
%TD*%
D12*
%TO.P,SW1,2*%
%TO.N,GND*%
X92964000Y-78838000D03*
%TO.P,SW1,1*%
%TO.N,/RESET*%
X92964000Y-72038000D03*
%TD*%
%TO.P,R2,1*%
%TO.N,/ESP_TX*%
%TA.AperFunction,SMDPad,CuDef*%
G36*
G01*
X111273000Y-81743000D02*
X110723000Y-81743000D01*
G75*
G02*
X110523000Y-81543000I0J200000D01*
G01*
X110523000Y-81143000D01*
G75*
G02*
X110723000Y-80943000I200000J0D01*
G01*
X111273000Y-80943000D01*
G75*
G02*
X111473000Y-81143000I0J-200000D01*
G01*
X111473000Y-81543000D01*
G75*
G02*
X111273000Y-81743000I-200000J0D01*
G01*
G37*
%TD.AperFunction*%
%TO.P,R2,2*%
%TO.N,Net-(R2-Pad2)*%
%TA.AperFunction,SMDPad,CuDef*%
G36*
G01*
X111273000Y-80093000D02*
X110723000Y-80093000D01*
G75*
G02*
X110523000Y-79893000I0J200000D01*
G01*
X110523000Y-79493000D01*
G75*
G02*
X110723000Y-79293000I200000J0D01*
G01*
X111273000Y-79293000D01*
G75*
G02*
X111473000Y-79493000I0J-200000D01*
G01*
X111473000Y-79893000D01*
G75*
G02*
X111273000Y-80093000I-200000J0D01*
G01*
G37*
%TD.AperFunction*%
%TD*%
D13*
%TO.P,J1,6*%
%TO.N,Net-(J1-Pad6)*%
X110038000Y-61692000D03*
X117038000Y-61692000D03*
D14*
X110638000Y-61692000D03*
X116438000Y-61692000D03*
D15*
X112538000Y-61692000D03*
X114538000Y-61692000D03*
D16*
X111038000Y-64392000D03*
X116038000Y-64392000D03*
D17*
%TO.P,J1,5*%
%TO.N,GND*%
X112238000Y-64392000D03*
%TO.P,J1,4*%
%TO.N,Net-(J1-Pad4)*%
X112888000Y-64392000D03*
%TO.P,J1,3*%
%TO.N,/USB_CONN_D+*%
X113538000Y-64392000D03*
%TO.P,J1,2*%
%TO.N,/USB_CONN_D-*%
X114188000Y-64392000D03*
%TO.P,J1,1*%
%TO.N,/USB_5V*%
X114838000Y-64392000D03*
%TD*%
%TO.P,C1,1*%
%TO.N,/USB_5V*%
%TA.AperFunction,SMDPad,CuDef*%
G36*
G01*
X107741000Y-70354000D02*
X107741000Y-69854000D01*
G75*
G02*
X107966000Y-69629000I225000J0D01*
G01*
X108416000Y-69629000D01*
G75*
G02*
X108641000Y-69854000I0J-225000D01*
G01*
X108641000Y-70354000D01*
G75*
G02*
X108416000Y-70579000I-225000J0D01*
G01*
X107966000Y-70579000D01*
G75*
G02*
X107741000Y-70354000I0J225000D01*
G01*
G37*
%TD.AperFunction*%
%TO.P,C1,2*%
%TO.N,GND*%
%TA.AperFunction,SMDPad,CuDef*%
G36*
G01*
X109291000Y-70354000D02*
X109291000Y-69854000D01*
G75*
G02*
X109516000Y-69629000I225000J0D01*
G01*
X109966000Y-69629000D01*
G75*
G02*
X110191000Y-69854000I0J-225000D01*
G01*
X110191000Y-70354000D01*
G75*
G02*
X109966000Y-70579000I-225000J0D01*
G01*
X109516000Y-70579000D01*
G75*
G02*
X109291000Y-70354000I0J225000D01*
G01*
G37*
%TD.AperFunction*%
%TD*%
%TO.P,C2,2*%
%TO.N,Net-(C2-Pad2)*%
%TA.AperFunction,SMDPad,CuDef*%
G36*
G01*
X113213000Y-79506000D02*
X113213000Y-80006000D01*
G75*
G02*
X112988000Y-80231000I-225000J0D01*
G01*
X112538000Y-80231000D01*
G75*
G02*
X112313000Y-80006000I0J225000D01*
G01*
X112313000Y-79506000D01*
G75*
G02*
X112538000Y-79281000I225000J0D01*
G01*
X112988000Y-79281000D01*
G75*
G02*
X113213000Y-79506000I0J-225000D01*
G01*
G37*
%TD.AperFunction*%
%TO.P,C2,1*%
%TO.N,GND*%
%TA.AperFunction,SMDPad,CuDef*%
G36*
G01*
X114763000Y-79506000D02*
X114763000Y-80006000D01*
G75*
G02*
X114538000Y-80231000I-225000J0D01*
G01*
X114088000Y-80231000D01*
G75*
G02*
X113863000Y-80006000I0J225000D01*
G01*
X113863000Y-79506000D01*
G75*
G02*
X114088000Y-79281000I225000J0D01*
G01*
X114538000Y-79281000D01*
G75*
G02*
X114763000Y-79506000I0J-225000D01*
G01*
G37*
%TD.AperFunction*%
%TD*%
%TO.P,C3,1*%
%TO.N,/CH_XI*%
%TA.AperFunction,SMDPad,CuDef*%
G36*
G01*
X118409000Y-74672000D02*
X118409000Y-74172000D01*
G75*
G02*
X118634000Y-73947000I225000J0D01*
G01*
X119084000Y-73947000D01*
G75*
G02*
X119309000Y-74172000I0J-225000D01*
G01*
X119309000Y-74672000D01*
G75*
G02*
X119084000Y-74897000I-225000J0D01*
G01*
X118634000Y-74897000D01*
G75*
G02*
X118409000Y-74672000I0J225000D01*
G01*
G37*
%TD.AperFunction*%
%TO.P,C3,2*%
%TO.N,GND*%
%TA.AperFunction,SMDPad,CuDef*%
G36*
G01*
X119959000Y-74672000D02*
X119959000Y-74172000D01*
G75*
G02*
X120184000Y-73947000I225000J0D01*
G01*
X120634000Y-73947000D01*
G75*
G02*
X120859000Y-74172000I0J-225000D01*
G01*
X120859000Y-74672000D01*
G75*
G02*
X120634000Y-74897000I-225000J0D01*
G01*
X120184000Y-74897000D01*
G75*
G02*
X119959000Y-74672000I0J225000D01*
G01*
G37*
%TD.AperFunction*%
%TD*%
%TO.P,C4,2*%
%TO.N,GND*%
%TA.AperFunction,SMDPad,CuDef*%
G36*
G01*
X119309000Y-80268000D02*
X119309000Y-80768000D01*
G75*
G02*
X119084000Y-80993000I-225000J0D01*
G01*
X118634000Y-80993000D01*
G75*
G02*
X118409000Y-80768000I0J225000D01*
G01*
X118409000Y-80268000D01*
G75*
G02*
X118634000Y-80043000I225000J0D01*
G01*
X119084000Y-80043000D01*
G75*
G02*
X119309000Y-80268000I0J-225000D01*
G01*
G37*
%TD.AperFunction*%
%TO.P,C4,1*%
%TO.N,/CH_XO*%
%TA.AperFunction,SMDPad,CuDef*%
G36*
G01*
X120859000Y-80268000D02*
X120859000Y-80768000D01*
G75*
G02*
X120634000Y-80993000I-225000J0D01*
G01*
X120184000Y-80993000D01*
G75*
G02*
X119959000Y-80768000I0J225000D01*
G01*
X119959000Y-80268000D01*
G75*
G02*
X120184000Y-80043000I225000J0D01*
G01*
X120634000Y-80043000D01*
G75*
G02*
X120859000Y-80268000I0J-225000D01*
G01*
G37*
%TD.AperFunction*%
%TD*%
%TO.P,C5,1*%
%TO.N,Net-(C5-Pad1)*%
%TA.AperFunction,SMDPad,CuDef*%
G36*
G01*
X101301000Y-61472000D02*
X101301000Y-61972000D01*
G75*
G02*
X101076000Y-62197000I-225000J0D01*
G01*
X100626000Y-62197000D01*
G75*
G02*
X100401000Y-61972000I0J225000D01*
G01*
X100401000Y-61472000D01*
G75*
G02*
X100626000Y-61247000I225000J0D01*
G01*
X101076000Y-61247000D01*
G75*
G02*
X101301000Y-61472000I0J-225000D01*
G01*
G37*
%TD.AperFunction*%
%TO.P,C5,2*%
%TO.N,GND*%
%TA.AperFunction,SMDPad,CuDef*%
G36*
G01*
X99751000Y-61472000D02*
X99751000Y-61972000D01*
G75*
G02*
X99526000Y-62197000I-225000J0D01*
G01*
X99076000Y-62197000D01*
G75*
G02*
X98851000Y-61972000I0J225000D01*
G01*
X98851000Y-61472000D01*
G75*
G02*
X99076000Y-61247000I225000J0D01*
G01*
X99526000Y-61247000D01*
G75*
G02*
X99751000Y-61472000I0J-225000D01*
G01*
G37*
%TD.AperFunction*%
%TD*%
%TO.P,C6,2*%
%TO.N,GND*%
%TA.AperFunction,SMDPad,CuDef*%
G36*
G01*
X92452000Y-65461000D02*
X91952000Y-65461000D01*
G75*
G02*
X91727000Y-65236000I0J225000D01*
G01*
X91727000Y-64786000D01*
G75*
G02*
X91952000Y-64561000I225000J0D01*
G01*
X92452000Y-64561000D01*
G75*
G02*
X92677000Y-64786000I0J-225000D01*
G01*
X92677000Y-65236000D01*
G75*
G02*
X92452000Y-65461000I-225000J0D01*
G01*
G37*
%TD.AperFunction*%
%TO.P,C6,1*%
%TO.N,/REG_3V3*%
%TA.AperFunction,SMDPad,CuDef*%
G36*
G01*
X92452000Y-67011000D02*
X91952000Y-67011000D01*
G75*
G02*
X91727000Y-66786000I0J225000D01*
G01*
X91727000Y-66336000D01*
G75*
G02*
X91952000Y-66111000I225000J0D01*
G01*
X92452000Y-66111000D01*
G75*
G02*
X92677000Y-66336000I0J-225000D01*
G01*
X92677000Y-66786000D01*
G75*
G02*
X92452000Y-67011000I-225000J0D01*
G01*
G37*
%TD.AperFunction*%
%TD*%
%TO.P,C7,2*%
%TO.N,GND*%
%TA.AperFunction,SMDPad,CuDef*%
G36*
G01*
X96016000Y-91765000D02*
X96516000Y-91765000D01*
G75*
G02*
X96741000Y-91990000I0J-225000D01*
G01*
X96741000Y-92440000D01*
G75*
G02*
X96516000Y-92665000I-225000J0D01*
G01*
X96016000Y-92665000D01*
G75*
G02*
X95791000Y-92440000I0J225000D01*
G01*
X95791000Y-91990000D01*
G75*
G02*
X96016000Y-91765000I225000J0D01*
G01*
G37*
%TD.AperFunction*%
%TO.P,C7,1*%
%TO.N,Net-(C7-Pad1)*%
%TA.AperFunction,SMDPad,CuDef*%
G36*
G01*
X96016000Y-90215000D02*
X96516000Y-90215000D01*
G75*
G02*
X96741000Y-90440000I0J-225000D01*
G01*
X96741000Y-90890000D01*
G75*
G02*
X96516000Y-91115000I-225000J0D01*
G01*
X96016000Y-91115000D01*
G75*
G02*
X95791000Y-90890000I0J225000D01*
G01*
X95791000Y-90440000D01*
G75*
G02*
X96016000Y-90215000I225000J0D01*
G01*
G37*
%TD.AperFunction*%
%TD*%
%TO.P,C8,2*%
%TO.N,GND*%
%TA.AperFunction,SMDPad,CuDef*%
G36*
G01*
X118368000Y-88209000D02*
X118868000Y-88209000D01*
G75*
G02*
X119093000Y-88434000I0J-225000D01*
G01*
X119093000Y-88884000D01*
G75*
G02*
X118868000Y-89109000I-225000J0D01*
G01*
X118368000Y-89109000D01*
G75*
G02*
X118143000Y-88884000I0J225000D01*
G01*
X118143000Y-88434000D01*
G75*
G02*
X118368000Y-88209000I225000J0D01*
G01*
G37*
%TD.AperFunction*%
%TO.P,C8,1*%
%TO.N,/REG_3V3*%
%TA.AperFunction,SMDPad,CuDef*%
G36*
G01*
X118368000Y-86659000D02*
X118868000Y-86659000D01*
G75*
G02*
X119093000Y-86884000I0J-225000D01*
G01*
X119093000Y-87334000D01*
G75*
G02*
X118868000Y-87559000I-225000J0D01*
G01*
X118368000Y-87559000D01*
G75*
G02*
X118143000Y-87334000I0J225000D01*
G01*
X118143000Y-86884000D01*
G75*
G02*
X118368000Y-86659000I225000J0D01*
G01*
G37*
%TD.AperFunction*%
%TD*%
%TO.P,C9,2*%
%TO.N,GND*%
%TA.AperFunction,SMDPad,CuDef*%
G36*
G01*
X114737000Y-82300000D02*
X114737000Y-82800000D01*
G75*
G02*
X114512000Y-83025000I-225000J0D01*
G01*
X114062000Y-83025000D01*
G75*
G02*
X113837000Y-82800000I0J225000D01*
G01*
X113837000Y-82300000D01*
G75*
G02*
X114062000Y-82075000I225000J0D01*
G01*
X114512000Y-82075000D01*
G75*
G02*
X114737000Y-82300000I0J-225000D01*
G01*
G37*
%TD.AperFunction*%
%TO.P,C9,1*%
%TO.N,/REG_3V3*%
%TA.AperFunction,SMDPad,CuDef*%
G36*
G01*
X116287000Y-82300000D02*
X116287000Y-82800000D01*
G75*
G02*
X116062000Y-83025000I-225000J0D01*
G01*
X115612000Y-83025000D01*
G75*
G02*
X115387000Y-82800000I0J225000D01*
G01*
X115387000Y-82300000D01*
G75*
G02*
X115612000Y-82075000I225000J0D01*
G01*
X116062000Y-82075000D01*
G75*
G02*
X116287000Y-82300000I0J-225000D01*
G01*
G37*
%TD.AperFunction*%
%TD*%
%TO.P,C12,1*%
%TO.N,Net-(C12-Pad1)*%
%TA.AperFunction,SMDPad,CuDef*%
G36*
G01*
X118868000Y-86061000D02*
X118368000Y-86061000D01*
G75*
G02*
X118143000Y-85836000I0J225000D01*
G01*
X118143000Y-85386000D01*
G75*
G02*
X118368000Y-85161000I225000J0D01*
G01*
X118868000Y-85161000D01*
G75*
G02*
X119093000Y-85386000I0J-225000D01*
G01*
X119093000Y-85836000D01*
G75*
G02*
X118868000Y-86061000I-225000J0D01*
G01*
G37*
%TD.AperFunction*%
%TO.P,C12,2*%
%TO.N,GND*%
%TA.AperFunction,SMDPad,CuDef*%
G36*
G01*
X118868000Y-84511000D02*
X118368000Y-84511000D01*
G75*
G02*
X118143000Y-84286000I0J225000D01*
G01*
X118143000Y-83836000D01*
G75*
G02*
X118368000Y-83611000I225000J0D01*
G01*
X118868000Y-83611000D01*
G75*
G02*
X119093000Y-83836000I0J-225000D01*
G01*
X119093000Y-84286000D01*
G75*
G02*
X118868000Y-84511000I-225000J0D01*
G01*
G37*
%TD.AperFunction*%
%TD*%
%TO.P,C13,1*%
%TO.N,Net-(C13-Pad1)*%
%TA.AperFunction,SMDPad,CuDef*%
G36*
G01*
X110748000Y-84881000D02*
X111248000Y-84881000D01*
G75*
G02*
X111473000Y-85106000I0J-225000D01*
G01*
X111473000Y-85556000D01*
G75*
G02*
X111248000Y-85781000I-225000J0D01*
G01*
X110748000Y-85781000D01*
G75*
G02*
X110523000Y-85556000I0J225000D01*
G01*
X110523000Y-85106000D01*
G75*
G02*
X110748000Y-84881000I225000J0D01*
G01*
G37*
%TD.AperFunction*%
%TO.P,C13,2*%
%TO.N,GND*%
%TA.AperFunction,SMDPad,CuDef*%
G36*
G01*
X110748000Y-86431000D02*
X111248000Y-86431000D01*
G75*
G02*
X111473000Y-86656000I0J-225000D01*
G01*
X111473000Y-87106000D01*
G75*
G02*
X111248000Y-87331000I-225000J0D01*
G01*
X110748000Y-87331000D01*
G75*
G02*
X110523000Y-87106000I0J225000D01*
G01*
X110523000Y-86656000D01*
G75*
G02*
X110748000Y-86431000I225000J0D01*
G01*
G37*
%TD.AperFunction*%
%TD*%
%TO.P,C14,1*%
%TO.N,/REG_3V3*%
%TA.AperFunction,SMDPad,CuDef*%
G36*
G01*
X90977000Y-97024000D02*
X90977000Y-96524000D01*
G75*
G02*
X91202000Y-96299000I225000J0D01*
G01*
X91652000Y-96299000D01*
G75*
G02*
X91877000Y-96524000I0J-225000D01*
G01*
X91877000Y-97024000D01*
G75*
G02*
X91652000Y-97249000I-225000J0D01*
G01*
X91202000Y-97249000D01*
G75*
G02*
X90977000Y-97024000I0J225000D01*
G01*
G37*
%TD.AperFunction*%
%TO.P,C14,2*%
%TO.N,GND*%
%TA.AperFunction,SMDPad,CuDef*%
G36*
G01*
X92527000Y-97024000D02*
X92527000Y-96524000D01*
G75*
G02*
X92752000Y-96299000I225000J0D01*
G01*
X93202000Y-96299000D01*
G75*
G02*
X93427000Y-96524000I0J-225000D01*
G01*
X93427000Y-97024000D01*
G75*
G02*
X93202000Y-97249000I-225000J0D01*
G01*
X92752000Y-97249000D01*
G75*
G02*
X92527000Y-97024000I0J225000D01*
G01*
G37*
%TD.AperFunction*%
%TD*%
%TO.P,D2,1*%
%TO.N,GND*%
%TA.AperFunction,SMDPad,CuDef*%
G36*
G01*
X91437750Y-80817000D02*
X91950250Y-80817000D01*
G75*
G02*
X92169000Y-81035750I0J-218750D01*
G01*
X92169000Y-81473250D01*
G75*
G02*
X91950250Y-81692000I-218750J0D01*
G01*
X91437750Y-81692000D01*
G75*
G02*
X91219000Y-81473250I0J218750D01*
G01*
X91219000Y-81035750D01*
G75*
G02*
X91437750Y-80817000I218750J0D01*
G01*
G37*
%TD.AperFunction*%
%TO.P,D2,2*%
%TO.N,Net-(D2-Pad2)*%
%TA.AperFunction,SMDPad,CuDef*%
G36*
G01*
X91437750Y-82392000D02*
X91950250Y-82392000D01*
G75*
G02*
X92169000Y-82610750I0J-218750D01*
G01*
X92169000Y-83048250D01*
G75*
G02*
X91950250Y-83267000I-218750J0D01*
G01*
X91437750Y-83267000D01*
G75*
G02*
X91219000Y-83048250I0J218750D01*
G01*
X91219000Y-82610750D01*
G75*
G02*
X91437750Y-82392000I218750J0D01*
G01*
G37*
%TD.AperFunction*%
%TD*%
%TO.P,F1,1*%
%TO.N,Net-(C5-Pad1)*%
%TA.AperFunction,SMDPad,CuDef*%
G36*
G01*
X103232000Y-63653000D02*
X104032000Y-63653000D01*
G75*
G02*
X104282000Y-63903000I0J-250000D01*
G01*
X104282000Y-64728000D01*
G75*
G02*
X104032000Y-64978000I-250000J0D01*
G01*
X103232000Y-64978000D01*
G75*
G02*
X102982000Y-64728000I0J250000D01*
G01*
X102982000Y-63903000D01*
G75*
G02*
X103232000Y-63653000I250000J0D01*
G01*
G37*
%TD.AperFunction*%
%TO.P,F1,2*%
%TO.N,/USB_5V*%
%TA.AperFunction,SMDPad,CuDef*%
G36*
G01*
X103232000Y-65578000D02*
X104032000Y-65578000D01*
G75*
G02*
X104282000Y-65828000I0J-250000D01*
G01*
X104282000Y-66653000D01*
G75*
G02*
X104032000Y-66903000I-250000J0D01*
G01*
X103232000Y-66903000D01*
G75*
G02*
X102982000Y-66653000I0J250000D01*
G01*
X102982000Y-65828000D01*
G75*
G02*
X103232000Y-65578000I250000J0D01*
G01*
G37*
%TD.AperFunction*%
%TD*%
D18*
%TO.P,J2,CD1*%
%TO.N,GND*%
X137868000Y-75568000D03*
D19*
%TO.P,J2,G4*%
X123568000Y-64968000D03*
%TO.P,J2,G3*%
X139068000Y-64968000D03*
D20*
%TO.P,J2,G2*%
X139068000Y-74568000D03*
D21*
%TO.P,J2,G1*%
X124468000Y-74568000D03*
D18*
%TO.P,J2,8*%
%TO.N,/SPI3_D1*%
X136768000Y-75568000D03*
%TO.P,J2,7*%
%TO.N,/SPI3_D0*%
X135668000Y-75568000D03*
%TO.P,J2,6*%
%TO.N,GND*%
X134568000Y-75568000D03*
%TO.P,J2,5*%
%TO.N,/SPI3_CLK*%
X133468000Y-75568000D03*
%TO.P,J2,4*%
%TO.N,/REG_3V3*%
X132368000Y-75568000D03*
%TO.P,J2,3*%
%TO.N,/SPI3_CS0*%
X131268000Y-75568000D03*
%TO.P,J2,2*%
%TO.N,/SPI3_D3*%
X130168000Y-75568000D03*
%TO.P,J2,1*%
%TO.N,/SPI3_D2*%
X129068000Y-75568000D03*
%TD*%
D22*
%TO.P,Q1,1*%
%TO.N,/IR_SEND*%
X97216000Y-81296000D03*
%TO.P,Q1,2*%
%TO.N,Net-(Q1-Pad2)*%
X95316000Y-81296000D03*
%TO.P,Q1,3*%
%TO.N,/REG_3V3*%
X96266000Y-83296000D03*
%TD*%
%TO.P,Q2,1*%
%TO.N,Net-(Q2-Pad1)*%
X104206000Y-73644000D03*
%TO.P,Q2,2*%
%TO.N,/CH_RTS*%
X106106000Y-73644000D03*
%TO.P,Q2,3*%
%TO.N,/RESET*%
X105156000Y-71644000D03*
%TD*%
%TO.P,Q3,3*%
%TO.N,/GPIO0*%
X105156000Y-80756000D03*
%TO.P,Q3,2*%
%TO.N,/CH_DTR*%
X104206000Y-78756000D03*
%TO.P,Q3,1*%
%TO.N,Net-(Q3-Pad1)*%
X106106000Y-78756000D03*
%TD*%
%TO.P,R1,2*%
%TO.N,Net-(R1-Pad2)*%
%TA.AperFunction,SMDPad,CuDef*%
G36*
G01*
X109241000Y-80093000D02*
X108691000Y-80093000D01*
G75*
G02*
X108491000Y-79893000I0J200000D01*
G01*
X108491000Y-79493000D01*
G75*
G02*
X108691000Y-79293000I200000J0D01*
G01*
X109241000Y-79293000D01*
G75*
G02*
X109441000Y-79493000I0J-200000D01*
G01*
X109441000Y-79893000D01*
G75*
G02*
X109241000Y-80093000I-200000J0D01*
G01*
G37*
%TD.AperFunction*%
%TO.P,R1,1*%
%TO.N,/ESP_RX*%
%TA.AperFunction,SMDPad,CuDef*%
G36*
G01*
X109241000Y-81743000D02*
X108691000Y-81743000D01*
G75*
G02*
X108491000Y-81543000I0J200000D01*
G01*
X108491000Y-81143000D01*
G75*
G02*
X108691000Y-80943000I200000J0D01*
G01*
X109241000Y-80943000D01*
G75*
G02*
X109441000Y-81143000I0J-200000D01*
G01*
X109441000Y-81543000D01*
G75*
G02*
X109241000Y-81743000I-200000J0D01*
G01*
G37*
%TD.AperFunction*%
%TD*%
%TO.P,R3,1*%
%TO.N,Net-(C7-Pad1)*%
%TA.AperFunction,SMDPad,CuDef*%
G36*
G01*
X97769000Y-90215000D02*
X98319000Y-90215000D01*
G75*
G02*
X98519000Y-90415000I0J-200000D01*
G01*
X98519000Y-90815000D01*
G75*
G02*
X98319000Y-91015000I-200000J0D01*
G01*
X97769000Y-91015000D01*
G75*
G02*
X97569000Y-90815000I0J200000D01*
G01*
X97569000Y-90415000D01*
G75*
G02*
X97769000Y-90215000I200000J0D01*
G01*
G37*
%TD.AperFunction*%
%TO.P,R3,2*%
%TO.N,/REG_3V3*%
%TA.AperFunction,SMDPad,CuDef*%
G36*
G01*
X97769000Y-91865000D02*
X98319000Y-91865000D01*
G75*
G02*
X98519000Y-92065000I0J-200000D01*
G01*
X98519000Y-92465000D01*
G75*
G02*
X98319000Y-92665000I-200000J0D01*
G01*
X97769000Y-92665000D01*
G75*
G02*
X97569000Y-92465000I0J200000D01*
G01*
X97569000Y-92065000D01*
G75*
G02*
X97769000Y-91865000I200000J0D01*
G01*
G37*
%TD.AperFunction*%
%TD*%
%TO.P,R4,1*%
%TO.N,Net-(D2-Pad2)*%
%TA.AperFunction,SMDPad,CuDef*%
G36*
G01*
X93747000Y-83267000D02*
X93197000Y-83267000D01*
G75*
G02*
X92997000Y-83067000I0J200000D01*
G01*
X92997000Y-82667000D01*
G75*
G02*
X93197000Y-82467000I200000J0D01*
G01*
X93747000Y-82467000D01*
G75*
G02*
X93947000Y-82667000I0J-200000D01*
G01*
X93947000Y-83067000D01*
G75*
G02*
X93747000Y-83267000I-200000J0D01*
G01*
G37*
%TD.AperFunction*%
%TO.P,R4,2*%
%TO.N,Net-(Q1-Pad2)*%
%TA.AperFunction,SMDPad,CuDef*%
G36*
G01*
X93747000Y-81617000D02*
X93197000Y-81617000D01*
G75*
G02*
X92997000Y-81417000I0J200000D01*
G01*
X92997000Y-81017000D01*
G75*
G02*
X93197000Y-80817000I200000J0D01*
G01*
X93747000Y-80817000D01*
G75*
G02*
X93947000Y-81017000I0J-200000D01*
G01*
X93947000Y-81417000D01*
G75*
G02*
X93747000Y-81617000I-200000J0D01*
G01*
G37*
%TD.AperFunction*%
%TD*%
%TO.P,R6,2*%
%TO.N,Net-(Q2-Pad1)*%
%TA.AperFunction,SMDPad,CuDef*%
G36*
G01*
X104415000Y-75775000D02*
X103865000Y-75775000D01*
G75*
G02*
X103665000Y-75575000I0J200000D01*
G01*
X103665000Y-75175000D01*
G75*
G02*
X103865000Y-74975000I200000J0D01*
G01*
X104415000Y-74975000D01*
G75*
G02*
X104615000Y-75175000I0J-200000D01*
G01*
X104615000Y-75575000D01*
G75*
G02*
X104415000Y-75775000I-200000J0D01*
G01*
G37*
%TD.AperFunction*%
%TO.P,R6,1*%
%TO.N,/CH_DTR*%
%TA.AperFunction,SMDPad,CuDef*%
G36*
G01*
X104415000Y-77425000D02*
X103865000Y-77425000D01*
G75*
G02*
X103665000Y-77225000I0J200000D01*
G01*
X103665000Y-76825000D01*
G75*
G02*
X103865000Y-76625000I200000J0D01*
G01*
X104415000Y-76625000D01*
G75*
G02*
X104615000Y-76825000I0J-200000D01*
G01*
X104615000Y-77225000D01*
G75*
G02*
X104415000Y-77425000I-200000J0D01*
G01*
G37*
%TD.AperFunction*%
%TD*%
%TO.P,R7,2*%
%TO.N,/REG_3V3*%
%TA.AperFunction,SMDPad,CuDef*%
G36*
G01*
X106509000Y-104881000D02*
X106509000Y-105431000D01*
G75*
G02*
X106309000Y-105631000I-200000J0D01*
G01*
X105909000Y-105631000D01*
G75*
G02*
X105709000Y-105431000I0J200000D01*
G01*
X105709000Y-104881000D01*
G75*
G02*
X105909000Y-104681000I200000J0D01*
G01*
X106309000Y-104681000D01*
G75*
G02*
X106509000Y-104881000I0J-200000D01*
G01*
G37*
%TD.AperFunction*%
%TO.P,R7,1*%
%TO.N,/I2C0_SCL*%
%TA.AperFunction,SMDPad,CuDef*%
G36*
G01*
X108159000Y-104881000D02*
X108159000Y-105431000D01*
G75*
G02*
X107959000Y-105631000I-200000J0D01*
G01*
X107559000Y-105631000D01*
G75*
G02*
X107359000Y-105431000I0J200000D01*
G01*
X107359000Y-104881000D01*
G75*
G02*
X107559000Y-104681000I200000J0D01*
G01*
X107959000Y-104681000D01*
G75*
G02*
X108159000Y-104881000I0J-200000D01*
G01*
G37*
%TD.AperFunction*%
%TD*%
%TO.P,R9,1*%
%TO.N,/REG_3V3*%
%TA.AperFunction,SMDPad,CuDef*%
G36*
G01*
X105709000Y-107209000D02*
X105709000Y-106659000D01*
G75*
G02*
X105909000Y-106459000I200000J0D01*
G01*
X106309000Y-106459000D01*
G75*
G02*
X106509000Y-106659000I0J-200000D01*
G01*
X106509000Y-107209000D01*
G75*
G02*
X106309000Y-107409000I-200000J0D01*
G01*
X105909000Y-107409000D01*
G75*
G02*
X105709000Y-107209000I0J200000D01*
G01*
G37*
%TD.AperFunction*%
%TO.P,R9,2*%
%TO.N,/I2C0_SDA*%
%TA.AperFunction,SMDPad,CuDef*%
G36*
G01*
X107359000Y-107209000D02*
X107359000Y-106659000D01*
G75*
G02*
X107559000Y-106459000I200000J0D01*
G01*
X107959000Y-106459000D01*
G75*
G02*
X108159000Y-106659000I0J-200000D01*
G01*
X108159000Y-107209000D01*
G75*
G02*
X107959000Y-107409000I-200000J0D01*
G01*
X107559000Y-107409000D01*
G75*
G02*
X107359000Y-107209000I0J200000D01*
G01*
G37*
%TD.AperFunction*%
%TD*%
%TO.P,R8,1*%
%TO.N,/CH_RTS*%
%TA.AperFunction,SMDPad,CuDef*%
G36*
G01*
X105897000Y-74975000D02*
X106447000Y-74975000D01*
G75*
G02*
X106647000Y-75175000I0J-200000D01*
G01*
X106647000Y-75575000D01*
G75*
G02*
X106447000Y-75775000I-200000J0D01*
G01*
X105897000Y-75775000D01*
G75*
G02*
X105697000Y-75575000I0J200000D01*
G01*
X105697000Y-75175000D01*
G75*
G02*
X105897000Y-74975000I200000J0D01*
G01*
G37*
%TD.AperFunction*%
%TO.P,R8,2*%
%TO.N,Net-(Q3-Pad1)*%
%TA.AperFunction,SMDPad,CuDef*%
G36*
G01*
X105897000Y-76625000D02*
X106447000Y-76625000D01*
G75*
G02*
X106647000Y-76825000I0J-200000D01*
G01*
X106647000Y-77225000D01*
G75*
G02*
X106447000Y-77425000I-200000J0D01*
G01*
X105897000Y-77425000D01*
G75*
G02*
X105697000Y-77225000I0J200000D01*
G01*
X105697000Y-76825000D01*
G75*
G02*
X105897000Y-76625000I200000J0D01*
G01*
G37*
%TD.AperFunction*%
%TD*%
D12*
%TO.P,SW2,1*%
%TO.N,/GPIO0*%
X98806000Y-78838000D03*
%TO.P,SW2,2*%
%TO.N,GND*%
X98806000Y-72038000D03*
%TD*%
D23*
%TO.P,U1,2*%
%TO.N,/REG_3V3*%
X94640000Y-66548000D03*
D24*
X100940000Y-66548000D03*
%TO.P,U1,3*%
%TO.N,Net-(C5-Pad1)*%
X100940000Y-64248000D03*
%TO.P,U1,1*%
%TO.N,GND*%
X100940000Y-68848000D03*
%TD*%
D25*
%TO.P,U2,1*%
%TO.N,/USB_D+*%
X112842000Y-69934000D03*
%TO.P,U2,2*%
%TO.N,GND*%
X113792000Y-69934000D03*
%TO.P,U2,3*%
%TO.N,/USB_D-*%
X114742000Y-69934000D03*
%TO.P,U2,4*%
%TO.N,/USB_CONN_D-*%
X114742000Y-67734000D03*
%TO.P,U2,6*%
%TO.N,/USB_CONN_D+*%
X112842000Y-67734000D03*
%TO.P,U2,5*%
%TO.N,/USB_5V*%
X113792000Y-67734000D03*
%TD*%
%TO.P,U3,1*%
%TO.N,GND*%
%TA.AperFunction,SMDPad,CuDef*%
G36*
G01*
X108227000Y-78380000D02*
X107927000Y-78380000D01*
G75*
G02*
X107777000Y-78230000I0J150000D01*
G01*
X107777000Y-76580000D01*
G75*
G02*
X107927000Y-76430000I150000J0D01*
G01*
X108227000Y-76430000D01*
G75*
G02*
X108377000Y-76580000I0J-150000D01*
G01*
X108377000Y-78230000D01*
G75*
G02*
X108227000Y-78380000I-150000J0D01*
G01*
G37*
%TD.AperFunction*%
%TO.P,U3,2*%
%TO.N,Net-(R1-Pad2)*%
%TA.AperFunction,SMDPad,CuDef*%
G36*
G01*
X109497000Y-78380000D02*
X109197000Y-78380000D01*
G75*
G02*
X109047000Y-78230000I0J150000D01*
G01*
X109047000Y-76580000D01*
G75*
G02*
X109197000Y-76430000I150000J0D01*
G01*
X109497000Y-76430000D01*
G75*
G02*
X109647000Y-76580000I0J-150000D01*
G01*
X109647000Y-78230000D01*
G75*
G02*
X109497000Y-78380000I-150000J0D01*
G01*
G37*
%TD.AperFunction*%
%TO.P,U3,3*%
%TO.N,Net-(R2-Pad2)*%
%TA.AperFunction,SMDPad,CuDef*%
G36*
G01*
X110767000Y-78380000D02*
X110467000Y-78380000D01*
G75*
G02*
X110317000Y-78230000I0J150000D01*
G01*
X110317000Y-76580000D01*
G75*
G02*
X110467000Y-76430000I150000J0D01*
G01*
X110767000Y-76430000D01*
G75*
G02*
X110917000Y-76580000I0J-150000D01*
G01*
X110917000Y-78230000D01*
G75*
G02*
X110767000Y-78380000I-150000J0D01*
G01*
G37*
%TD.AperFunction*%
%TO.P,U3,4*%
%TO.N,Net-(C2-Pad2)*%
%TA.AperFunction,SMDPad,CuDef*%
G36*
G01*
X112037000Y-78380000D02*
X111737000Y-78380000D01*
G75*
G02*
X111587000Y-78230000I0J150000D01*
G01*
X111587000Y-76580000D01*
G75*
G02*
X111737000Y-76430000I150000J0D01*
G01*
X112037000Y-76430000D01*
G75*
G02*
X112187000Y-76580000I0J-150000D01*
G01*
X112187000Y-78230000D01*
G75*
G02*
X112037000Y-78380000I-150000J0D01*
G01*
G37*
%TD.AperFunction*%
%TO.P,U3,5*%
%TO.N,/USB_D+*%
%TA.AperFunction,SMDPad,CuDef*%
G36*
G01*
X113307000Y-78380000D02*
X113007000Y-78380000D01*
G75*
G02*
X112857000Y-78230000I0J150000D01*
G01*
X112857000Y-76580000D01*
G75*
G02*
X113007000Y-76430000I150000J0D01*
G01*
X113307000Y-76430000D01*
G75*
G02*
X113457000Y-76580000I0J-150000D01*
G01*
X113457000Y-78230000D01*
G75*
G02*
X113307000Y-78380000I-150000J0D01*
G01*
G37*
%TD.AperFunction*%
%TO.P,U3,6*%
%TO.N,/USB_D-*%
%TA.AperFunction,SMDPad,CuDef*%
G36*
G01*
X114577000Y-78380000D02*
X114277000Y-78380000D01*
G75*
G02*
X114127000Y-78230000I0J150000D01*
G01*
X114127000Y-76580000D01*
G75*
G02*
X114277000Y-76430000I150000J0D01*
G01*
X114577000Y-76430000D01*
G75*
G02*
X114727000Y-76580000I0J-150000D01*
G01*
X114727000Y-78230000D01*
G75*
G02*
X114577000Y-78380000I-150000J0D01*
G01*
G37*
%TD.AperFunction*%
%TO.P,U3,7*%
%TO.N,/CH_XI*%
%TA.AperFunction,SMDPad,CuDef*%
G36*
G01*
X115847000Y-78380000D02*
X115547000Y-78380000D01*
G75*
G02*
X115397000Y-78230000I0J150000D01*
G01*
X115397000Y-76580000D01*
G75*
G02*
X115547000Y-76430000I150000J0D01*
G01*
X115847000Y-76430000D01*
G75*
G02*
X115997000Y-76580000I0J-150000D01*
G01*
X115997000Y-78230000D01*
G75*
G02*
X115847000Y-78380000I-150000J0D01*
G01*
G37*
%TD.AperFunction*%
%TO.P,U3,8*%
%TO.N,/CH_XO*%
%TA.AperFunction,SMDPad,CuDef*%
G36*
G01*
X117117000Y-78380000D02*
X116817000Y-78380000D01*
G75*
G02*
X116667000Y-78230000I0J150000D01*
G01*
X116667000Y-76580000D01*
G75*
G02*
X116817000Y-76430000I150000J0D01*
G01*
X117117000Y-76430000D01*
G75*
G02*
X117267000Y-76580000I0J-150000D01*
G01*
X117267000Y-78230000D01*
G75*
G02*
X117117000Y-78380000I-150000J0D01*
G01*
G37*
%TD.AperFunction*%
%TO.P,U3,9*%
%TO.N,Net-(U3-Pad9)*%
%TA.AperFunction,SMDPad,CuDef*%
G36*
G01*
X117117000Y-73430000D02*
X116817000Y-73430000D01*
G75*
G02*
X116667000Y-73280000I0J150000D01*
G01*
X116667000Y-71630000D01*
G75*
G02*
X116817000Y-71480000I150000J0D01*
G01*
X117117000Y-71480000D01*
G75*
G02*
X117267000Y-71630000I0J-150000D01*
G01*
X117267000Y-73280000D01*
G75*
G02*
X117117000Y-73430000I-150000J0D01*
G01*
G37*
%TD.AperFunction*%
%TO.P,U3,10*%
%TO.N,Net-(U3-Pad10)*%
%TA.AperFunction,SMDPad,CuDef*%
G36*
G01*
X115847000Y-73430000D02*
X115547000Y-73430000D01*
G75*
G02*
X115397000Y-73280000I0J150000D01*
G01*
X115397000Y-71630000D01*
G75*
G02*
X115547000Y-71480000I150000J0D01*
G01*
X115847000Y-71480000D01*
G75*
G02*
X115997000Y-71630000I0J-150000D01*
G01*
X115997000Y-73280000D01*
G75*
G02*
X115847000Y-73430000I-150000J0D01*
G01*
G37*
%TD.AperFunction*%
%TO.P,U3,11*%
%TO.N,Net-(U3-Pad11)*%
%TA.AperFunction,SMDPad,CuDef*%
G36*
G01*
X114577000Y-73430000D02*
X114277000Y-73430000D01*
G75*
G02*
X114127000Y-73280000I0J150000D01*
G01*
X114127000Y-71630000D01*
G75*
G02*
X114277000Y-71480000I150000J0D01*
G01*
X114577000Y-71480000D01*
G75*
G02*
X114727000Y-71630000I0J-150000D01*
G01*
X114727000Y-73280000D01*
G75*
G02*
X114577000Y-73430000I-150000J0D01*
G01*
G37*
%TD.AperFunction*%
%TO.P,U3,12*%
%TO.N,Net-(U3-Pad12)*%
%TA.AperFunction,SMDPad,CuDef*%
G36*
G01*
X113307000Y-73430000D02*
X113007000Y-73430000D01*
G75*
G02*
X112857000Y-73280000I0J150000D01*
G01*
X112857000Y-71630000D01*
G75*
G02*
X113007000Y-71480000I150000J0D01*
G01*
X113307000Y-71480000D01*
G75*
G02*
X113457000Y-71630000I0J-150000D01*
G01*
X113457000Y-73280000D01*
G75*
G02*
X113307000Y-73430000I-150000J0D01*
G01*
G37*
%TD.AperFunction*%
%TO.P,U3,13*%
%TO.N,/CH_DTR*%
%TA.AperFunction,SMDPad,CuDef*%
G36*
G01*
X112037000Y-73430000D02*
X111737000Y-73430000D01*
G75*
G02*
X111587000Y-73280000I0J150000D01*
G01*
X111587000Y-71630000D01*
G75*
G02*
X111737000Y-71480000I150000J0D01*
G01*
X112037000Y-71480000D01*
G75*
G02*
X112187000Y-71630000I0J-150000D01*
G01*
X112187000Y-73280000D01*
G75*
G02*
X112037000Y-73430000I-150000J0D01*
G01*
G37*
%TD.AperFunction*%
%TO.P,U3,14*%
%TO.N,/CH_RTS*%
%TA.AperFunction,SMDPad,CuDef*%
G36*
G01*
X110767000Y-73430000D02*
X110467000Y-73430000D01*
G75*
G02*
X110317000Y-73280000I0J150000D01*
G01*
X110317000Y-71630000D01*
G75*
G02*
X110467000Y-71480000I150000J0D01*
G01*
X110767000Y-71480000D01*
G75*
G02*
X110917000Y-71630000I0J-150000D01*
G01*
X110917000Y-73280000D01*
G75*
G02*
X110767000Y-73430000I-150000J0D01*
G01*
G37*
%TD.AperFunction*%
%TO.P,U3,15*%
%TO.N,Net-(U3-Pad15)*%
%TA.AperFunction,SMDPad,CuDef*%
G36*
G01*
X109497000Y-73430000D02*
X109197000Y-73430000D01*
G75*
G02*
X109047000Y-73280000I0J150000D01*
G01*
X109047000Y-71630000D01*
G75*
G02*
X109197000Y-71480000I150000J0D01*
G01*
X109497000Y-71480000D01*
G75*
G02*
X109647000Y-71630000I0J-150000D01*
G01*
X109647000Y-73280000D01*
G75*
G02*
X109497000Y-73430000I-150000J0D01*
G01*
G37*
%TD.AperFunction*%
%TO.P,U3,16*%
%TO.N,/USB_5V*%
%TA.AperFunction,SMDPad,CuDef*%
G36*
G01*
X108227000Y-73430000D02*
X107927000Y-73430000D01*
G75*
G02*
X107777000Y-73280000I0J150000D01*
G01*
X107777000Y-71630000D01*
G75*
G02*
X107927000Y-71480000I150000J0D01*
G01*
X108227000Y-71480000D01*
G75*
G02*
X108377000Y-71630000I0J-150000D01*
G01*
X108377000Y-73280000D01*
G75*
G02*
X108227000Y-73430000I-150000J0D01*
G01*
G37*
%TD.AperFunction*%
%TD*%
%TO.P,U4,1*%
%TO.N,GND*%
%TA.AperFunction,SMDPad,CuDef*%
G36*
G01*
X113633000Y-88481000D02*
X113483000Y-88481000D01*
G75*
G02*
X113408000Y-88406000I0J75000D01*
G01*
X113408000Y-87706000D01*
G75*
G02*
X113483000Y-87631000I75000J0D01*
G01*
X113633000Y-87631000D01*
G75*
G02*
X113708000Y-87706000I0J-75000D01*
G01*
X113708000Y-88406000D01*
G75*
G02*
X113633000Y-88481000I-75000J0D01*
G01*
G37*
%TD.AperFunction*%
%TO.P,U4,2*%
%TO.N,N/C*%
%TA.AperFunction,SMDPad,CuDef*%
G36*
G01*
X114133000Y-88481000D02*
X113983000Y-88481000D01*
G75*
G02*
X113908000Y-88406000I0J75000D01*
G01*
X113908000Y-87706000D01*
G75*
G02*
X113983000Y-87631000I75000J0D01*
G01*
X114133000Y-87631000D01*
G75*
G02*
X114208000Y-87706000I0J-75000D01*
G01*
X114208000Y-88406000D01*
G75*
G02*
X114133000Y-88481000I-75000J0D01*
G01*
G37*
%TD.AperFunction*%
%TO.P,U4,3*%
%TA.AperFunction,SMDPad,CuDef*%
G36*
G01*
X114633000Y-88481000D02*
X114483000Y-88481000D01*
G75*
G02*
X114408000Y-88406000I0J75000D01*
G01*
X114408000Y-87706000D01*
G75*
G02*
X114483000Y-87631000I75000J0D01*
G01*
X114633000Y-87631000D01*
G75*
G02*
X114708000Y-87706000I0J-75000D01*
G01*
X114708000Y-88406000D01*
G75*
G02*
X114633000Y-88481000I-75000J0D01*
G01*
G37*
%TD.AperFunction*%
%TO.P,U4,4*%
%TA.AperFunction,SMDPad,CuDef*%
G36*
G01*
X115133000Y-88481000D02*
X114983000Y-88481000D01*
G75*
G02*
X114908000Y-88406000I0J75000D01*
G01*
X114908000Y-87706000D01*
G75*
G02*
X114983000Y-87631000I75000J0D01*
G01*
X115133000Y-87631000D01*
G75*
G02*
X115208000Y-87706000I0J-75000D01*
G01*
X115208000Y-88406000D01*
G75*
G02*
X115133000Y-88481000I-75000J0D01*
G01*
G37*
%TD.AperFunction*%
%TO.P,U4,5*%
%TA.AperFunction,SMDPad,CuDef*%
G36*
G01*
X115633000Y-88481000D02*
X115483000Y-88481000D01*
G75*
G02*
X115408000Y-88406000I0J75000D01*
G01*
X115408000Y-87706000D01*
G75*
G02*
X115483000Y-87631000I75000J0D01*
G01*
X115633000Y-87631000D01*
G75*
G02*
X115708000Y-87706000I0J-75000D01*
G01*
X115708000Y-88406000D01*
G75*
G02*
X115633000Y-88481000I-75000J0D01*
G01*
G37*
%TD.AperFunction*%
%TO.P,U4,6*%
%TO.N,Net-(U4-Pad6)*%
%TA.AperFunction,SMDPad,CuDef*%
G36*
G01*
X116133000Y-88481000D02*
X115983000Y-88481000D01*
G75*
G02*
X115908000Y-88406000I0J75000D01*
G01*
X115908000Y-87706000D01*
G75*
G02*
X115983000Y-87631000I75000J0D01*
G01*
X116133000Y-87631000D01*
G75*
G02*
X116208000Y-87706000I0J-75000D01*
G01*
X116208000Y-88406000D01*
G75*
G02*
X116133000Y-88481000I-75000J0D01*
G01*
G37*
%TD.AperFunction*%
%TO.P,U4,7*%
%TO.N,Net-(U4-Pad7)*%
%TA.AperFunction,SMDPad,CuDef*%
G36*
G01*
X117183000Y-87281000D02*
X117183000Y-87431000D01*
G75*
G02*
X117108000Y-87506000I-75000J0D01*
G01*
X116408000Y-87506000D01*
G75*
G02*
X116333000Y-87431000I0J75000D01*
G01*
X116333000Y-87281000D01*
G75*
G02*
X116408000Y-87206000I75000J0D01*
G01*
X117108000Y-87206000D01*
G75*
G02*
X117183000Y-87281000I0J-75000D01*
G01*
G37*
%TD.AperFunction*%
%TO.P,U4,8*%
%TO.N,/REG_3V3*%
%TA.AperFunction,SMDPad,CuDef*%
G36*
G01*
X117183000Y-86781000D02*
X117183000Y-86931000D01*
G75*
G02*
X117108000Y-87006000I-75000J0D01*
G01*
X116408000Y-87006000D01*
G75*
G02*
X116333000Y-86931000I0J75000D01*
G01*
X116333000Y-86781000D01*
G75*
G02*
X116408000Y-86706000I75000J0D01*
G01*
X117108000Y-86706000D01*
G75*
G02*
X117183000Y-86781000I0J-75000D01*
G01*
G37*
%TD.AperFunction*%
%TO.P,U4,9*%
%TO.N,GND*%
%TA.AperFunction,SMDPad,CuDef*%
G36*
G01*
X117183000Y-86281000D02*
X117183000Y-86431000D01*
G75*
G02*
X117108000Y-86506000I-75000J0D01*
G01*
X116408000Y-86506000D01*
G75*
G02*
X116333000Y-86431000I0J75000D01*
G01*
X116333000Y-86281000D01*
G75*
G02*
X116408000Y-86206000I75000J0D01*
G01*
X117108000Y-86206000D01*
G75*
G02*
X117183000Y-86281000I0J-75000D01*
G01*
G37*
%TD.AperFunction*%
%TO.P,U4,10*%
%TO.N,Net-(C12-Pad1)*%
%TA.AperFunction,SMDPad,CuDef*%
G36*
G01*
X117183000Y-85781000D02*
X117183000Y-85931000D01*
G75*
G02*
X117108000Y-86006000I-75000J0D01*
G01*
X116408000Y-86006000D01*
G75*
G02*
X116333000Y-85931000I0J75000D01*
G01*
X116333000Y-85781000D01*
G75*
G02*
X116408000Y-85706000I75000J0D01*
G01*
X117108000Y-85706000D01*
G75*
G02*
X117183000Y-85781000I0J-75000D01*
G01*
G37*
%TD.AperFunction*%
%TO.P,U4,11*%
%TO.N,GND*%
%TA.AperFunction,SMDPad,CuDef*%
G36*
G01*
X117183000Y-85281000D02*
X117183000Y-85431000D01*
G75*
G02*
X117108000Y-85506000I-75000J0D01*
G01*
X116408000Y-85506000D01*
G75*
G02*
X116333000Y-85431000I0J75000D01*
G01*
X116333000Y-85281000D01*
G75*
G02*
X116408000Y-85206000I75000J0D01*
G01*
X117108000Y-85206000D01*
G75*
G02*
X117183000Y-85281000I0J-75000D01*
G01*
G37*
%TD.AperFunction*%
%TO.P,U4,12*%
%TO.N,/MPU_INT*%
%TA.AperFunction,SMDPad,CuDef*%
G36*
G01*
X117183000Y-84781000D02*
X117183000Y-84931000D01*
G75*
G02*
X117108000Y-85006000I-75000J0D01*
G01*
X116408000Y-85006000D01*
G75*
G02*
X116333000Y-84931000I0J75000D01*
G01*
X116333000Y-84781000D01*
G75*
G02*
X116408000Y-84706000I75000J0D01*
G01*
X117108000Y-84706000D01*
G75*
G02*
X117183000Y-84781000I0J-75000D01*
G01*
G37*
%TD.AperFunction*%
%TO.P,U4,13*%
%TO.N,/REG_3V3*%
%TA.AperFunction,SMDPad,CuDef*%
G36*
G01*
X116133000Y-84581000D02*
X115983000Y-84581000D01*
G75*
G02*
X115908000Y-84506000I0J75000D01*
G01*
X115908000Y-83806000D01*
G75*
G02*
X115983000Y-83731000I75000J0D01*
G01*
X116133000Y-83731000D01*
G75*
G02*
X116208000Y-83806000I0J-75000D01*
G01*
X116208000Y-84506000D01*
G75*
G02*
X116133000Y-84581000I-75000J0D01*
G01*
G37*
%TD.AperFunction*%
%TO.P,U4,14*%
%TO.N,N/C*%
%TA.AperFunction,SMDPad,CuDef*%
G36*
G01*
X115633000Y-84581000D02*
X115483000Y-84581000D01*
G75*
G02*
X115408000Y-84506000I0J75000D01*
G01*
X115408000Y-83806000D01*
G75*
G02*
X115483000Y-83731000I75000J0D01*
G01*
X115633000Y-83731000D01*
G75*
G02*
X115708000Y-83806000I0J-75000D01*
G01*
X115708000Y-84506000D01*
G75*
G02*
X115633000Y-84581000I-75000J0D01*
G01*
G37*
%TD.AperFunction*%
%TO.P,U4,15*%
%TA.AperFunction,SMDPad,CuDef*%
G36*
G01*
X115133000Y-84581000D02*
X114983000Y-84581000D01*
G75*
G02*
X114908000Y-84506000I0J75000D01*
G01*
X114908000Y-83806000D01*
G75*
G02*
X114983000Y-83731000I75000J0D01*
G01*
X115133000Y-83731000D01*
G75*
G02*
X115208000Y-83806000I0J-75000D01*
G01*
X115208000Y-84506000D01*
G75*
G02*
X115133000Y-84581000I-75000J0D01*
G01*
G37*
%TD.AperFunction*%
%TO.P,U4,16*%
%TA.AperFunction,SMDPad,CuDef*%
G36*
G01*
X114633000Y-84581000D02*
X114483000Y-84581000D01*
G75*
G02*
X114408000Y-84506000I0J75000D01*
G01*
X114408000Y-83806000D01*
G75*
G02*
X114483000Y-83731000I75000J0D01*
G01*
X114633000Y-83731000D01*
G75*
G02*
X114708000Y-83806000I0J-75000D01*
G01*
X114708000Y-84506000D01*
G75*
G02*
X114633000Y-84581000I-75000J0D01*
G01*
G37*
%TD.AperFunction*%
%TO.P,U4,17*%
%TA.AperFunction,SMDPad,CuDef*%
G36*
G01*
X114133000Y-84581000D02*
X113983000Y-84581000D01*
G75*
G02*
X113908000Y-84506000I0J75000D01*
G01*
X113908000Y-83806000D01*
G75*
G02*
X113983000Y-83731000I75000J0D01*
G01*
X114133000Y-83731000D01*
G75*
G02*
X114208000Y-83806000I0J-75000D01*
G01*
X114208000Y-84506000D01*
G75*
G02*
X114133000Y-84581000I-75000J0D01*
G01*
G37*
%TD.AperFunction*%
%TO.P,U4,18*%
%TO.N,GND*%
%TA.AperFunction,SMDPad,CuDef*%
G36*
G01*
X113633000Y-84581000D02*
X113483000Y-84581000D01*
G75*
G02*
X113408000Y-84506000I0J75000D01*
G01*
X113408000Y-83806000D01*
G75*
G02*
X113483000Y-83731000I75000J0D01*
G01*
X113633000Y-83731000D01*
G75*
G02*
X113708000Y-83806000I0J-75000D01*
G01*
X113708000Y-84506000D01*
G75*
G02*
X113633000Y-84581000I-75000J0D01*
G01*
G37*
%TD.AperFunction*%
%TO.P,U4,19*%
%TO.N,N/C*%
%TA.AperFunction,SMDPad,CuDef*%
G36*
G01*
X113283000Y-84781000D02*
X113283000Y-84931000D01*
G75*
G02*
X113208000Y-85006000I-75000J0D01*
G01*
X112508000Y-85006000D01*
G75*
G02*
X112433000Y-84931000I0J75000D01*
G01*
X112433000Y-84781000D01*
G75*
G02*
X112508000Y-84706000I75000J0D01*
G01*
X113208000Y-84706000D01*
G75*
G02*
X113283000Y-84781000I0J-75000D01*
G01*
G37*
%TD.AperFunction*%
%TO.P,U4,20*%
%TO.N,Net-(C13-Pad1)*%
%TA.AperFunction,SMDPad,CuDef*%
G36*
G01*
X113283000Y-85281000D02*
X113283000Y-85431000D01*
G75*
G02*
X113208000Y-85506000I-75000J0D01*
G01*
X112508000Y-85506000D01*
G75*
G02*
X112433000Y-85431000I0J75000D01*
G01*
X112433000Y-85281000D01*
G75*
G02*
X112508000Y-85206000I75000J0D01*
G01*
X113208000Y-85206000D01*
G75*
G02*
X113283000Y-85281000I0J-75000D01*
G01*
G37*
%TD.AperFunction*%
%TO.P,U4,21*%
%TO.N,N/C*%
%TA.AperFunction,SMDPad,CuDef*%
G36*
G01*
X113283000Y-85781000D02*
X113283000Y-85931000D01*
G75*
G02*
X113208000Y-86006000I-75000J0D01*
G01*
X112508000Y-86006000D01*
G75*
G02*
X112433000Y-85931000I0J75000D01*
G01*
X112433000Y-85781000D01*
G75*
G02*
X112508000Y-85706000I75000J0D01*
G01*
X113208000Y-85706000D01*
G75*
G02*
X113283000Y-85781000I0J-75000D01*
G01*
G37*
%TD.AperFunction*%
%TO.P,U4,22*%
%TA.AperFunction,SMDPad,CuDef*%
G36*
G01*
X113283000Y-86281000D02*
X113283000Y-86431000D01*
G75*
G02*
X113208000Y-86506000I-75000J0D01*
G01*
X112508000Y-86506000D01*
G75*
G02*
X112433000Y-86431000I0J75000D01*
G01*
X112433000Y-86281000D01*
G75*
G02*
X112508000Y-86206000I75000J0D01*
G01*
X113208000Y-86206000D01*
G75*
G02*
X113283000Y-86281000I0J-75000D01*
G01*
G37*
%TD.AperFunction*%
%TO.P,U4,23*%
%TO.N,/I2C0_SCL*%
%TA.AperFunction,SMDPad,CuDef*%
G36*
G01*
X113283000Y-86781000D02*
X113283000Y-86931000D01*
G75*
G02*
X113208000Y-87006000I-75000J0D01*
G01*
X112508000Y-87006000D01*
G75*
G02*
X112433000Y-86931000I0J75000D01*
G01*
X112433000Y-86781000D01*
G75*
G02*
X112508000Y-86706000I75000J0D01*
G01*
X113208000Y-86706000D01*
G75*
G02*
X113283000Y-86781000I0J-75000D01*
G01*
G37*
%TD.AperFunction*%
%TO.P,U4,24*%
%TO.N,/I2C0_SDA*%
%TA.AperFunction,SMDPad,CuDef*%
G36*
G01*
X113283000Y-87281000D02*
X113283000Y-87431000D01*
G75*
G02*
X113208000Y-87506000I-75000J0D01*
G01*
X112508000Y-87506000D01*
G75*
G02*
X112433000Y-87431000I0J75000D01*
G01*
X112433000Y-87281000D01*
G75*
G02*
X112508000Y-87206000I75000J0D01*
G01*
X113208000Y-87206000D01*
G75*
G02*
X113283000Y-87281000I0J-75000D01*
G01*
G37*
%TD.AperFunction*%
%TD*%
%TA.AperFunction,SMDPad,CuDef*%
D26*
%TO.P,U6,9*%
%TO.N,GND*%
G36*
X91956000Y-98464000D02*
G01*
X92956000Y-98464000D01*
X92956000Y-99864000D01*
X92656000Y-100164000D01*
X91956000Y-100164000D01*
X91956000Y-98464000D01*
G37*
%TD.AperFunction*%
D27*
%TO.P,U6,8*%
X91281000Y-100064000D03*
%TO.P,U6,7*%
X91281000Y-99564000D03*
%TO.P,U6,6*%
%TO.N,Net-(U6-Pad6)*%
X91281000Y-99064000D03*
%TO.P,U6,5*%
%TO.N,/REG_3V3*%
X91281000Y-98564000D03*
%TO.P,U6,4*%
%TO.N,/I2C0_SCL*%
X93631000Y-98564000D03*
%TO.P,U6,3*%
%TO.N,Net-(U6-Pad3)*%
X93631000Y-99064000D03*
%TO.P,U6,2*%
%TO.N,GND*%
X93631000Y-99564000D03*
%TO.P,U6,1*%
%TO.N,/I2C0_SDA*%
X93631000Y-100064000D03*
%TD*%
D28*
%TO.P,Y1,1*%
%TO.N,/CH_XI*%
X118784000Y-76370000D03*
%TO.P,Y1,2*%
%TO.N,GND*%
X118784000Y-78570000D03*
%TO.P,Y1,3*%
%TO.N,/CH_XO*%
X120484000Y-78570000D03*
%TO.P,Y1,4*%
%TO.N,GND*%
X120484000Y-76370000D03*
%TD*%
D29*
%TO.N,GND*%
X124714000Y-99060000D03*
X125476000Y-98298000D03*
X124714000Y-98298000D03*
X125476000Y-99060000D03*
X124206000Y-100330000D03*
X124206000Y-99568000D03*
X124206000Y-97790000D03*
X125984000Y-97790000D03*
X125984000Y-99568000D03*
X125984000Y-100330000D03*
X126746000Y-99568000D03*
X126746000Y-97790000D03*
X125984000Y-97028000D03*
X124206000Y-97028000D03*
X123444000Y-97790000D03*
X123444000Y-99568000D03*
X126746000Y-100330000D03*
X123444000Y-100330000D03*
X126746000Y-97028000D03*
X123444000Y-97028000D03*
X98552000Y-61722000D03*
X92202000Y-64262000D03*
X102348000Y-68848000D03*
X99581968Y-68847968D03*
X98806000Y-71120000D03*
X92964000Y-79756000D03*
X91694000Y-80518000D03*
X110490000Y-70104000D03*
X113792000Y-70866000D03*
X112238009Y-63470009D03*
X124516000Y-64968000D03*
X138120028Y-64968000D03*
X125622000Y-74568000D03*
X138813960Y-75567960D03*
X134568000Y-76760046D03*
X133109000Y-86373000D03*
X132973979Y-90301979D03*
X132973978Y-92333978D03*
X115194023Y-92323965D03*
X132973995Y-107827995D03*
X93980000Y-96774000D03*
X92350000Y-94594000D03*
X93620000Y-94594000D03*
X96266000Y-92964000D03*
X113537994Y-83312006D03*
X118618000Y-83312000D03*
X110998000Y-87630000D03*
X118618000Y-89408000D03*
X113557986Y-88880014D03*
X117601982Y-85344000D03*
X117602000Y-86360000D03*
X108076983Y-76073017D03*
X121158000Y-74422000D03*
X121495996Y-76370000D03*
X118110000Y-80518000D03*
X117685962Y-78569990D03*
X92456000Y-101092000D03*
X91280945Y-101092000D03*
%TO.N,/REG_3V3*%
X96012000Y-66548000D03*
X99568000Y-66548000D03*
X97790000Y-66548000D03*
X93218000Y-66548000D03*
X91199014Y-66561014D03*
X94639991Y-64364009D03*
X94639984Y-68682022D03*
X132368000Y-74456000D03*
X115836993Y-81800993D03*
X119621014Y-87109014D03*
X116058000Y-83332000D03*
X96266000Y-82550000D03*
X98044000Y-92964000D03*
X91426995Y-96025005D03*
X105156000Y-105156000D03*
X105156000Y-106934000D03*
X131572000Y-90170000D03*
X131572000Y-86360000D03*
X130809968Y-87122000D03*
X131704019Y-92323981D03*
X117602000Y-87122000D03*
X91281000Y-97790000D03*
%TO.N,/SPI3_D1*%
X136768008Y-77607992D03*
X129734034Y-94234000D03*
%TO.N,/SPI3_D0*%
X135668000Y-77756012D03*
X128016000Y-94234000D03*
%TO.N,/SPI3_CLK*%
X133430571Y-77804569D03*
X122814000Y-94233994D03*
%TO.N,/SPI3_CS0*%
X131268004Y-77928012D03*
X121543997Y-94234004D03*
%TO.N,/SPI3_D3*%
X128778000Y-86360000D03*
X128778000Y-94234000D03*
%TO.N,/SPI3_D2*%
X127200001Y-85852000D03*
X126624008Y-103886000D03*
%TO.N,/GPIO0*%
X108204000Y-92202000D03*
X116463991Y-107827991D03*
%TO.N,/ESP_RX*%
X108966000Y-89408000D03*
X127893983Y-107310017D03*
%TO.N,/ESP_TX*%
X109982000Y-89408000D03*
X129164020Y-107320020D03*
%TO.N,/I2C0_SCL*%
X101866000Y-98564000D03*
X112014000Y-86868000D03*
%TO.N,/I2C0_SDA*%
X102369034Y-100064000D03*
X112857997Y-88392000D03*
%TO.N,/RESET*%
X105156000Y-72644000D03*
X122173998Y-85852000D03*
%TD*%
D30*
%TO.N,/USB_5V*%
X108077000Y-70218000D02*
X108191000Y-70104000D01*
X108077000Y-72455000D02*
X108077000Y-70218000D01*
X114838000Y-65605566D02*
X115824000Y-66591566D01*
X114838000Y-64392000D02*
X114838000Y-65605566D01*
X115824000Y-66591566D02*
X115824000Y-68326000D01*
X113792000Y-68324802D02*
X113792000Y-67734000D01*
X114112199Y-68645001D02*
X113792000Y-68324802D01*
X115504999Y-68645001D02*
X114112199Y-68645001D01*
X115824000Y-68326000D02*
X115504999Y-68645001D01*
X113792000Y-68326000D02*
X113472999Y-68645001D01*
X113792000Y-67734000D02*
X113792000Y-68326000D01*
X113472999Y-68645001D02*
X109649999Y-68645001D01*
X114112199Y-68645001D02*
X113472999Y-68645001D01*
X103632000Y-66240500D02*
X104594500Y-66240500D01*
X104594500Y-66240500D02*
X106999001Y-68645001D01*
X108191000Y-69205002D02*
X107630999Y-68645001D01*
X108191000Y-70104000D02*
X108191000Y-69205002D01*
X106999001Y-68645001D02*
X107630999Y-68645001D01*
X108191000Y-69205002D02*
X108217000Y-69205002D01*
X108777001Y-68645001D02*
X109649999Y-68645001D01*
X108217000Y-69205002D02*
X108777001Y-68645001D01*
X107630999Y-68645001D02*
X108777001Y-68645001D01*
%TO.N,GND*%
X99301000Y-61722000D02*
X98552000Y-61722000D01*
X92202000Y-65011000D02*
X92202000Y-64262000D01*
X100940000Y-68848000D02*
X102348000Y-68848000D01*
X100940000Y-68848000D02*
X99582000Y-68848000D01*
X99582000Y-68848000D02*
X99581968Y-68847968D01*
X98806000Y-72038000D02*
X98806000Y-71120000D01*
X92964000Y-78838000D02*
X92964000Y-78994000D01*
X92964000Y-78994000D02*
X92964000Y-79756000D01*
X91694000Y-81254500D02*
X91694000Y-80518000D01*
X109741000Y-70104000D02*
X110490000Y-70104000D01*
X113792000Y-69934000D02*
X113792000Y-70866000D01*
X112238000Y-64392000D02*
X112238000Y-63470018D01*
X112238000Y-63470018D02*
X112238009Y-63470009D01*
X123568000Y-64968000D02*
X124516000Y-64968000D01*
X139068000Y-64968000D02*
X138120028Y-64968000D01*
X124468000Y-74568000D02*
X125622000Y-74568000D01*
X139068000Y-74568000D02*
X139068000Y-75313920D01*
X139068000Y-75313920D02*
X138813960Y-75567960D01*
X137868000Y-75568000D02*
X138813920Y-75568000D01*
X138813920Y-75568000D02*
X138813960Y-75567960D01*
X134568000Y-75568000D02*
X134568000Y-76760046D01*
X133109000Y-87122000D02*
X133109000Y-88900000D01*
X133109000Y-87122000D02*
X133109000Y-86373000D01*
X132974000Y-91266000D02*
X132974000Y-90302000D01*
X132974000Y-90302000D02*
X132973979Y-90301979D01*
X132973979Y-89035021D02*
X133109000Y-88900000D01*
X132973979Y-90301979D02*
X132973979Y-89035021D01*
X132974000Y-91266000D02*
X132974000Y-92333956D01*
X132974000Y-92333956D02*
X132973978Y-92333978D01*
X115194000Y-91266000D02*
X115194000Y-92323942D01*
X115194000Y-92323942D02*
X115194023Y-92323965D01*
X132974000Y-108886000D02*
X132974000Y-107828000D01*
X132974000Y-107828000D02*
X132973995Y-107827995D01*
X91281000Y-99727000D02*
X91281000Y-99570001D01*
X91281000Y-100064000D02*
X91281000Y-99727000D01*
X92043000Y-99727000D02*
X91281000Y-99727000D01*
X92456000Y-99314000D02*
X92043000Y-99727000D01*
D31*
X92706000Y-99564000D02*
X93631000Y-99564000D01*
X92456000Y-99314000D02*
X92706000Y-99564000D01*
D30*
X92977000Y-96774000D02*
X93980000Y-96774000D01*
X91694000Y-94594000D02*
X92350000Y-94594000D01*
X92350000Y-94594000D02*
X93620000Y-94594000D01*
X93620000Y-94594000D02*
X94234000Y-94594000D01*
X96266000Y-92215000D02*
X96266000Y-92964000D01*
X114313000Y-82524000D02*
X114287000Y-82550000D01*
X114313000Y-79756000D02*
X114313000Y-82524000D01*
D31*
X113558000Y-84156000D02*
X113558000Y-83332012D01*
X113558000Y-83332012D02*
X113537994Y-83312006D01*
X113537994Y-83299006D02*
X114287000Y-82550000D01*
X113537994Y-83312006D02*
X113537994Y-83299006D01*
D30*
X118618000Y-84061000D02*
X118618000Y-83312000D01*
X110998000Y-86881000D02*
X110998000Y-87630000D01*
X118618000Y-88659000D02*
X118618000Y-89408000D01*
D31*
X113558000Y-88056000D02*
X113558000Y-88880000D01*
X113558000Y-88880000D02*
X113557986Y-88880014D01*
X116758000Y-85356000D02*
X117589982Y-85356000D01*
X117589982Y-85356000D02*
X117601982Y-85344000D01*
X117598000Y-86356000D02*
X117602000Y-86360000D01*
X116758000Y-86356000D02*
X117598000Y-86356000D01*
D30*
X108077000Y-77405000D02*
X108077000Y-76073034D01*
X108077000Y-76073034D02*
X108076983Y-76073017D01*
X120409000Y-74422000D02*
X121158000Y-74422000D01*
X120409000Y-76295000D02*
X120484000Y-76370000D01*
X120409000Y-74422000D02*
X120409000Y-76295000D01*
X120484000Y-76370000D02*
X121495996Y-76370000D01*
X118859000Y-78645000D02*
X118784000Y-78570000D01*
X118859000Y-80518000D02*
X118859000Y-78645000D01*
X118859000Y-80518000D02*
X118110000Y-80518000D01*
X118784000Y-78570000D02*
X117685972Y-78570000D01*
X117685972Y-78570000D02*
X117685962Y-78569990D01*
X92456000Y-99314000D02*
X92456000Y-101092000D01*
X91281000Y-100064000D02*
X91281000Y-101091945D01*
X91281000Y-101091945D02*
X91280945Y-101092000D01*
%TO.N,Net-(C2-Pad2)*%
X112763000Y-79743000D02*
X112763000Y-79756000D01*
X111887000Y-78867000D02*
X112763000Y-79743000D01*
X111887000Y-77405000D02*
X111887000Y-78867000D01*
D31*
%TO.N,/CH_XI*%
X118859000Y-76295000D02*
X118784000Y-76370000D01*
X118859000Y-74422000D02*
X118859000Y-76295000D01*
X118589990Y-76175990D02*
X118784000Y-76370000D01*
X115697000Y-76430000D02*
X115951010Y-76175990D01*
X115951010Y-76175990D02*
X118589990Y-76175990D01*
X115697000Y-77405000D02*
X115697000Y-76430000D01*
%TO.N,/CH_XO*%
X120484000Y-77761992D02*
X120484000Y-78570000D01*
X120127008Y-77405000D02*
X120484000Y-77761992D01*
X116967000Y-77405000D02*
X120127008Y-77405000D01*
X120409000Y-78645000D02*
X120484000Y-78570000D01*
X120409000Y-80518000D02*
X120409000Y-78645000D01*
%TO.N,Net-(C5-Pad1)*%
X101007500Y-64315500D02*
X100940000Y-64248000D01*
X103632000Y-64315500D02*
X101007500Y-64315500D01*
X100851000Y-64159000D02*
X100940000Y-64248000D01*
X100851000Y-61722000D02*
X100851000Y-64159000D01*
D30*
%TO.N,/REG_3V3*%
X94640000Y-66548000D02*
X96012000Y-66548000D01*
X96012000Y-66548000D02*
X97790000Y-66548000D01*
X99568000Y-66548000D02*
X100940000Y-66548000D01*
X97790000Y-66548000D02*
X99568000Y-66548000D01*
X92215000Y-66548000D02*
X92202000Y-66561000D01*
X94640000Y-66548000D02*
X93218000Y-66548000D01*
X93218000Y-66548000D02*
X92215000Y-66548000D01*
X92202000Y-66561000D02*
X91199028Y-66561000D01*
X91199028Y-66561000D02*
X91199014Y-66561014D01*
X94640000Y-66548000D02*
X94640000Y-64364018D01*
X94640000Y-64364018D02*
X94639991Y-64364009D01*
X94640000Y-68682006D02*
X94639984Y-68682022D01*
X94640000Y-66548000D02*
X94640000Y-68682006D01*
X132368000Y-75568000D02*
X132368000Y-74456000D01*
D31*
X116058000Y-82771000D02*
X116058000Y-83332000D01*
X115837000Y-82550000D02*
X116058000Y-82771000D01*
D30*
X115837000Y-82550000D02*
X115837000Y-81801000D01*
X115837000Y-81801000D02*
X115836993Y-81800993D01*
X118618000Y-87109000D02*
X119621000Y-87109000D01*
X119621000Y-87109000D02*
X119621014Y-87109014D01*
D31*
X116058000Y-83332000D02*
X116058000Y-84156000D01*
D30*
X96266000Y-83296000D02*
X96266000Y-82550000D01*
X98044000Y-92265000D02*
X98044000Y-92964000D01*
X91427000Y-96774000D02*
X91427000Y-96025010D01*
X91427000Y-96025010D02*
X91426995Y-96025005D01*
D31*
X91281000Y-97949000D02*
X91281000Y-97949000D01*
D30*
X106109000Y-105156000D02*
X105156000Y-105156000D01*
X106109000Y-106934000D02*
X105156000Y-106934000D01*
X131704000Y-90302000D02*
X131572000Y-90170000D01*
X131704000Y-91266000D02*
X131704000Y-90302000D01*
X131559000Y-90157000D02*
X131572000Y-90170000D01*
X131559000Y-88900000D02*
X131559000Y-90157000D01*
X131559000Y-88900000D02*
X131559000Y-87122000D01*
X131559000Y-86373000D02*
X131572000Y-86360000D01*
X131559000Y-87122000D02*
X131559000Y-86373000D01*
X130618968Y-87313000D02*
X130809968Y-87122000D01*
X131559000Y-87122000D02*
X130809968Y-87122000D01*
X129794000Y-87313000D02*
X130618968Y-87313000D01*
X131704000Y-91266000D02*
X131704000Y-92323962D01*
X131704000Y-92323962D02*
X131704019Y-92323981D01*
D31*
X116758000Y-86856000D02*
X117336000Y-86856000D01*
X117336000Y-86856000D02*
X117602000Y-87122000D01*
X118618000Y-87109000D02*
X117615000Y-87109000D01*
X117615000Y-87109000D02*
X117602000Y-87122000D01*
X91427000Y-97644000D02*
X91281000Y-97790000D01*
X91427000Y-96774000D02*
X91427000Y-97644000D01*
X91281000Y-98564000D02*
X91281000Y-97790000D01*
%TO.N,/IR_RECV*%
X126624000Y-92832000D02*
X126624000Y-91266000D01*
X107696000Y-93472000D02*
X125984000Y-93472000D01*
X125984000Y-93472000D02*
X126624000Y-92832000D01*
X103018000Y-88794000D02*
X107696000Y-93472000D01*
X94234000Y-88794000D02*
X103018000Y-88794000D01*
%TO.N,Net-(D2-Pad2)*%
X93434500Y-82829500D02*
X93472000Y-82867000D01*
X91694000Y-82829500D02*
X93434500Y-82829500D01*
%TO.N,/USB_CONN_D-*%
X114742000Y-66228000D02*
X114742000Y-67734000D01*
X114188000Y-65674000D02*
X114742000Y-66228000D01*
X114188000Y-64392000D02*
X114188000Y-65674000D01*
%TO.N,/USB_CONN_D+*%
X112842000Y-66482000D02*
X112842000Y-67734000D01*
X113538000Y-65786000D02*
X112842000Y-66482000D01*
X113538000Y-64392000D02*
X113538000Y-65786000D01*
D30*
%TO.N,Net-(J1-Pad6)*%
X110638000Y-61692000D02*
X116438000Y-61692000D01*
X110638000Y-63992000D02*
X111038000Y-64392000D01*
X110638000Y-61692000D02*
X110638000Y-63992000D01*
X116438000Y-63992000D02*
X116038000Y-64392000D01*
X116438000Y-61692000D02*
X116438000Y-63992000D01*
D31*
%TO.N,/SPI3_D1*%
X136768000Y-75568000D02*
X136768000Y-77607984D01*
X136768000Y-77607984D02*
X136768008Y-77607992D01*
X129734034Y-95190034D02*
X129734034Y-94234000D01*
X131704000Y-97160000D02*
X129734034Y-95190034D01*
X131704000Y-108886000D02*
X131704000Y-97160000D01*
%TO.N,/SPI3_D0*%
X135668000Y-75568000D02*
X135668000Y-77756012D01*
X124084000Y-108886000D02*
X124084000Y-105532000D01*
X124084000Y-105532000D02*
X128016000Y-101600000D01*
X128016000Y-101600000D02*
X128016000Y-94234000D01*
%TO.N,/SPI3_CLK*%
X133468000Y-75568000D02*
X133468000Y-77767140D01*
X133468000Y-77767140D02*
X133430571Y-77804569D01*
X122814000Y-108886000D02*
X122814000Y-94233994D01*
%TO.N,/SPI3_CS0*%
X131268000Y-75568000D02*
X131268000Y-77928008D01*
X131268000Y-77928008D02*
X131268004Y-77928012D01*
X121544000Y-108886000D02*
X121544000Y-94234007D01*
X121544000Y-94234007D02*
X121543997Y-94234004D01*
%TO.N,/SPI3_D3*%
X130168000Y-84970000D02*
X128778000Y-86360000D01*
X130168000Y-75568000D02*
X130168000Y-84970000D01*
X128778000Y-95758000D02*
X128778000Y-94234000D01*
X130434000Y-97414000D02*
X128778000Y-95758000D01*
X130434000Y-108886000D02*
X130434000Y-97414000D01*
%TO.N,/SPI3_D2*%
X129068000Y-83984001D02*
X127200001Y-85852000D01*
X129068000Y-75568000D02*
X129068000Y-83984001D01*
X126624000Y-108886000D02*
X126624000Y-103886008D01*
X126624000Y-103886008D02*
X126624008Y-103886000D01*
%TO.N,/IR_SEND*%
X124084000Y-92324000D02*
X124084000Y-91266000D01*
X123444000Y-92964000D02*
X124084000Y-92324000D01*
X107950000Y-92964000D02*
X123444000Y-92964000D01*
X97216000Y-82230000D02*
X107950000Y-92964000D01*
X97216000Y-81296000D02*
X97216000Y-82230000D01*
%TO.N,Net-(Q2-Pad1)*%
X104206000Y-75309000D02*
X104140000Y-75375000D01*
X104206000Y-73644000D02*
X104206000Y-75309000D01*
%TO.N,/CH_RTS*%
X106106000Y-75309000D02*
X106172000Y-75375000D01*
X106106000Y-73644000D02*
X106106000Y-75309000D01*
X110617000Y-73430000D02*
X110617000Y-72455000D01*
X110362990Y-73684010D02*
X110617000Y-73430000D01*
X106146010Y-73684010D02*
X110362990Y-73684010D01*
X106106000Y-73644000D02*
X106146010Y-73684010D01*
%TO.N,/GPIO0*%
X98806000Y-78838000D02*
X101444000Y-78838000D01*
X103362000Y-80756000D02*
X105156000Y-80756000D01*
X101444000Y-78838000D02*
X103362000Y-80756000D01*
X105156000Y-89154000D02*
X108204000Y-92202000D01*
X105156000Y-80756000D02*
X105156000Y-89154000D01*
X116464000Y-108886000D02*
X116464000Y-107828000D01*
X116464000Y-107828000D02*
X116463991Y-107827991D01*
%TO.N,/CH_DTR*%
X104206000Y-77091000D02*
X104140000Y-77025000D01*
X104206000Y-78756000D02*
X104206000Y-77091000D01*
X104215907Y-77025000D02*
X104140000Y-77025000D01*
X106680000Y-76200000D02*
X105040907Y-76200000D01*
X107696000Y-75184000D02*
X106680000Y-76200000D01*
X105040907Y-76200000D02*
X104215907Y-77025000D01*
X110133000Y-75184000D02*
X107696000Y-75184000D01*
X111887000Y-73430000D02*
X110133000Y-75184000D01*
X111887000Y-72455000D02*
X111887000Y-73430000D01*
%TO.N,Net-(Q3-Pad1)*%
X106106000Y-77091000D02*
X106172000Y-77025000D01*
X106106000Y-78756000D02*
X106106000Y-77091000D01*
%TO.N,Net-(R1-Pad2)*%
X109347000Y-77405000D02*
X109347000Y-78613000D01*
X108966000Y-78994000D02*
X108966000Y-79693000D01*
X109347000Y-78613000D02*
X108966000Y-78994000D01*
%TO.N,/ESP_RX*%
X108966000Y-81343000D02*
X108966000Y-89408000D01*
X127894000Y-108886000D02*
X127894000Y-107310034D01*
X127894000Y-107310034D02*
X127893983Y-107310017D01*
%TO.N,/ESP_TX*%
X109982000Y-83312000D02*
X109982000Y-89408000D01*
X110998000Y-82296000D02*
X109982000Y-83312000D01*
X110998000Y-81343000D02*
X110998000Y-82296000D01*
X129164000Y-108886000D02*
X129164000Y-107320040D01*
X129164000Y-107320040D02*
X129164020Y-107320020D01*
%TO.N,Net-(R2-Pad2)*%
X110617000Y-77405000D02*
X110617000Y-78613000D01*
X110998000Y-78994000D02*
X110998000Y-79693000D01*
X110617000Y-78613000D02*
X110998000Y-78994000D01*
%TO.N,/I2C0_SCL*%
X117734000Y-107574000D02*
X117734000Y-108886000D01*
X115316000Y-105156000D02*
X117734000Y-107574000D01*
X107759000Y-105156000D02*
X115316000Y-105156000D01*
X107759000Y-105156000D02*
X107759000Y-104457000D01*
X101866000Y-98564000D02*
X101866000Y-98564000D01*
X107759000Y-104457000D02*
X101866000Y-98564000D01*
X101866000Y-98564000D02*
X93631000Y-98564000D01*
X112846000Y-86868000D02*
X112858000Y-86856000D01*
X112014000Y-86868000D02*
X112846000Y-86868000D01*
%TO.N,/I2C0_SDA*%
X107759000Y-106934000D02*
X114554000Y-106934000D01*
X115194000Y-107574000D02*
X115194000Y-108886000D01*
X114554000Y-106934000D02*
X115194000Y-107574000D01*
X102369034Y-100064000D02*
X102369034Y-100064000D01*
X106934000Y-104628966D02*
X102369034Y-100064000D01*
X106934000Y-106680000D02*
X106934000Y-104628966D01*
X107188000Y-106934000D02*
X106934000Y-106680000D01*
X107759000Y-106934000D02*
X107188000Y-106934000D01*
X102369034Y-100064000D02*
X93631000Y-100064000D01*
X112858000Y-87356000D02*
X112858000Y-88391997D01*
X112858000Y-88391997D02*
X112857997Y-88392000D01*
%TO.N,/USB_D+*%
X113157000Y-74803000D02*
X113157000Y-77405000D01*
X112529433Y-74175433D02*
X113157000Y-74803000D01*
X112529433Y-71112567D02*
X112529433Y-74175433D01*
X112842000Y-70800000D02*
X112529433Y-71112567D01*
X112842000Y-69934000D02*
X112842000Y-70800000D01*
%TO.N,/USB_D-*%
X114742000Y-70800000D02*
X114742000Y-69934000D01*
X115076132Y-71134132D02*
X114742000Y-70800000D01*
X115076132Y-74153868D02*
X115076132Y-71134132D01*
X114427000Y-74803000D02*
X115076132Y-74153868D01*
X114427000Y-77405000D02*
X114427000Y-74803000D01*
%TO.N,Net-(C7-Pad1)*%
X96266000Y-90665000D02*
X96266000Y-90678000D01*
X96316000Y-90615000D02*
X96266000Y-90665000D01*
X98044000Y-90615000D02*
X96316000Y-90615000D01*
X96266000Y-90665000D02*
X94475000Y-90665000D01*
X92604000Y-88794000D02*
X91694000Y-88794000D01*
X94475000Y-90665000D02*
X92604000Y-88794000D01*
%TO.N,Net-(C12-Pad1)*%
X116758000Y-85856000D02*
X117852000Y-85856000D01*
X118097000Y-85611000D02*
X118618000Y-85611000D01*
X117852000Y-85856000D02*
X118097000Y-85611000D01*
%TO.N,Net-(C13-Pad1)*%
X111023000Y-85356000D02*
X110998000Y-85331000D01*
X112858000Y-85356000D02*
X111023000Y-85356000D01*
%TO.N,/RESET*%
X105156000Y-70866000D02*
X105156000Y-71644000D01*
X104648000Y-70358000D02*
X105156000Y-70866000D01*
X97790000Y-70358000D02*
X104648000Y-70358000D01*
X96110000Y-72038000D02*
X97790000Y-70358000D01*
X92964000Y-72038000D02*
X96110000Y-72038000D01*
X129794000Y-89662000D02*
X129794000Y-88963000D01*
X130434000Y-90302000D02*
X129794000Y-89662000D01*
X130434000Y-91266000D02*
X130434000Y-90302000D01*
X105156000Y-72644000D02*
X105156000Y-71644000D01*
X129794000Y-88963000D02*
X125284998Y-88963000D01*
X125284998Y-88963000D02*
X122173998Y-85852000D01*
%TO.N,Net-(Q1-Pad2)*%
X95237000Y-81217000D02*
X95316000Y-81296000D01*
X93472000Y-81217000D02*
X95237000Y-81217000D01*
%TD*%
M02*
