%TF.GenerationSoftware,KiCad,Pcbnew,(5.1.10)-1*%
%TF.CreationDate,2021-12-18T14:31:07-08:00*%
%TF.ProjectId,ESP32_Playboard,45535033-325f-4506-9c61-79626f617264,rev?*%
%TF.SameCoordinates,Original*%
%TF.FileFunction,Copper,L3,Inr*%
%TF.FilePolarity,Positive*%
%FSLAX46Y46*%
G04 Gerber Fmt 4.6, Leading zero omitted, Abs format (unit mm)*
G04 Created by KiCad (PCBNEW (5.1.10)-1) date 2021-12-18 14:31:07*
%MOMM*%
%LPD*%
G01*
G04 APERTURE LIST*
%TA.AperFunction,ComponentPad*%
%ADD10O,0.890000X1.550000*%
%TD*%
%TA.AperFunction,ComponentPad*%
%ADD11O,1.250000X0.950000*%
%TD*%
%TA.AperFunction,ViaPad*%
%ADD12C,0.400000*%
%TD*%
%TA.AperFunction,Conductor*%
%ADD13C,0.254000*%
%TD*%
%TA.AperFunction,Conductor*%
%ADD14C,0.100000*%
%TD*%
G04 APERTURE END LIST*
D10*
%TO.N,Net-(J1-Pad6)*%
%TO.C,J1*%
X110038000Y-61692000D03*
X117038000Y-61692000D03*
D11*
X111038000Y-64392000D03*
X116038000Y-64392000D03*
%TD*%
D12*
%TO.N,GND*%
X124714000Y-99060000D03*
X125476000Y-98298000D03*
X124714000Y-98298000D03*
X125476000Y-99060000D03*
X124206000Y-100330000D03*
X124206000Y-99568000D03*
X124206000Y-97790000D03*
X125984000Y-97790000D03*
X125984000Y-99568000D03*
X125984000Y-100330000D03*
X126746000Y-99568000D03*
X126746000Y-97790000D03*
X125984000Y-97028000D03*
X124206000Y-97028000D03*
X123444000Y-97790000D03*
X123444000Y-99568000D03*
X126746000Y-100330000D03*
X123444000Y-100330000D03*
X126746000Y-97028000D03*
X123444000Y-97028000D03*
X98552000Y-61722000D03*
X92202000Y-64262000D03*
X102348000Y-68848000D03*
X99581968Y-68847968D03*
X98806000Y-71120000D03*
X92964000Y-79756000D03*
X91694000Y-80518000D03*
X110490000Y-70104000D03*
X113792000Y-70866000D03*
X112238009Y-63470009D03*
X124516000Y-64968000D03*
X138120028Y-64968000D03*
X125622000Y-74568000D03*
X138813960Y-75567960D03*
X134568000Y-76760046D03*
X133109000Y-86373000D03*
X132973979Y-90301979D03*
X132973978Y-92333978D03*
X115194023Y-92323965D03*
X132973995Y-107827995D03*
X93980000Y-96774000D03*
X92350000Y-94594000D03*
X93620000Y-94594000D03*
X96266000Y-92964000D03*
X113537994Y-83312006D03*
X118618000Y-83312000D03*
X110998000Y-87630000D03*
X118618000Y-89408000D03*
X113557986Y-88880014D03*
X117601982Y-85344000D03*
X117602000Y-86360000D03*
X108076983Y-76073017D03*
X121158000Y-74422000D03*
X121495996Y-76370000D03*
X118110000Y-80518000D03*
X117685962Y-78569990D03*
X92456000Y-101092000D03*
X91280945Y-101092000D03*
%TO.N,/REG_3V3*%
X96012000Y-66548000D03*
X99568000Y-66548000D03*
X97790000Y-66548000D03*
X93218000Y-66548000D03*
X91199014Y-66561014D03*
X94639991Y-64364009D03*
X94639984Y-68682022D03*
X132368000Y-74456000D03*
X115836993Y-81800993D03*
X119621014Y-87109014D03*
X116058000Y-83332000D03*
X96266000Y-82550000D03*
X98044000Y-92964000D03*
X91426995Y-96025005D03*
X105156000Y-105156000D03*
X105156000Y-106934000D03*
X131572000Y-90170000D03*
X131572000Y-86360000D03*
X130809968Y-87122000D03*
X131704019Y-92323981D03*
X117602000Y-87122000D03*
X91281000Y-97790000D03*
%TO.N,/SPI3_D1*%
X136768008Y-77607992D03*
X129734034Y-94234000D03*
%TO.N,/SPI3_D0*%
X135668000Y-77756012D03*
X128016000Y-94234000D03*
%TO.N,/SPI3_CLK*%
X133430571Y-77804569D03*
X122814000Y-94233994D03*
%TO.N,/SPI3_CS0*%
X131268004Y-77928012D03*
X121543997Y-94234004D03*
%TO.N,/SPI3_D3*%
X128778000Y-86360000D03*
X128778000Y-94234000D03*
%TO.N,/SPI3_D2*%
X127200001Y-85852000D03*
X126624008Y-103886000D03*
%TO.N,/GPIO0*%
X108204000Y-92202000D03*
X116463991Y-107827991D03*
%TO.N,/ESP_RX*%
X108966000Y-89408000D03*
X127893983Y-107310017D03*
%TO.N,/ESP_TX*%
X109982000Y-89408000D03*
X129164020Y-107320020D03*
%TO.N,/I2C0_SCL*%
X101866000Y-98564000D03*
X112014000Y-86868000D03*
%TO.N,/I2C0_SDA*%
X102369034Y-100064000D03*
X112857997Y-88392000D03*
%TO.N,/RESET*%
X105156000Y-72644000D03*
X122173998Y-85852000D03*
%TD*%
D13*
%TO.N,/REG_3V3*%
X109035384Y-60946702D02*
X108973627Y-61150283D01*
X108958000Y-61308949D01*
X108958000Y-62075050D01*
X108973627Y-62233716D01*
X109035383Y-62437297D01*
X109135668Y-62624919D01*
X109270630Y-62789370D01*
X109435081Y-62924332D01*
X109622702Y-63024617D01*
X109826283Y-63086373D01*
X110038000Y-63107225D01*
X110249716Y-63086373D01*
X110453297Y-63024617D01*
X110640919Y-62924332D01*
X110805370Y-62789370D01*
X110940332Y-62624919D01*
X111040617Y-62437298D01*
X111102373Y-62233717D01*
X111118000Y-62075051D01*
X111118000Y-61308950D01*
X111102373Y-61150284D01*
X111040617Y-60946702D01*
X110993205Y-60858000D01*
X116082796Y-60858000D01*
X116035384Y-60946702D01*
X115973627Y-61150283D01*
X115958000Y-61308949D01*
X115958000Y-62075050D01*
X115973627Y-62233716D01*
X116035383Y-62437297D01*
X116135668Y-62624919D01*
X116270630Y-62789370D01*
X116435081Y-62924332D01*
X116622702Y-63024617D01*
X116826283Y-63086373D01*
X117038000Y-63107225D01*
X117249716Y-63086373D01*
X117453297Y-63024617D01*
X117640919Y-62924332D01*
X117805370Y-62789370D01*
X117940332Y-62624919D01*
X118040617Y-62437298D01*
X118102373Y-62233717D01*
X118118000Y-62075051D01*
X118118000Y-61308950D01*
X118102373Y-61150284D01*
X118040617Y-60946702D01*
X117993205Y-60858000D01*
X140056000Y-60858000D01*
X140056000Y-80899000D01*
X139464910Y-80899000D01*
X139394631Y-80729331D01*
X139150038Y-80363271D01*
X138838729Y-80051962D01*
X138472669Y-79807369D01*
X138065925Y-79638890D01*
X137634128Y-79553000D01*
X137193872Y-79553000D01*
X136762075Y-79638890D01*
X136355331Y-79807369D01*
X135989271Y-80051962D01*
X135677962Y-80363271D01*
X135433369Y-80729331D01*
X135363090Y-80899000D01*
X133858000Y-80899000D01*
X133833224Y-80901440D01*
X133809399Y-80908667D01*
X133787443Y-80920403D01*
X133768197Y-80936197D01*
X133752403Y-80955443D01*
X133740667Y-80977399D01*
X133733440Y-81001224D01*
X133731000Y-81026000D01*
X133731000Y-85814132D01*
X133641281Y-85724413D01*
X133504521Y-85633033D01*
X133352560Y-85570089D01*
X133191240Y-85538000D01*
X133026760Y-85538000D01*
X132865440Y-85570089D01*
X132713479Y-85633033D01*
X132576719Y-85724413D01*
X132460413Y-85840719D01*
X132369033Y-85977479D01*
X132306089Y-86129440D01*
X132274000Y-86290760D01*
X132274000Y-86455240D01*
X132306089Y-86616560D01*
X132369033Y-86768521D01*
X132460413Y-86905281D01*
X132576719Y-87021587D01*
X132713479Y-87112967D01*
X132865440Y-87175911D01*
X133026760Y-87208000D01*
X133191240Y-87208000D01*
X133352560Y-87175911D01*
X133504521Y-87112967D01*
X133641281Y-87021587D01*
X133731000Y-86931868D01*
X133731000Y-89947630D01*
X133713946Y-89906458D01*
X133622566Y-89769698D01*
X133506260Y-89653392D01*
X133369500Y-89562012D01*
X133217539Y-89499068D01*
X133056219Y-89466979D01*
X132891739Y-89466979D01*
X132730419Y-89499068D01*
X132578458Y-89562012D01*
X132441698Y-89653392D01*
X132325392Y-89769698D01*
X132234012Y-89906458D01*
X132171068Y-90058419D01*
X132138979Y-90219739D01*
X132138979Y-90384219D01*
X132171068Y-90545539D01*
X132234012Y-90697500D01*
X132325392Y-90834260D01*
X132441698Y-90950566D01*
X132578458Y-91041946D01*
X132730419Y-91104890D01*
X132891739Y-91136979D01*
X133056219Y-91136979D01*
X133217539Y-91104890D01*
X133369500Y-91041946D01*
X133506260Y-90950566D01*
X133622566Y-90834260D01*
X133713946Y-90697500D01*
X133731000Y-90656328D01*
X133731000Y-91979632D01*
X133713945Y-91938457D01*
X133622565Y-91801697D01*
X133506259Y-91685391D01*
X133369499Y-91594011D01*
X133217538Y-91531067D01*
X133056218Y-91498978D01*
X132891738Y-91498978D01*
X132730418Y-91531067D01*
X132578457Y-91594011D01*
X132441697Y-91685391D01*
X132325391Y-91801697D01*
X132234011Y-91938457D01*
X132171067Y-92090418D01*
X132138978Y-92251738D01*
X132138978Y-92416218D01*
X132171067Y-92577538D01*
X132234011Y-92729499D01*
X132325391Y-92866259D01*
X132441697Y-92982565D01*
X132578457Y-93073945D01*
X132730418Y-93136889D01*
X132891738Y-93168978D01*
X133056218Y-93168978D01*
X133217538Y-93136889D01*
X133369499Y-93073945D01*
X133506259Y-92982565D01*
X133622565Y-92866259D01*
X133713945Y-92729499D01*
X133731000Y-92688324D01*
X133731000Y-107473608D01*
X133713962Y-107432474D01*
X133622582Y-107295714D01*
X133506276Y-107179408D01*
X133369516Y-107088028D01*
X133217555Y-107025084D01*
X133056235Y-106992995D01*
X132891755Y-106992995D01*
X132730435Y-107025084D01*
X132578474Y-107088028D01*
X132441714Y-107179408D01*
X132325408Y-107295714D01*
X132234028Y-107432474D01*
X132171084Y-107584435D01*
X132138995Y-107745755D01*
X132138995Y-107910235D01*
X132171084Y-108071555D01*
X132234028Y-108223516D01*
X132325408Y-108360276D01*
X132441714Y-108476582D01*
X132578474Y-108567962D01*
X132730435Y-108630906D01*
X132891755Y-108662995D01*
X133056235Y-108662995D01*
X133217555Y-108630906D01*
X133369516Y-108567962D01*
X133506276Y-108476582D01*
X133622582Y-108360276D01*
X133713962Y-108223516D01*
X133731000Y-108182382D01*
X133731000Y-110338000D01*
X91084000Y-110338000D01*
X91084000Y-105697872D01*
X93269000Y-105697872D01*
X93269000Y-106138128D01*
X93354890Y-106569925D01*
X93523369Y-106976669D01*
X93767962Y-107342729D01*
X94079271Y-107654038D01*
X94445331Y-107898631D01*
X94852075Y-108067110D01*
X95283872Y-108153000D01*
X95724128Y-108153000D01*
X96155925Y-108067110D01*
X96562669Y-107898631D01*
X96791470Y-107745751D01*
X115628991Y-107745751D01*
X115628991Y-107910231D01*
X115661080Y-108071551D01*
X115724024Y-108223512D01*
X115815404Y-108360272D01*
X115931710Y-108476578D01*
X116068470Y-108567958D01*
X116220431Y-108630902D01*
X116381751Y-108662991D01*
X116546231Y-108662991D01*
X116707551Y-108630902D01*
X116859512Y-108567958D01*
X116996272Y-108476578D01*
X117112578Y-108360272D01*
X117203958Y-108223512D01*
X117266902Y-108071551D01*
X117298991Y-107910231D01*
X117298991Y-107745751D01*
X117266902Y-107584431D01*
X117203958Y-107432470D01*
X117112578Y-107295710D01*
X117044645Y-107227777D01*
X127058983Y-107227777D01*
X127058983Y-107392257D01*
X127091072Y-107553577D01*
X127154016Y-107705538D01*
X127245396Y-107842298D01*
X127361702Y-107958604D01*
X127498462Y-108049984D01*
X127650423Y-108112928D01*
X127811743Y-108145017D01*
X127976223Y-108145017D01*
X128137543Y-108112928D01*
X128289504Y-108049984D01*
X128426264Y-107958604D01*
X128524000Y-107860868D01*
X128631739Y-107968607D01*
X128768499Y-108059987D01*
X128920460Y-108122931D01*
X129081780Y-108155020D01*
X129246260Y-108155020D01*
X129407580Y-108122931D01*
X129559541Y-108059987D01*
X129696301Y-107968607D01*
X129812607Y-107852301D01*
X129903987Y-107715541D01*
X129966931Y-107563580D01*
X129999020Y-107402260D01*
X129999020Y-107237780D01*
X129966931Y-107076460D01*
X129903987Y-106924499D01*
X129812607Y-106787739D01*
X129696301Y-106671433D01*
X129559541Y-106580053D01*
X129407580Y-106517109D01*
X129246260Y-106485020D01*
X129081780Y-106485020D01*
X128920460Y-106517109D01*
X128768499Y-106580053D01*
X128631739Y-106671433D01*
X128534003Y-106769169D01*
X128426264Y-106661430D01*
X128289504Y-106570050D01*
X128137543Y-106507106D01*
X127976223Y-106475017D01*
X127811743Y-106475017D01*
X127650423Y-106507106D01*
X127498462Y-106570050D01*
X127361702Y-106661430D01*
X127245396Y-106777736D01*
X127154016Y-106914496D01*
X127091072Y-107066457D01*
X127058983Y-107227777D01*
X117044645Y-107227777D01*
X116996272Y-107179404D01*
X116859512Y-107088024D01*
X116707551Y-107025080D01*
X116546231Y-106992991D01*
X116381751Y-106992991D01*
X116220431Y-107025080D01*
X116068470Y-107088024D01*
X115931710Y-107179404D01*
X115815404Y-107295710D01*
X115724024Y-107432470D01*
X115661080Y-107584431D01*
X115628991Y-107745751D01*
X96791470Y-107745751D01*
X96928729Y-107654038D01*
X97240038Y-107342729D01*
X97484631Y-106976669D01*
X97653110Y-106569925D01*
X97739000Y-106138128D01*
X97739000Y-105697872D01*
X97653110Y-105266075D01*
X97484631Y-104859331D01*
X97240038Y-104493271D01*
X96928729Y-104181962D01*
X96562669Y-103937369D01*
X96240109Y-103803760D01*
X125789008Y-103803760D01*
X125789008Y-103968240D01*
X125821097Y-104129560D01*
X125884041Y-104281521D01*
X125975421Y-104418281D01*
X126091727Y-104534587D01*
X126228487Y-104625967D01*
X126380448Y-104688911D01*
X126541768Y-104721000D01*
X126706248Y-104721000D01*
X126867568Y-104688911D01*
X127019529Y-104625967D01*
X127156289Y-104534587D01*
X127272595Y-104418281D01*
X127363975Y-104281521D01*
X127426919Y-104129560D01*
X127459008Y-103968240D01*
X127459008Y-103803760D01*
X127426919Y-103642440D01*
X127363975Y-103490479D01*
X127272595Y-103353719D01*
X127156289Y-103237413D01*
X127019529Y-103146033D01*
X126867568Y-103083089D01*
X126706248Y-103051000D01*
X126541768Y-103051000D01*
X126380448Y-103083089D01*
X126228487Y-103146033D01*
X126091727Y-103237413D01*
X125975421Y-103353719D01*
X125884041Y-103490479D01*
X125821097Y-103642440D01*
X125789008Y-103803760D01*
X96240109Y-103803760D01*
X96155925Y-103768890D01*
X95724128Y-103683000D01*
X95283872Y-103683000D01*
X94852075Y-103768890D01*
X94445331Y-103937369D01*
X94079271Y-104181962D01*
X93767962Y-104493271D01*
X93523369Y-104859331D01*
X93354890Y-105266075D01*
X93269000Y-105697872D01*
X91084000Y-105697872D01*
X91084000Y-101904183D01*
X91198705Y-101927000D01*
X91363185Y-101927000D01*
X91524505Y-101894911D01*
X91676466Y-101831967D01*
X91813226Y-101740587D01*
X91868473Y-101685341D01*
X91923719Y-101740587D01*
X92060479Y-101831967D01*
X92212440Y-101894911D01*
X92373760Y-101927000D01*
X92538240Y-101927000D01*
X92699560Y-101894911D01*
X92851521Y-101831967D01*
X92988281Y-101740587D01*
X93104587Y-101624281D01*
X93195967Y-101487521D01*
X93258911Y-101335560D01*
X93291000Y-101174240D01*
X93291000Y-101009760D01*
X93258911Y-100848440D01*
X93201982Y-100711000D01*
X93980000Y-100711000D01*
X94004776Y-100708560D01*
X94028601Y-100701333D01*
X94050557Y-100689597D01*
X94069803Y-100673803D01*
X94085597Y-100654557D01*
X94097333Y-100632601D01*
X94104560Y-100608776D01*
X94107000Y-100584000D01*
X94107000Y-98481760D01*
X101031000Y-98481760D01*
X101031000Y-98646240D01*
X101063089Y-98807560D01*
X101126033Y-98959521D01*
X101217413Y-99096281D01*
X101333719Y-99212587D01*
X101470479Y-99303967D01*
X101622440Y-99366911D01*
X101783760Y-99399000D01*
X101861317Y-99399000D01*
X101836753Y-99415413D01*
X101720447Y-99531719D01*
X101629067Y-99668479D01*
X101566123Y-99820440D01*
X101534034Y-99981760D01*
X101534034Y-100146240D01*
X101566123Y-100307560D01*
X101629067Y-100459521D01*
X101720447Y-100596281D01*
X101836753Y-100712587D01*
X101973513Y-100803967D01*
X102125474Y-100866911D01*
X102286794Y-100899000D01*
X102451274Y-100899000D01*
X102612594Y-100866911D01*
X102764555Y-100803967D01*
X102901315Y-100712587D01*
X103017621Y-100596281D01*
X103109001Y-100459521D01*
X103171945Y-100307560D01*
X103204034Y-100146240D01*
X103204034Y-99981760D01*
X103171945Y-99820440D01*
X103109001Y-99668479D01*
X103017621Y-99531719D01*
X102901315Y-99415413D01*
X102764555Y-99324033D01*
X102612594Y-99261089D01*
X102451274Y-99229000D01*
X102373717Y-99229000D01*
X102398281Y-99212587D01*
X102514587Y-99096281D01*
X102605967Y-98959521D01*
X102668911Y-98807560D01*
X102701000Y-98646240D01*
X102701000Y-98481760D01*
X102668911Y-98320440D01*
X102605967Y-98168479D01*
X102514587Y-98031719D01*
X102398281Y-97915413D01*
X102261521Y-97824033D01*
X102109560Y-97761089D01*
X101948240Y-97729000D01*
X101783760Y-97729000D01*
X101622440Y-97761089D01*
X101470479Y-97824033D01*
X101333719Y-97915413D01*
X101217413Y-98031719D01*
X101126033Y-98168479D01*
X101063089Y-98320440D01*
X101031000Y-98481760D01*
X94107000Y-98481760D01*
X94107000Y-98044000D01*
X94104560Y-98019224D01*
X94097333Y-97995399D01*
X94085597Y-97973443D01*
X94069803Y-97954197D01*
X94050557Y-97938403D01*
X94028601Y-97926667D01*
X94004776Y-97919440D01*
X93980000Y-97917000D01*
X91084000Y-97917000D01*
X91084000Y-96691760D01*
X93145000Y-96691760D01*
X93145000Y-96856240D01*
X93177089Y-97017560D01*
X93240033Y-97169521D01*
X93331413Y-97306281D01*
X93447719Y-97422587D01*
X93584479Y-97513967D01*
X93736440Y-97576911D01*
X93897760Y-97609000D01*
X94062240Y-97609000D01*
X94223560Y-97576911D01*
X94375521Y-97513967D01*
X94512281Y-97422587D01*
X94628587Y-97306281D01*
X94719967Y-97169521D01*
X94782911Y-97017560D01*
X94797193Y-96945760D01*
X122609000Y-96945760D01*
X122609000Y-97110240D01*
X122641089Y-97271560D01*
X122698018Y-97409000D01*
X122641089Y-97546440D01*
X122609000Y-97707760D01*
X122609000Y-97872240D01*
X122641089Y-98033560D01*
X122704033Y-98185521D01*
X122795413Y-98322281D01*
X122911719Y-98438587D01*
X123048479Y-98529967D01*
X123200440Y-98592911D01*
X123361760Y-98625000D01*
X123526240Y-98625000D01*
X123687560Y-98592911D01*
X123825000Y-98535982D01*
X123926129Y-98577871D01*
X123968018Y-98679000D01*
X123926129Y-98780129D01*
X123825000Y-98822018D01*
X123687560Y-98765089D01*
X123526240Y-98733000D01*
X123361760Y-98733000D01*
X123200440Y-98765089D01*
X123048479Y-98828033D01*
X122911719Y-98919413D01*
X122795413Y-99035719D01*
X122704033Y-99172479D01*
X122641089Y-99324440D01*
X122609000Y-99485760D01*
X122609000Y-99650240D01*
X122641089Y-99811560D01*
X122698018Y-99949000D01*
X122641089Y-100086440D01*
X122609000Y-100247760D01*
X122609000Y-100412240D01*
X122641089Y-100573560D01*
X122704033Y-100725521D01*
X122795413Y-100862281D01*
X122911719Y-100978587D01*
X123048479Y-101069967D01*
X123200440Y-101132911D01*
X123361760Y-101165000D01*
X123526240Y-101165000D01*
X123687560Y-101132911D01*
X123825000Y-101075982D01*
X123962440Y-101132911D01*
X124123760Y-101165000D01*
X124288240Y-101165000D01*
X124449560Y-101132911D01*
X124601521Y-101069967D01*
X124738281Y-100978587D01*
X124854587Y-100862281D01*
X124945967Y-100725521D01*
X125008911Y-100573560D01*
X125041000Y-100412240D01*
X125041000Y-100247760D01*
X125008911Y-100086440D01*
X124951982Y-99949000D01*
X124993871Y-99847871D01*
X125095000Y-99805982D01*
X125196129Y-99847871D01*
X125238018Y-99949000D01*
X125181089Y-100086440D01*
X125149000Y-100247760D01*
X125149000Y-100412240D01*
X125181089Y-100573560D01*
X125244033Y-100725521D01*
X125335413Y-100862281D01*
X125451719Y-100978587D01*
X125588479Y-101069967D01*
X125740440Y-101132911D01*
X125901760Y-101165000D01*
X126066240Y-101165000D01*
X126227560Y-101132911D01*
X126365000Y-101075982D01*
X126502440Y-101132911D01*
X126663760Y-101165000D01*
X126828240Y-101165000D01*
X126989560Y-101132911D01*
X127141521Y-101069967D01*
X127278281Y-100978587D01*
X127394587Y-100862281D01*
X127485967Y-100725521D01*
X127548911Y-100573560D01*
X127581000Y-100412240D01*
X127581000Y-100247760D01*
X127548911Y-100086440D01*
X127491982Y-99949000D01*
X127548911Y-99811560D01*
X127581000Y-99650240D01*
X127581000Y-99485760D01*
X127548911Y-99324440D01*
X127485967Y-99172479D01*
X127394587Y-99035719D01*
X127278281Y-98919413D01*
X127141521Y-98828033D01*
X126989560Y-98765089D01*
X126828240Y-98733000D01*
X126663760Y-98733000D01*
X126502440Y-98765089D01*
X126365000Y-98822018D01*
X126263871Y-98780129D01*
X126221982Y-98679000D01*
X126263871Y-98577871D01*
X126365000Y-98535982D01*
X126502440Y-98592911D01*
X126663760Y-98625000D01*
X126828240Y-98625000D01*
X126989560Y-98592911D01*
X127141521Y-98529967D01*
X127278281Y-98438587D01*
X127394587Y-98322281D01*
X127485967Y-98185521D01*
X127548911Y-98033560D01*
X127581000Y-97872240D01*
X127581000Y-97707760D01*
X127548911Y-97546440D01*
X127491982Y-97409000D01*
X127548911Y-97271560D01*
X127581000Y-97110240D01*
X127581000Y-96945760D01*
X127548911Y-96784440D01*
X127485967Y-96632479D01*
X127394587Y-96495719D01*
X127278281Y-96379413D01*
X127141521Y-96288033D01*
X126989560Y-96225089D01*
X126828240Y-96193000D01*
X126663760Y-96193000D01*
X126502440Y-96225089D01*
X126365000Y-96282018D01*
X126227560Y-96225089D01*
X126066240Y-96193000D01*
X125901760Y-96193000D01*
X125740440Y-96225089D01*
X125588479Y-96288033D01*
X125451719Y-96379413D01*
X125335413Y-96495719D01*
X125244033Y-96632479D01*
X125181089Y-96784440D01*
X125149000Y-96945760D01*
X125149000Y-97110240D01*
X125181089Y-97271560D01*
X125238018Y-97409000D01*
X125196129Y-97510129D01*
X125095000Y-97552018D01*
X124993871Y-97510129D01*
X124951982Y-97409000D01*
X125008911Y-97271560D01*
X125041000Y-97110240D01*
X125041000Y-96945760D01*
X125008911Y-96784440D01*
X124945967Y-96632479D01*
X124854587Y-96495719D01*
X124738281Y-96379413D01*
X124601521Y-96288033D01*
X124449560Y-96225089D01*
X124288240Y-96193000D01*
X124123760Y-96193000D01*
X123962440Y-96225089D01*
X123825000Y-96282018D01*
X123687560Y-96225089D01*
X123526240Y-96193000D01*
X123361760Y-96193000D01*
X123200440Y-96225089D01*
X123048479Y-96288033D01*
X122911719Y-96379413D01*
X122795413Y-96495719D01*
X122704033Y-96632479D01*
X122641089Y-96784440D01*
X122609000Y-96945760D01*
X94797193Y-96945760D01*
X94815000Y-96856240D01*
X94815000Y-96691760D01*
X94782911Y-96530440D01*
X94719967Y-96378479D01*
X94628587Y-96241719D01*
X94512281Y-96125413D01*
X94375521Y-96034033D01*
X94223560Y-95971089D01*
X94062240Y-95939000D01*
X93897760Y-95939000D01*
X93736440Y-95971089D01*
X93584479Y-96034033D01*
X93447719Y-96125413D01*
X93331413Y-96241719D01*
X93240033Y-96378479D01*
X93177089Y-96530440D01*
X93145000Y-96691760D01*
X91084000Y-96691760D01*
X91084000Y-94511760D01*
X91515000Y-94511760D01*
X91515000Y-94676240D01*
X91547089Y-94837560D01*
X91610033Y-94989521D01*
X91701413Y-95126281D01*
X91817719Y-95242587D01*
X91954479Y-95333967D01*
X92106440Y-95396911D01*
X92267760Y-95429000D01*
X92432240Y-95429000D01*
X92593560Y-95396911D01*
X92745521Y-95333967D01*
X92882281Y-95242587D01*
X92985000Y-95139868D01*
X93087719Y-95242587D01*
X93224479Y-95333967D01*
X93376440Y-95396911D01*
X93537760Y-95429000D01*
X93702240Y-95429000D01*
X93863560Y-95396911D01*
X94015521Y-95333967D01*
X94152281Y-95242587D01*
X94268587Y-95126281D01*
X94359967Y-94989521D01*
X94422911Y-94837560D01*
X94455000Y-94676240D01*
X94455000Y-94511760D01*
X94422911Y-94350440D01*
X94359967Y-94198479D01*
X94328754Y-94151764D01*
X120708997Y-94151764D01*
X120708997Y-94316244D01*
X120741086Y-94477564D01*
X120804030Y-94629525D01*
X120895410Y-94766285D01*
X121011716Y-94882591D01*
X121148476Y-94973971D01*
X121300437Y-95036915D01*
X121461757Y-95069004D01*
X121626237Y-95069004D01*
X121787557Y-95036915D01*
X121939518Y-94973971D01*
X122076278Y-94882591D01*
X122179004Y-94779866D01*
X122281719Y-94882581D01*
X122418479Y-94973961D01*
X122570440Y-95036905D01*
X122731760Y-95068994D01*
X122896240Y-95068994D01*
X123057560Y-95036905D01*
X123209521Y-94973961D01*
X123346281Y-94882581D01*
X123462587Y-94766275D01*
X123553967Y-94629515D01*
X123616911Y-94477554D01*
X123649000Y-94316234D01*
X123649000Y-94151760D01*
X127181000Y-94151760D01*
X127181000Y-94316240D01*
X127213089Y-94477560D01*
X127276033Y-94629521D01*
X127367413Y-94766281D01*
X127483719Y-94882587D01*
X127620479Y-94973967D01*
X127772440Y-95036911D01*
X127933760Y-95069000D01*
X128098240Y-95069000D01*
X128259560Y-95036911D01*
X128397000Y-94979982D01*
X128534440Y-95036911D01*
X128695760Y-95069000D01*
X128860240Y-95069000D01*
X129021560Y-95036911D01*
X129173521Y-94973967D01*
X129256017Y-94918845D01*
X129338513Y-94973967D01*
X129490474Y-95036911D01*
X129651794Y-95069000D01*
X129816274Y-95069000D01*
X129977594Y-95036911D01*
X130129555Y-94973967D01*
X130266315Y-94882587D01*
X130382621Y-94766281D01*
X130474001Y-94629521D01*
X130536945Y-94477560D01*
X130569034Y-94316240D01*
X130569034Y-94151760D01*
X130536945Y-93990440D01*
X130474001Y-93838479D01*
X130382621Y-93701719D01*
X130266315Y-93585413D01*
X130129555Y-93494033D01*
X129977594Y-93431089D01*
X129816274Y-93399000D01*
X129651794Y-93399000D01*
X129490474Y-93431089D01*
X129338513Y-93494033D01*
X129256017Y-93549155D01*
X129173521Y-93494033D01*
X129021560Y-93431089D01*
X128860240Y-93399000D01*
X128695760Y-93399000D01*
X128534440Y-93431089D01*
X128397000Y-93488018D01*
X128259560Y-93431089D01*
X128098240Y-93399000D01*
X127933760Y-93399000D01*
X127772440Y-93431089D01*
X127620479Y-93494033D01*
X127483719Y-93585413D01*
X127367413Y-93701719D01*
X127276033Y-93838479D01*
X127213089Y-93990440D01*
X127181000Y-94151760D01*
X123649000Y-94151760D01*
X123649000Y-94151754D01*
X123616911Y-93990434D01*
X123553967Y-93838473D01*
X123462587Y-93701713D01*
X123346281Y-93585407D01*
X123209521Y-93494027D01*
X123057560Y-93431083D01*
X122896240Y-93398994D01*
X122731760Y-93398994D01*
X122570440Y-93431083D01*
X122418479Y-93494027D01*
X122281719Y-93585407D01*
X122178994Y-93688133D01*
X122076278Y-93585417D01*
X121939518Y-93494037D01*
X121787557Y-93431093D01*
X121626237Y-93399004D01*
X121461757Y-93399004D01*
X121300437Y-93431093D01*
X121148476Y-93494037D01*
X121011716Y-93585417D01*
X120895410Y-93701723D01*
X120804030Y-93838483D01*
X120741086Y-93990444D01*
X120708997Y-94151764D01*
X94328754Y-94151764D01*
X94268587Y-94061719D01*
X94152281Y-93945413D01*
X94015521Y-93854033D01*
X93863560Y-93791089D01*
X93702240Y-93759000D01*
X93537760Y-93759000D01*
X93376440Y-93791089D01*
X93224479Y-93854033D01*
X93087719Y-93945413D01*
X92985000Y-94048132D01*
X92882281Y-93945413D01*
X92745521Y-93854033D01*
X92593560Y-93791089D01*
X92432240Y-93759000D01*
X92267760Y-93759000D01*
X92106440Y-93791089D01*
X91954479Y-93854033D01*
X91817719Y-93945413D01*
X91701413Y-94061719D01*
X91610033Y-94198479D01*
X91547089Y-94350440D01*
X91515000Y-94511760D01*
X91084000Y-94511760D01*
X91084000Y-92881760D01*
X95431000Y-92881760D01*
X95431000Y-93046240D01*
X95463089Y-93207560D01*
X95526033Y-93359521D01*
X95617413Y-93496281D01*
X95733719Y-93612587D01*
X95870479Y-93703967D01*
X96022440Y-93766911D01*
X96183760Y-93799000D01*
X96348240Y-93799000D01*
X96509560Y-93766911D01*
X96661521Y-93703967D01*
X96798281Y-93612587D01*
X96914587Y-93496281D01*
X97005967Y-93359521D01*
X97068911Y-93207560D01*
X97101000Y-93046240D01*
X97101000Y-92881760D01*
X97068911Y-92720440D01*
X97005967Y-92568479D01*
X96914587Y-92431719D01*
X96798281Y-92315413D01*
X96661521Y-92224033D01*
X96509560Y-92161089D01*
X96348240Y-92129000D01*
X96183760Y-92129000D01*
X96022440Y-92161089D01*
X95870479Y-92224033D01*
X95733719Y-92315413D01*
X95617413Y-92431719D01*
X95526033Y-92568479D01*
X95463089Y-92720440D01*
X95431000Y-92881760D01*
X91084000Y-92881760D01*
X91084000Y-92119760D01*
X107369000Y-92119760D01*
X107369000Y-92284240D01*
X107401089Y-92445560D01*
X107464033Y-92597521D01*
X107555413Y-92734281D01*
X107671719Y-92850587D01*
X107808479Y-92941967D01*
X107960440Y-93004911D01*
X108121760Y-93037000D01*
X108286240Y-93037000D01*
X108447560Y-93004911D01*
X108599521Y-92941967D01*
X108736281Y-92850587D01*
X108852587Y-92734281D01*
X108943967Y-92597521D01*
X109006911Y-92445560D01*
X109039000Y-92284240D01*
X109039000Y-92241725D01*
X114359023Y-92241725D01*
X114359023Y-92406205D01*
X114391112Y-92567525D01*
X114454056Y-92719486D01*
X114545436Y-92856246D01*
X114661742Y-92972552D01*
X114798502Y-93063932D01*
X114950463Y-93126876D01*
X115111783Y-93158965D01*
X115276263Y-93158965D01*
X115437583Y-93126876D01*
X115589544Y-93063932D01*
X115726304Y-92972552D01*
X115842610Y-92856246D01*
X115933990Y-92719486D01*
X115996934Y-92567525D01*
X116029023Y-92406205D01*
X116029023Y-92241725D01*
X115996934Y-92080405D01*
X115933990Y-91928444D01*
X115842610Y-91791684D01*
X115726304Y-91675378D01*
X115589544Y-91583998D01*
X115437583Y-91521054D01*
X115276263Y-91488965D01*
X115111783Y-91488965D01*
X114950463Y-91521054D01*
X114798502Y-91583998D01*
X114661742Y-91675378D01*
X114545436Y-91791684D01*
X114454056Y-91928444D01*
X114391112Y-92080405D01*
X114359023Y-92241725D01*
X109039000Y-92241725D01*
X109039000Y-92119760D01*
X109006911Y-91958440D01*
X108943967Y-91806479D01*
X108852587Y-91669719D01*
X108736281Y-91553413D01*
X108599521Y-91462033D01*
X108447560Y-91399089D01*
X108286240Y-91367000D01*
X108121760Y-91367000D01*
X107960440Y-91399089D01*
X107808479Y-91462033D01*
X107671719Y-91553413D01*
X107555413Y-91669719D01*
X107464033Y-91806479D01*
X107401089Y-91958440D01*
X107369000Y-92119760D01*
X91084000Y-92119760D01*
X91084000Y-89325760D01*
X108131000Y-89325760D01*
X108131000Y-89490240D01*
X108163089Y-89651560D01*
X108226033Y-89803521D01*
X108317413Y-89940281D01*
X108433719Y-90056587D01*
X108570479Y-90147967D01*
X108722440Y-90210911D01*
X108883760Y-90243000D01*
X109048240Y-90243000D01*
X109209560Y-90210911D01*
X109361521Y-90147967D01*
X109474000Y-90072811D01*
X109586479Y-90147967D01*
X109738440Y-90210911D01*
X109899760Y-90243000D01*
X110064240Y-90243000D01*
X110225560Y-90210911D01*
X110377521Y-90147967D01*
X110514281Y-90056587D01*
X110630587Y-89940281D01*
X110721967Y-89803521D01*
X110784911Y-89651560D01*
X110817000Y-89490240D01*
X110817000Y-89325760D01*
X110784911Y-89164440D01*
X110721967Y-89012479D01*
X110630587Y-88875719D01*
X110514281Y-88759413D01*
X110377521Y-88668033D01*
X110225560Y-88605089D01*
X110064240Y-88573000D01*
X109899760Y-88573000D01*
X109738440Y-88605089D01*
X109586479Y-88668033D01*
X109474000Y-88743189D01*
X109361521Y-88668033D01*
X109209560Y-88605089D01*
X109048240Y-88573000D01*
X108883760Y-88573000D01*
X108722440Y-88605089D01*
X108570479Y-88668033D01*
X108433719Y-88759413D01*
X108317413Y-88875719D01*
X108226033Y-89012479D01*
X108163089Y-89164440D01*
X108131000Y-89325760D01*
X91084000Y-89325760D01*
X91084000Y-88036000D01*
X98773581Y-88036000D01*
X98806000Y-88039193D01*
X98838419Y-88036000D01*
X98935383Y-88026450D01*
X99059793Y-87988710D01*
X99174450Y-87927425D01*
X99274948Y-87844948D01*
X99357425Y-87744450D01*
X99418710Y-87629793D01*
X99443594Y-87547760D01*
X110163000Y-87547760D01*
X110163000Y-87712240D01*
X110195089Y-87873560D01*
X110258033Y-88025521D01*
X110349413Y-88162281D01*
X110465719Y-88278587D01*
X110602479Y-88369967D01*
X110754440Y-88432911D01*
X110915760Y-88465000D01*
X111080240Y-88465000D01*
X111241560Y-88432911D01*
X111393521Y-88369967D01*
X111483627Y-88309760D01*
X112022997Y-88309760D01*
X112022997Y-88474240D01*
X112055086Y-88635560D01*
X112118030Y-88787521D01*
X112209410Y-88924281D01*
X112325716Y-89040587D01*
X112462476Y-89131967D01*
X112614437Y-89194911D01*
X112775757Y-89227000D01*
X112797915Y-89227000D01*
X112818019Y-89275535D01*
X112909399Y-89412295D01*
X113025705Y-89528601D01*
X113162465Y-89619981D01*
X113314426Y-89682925D01*
X113475746Y-89715014D01*
X113640226Y-89715014D01*
X113801546Y-89682925D01*
X113953507Y-89619981D01*
X114090267Y-89528601D01*
X114206573Y-89412295D01*
X114264393Y-89325760D01*
X117783000Y-89325760D01*
X117783000Y-89490240D01*
X117815089Y-89651560D01*
X117878033Y-89803521D01*
X117969413Y-89940281D01*
X118085719Y-90056587D01*
X118222479Y-90147967D01*
X118374440Y-90210911D01*
X118535760Y-90243000D01*
X118700240Y-90243000D01*
X118861560Y-90210911D01*
X119013521Y-90147967D01*
X119150281Y-90056587D01*
X119266587Y-89940281D01*
X119357967Y-89803521D01*
X119420911Y-89651560D01*
X119453000Y-89490240D01*
X119453000Y-89325760D01*
X119420911Y-89164440D01*
X119357967Y-89012479D01*
X119266587Y-88875719D01*
X119150281Y-88759413D01*
X119013521Y-88668033D01*
X118861560Y-88605089D01*
X118700240Y-88573000D01*
X118535760Y-88573000D01*
X118374440Y-88605089D01*
X118222479Y-88668033D01*
X118085719Y-88759413D01*
X117969413Y-88875719D01*
X117878033Y-89012479D01*
X117815089Y-89164440D01*
X117783000Y-89325760D01*
X114264393Y-89325760D01*
X114297953Y-89275535D01*
X114360897Y-89123574D01*
X114392986Y-88962254D01*
X114392986Y-88797774D01*
X114360897Y-88636454D01*
X114297953Y-88484493D01*
X114206573Y-88347733D01*
X114090267Y-88231427D01*
X113953507Y-88140047D01*
X113801546Y-88077103D01*
X113640226Y-88045014D01*
X113618068Y-88045014D01*
X113597964Y-87996479D01*
X113506584Y-87859719D01*
X113403865Y-87757000D01*
X116332000Y-87757000D01*
X116356776Y-87754560D01*
X116380601Y-87747333D01*
X116402557Y-87735597D01*
X116421803Y-87719803D01*
X116437597Y-87700557D01*
X116449333Y-87678601D01*
X116456560Y-87654776D01*
X116459000Y-87630000D01*
X116459000Y-85261760D01*
X116766982Y-85261760D01*
X116766982Y-85426240D01*
X116799071Y-85587560D01*
X116862015Y-85739521D01*
X116937180Y-85852013D01*
X116862033Y-85964479D01*
X116799089Y-86116440D01*
X116767000Y-86277760D01*
X116767000Y-86442240D01*
X116799089Y-86603560D01*
X116862033Y-86755521D01*
X116953413Y-86892281D01*
X117069719Y-87008587D01*
X117206479Y-87099967D01*
X117358440Y-87162911D01*
X117519760Y-87195000D01*
X117684240Y-87195000D01*
X117845560Y-87162911D01*
X117997521Y-87099967D01*
X118134281Y-87008587D01*
X118250587Y-86892281D01*
X118341967Y-86755521D01*
X118404911Y-86603560D01*
X118437000Y-86442240D01*
X118437000Y-86277760D01*
X118404911Y-86116440D01*
X118341967Y-85964479D01*
X118266802Y-85851987D01*
X118321744Y-85769760D01*
X121338998Y-85769760D01*
X121338998Y-85934240D01*
X121371087Y-86095560D01*
X121434031Y-86247521D01*
X121525411Y-86384281D01*
X121641717Y-86500587D01*
X121778477Y-86591967D01*
X121930438Y-86654911D01*
X122091758Y-86687000D01*
X122256238Y-86687000D01*
X122417558Y-86654911D01*
X122569519Y-86591967D01*
X122706279Y-86500587D01*
X122822585Y-86384281D01*
X122913965Y-86247521D01*
X122976909Y-86095560D01*
X123008998Y-85934240D01*
X123008998Y-85769760D01*
X126365001Y-85769760D01*
X126365001Y-85934240D01*
X126397090Y-86095560D01*
X126460034Y-86247521D01*
X126551414Y-86384281D01*
X126667720Y-86500587D01*
X126804480Y-86591967D01*
X126956441Y-86654911D01*
X127117761Y-86687000D01*
X127282241Y-86687000D01*
X127443561Y-86654911D01*
X127595522Y-86591967D01*
X127732282Y-86500587D01*
X127848588Y-86384281D01*
X127939968Y-86247521D01*
X127957374Y-86205500D01*
X127943000Y-86277760D01*
X127943000Y-86442240D01*
X127975089Y-86603560D01*
X128038033Y-86755521D01*
X128129413Y-86892281D01*
X128245719Y-87008587D01*
X128382479Y-87099967D01*
X128534440Y-87162911D01*
X128695760Y-87195000D01*
X128860240Y-87195000D01*
X129021560Y-87162911D01*
X129173521Y-87099967D01*
X129310281Y-87008587D01*
X129426587Y-86892281D01*
X129517967Y-86755521D01*
X129580911Y-86603560D01*
X129613000Y-86442240D01*
X129613000Y-86277760D01*
X129580911Y-86116440D01*
X129517967Y-85964479D01*
X129426587Y-85827719D01*
X129310281Y-85711413D01*
X129173521Y-85620033D01*
X129021560Y-85557089D01*
X128860240Y-85525000D01*
X128695760Y-85525000D01*
X128534440Y-85557089D01*
X128382479Y-85620033D01*
X128245719Y-85711413D01*
X128129413Y-85827719D01*
X128038033Y-85964479D01*
X128020627Y-86006500D01*
X128035001Y-85934240D01*
X128035001Y-85769760D01*
X128002912Y-85608440D01*
X127939968Y-85456479D01*
X127848588Y-85319719D01*
X127732282Y-85203413D01*
X127595522Y-85112033D01*
X127443561Y-85049089D01*
X127282241Y-85017000D01*
X127117761Y-85017000D01*
X126956441Y-85049089D01*
X126804480Y-85112033D01*
X126667720Y-85203413D01*
X126551414Y-85319719D01*
X126460034Y-85456479D01*
X126397090Y-85608440D01*
X126365001Y-85769760D01*
X123008998Y-85769760D01*
X122976909Y-85608440D01*
X122913965Y-85456479D01*
X122822585Y-85319719D01*
X122706279Y-85203413D01*
X122569519Y-85112033D01*
X122417558Y-85049089D01*
X122256238Y-85017000D01*
X122091758Y-85017000D01*
X121930438Y-85049089D01*
X121778477Y-85112033D01*
X121641717Y-85203413D01*
X121525411Y-85319719D01*
X121434031Y-85456479D01*
X121371087Y-85608440D01*
X121338998Y-85769760D01*
X118321744Y-85769760D01*
X118341949Y-85739521D01*
X118404893Y-85587560D01*
X118436982Y-85426240D01*
X118436982Y-85261760D01*
X118404893Y-85100440D01*
X118341949Y-84948479D01*
X118250569Y-84811719D01*
X118134263Y-84695413D01*
X117997503Y-84604033D01*
X117845542Y-84541089D01*
X117684222Y-84509000D01*
X117519742Y-84509000D01*
X117358422Y-84541089D01*
X117206461Y-84604033D01*
X117069701Y-84695413D01*
X116953395Y-84811719D01*
X116862015Y-84948479D01*
X116799071Y-85100440D01*
X116766982Y-85261760D01*
X116459000Y-85261760D01*
X116459000Y-84582000D01*
X116456560Y-84557224D01*
X116449333Y-84533399D01*
X116437597Y-84511443D01*
X116421803Y-84492197D01*
X116402557Y-84476403D01*
X116380601Y-84464667D01*
X116356776Y-84457440D01*
X116332000Y-84455000D01*
X113284000Y-84455000D01*
X113259224Y-84457440D01*
X113235399Y-84464667D01*
X113213443Y-84476403D01*
X113194197Y-84492197D01*
X113178403Y-84511443D01*
X113166667Y-84533399D01*
X113159440Y-84557224D01*
X113157000Y-84582000D01*
X113157000Y-87612054D01*
X113101557Y-87589089D01*
X112940237Y-87557000D01*
X112775757Y-87557000D01*
X112614437Y-87589089D01*
X112462476Y-87652033D01*
X112325716Y-87743413D01*
X112209410Y-87859719D01*
X112118030Y-87996479D01*
X112055086Y-88148440D01*
X112022997Y-88309760D01*
X111483627Y-88309760D01*
X111530281Y-88278587D01*
X111646587Y-88162281D01*
X111737967Y-88025521D01*
X111800911Y-87873560D01*
X111833000Y-87712240D01*
X111833000Y-87683355D01*
X111931760Y-87703000D01*
X112096240Y-87703000D01*
X112257560Y-87670911D01*
X112409521Y-87607967D01*
X112546281Y-87516587D01*
X112662587Y-87400281D01*
X112753967Y-87263521D01*
X112816911Y-87111560D01*
X112849000Y-86950240D01*
X112849000Y-86785760D01*
X112816911Y-86624440D01*
X112753967Y-86472479D01*
X112662587Y-86335719D01*
X112546281Y-86219413D01*
X112409521Y-86128033D01*
X112257560Y-86065089D01*
X112096240Y-86033000D01*
X111931760Y-86033000D01*
X111770440Y-86065089D01*
X111618479Y-86128033D01*
X111481719Y-86219413D01*
X111365413Y-86335719D01*
X111274033Y-86472479D01*
X111211089Y-86624440D01*
X111179000Y-86785760D01*
X111179000Y-86814645D01*
X111080240Y-86795000D01*
X110915760Y-86795000D01*
X110754440Y-86827089D01*
X110602479Y-86890033D01*
X110465719Y-86981413D01*
X110349413Y-87097719D01*
X110258033Y-87234479D01*
X110195089Y-87386440D01*
X110163000Y-87547760D01*
X99443594Y-87547760D01*
X99456450Y-87505383D01*
X99469193Y-87376000D01*
X99466000Y-87343581D01*
X99466000Y-84614418D01*
X99469193Y-84582000D01*
X99456450Y-84452617D01*
X99418710Y-84328207D01*
X99357425Y-84213550D01*
X99274948Y-84113052D01*
X99174450Y-84030575D01*
X99059793Y-83969290D01*
X98935383Y-83931550D01*
X98838419Y-83922000D01*
X98806000Y-83918807D01*
X98773581Y-83922000D01*
X91084000Y-83922000D01*
X91084000Y-83229766D01*
X112702994Y-83229766D01*
X112702994Y-83394246D01*
X112735083Y-83555566D01*
X112798027Y-83707527D01*
X112889407Y-83844287D01*
X113005713Y-83960593D01*
X113142473Y-84051973D01*
X113294434Y-84114917D01*
X113455754Y-84147006D01*
X113620234Y-84147006D01*
X113781554Y-84114917D01*
X113933515Y-84051973D01*
X114070275Y-83960593D01*
X114186581Y-83844287D01*
X114277961Y-83707527D01*
X114340905Y-83555566D01*
X114372994Y-83394246D01*
X114372994Y-83229766D01*
X114372993Y-83229760D01*
X117783000Y-83229760D01*
X117783000Y-83394240D01*
X117815089Y-83555560D01*
X117878033Y-83707521D01*
X117969413Y-83844281D01*
X118085719Y-83960587D01*
X118222479Y-84051967D01*
X118374440Y-84114911D01*
X118535760Y-84147000D01*
X118700240Y-84147000D01*
X118861560Y-84114911D01*
X119013521Y-84051967D01*
X119150281Y-83960587D01*
X119266587Y-83844281D01*
X119357967Y-83707521D01*
X119420911Y-83555560D01*
X119453000Y-83394240D01*
X119453000Y-83229760D01*
X119420911Y-83068440D01*
X119357967Y-82916479D01*
X119266587Y-82779719D01*
X119150281Y-82663413D01*
X119013521Y-82572033D01*
X118861560Y-82509089D01*
X118700240Y-82477000D01*
X118535760Y-82477000D01*
X118374440Y-82509089D01*
X118222479Y-82572033D01*
X118085719Y-82663413D01*
X117969413Y-82779719D01*
X117878033Y-82916479D01*
X117815089Y-83068440D01*
X117783000Y-83229760D01*
X114372993Y-83229760D01*
X114340905Y-83068446D01*
X114277961Y-82916485D01*
X114186581Y-82779725D01*
X114070275Y-82663419D01*
X113933515Y-82572039D01*
X113781554Y-82509095D01*
X113620234Y-82477006D01*
X113455754Y-82477006D01*
X113294434Y-82509095D01*
X113142473Y-82572039D01*
X113005713Y-82663419D01*
X112889407Y-82779725D01*
X112798027Y-82916485D01*
X112735083Y-83068446D01*
X112702994Y-83229766D01*
X91084000Y-83229766D01*
X91084000Y-81088868D01*
X91161719Y-81166587D01*
X91298479Y-81257967D01*
X91450440Y-81320911D01*
X91611760Y-81353000D01*
X91776240Y-81353000D01*
X91937560Y-81320911D01*
X92089521Y-81257967D01*
X92226281Y-81166587D01*
X92342587Y-81050281D01*
X92433967Y-80913521D01*
X92496911Y-80761560D01*
X92529000Y-80600240D01*
X92529000Y-80469588D01*
X92568479Y-80495967D01*
X92720440Y-80558911D01*
X92881760Y-80591000D01*
X93046240Y-80591000D01*
X93207560Y-80558911D01*
X93359521Y-80495967D01*
X93449627Y-80435760D01*
X117275000Y-80435760D01*
X117275000Y-80600240D01*
X117307089Y-80761560D01*
X117370033Y-80913521D01*
X117461413Y-81050281D01*
X117577719Y-81166587D01*
X117714479Y-81257967D01*
X117866440Y-81320911D01*
X118027760Y-81353000D01*
X118192240Y-81353000D01*
X118353560Y-81320911D01*
X118505521Y-81257967D01*
X118642281Y-81166587D01*
X118758587Y-81050281D01*
X118849967Y-80913521D01*
X118912911Y-80761560D01*
X118945000Y-80600240D01*
X118945000Y-80435760D01*
X118912911Y-80274440D01*
X118849967Y-80122479D01*
X118758587Y-79985719D01*
X118642281Y-79869413D01*
X118505521Y-79778033D01*
X118353560Y-79715089D01*
X118192240Y-79683000D01*
X118027760Y-79683000D01*
X117866440Y-79715089D01*
X117714479Y-79778033D01*
X117577719Y-79869413D01*
X117461413Y-79985719D01*
X117370033Y-80122479D01*
X117307089Y-80274440D01*
X117275000Y-80435760D01*
X93449627Y-80435760D01*
X93496281Y-80404587D01*
X93612587Y-80288281D01*
X93703967Y-80151521D01*
X93766911Y-79999560D01*
X93799000Y-79838240D01*
X93799000Y-79673760D01*
X93766911Y-79512440D01*
X93703967Y-79360479D01*
X93612587Y-79223719D01*
X93496281Y-79107413D01*
X93359521Y-79016033D01*
X93207560Y-78953089D01*
X93046240Y-78921000D01*
X92881760Y-78921000D01*
X92720440Y-78953089D01*
X92568479Y-79016033D01*
X92431719Y-79107413D01*
X92315413Y-79223719D01*
X92224033Y-79360479D01*
X92161089Y-79512440D01*
X92129000Y-79673760D01*
X92129000Y-79804412D01*
X92089521Y-79778033D01*
X91937560Y-79715089D01*
X91776240Y-79683000D01*
X91611760Y-79683000D01*
X91450440Y-79715089D01*
X91298479Y-79778033D01*
X91161719Y-79869413D01*
X91084000Y-79947132D01*
X91084000Y-78487750D01*
X116850962Y-78487750D01*
X116850962Y-78652230D01*
X116883051Y-78813550D01*
X116945995Y-78965511D01*
X117037375Y-79102271D01*
X117153681Y-79218577D01*
X117290441Y-79309957D01*
X117442402Y-79372901D01*
X117603722Y-79404990D01*
X117768202Y-79404990D01*
X117929522Y-79372901D01*
X118081483Y-79309957D01*
X118218243Y-79218577D01*
X118334549Y-79102271D01*
X118425929Y-78965511D01*
X118488873Y-78813550D01*
X118520962Y-78652230D01*
X118520962Y-78487750D01*
X118488873Y-78326430D01*
X118425929Y-78174469D01*
X118334549Y-78037709D01*
X118218243Y-77921403D01*
X118105054Y-77845772D01*
X130433004Y-77845772D01*
X130433004Y-78010252D01*
X130465093Y-78171572D01*
X130528037Y-78323533D01*
X130619417Y-78460293D01*
X130735723Y-78576599D01*
X130872483Y-78667979D01*
X131024444Y-78730923D01*
X131185764Y-78763012D01*
X131350244Y-78763012D01*
X131511564Y-78730923D01*
X131663525Y-78667979D01*
X131800285Y-78576599D01*
X131916591Y-78460293D01*
X132007971Y-78323533D01*
X132070915Y-78171572D01*
X132103004Y-78010252D01*
X132103004Y-77845772D01*
X132078450Y-77722329D01*
X132595571Y-77722329D01*
X132595571Y-77886809D01*
X132627660Y-78048129D01*
X132690604Y-78200090D01*
X132781984Y-78336850D01*
X132898290Y-78453156D01*
X133035050Y-78544536D01*
X133187011Y-78607480D01*
X133348331Y-78639569D01*
X133512811Y-78639569D01*
X133674131Y-78607480D01*
X133826092Y-78544536D01*
X133962852Y-78453156D01*
X134079158Y-78336850D01*
X134170538Y-78200090D01*
X134233482Y-78048129D01*
X134265571Y-77886809D01*
X134265571Y-77722329D01*
X134233482Y-77561009D01*
X134215618Y-77517882D01*
X134324440Y-77562957D01*
X134485760Y-77595046D01*
X134650240Y-77595046D01*
X134811560Y-77562957D01*
X134858947Y-77543329D01*
X134833000Y-77673772D01*
X134833000Y-77838252D01*
X134865089Y-77999572D01*
X134928033Y-78151533D01*
X135019413Y-78288293D01*
X135135719Y-78404599D01*
X135272479Y-78495979D01*
X135424440Y-78558923D01*
X135585760Y-78591012D01*
X135750240Y-78591012D01*
X135911560Y-78558923D01*
X136063521Y-78495979D01*
X136200281Y-78404599D01*
X136303210Y-78301670D01*
X136372487Y-78347959D01*
X136524448Y-78410903D01*
X136685768Y-78442992D01*
X136850248Y-78442992D01*
X137011568Y-78410903D01*
X137163529Y-78347959D01*
X137300289Y-78256579D01*
X137416595Y-78140273D01*
X137507975Y-78003513D01*
X137570919Y-77851552D01*
X137603008Y-77690232D01*
X137603008Y-77525752D01*
X137570919Y-77364432D01*
X137507975Y-77212471D01*
X137416595Y-77075711D01*
X137300289Y-76959405D01*
X137163529Y-76868025D01*
X137011568Y-76805081D01*
X136850248Y-76772992D01*
X136685768Y-76772992D01*
X136524448Y-76805081D01*
X136372487Y-76868025D01*
X136235727Y-76959405D01*
X136132798Y-77062334D01*
X136063521Y-77016045D01*
X135911560Y-76953101D01*
X135750240Y-76921012D01*
X135585760Y-76921012D01*
X135424440Y-76953101D01*
X135377053Y-76972729D01*
X135403000Y-76842286D01*
X135403000Y-76677806D01*
X135370911Y-76516486D01*
X135307967Y-76364525D01*
X135216587Y-76227765D01*
X135100281Y-76111459D01*
X134963521Y-76020079D01*
X134811560Y-75957135D01*
X134650240Y-75925046D01*
X134485760Y-75925046D01*
X134324440Y-75957135D01*
X134172479Y-76020079D01*
X134035719Y-76111459D01*
X133919413Y-76227765D01*
X133828033Y-76364525D01*
X133765089Y-76516486D01*
X133733000Y-76677806D01*
X133733000Y-76842286D01*
X133765089Y-77003606D01*
X133782953Y-77046733D01*
X133674131Y-77001658D01*
X133512811Y-76969569D01*
X133348331Y-76969569D01*
X133187011Y-77001658D01*
X133035050Y-77064602D01*
X132898290Y-77155982D01*
X132781984Y-77272288D01*
X132690604Y-77409048D01*
X132627660Y-77561009D01*
X132595571Y-77722329D01*
X132078450Y-77722329D01*
X132070915Y-77684452D01*
X132007971Y-77532491D01*
X131916591Y-77395731D01*
X131800285Y-77279425D01*
X131663525Y-77188045D01*
X131511564Y-77125101D01*
X131350244Y-77093012D01*
X131185764Y-77093012D01*
X131024444Y-77125101D01*
X130872483Y-77188045D01*
X130735723Y-77279425D01*
X130619417Y-77395731D01*
X130528037Y-77532491D01*
X130465093Y-77684452D01*
X130433004Y-77845772D01*
X118105054Y-77845772D01*
X118081483Y-77830023D01*
X117929522Y-77767079D01*
X117768202Y-77734990D01*
X117603722Y-77734990D01*
X117442402Y-77767079D01*
X117290441Y-77830023D01*
X117153681Y-77921403D01*
X117037375Y-78037709D01*
X116945995Y-78174469D01*
X116883051Y-78326430D01*
X116850962Y-78487750D01*
X91084000Y-78487750D01*
X91084000Y-75990777D01*
X107241983Y-75990777D01*
X107241983Y-76155257D01*
X107274072Y-76316577D01*
X107337016Y-76468538D01*
X107428396Y-76605298D01*
X107544702Y-76721604D01*
X107681462Y-76812984D01*
X107833423Y-76875928D01*
X107994743Y-76908017D01*
X108159223Y-76908017D01*
X108320543Y-76875928D01*
X108472504Y-76812984D01*
X108609264Y-76721604D01*
X108725570Y-76605298D01*
X108816950Y-76468538D01*
X108879894Y-76316577D01*
X108885626Y-76287760D01*
X120660996Y-76287760D01*
X120660996Y-76452240D01*
X120693085Y-76613560D01*
X120756029Y-76765521D01*
X120847409Y-76902281D01*
X120963715Y-77018587D01*
X121100475Y-77109967D01*
X121252436Y-77172911D01*
X121413756Y-77205000D01*
X121578236Y-77205000D01*
X121739556Y-77172911D01*
X121891517Y-77109967D01*
X122028277Y-77018587D01*
X122144583Y-76902281D01*
X122235963Y-76765521D01*
X122298907Y-76613560D01*
X122330996Y-76452240D01*
X122330996Y-76287760D01*
X122298907Y-76126440D01*
X122235963Y-75974479D01*
X122144583Y-75837719D01*
X122028277Y-75721413D01*
X121891517Y-75630033D01*
X121739556Y-75567089D01*
X121578236Y-75535000D01*
X121413756Y-75535000D01*
X121252436Y-75567089D01*
X121100475Y-75630033D01*
X120963715Y-75721413D01*
X120847409Y-75837719D01*
X120756029Y-75974479D01*
X120693085Y-76126440D01*
X120660996Y-76287760D01*
X108885626Y-76287760D01*
X108911983Y-76155257D01*
X108911983Y-75990777D01*
X108879894Y-75829457D01*
X108816950Y-75677496D01*
X108725570Y-75540736D01*
X108670554Y-75485720D01*
X137978960Y-75485720D01*
X137978960Y-75650200D01*
X138011049Y-75811520D01*
X138073993Y-75963481D01*
X138165373Y-76100241D01*
X138281679Y-76216547D01*
X138418439Y-76307927D01*
X138570400Y-76370871D01*
X138731720Y-76402960D01*
X138896200Y-76402960D01*
X139057520Y-76370871D01*
X139209481Y-76307927D01*
X139346241Y-76216547D01*
X139462547Y-76100241D01*
X139553927Y-75963481D01*
X139616871Y-75811520D01*
X139648960Y-75650200D01*
X139648960Y-75485720D01*
X139616871Y-75324400D01*
X139553927Y-75172439D01*
X139462547Y-75035679D01*
X139346241Y-74919373D01*
X139209481Y-74827993D01*
X139057520Y-74765049D01*
X138896200Y-74732960D01*
X138731720Y-74732960D01*
X138570400Y-74765049D01*
X138418439Y-74827993D01*
X138281679Y-74919373D01*
X138165373Y-75035679D01*
X138073993Y-75172439D01*
X138011049Y-75324400D01*
X137978960Y-75485720D01*
X108670554Y-75485720D01*
X108609264Y-75424430D01*
X108472504Y-75333050D01*
X108320543Y-75270106D01*
X108159223Y-75238017D01*
X107994743Y-75238017D01*
X107833423Y-75270106D01*
X107681462Y-75333050D01*
X107544702Y-75424430D01*
X107428396Y-75540736D01*
X107337016Y-75677496D01*
X107274072Y-75829457D01*
X107241983Y-75990777D01*
X91084000Y-75990777D01*
X91084000Y-74339760D01*
X120323000Y-74339760D01*
X120323000Y-74504240D01*
X120355089Y-74665560D01*
X120418033Y-74817521D01*
X120509413Y-74954281D01*
X120625719Y-75070587D01*
X120762479Y-75161967D01*
X120914440Y-75224911D01*
X121075760Y-75257000D01*
X121240240Y-75257000D01*
X121401560Y-75224911D01*
X121553521Y-75161967D01*
X121690281Y-75070587D01*
X121806587Y-74954281D01*
X121897967Y-74817521D01*
X121960911Y-74665560D01*
X121993000Y-74504240D01*
X121993000Y-74485760D01*
X124787000Y-74485760D01*
X124787000Y-74650240D01*
X124819089Y-74811560D01*
X124882033Y-74963521D01*
X124973413Y-75100281D01*
X125089719Y-75216587D01*
X125226479Y-75307967D01*
X125378440Y-75370911D01*
X125539760Y-75403000D01*
X125704240Y-75403000D01*
X125865560Y-75370911D01*
X126017521Y-75307967D01*
X126154281Y-75216587D01*
X126270587Y-75100281D01*
X126361967Y-74963521D01*
X126424911Y-74811560D01*
X126457000Y-74650240D01*
X126457000Y-74485760D01*
X126424911Y-74324440D01*
X126361967Y-74172479D01*
X126270587Y-74035719D01*
X126154281Y-73919413D01*
X126017521Y-73828033D01*
X125865560Y-73765089D01*
X125704240Y-73733000D01*
X125539760Y-73733000D01*
X125378440Y-73765089D01*
X125226479Y-73828033D01*
X125089719Y-73919413D01*
X124973413Y-74035719D01*
X124882033Y-74172479D01*
X124819089Y-74324440D01*
X124787000Y-74485760D01*
X121993000Y-74485760D01*
X121993000Y-74339760D01*
X121960911Y-74178440D01*
X121897967Y-74026479D01*
X121806587Y-73889719D01*
X121690281Y-73773413D01*
X121553521Y-73682033D01*
X121401560Y-73619089D01*
X121240240Y-73587000D01*
X121075760Y-73587000D01*
X120914440Y-73619089D01*
X120762479Y-73682033D01*
X120625719Y-73773413D01*
X120509413Y-73889719D01*
X120418033Y-74026479D01*
X120355089Y-74178440D01*
X120323000Y-74339760D01*
X91084000Y-74339760D01*
X91084000Y-72561760D01*
X104321000Y-72561760D01*
X104321000Y-72726240D01*
X104353089Y-72887560D01*
X104416033Y-73039521D01*
X104507413Y-73176281D01*
X104623719Y-73292587D01*
X104760479Y-73383967D01*
X104912440Y-73446911D01*
X105073760Y-73479000D01*
X105238240Y-73479000D01*
X105399560Y-73446911D01*
X105551521Y-73383967D01*
X105688281Y-73292587D01*
X105804587Y-73176281D01*
X105895967Y-73039521D01*
X105958911Y-72887560D01*
X105991000Y-72726240D01*
X105991000Y-72561760D01*
X105958911Y-72400440D01*
X105895967Y-72248479D01*
X105804587Y-72111719D01*
X105688281Y-71995413D01*
X105551521Y-71904033D01*
X105399560Y-71841089D01*
X105238240Y-71809000D01*
X105073760Y-71809000D01*
X104912440Y-71841089D01*
X104760479Y-71904033D01*
X104623719Y-71995413D01*
X104507413Y-72111719D01*
X104416033Y-72248479D01*
X104353089Y-72400440D01*
X104321000Y-72561760D01*
X91084000Y-72561760D01*
X91084000Y-71037760D01*
X97971000Y-71037760D01*
X97971000Y-71202240D01*
X98003089Y-71363560D01*
X98066033Y-71515521D01*
X98157413Y-71652281D01*
X98273719Y-71768587D01*
X98410479Y-71859967D01*
X98562440Y-71922911D01*
X98723760Y-71955000D01*
X98888240Y-71955000D01*
X99049560Y-71922911D01*
X99201521Y-71859967D01*
X99338281Y-71768587D01*
X99454587Y-71652281D01*
X99545967Y-71515521D01*
X99608911Y-71363560D01*
X99641000Y-71202240D01*
X99641000Y-71037760D01*
X99608911Y-70876440D01*
X99545967Y-70724479D01*
X99454587Y-70587719D01*
X99338281Y-70471413D01*
X99201521Y-70380033D01*
X99049560Y-70317089D01*
X98888240Y-70285000D01*
X98723760Y-70285000D01*
X98562440Y-70317089D01*
X98410479Y-70380033D01*
X98273719Y-70471413D01*
X98157413Y-70587719D01*
X98066033Y-70724479D01*
X98003089Y-70876440D01*
X97971000Y-71037760D01*
X91084000Y-71037760D01*
X91084000Y-70021760D01*
X109655000Y-70021760D01*
X109655000Y-70186240D01*
X109687089Y-70347560D01*
X109750033Y-70499521D01*
X109841413Y-70636281D01*
X109957719Y-70752587D01*
X110094479Y-70843967D01*
X110246440Y-70906911D01*
X110407760Y-70939000D01*
X110572240Y-70939000D01*
X110733560Y-70906911D01*
X110885521Y-70843967D01*
X110975627Y-70783760D01*
X112957000Y-70783760D01*
X112957000Y-70948240D01*
X112989089Y-71109560D01*
X113052033Y-71261521D01*
X113143413Y-71398281D01*
X113259719Y-71514587D01*
X113396479Y-71605967D01*
X113548440Y-71668911D01*
X113709760Y-71701000D01*
X113874240Y-71701000D01*
X114035560Y-71668911D01*
X114187521Y-71605967D01*
X114324281Y-71514587D01*
X114440587Y-71398281D01*
X114531967Y-71261521D01*
X114594911Y-71109560D01*
X114627000Y-70948240D01*
X114627000Y-70783760D01*
X114594911Y-70622440D01*
X114531967Y-70470479D01*
X114440587Y-70333719D01*
X114324281Y-70217413D01*
X114187521Y-70126033D01*
X114035560Y-70063089D01*
X113874240Y-70031000D01*
X113709760Y-70031000D01*
X113548440Y-70063089D01*
X113396479Y-70126033D01*
X113259719Y-70217413D01*
X113143413Y-70333719D01*
X113052033Y-70470479D01*
X112989089Y-70622440D01*
X112957000Y-70783760D01*
X110975627Y-70783760D01*
X111022281Y-70752587D01*
X111138587Y-70636281D01*
X111229967Y-70499521D01*
X111292911Y-70347560D01*
X111325000Y-70186240D01*
X111325000Y-70021760D01*
X111292911Y-69860440D01*
X111229967Y-69708479D01*
X111138587Y-69571719D01*
X111022281Y-69455413D01*
X110885521Y-69364033D01*
X110733560Y-69301089D01*
X110572240Y-69269000D01*
X110407760Y-69269000D01*
X110246440Y-69301089D01*
X110094479Y-69364033D01*
X109957719Y-69455413D01*
X109841413Y-69571719D01*
X109750033Y-69708479D01*
X109687089Y-69860440D01*
X109655000Y-70021760D01*
X91084000Y-70021760D01*
X91084000Y-68765728D01*
X98746968Y-68765728D01*
X98746968Y-68930208D01*
X98779057Y-69091528D01*
X98842001Y-69243489D01*
X98933381Y-69380249D01*
X99049687Y-69496555D01*
X99186447Y-69587935D01*
X99338408Y-69650879D01*
X99499728Y-69682968D01*
X99664208Y-69682968D01*
X99825528Y-69650879D01*
X99977489Y-69587935D01*
X100114249Y-69496555D01*
X100230555Y-69380249D01*
X100321935Y-69243489D01*
X100384879Y-69091528D01*
X100416968Y-68930208D01*
X100416968Y-68765760D01*
X101513000Y-68765760D01*
X101513000Y-68930240D01*
X101545089Y-69091560D01*
X101608033Y-69243521D01*
X101699413Y-69380281D01*
X101815719Y-69496587D01*
X101952479Y-69587967D01*
X102104440Y-69650911D01*
X102265760Y-69683000D01*
X102430240Y-69683000D01*
X102591560Y-69650911D01*
X102743521Y-69587967D01*
X102880281Y-69496587D01*
X102996587Y-69380281D01*
X103087967Y-69243521D01*
X103150911Y-69091560D01*
X103183000Y-68930240D01*
X103183000Y-68765760D01*
X103150911Y-68604440D01*
X103087967Y-68452479D01*
X102996587Y-68315719D01*
X102880281Y-68199413D01*
X102743521Y-68108033D01*
X102591560Y-68045089D01*
X102430240Y-68013000D01*
X102265760Y-68013000D01*
X102104440Y-68045089D01*
X101952479Y-68108033D01*
X101815719Y-68199413D01*
X101699413Y-68315719D01*
X101608033Y-68452479D01*
X101545089Y-68604440D01*
X101513000Y-68765760D01*
X100416968Y-68765760D01*
X100416968Y-68765728D01*
X100384879Y-68604408D01*
X100321935Y-68452447D01*
X100230555Y-68315687D01*
X100114249Y-68199381D01*
X99977489Y-68108001D01*
X99825528Y-68045057D01*
X99664208Y-68012968D01*
X99499728Y-68012968D01*
X99338408Y-68045057D01*
X99186447Y-68108001D01*
X99049687Y-68199381D01*
X98933381Y-68315687D01*
X98842001Y-68452447D01*
X98779057Y-68604408D01*
X98746968Y-68765728D01*
X91084000Y-68765728D01*
X91084000Y-64179760D01*
X91367000Y-64179760D01*
X91367000Y-64344240D01*
X91399089Y-64505560D01*
X91462033Y-64657521D01*
X91553413Y-64794281D01*
X91669719Y-64910587D01*
X91806479Y-65001967D01*
X91958440Y-65064911D01*
X92119760Y-65097000D01*
X92284240Y-65097000D01*
X92445560Y-65064911D01*
X92597521Y-65001967D01*
X92734281Y-64910587D01*
X92850587Y-64794281D01*
X92941967Y-64657521D01*
X93004911Y-64505560D01*
X93027499Y-64392000D01*
X109772630Y-64392000D01*
X109794062Y-64609598D01*
X109857532Y-64818834D01*
X109960604Y-65011666D01*
X110099314Y-65180686D01*
X110268334Y-65319396D01*
X110461166Y-65422468D01*
X110670402Y-65485938D01*
X110833479Y-65502000D01*
X111242521Y-65502000D01*
X111405598Y-65485938D01*
X111614834Y-65422468D01*
X111807666Y-65319396D01*
X111976686Y-65180686D01*
X112115396Y-65011666D01*
X112218468Y-64818834D01*
X112281938Y-64609598D01*
X112303370Y-64392000D01*
X114772630Y-64392000D01*
X114794062Y-64609598D01*
X114857532Y-64818834D01*
X114960604Y-65011666D01*
X115099314Y-65180686D01*
X115268334Y-65319396D01*
X115461166Y-65422468D01*
X115670402Y-65485938D01*
X115833479Y-65502000D01*
X116242521Y-65502000D01*
X116405598Y-65485938D01*
X116614834Y-65422468D01*
X116807666Y-65319396D01*
X116976686Y-65180686D01*
X117115396Y-65011666D01*
X117182694Y-64885760D01*
X123681000Y-64885760D01*
X123681000Y-65050240D01*
X123713089Y-65211560D01*
X123776033Y-65363521D01*
X123867413Y-65500281D01*
X123983719Y-65616587D01*
X124120479Y-65707967D01*
X124272440Y-65770911D01*
X124433760Y-65803000D01*
X124598240Y-65803000D01*
X124759560Y-65770911D01*
X124911521Y-65707967D01*
X125048281Y-65616587D01*
X125164587Y-65500281D01*
X125255967Y-65363521D01*
X125318911Y-65211560D01*
X125351000Y-65050240D01*
X125351000Y-64885760D01*
X125318911Y-64724440D01*
X125255967Y-64572479D01*
X125178280Y-64456212D01*
X127133000Y-64456212D01*
X127133000Y-64679788D01*
X127176617Y-64899067D01*
X127262176Y-65105624D01*
X127386388Y-65291520D01*
X127544480Y-65449612D01*
X127730376Y-65573824D01*
X127936933Y-65659383D01*
X128156212Y-65703000D01*
X128379788Y-65703000D01*
X128599067Y-65659383D01*
X128805624Y-65573824D01*
X128991520Y-65449612D01*
X129149612Y-65291520D01*
X129273824Y-65105624D01*
X129359383Y-64899067D01*
X129403000Y-64679788D01*
X129403000Y-64456212D01*
X135133000Y-64456212D01*
X135133000Y-64679788D01*
X135176617Y-64899067D01*
X135262176Y-65105624D01*
X135386388Y-65291520D01*
X135544480Y-65449612D01*
X135730376Y-65573824D01*
X135936933Y-65659383D01*
X136156212Y-65703000D01*
X136379788Y-65703000D01*
X136599067Y-65659383D01*
X136805624Y-65573824D01*
X136991520Y-65449612D01*
X137149612Y-65291520D01*
X137273824Y-65105624D01*
X137288836Y-65069383D01*
X137317117Y-65211560D01*
X137380061Y-65363521D01*
X137471441Y-65500281D01*
X137587747Y-65616587D01*
X137724507Y-65707967D01*
X137876468Y-65770911D01*
X138037788Y-65803000D01*
X138202268Y-65803000D01*
X138363588Y-65770911D01*
X138515549Y-65707967D01*
X138652309Y-65616587D01*
X138768615Y-65500281D01*
X138859995Y-65363521D01*
X138922939Y-65211560D01*
X138955028Y-65050240D01*
X138955028Y-64885760D01*
X138922939Y-64724440D01*
X138859995Y-64572479D01*
X138768615Y-64435719D01*
X138652309Y-64319413D01*
X138515549Y-64228033D01*
X138363588Y-64165089D01*
X138202268Y-64133000D01*
X138037788Y-64133000D01*
X137876468Y-64165089D01*
X137724507Y-64228033D01*
X137587747Y-64319413D01*
X137471441Y-64435719D01*
X137403000Y-64538148D01*
X137403000Y-64456212D01*
X137359383Y-64236933D01*
X137273824Y-64030376D01*
X137149612Y-63844480D01*
X136991520Y-63686388D01*
X136805624Y-63562176D01*
X136599067Y-63476617D01*
X136379788Y-63433000D01*
X136156212Y-63433000D01*
X135936933Y-63476617D01*
X135730376Y-63562176D01*
X135544480Y-63686388D01*
X135386388Y-63844480D01*
X135262176Y-64030376D01*
X135176617Y-64236933D01*
X135133000Y-64456212D01*
X129403000Y-64456212D01*
X129359383Y-64236933D01*
X129273824Y-64030376D01*
X129149612Y-63844480D01*
X128991520Y-63686388D01*
X128805624Y-63562176D01*
X128599067Y-63476617D01*
X128379788Y-63433000D01*
X128156212Y-63433000D01*
X127936933Y-63476617D01*
X127730376Y-63562176D01*
X127544480Y-63686388D01*
X127386388Y-63844480D01*
X127262176Y-64030376D01*
X127176617Y-64236933D01*
X127133000Y-64456212D01*
X125178280Y-64456212D01*
X125164587Y-64435719D01*
X125048281Y-64319413D01*
X124911521Y-64228033D01*
X124759560Y-64165089D01*
X124598240Y-64133000D01*
X124433760Y-64133000D01*
X124272440Y-64165089D01*
X124120479Y-64228033D01*
X123983719Y-64319413D01*
X123867413Y-64435719D01*
X123776033Y-64572479D01*
X123713089Y-64724440D01*
X123681000Y-64885760D01*
X117182694Y-64885760D01*
X117218468Y-64818834D01*
X117281938Y-64609598D01*
X117303370Y-64392000D01*
X117281938Y-64174402D01*
X117218468Y-63965166D01*
X117115396Y-63772334D01*
X116976686Y-63603314D01*
X116807666Y-63464604D01*
X116614834Y-63361532D01*
X116405598Y-63298062D01*
X116242521Y-63282000D01*
X115833479Y-63282000D01*
X115670402Y-63298062D01*
X115461166Y-63361532D01*
X115268334Y-63464604D01*
X115099314Y-63603314D01*
X114960604Y-63772334D01*
X114857532Y-63965166D01*
X114794062Y-64174402D01*
X114772630Y-64392000D01*
X112303370Y-64392000D01*
X112294802Y-64305009D01*
X112320249Y-64305009D01*
X112481569Y-64272920D01*
X112633530Y-64209976D01*
X112770290Y-64118596D01*
X112886596Y-64002290D01*
X112977976Y-63865530D01*
X113040920Y-63713569D01*
X113073009Y-63552249D01*
X113073009Y-63387769D01*
X113040920Y-63226449D01*
X112977976Y-63074488D01*
X112886596Y-62937728D01*
X112770290Y-62821422D01*
X112633530Y-62730042D01*
X112481569Y-62667098D01*
X112320249Y-62635009D01*
X112155769Y-62635009D01*
X111994449Y-62667098D01*
X111842488Y-62730042D01*
X111705728Y-62821422D01*
X111589422Y-62937728D01*
X111498042Y-63074488D01*
X111435098Y-63226449D01*
X111419985Y-63302426D01*
X111405598Y-63298062D01*
X111242521Y-63282000D01*
X110833479Y-63282000D01*
X110670402Y-63298062D01*
X110461166Y-63361532D01*
X110268334Y-63464604D01*
X110099314Y-63603314D01*
X109960604Y-63772334D01*
X109857532Y-63965166D01*
X109794062Y-64174402D01*
X109772630Y-64392000D01*
X93027499Y-64392000D01*
X93037000Y-64344240D01*
X93037000Y-64179760D01*
X93004911Y-64018440D01*
X92941967Y-63866479D01*
X92850587Y-63729719D01*
X92734281Y-63613413D01*
X92597521Y-63522033D01*
X92445560Y-63459089D01*
X92284240Y-63427000D01*
X92119760Y-63427000D01*
X91958440Y-63459089D01*
X91806479Y-63522033D01*
X91669719Y-63613413D01*
X91553413Y-63729719D01*
X91462033Y-63866479D01*
X91399089Y-64018440D01*
X91367000Y-64179760D01*
X91084000Y-64179760D01*
X91084000Y-61639760D01*
X97717000Y-61639760D01*
X97717000Y-61804240D01*
X97749089Y-61965560D01*
X97812033Y-62117521D01*
X97903413Y-62254281D01*
X98019719Y-62370587D01*
X98156479Y-62461967D01*
X98308440Y-62524911D01*
X98469760Y-62557000D01*
X98634240Y-62557000D01*
X98795560Y-62524911D01*
X98947521Y-62461967D01*
X99084281Y-62370587D01*
X99200587Y-62254281D01*
X99291967Y-62117521D01*
X99354911Y-61965560D01*
X99387000Y-61804240D01*
X99387000Y-61639760D01*
X99354911Y-61478440D01*
X99291967Y-61326479D01*
X99200587Y-61189719D01*
X99084281Y-61073413D01*
X98947521Y-60982033D01*
X98795560Y-60919089D01*
X98634240Y-60887000D01*
X98469760Y-60887000D01*
X98308440Y-60919089D01*
X98156479Y-60982033D01*
X98019719Y-61073413D01*
X97903413Y-61189719D01*
X97812033Y-61326479D01*
X97749089Y-61478440D01*
X97717000Y-61639760D01*
X91084000Y-61639760D01*
X91084000Y-60858000D01*
X109082796Y-60858000D01*
X109035384Y-60946702D01*
%TA.AperFunction,Conductor*%
D14*
G36*
X109035384Y-60946702D02*
G01*
X108973627Y-61150283D01*
X108958000Y-61308949D01*
X108958000Y-62075050D01*
X108973627Y-62233716D01*
X109035383Y-62437297D01*
X109135668Y-62624919D01*
X109270630Y-62789370D01*
X109435081Y-62924332D01*
X109622702Y-63024617D01*
X109826283Y-63086373D01*
X110038000Y-63107225D01*
X110249716Y-63086373D01*
X110453297Y-63024617D01*
X110640919Y-62924332D01*
X110805370Y-62789370D01*
X110940332Y-62624919D01*
X111040617Y-62437298D01*
X111102373Y-62233717D01*
X111118000Y-62075051D01*
X111118000Y-61308950D01*
X111102373Y-61150284D01*
X111040617Y-60946702D01*
X110993205Y-60858000D01*
X116082796Y-60858000D01*
X116035384Y-60946702D01*
X115973627Y-61150283D01*
X115958000Y-61308949D01*
X115958000Y-62075050D01*
X115973627Y-62233716D01*
X116035383Y-62437297D01*
X116135668Y-62624919D01*
X116270630Y-62789370D01*
X116435081Y-62924332D01*
X116622702Y-63024617D01*
X116826283Y-63086373D01*
X117038000Y-63107225D01*
X117249716Y-63086373D01*
X117453297Y-63024617D01*
X117640919Y-62924332D01*
X117805370Y-62789370D01*
X117940332Y-62624919D01*
X118040617Y-62437298D01*
X118102373Y-62233717D01*
X118118000Y-62075051D01*
X118118000Y-61308950D01*
X118102373Y-61150284D01*
X118040617Y-60946702D01*
X117993205Y-60858000D01*
X140056000Y-60858000D01*
X140056000Y-80899000D01*
X139464910Y-80899000D01*
X139394631Y-80729331D01*
X139150038Y-80363271D01*
X138838729Y-80051962D01*
X138472669Y-79807369D01*
X138065925Y-79638890D01*
X137634128Y-79553000D01*
X137193872Y-79553000D01*
X136762075Y-79638890D01*
X136355331Y-79807369D01*
X135989271Y-80051962D01*
X135677962Y-80363271D01*
X135433369Y-80729331D01*
X135363090Y-80899000D01*
X133858000Y-80899000D01*
X133833224Y-80901440D01*
X133809399Y-80908667D01*
X133787443Y-80920403D01*
X133768197Y-80936197D01*
X133752403Y-80955443D01*
X133740667Y-80977399D01*
X133733440Y-81001224D01*
X133731000Y-81026000D01*
X133731000Y-85814132D01*
X133641281Y-85724413D01*
X133504521Y-85633033D01*
X133352560Y-85570089D01*
X133191240Y-85538000D01*
X133026760Y-85538000D01*
X132865440Y-85570089D01*
X132713479Y-85633033D01*
X132576719Y-85724413D01*
X132460413Y-85840719D01*
X132369033Y-85977479D01*
X132306089Y-86129440D01*
X132274000Y-86290760D01*
X132274000Y-86455240D01*
X132306089Y-86616560D01*
X132369033Y-86768521D01*
X132460413Y-86905281D01*
X132576719Y-87021587D01*
X132713479Y-87112967D01*
X132865440Y-87175911D01*
X133026760Y-87208000D01*
X133191240Y-87208000D01*
X133352560Y-87175911D01*
X133504521Y-87112967D01*
X133641281Y-87021587D01*
X133731000Y-86931868D01*
X133731000Y-89947630D01*
X133713946Y-89906458D01*
X133622566Y-89769698D01*
X133506260Y-89653392D01*
X133369500Y-89562012D01*
X133217539Y-89499068D01*
X133056219Y-89466979D01*
X132891739Y-89466979D01*
X132730419Y-89499068D01*
X132578458Y-89562012D01*
X132441698Y-89653392D01*
X132325392Y-89769698D01*
X132234012Y-89906458D01*
X132171068Y-90058419D01*
X132138979Y-90219739D01*
X132138979Y-90384219D01*
X132171068Y-90545539D01*
X132234012Y-90697500D01*
X132325392Y-90834260D01*
X132441698Y-90950566D01*
X132578458Y-91041946D01*
X132730419Y-91104890D01*
X132891739Y-91136979D01*
X133056219Y-91136979D01*
X133217539Y-91104890D01*
X133369500Y-91041946D01*
X133506260Y-90950566D01*
X133622566Y-90834260D01*
X133713946Y-90697500D01*
X133731000Y-90656328D01*
X133731000Y-91979632D01*
X133713945Y-91938457D01*
X133622565Y-91801697D01*
X133506259Y-91685391D01*
X133369499Y-91594011D01*
X133217538Y-91531067D01*
X133056218Y-91498978D01*
X132891738Y-91498978D01*
X132730418Y-91531067D01*
X132578457Y-91594011D01*
X132441697Y-91685391D01*
X132325391Y-91801697D01*
X132234011Y-91938457D01*
X132171067Y-92090418D01*
X132138978Y-92251738D01*
X132138978Y-92416218D01*
X132171067Y-92577538D01*
X132234011Y-92729499D01*
X132325391Y-92866259D01*
X132441697Y-92982565D01*
X132578457Y-93073945D01*
X132730418Y-93136889D01*
X132891738Y-93168978D01*
X133056218Y-93168978D01*
X133217538Y-93136889D01*
X133369499Y-93073945D01*
X133506259Y-92982565D01*
X133622565Y-92866259D01*
X133713945Y-92729499D01*
X133731000Y-92688324D01*
X133731000Y-107473608D01*
X133713962Y-107432474D01*
X133622582Y-107295714D01*
X133506276Y-107179408D01*
X133369516Y-107088028D01*
X133217555Y-107025084D01*
X133056235Y-106992995D01*
X132891755Y-106992995D01*
X132730435Y-107025084D01*
X132578474Y-107088028D01*
X132441714Y-107179408D01*
X132325408Y-107295714D01*
X132234028Y-107432474D01*
X132171084Y-107584435D01*
X132138995Y-107745755D01*
X132138995Y-107910235D01*
X132171084Y-108071555D01*
X132234028Y-108223516D01*
X132325408Y-108360276D01*
X132441714Y-108476582D01*
X132578474Y-108567962D01*
X132730435Y-108630906D01*
X132891755Y-108662995D01*
X133056235Y-108662995D01*
X133217555Y-108630906D01*
X133369516Y-108567962D01*
X133506276Y-108476582D01*
X133622582Y-108360276D01*
X133713962Y-108223516D01*
X133731000Y-108182382D01*
X133731000Y-110338000D01*
X91084000Y-110338000D01*
X91084000Y-105697872D01*
X93269000Y-105697872D01*
X93269000Y-106138128D01*
X93354890Y-106569925D01*
X93523369Y-106976669D01*
X93767962Y-107342729D01*
X94079271Y-107654038D01*
X94445331Y-107898631D01*
X94852075Y-108067110D01*
X95283872Y-108153000D01*
X95724128Y-108153000D01*
X96155925Y-108067110D01*
X96562669Y-107898631D01*
X96791470Y-107745751D01*
X115628991Y-107745751D01*
X115628991Y-107910231D01*
X115661080Y-108071551D01*
X115724024Y-108223512D01*
X115815404Y-108360272D01*
X115931710Y-108476578D01*
X116068470Y-108567958D01*
X116220431Y-108630902D01*
X116381751Y-108662991D01*
X116546231Y-108662991D01*
X116707551Y-108630902D01*
X116859512Y-108567958D01*
X116996272Y-108476578D01*
X117112578Y-108360272D01*
X117203958Y-108223512D01*
X117266902Y-108071551D01*
X117298991Y-107910231D01*
X117298991Y-107745751D01*
X117266902Y-107584431D01*
X117203958Y-107432470D01*
X117112578Y-107295710D01*
X117044645Y-107227777D01*
X127058983Y-107227777D01*
X127058983Y-107392257D01*
X127091072Y-107553577D01*
X127154016Y-107705538D01*
X127245396Y-107842298D01*
X127361702Y-107958604D01*
X127498462Y-108049984D01*
X127650423Y-108112928D01*
X127811743Y-108145017D01*
X127976223Y-108145017D01*
X128137543Y-108112928D01*
X128289504Y-108049984D01*
X128426264Y-107958604D01*
X128524000Y-107860868D01*
X128631739Y-107968607D01*
X128768499Y-108059987D01*
X128920460Y-108122931D01*
X129081780Y-108155020D01*
X129246260Y-108155020D01*
X129407580Y-108122931D01*
X129559541Y-108059987D01*
X129696301Y-107968607D01*
X129812607Y-107852301D01*
X129903987Y-107715541D01*
X129966931Y-107563580D01*
X129999020Y-107402260D01*
X129999020Y-107237780D01*
X129966931Y-107076460D01*
X129903987Y-106924499D01*
X129812607Y-106787739D01*
X129696301Y-106671433D01*
X129559541Y-106580053D01*
X129407580Y-106517109D01*
X129246260Y-106485020D01*
X129081780Y-106485020D01*
X128920460Y-106517109D01*
X128768499Y-106580053D01*
X128631739Y-106671433D01*
X128534003Y-106769169D01*
X128426264Y-106661430D01*
X128289504Y-106570050D01*
X128137543Y-106507106D01*
X127976223Y-106475017D01*
X127811743Y-106475017D01*
X127650423Y-106507106D01*
X127498462Y-106570050D01*
X127361702Y-106661430D01*
X127245396Y-106777736D01*
X127154016Y-106914496D01*
X127091072Y-107066457D01*
X127058983Y-107227777D01*
X117044645Y-107227777D01*
X116996272Y-107179404D01*
X116859512Y-107088024D01*
X116707551Y-107025080D01*
X116546231Y-106992991D01*
X116381751Y-106992991D01*
X116220431Y-107025080D01*
X116068470Y-107088024D01*
X115931710Y-107179404D01*
X115815404Y-107295710D01*
X115724024Y-107432470D01*
X115661080Y-107584431D01*
X115628991Y-107745751D01*
X96791470Y-107745751D01*
X96928729Y-107654038D01*
X97240038Y-107342729D01*
X97484631Y-106976669D01*
X97653110Y-106569925D01*
X97739000Y-106138128D01*
X97739000Y-105697872D01*
X97653110Y-105266075D01*
X97484631Y-104859331D01*
X97240038Y-104493271D01*
X96928729Y-104181962D01*
X96562669Y-103937369D01*
X96240109Y-103803760D01*
X125789008Y-103803760D01*
X125789008Y-103968240D01*
X125821097Y-104129560D01*
X125884041Y-104281521D01*
X125975421Y-104418281D01*
X126091727Y-104534587D01*
X126228487Y-104625967D01*
X126380448Y-104688911D01*
X126541768Y-104721000D01*
X126706248Y-104721000D01*
X126867568Y-104688911D01*
X127019529Y-104625967D01*
X127156289Y-104534587D01*
X127272595Y-104418281D01*
X127363975Y-104281521D01*
X127426919Y-104129560D01*
X127459008Y-103968240D01*
X127459008Y-103803760D01*
X127426919Y-103642440D01*
X127363975Y-103490479D01*
X127272595Y-103353719D01*
X127156289Y-103237413D01*
X127019529Y-103146033D01*
X126867568Y-103083089D01*
X126706248Y-103051000D01*
X126541768Y-103051000D01*
X126380448Y-103083089D01*
X126228487Y-103146033D01*
X126091727Y-103237413D01*
X125975421Y-103353719D01*
X125884041Y-103490479D01*
X125821097Y-103642440D01*
X125789008Y-103803760D01*
X96240109Y-103803760D01*
X96155925Y-103768890D01*
X95724128Y-103683000D01*
X95283872Y-103683000D01*
X94852075Y-103768890D01*
X94445331Y-103937369D01*
X94079271Y-104181962D01*
X93767962Y-104493271D01*
X93523369Y-104859331D01*
X93354890Y-105266075D01*
X93269000Y-105697872D01*
X91084000Y-105697872D01*
X91084000Y-101904183D01*
X91198705Y-101927000D01*
X91363185Y-101927000D01*
X91524505Y-101894911D01*
X91676466Y-101831967D01*
X91813226Y-101740587D01*
X91868473Y-101685341D01*
X91923719Y-101740587D01*
X92060479Y-101831967D01*
X92212440Y-101894911D01*
X92373760Y-101927000D01*
X92538240Y-101927000D01*
X92699560Y-101894911D01*
X92851521Y-101831967D01*
X92988281Y-101740587D01*
X93104587Y-101624281D01*
X93195967Y-101487521D01*
X93258911Y-101335560D01*
X93291000Y-101174240D01*
X93291000Y-101009760D01*
X93258911Y-100848440D01*
X93201982Y-100711000D01*
X93980000Y-100711000D01*
X94004776Y-100708560D01*
X94028601Y-100701333D01*
X94050557Y-100689597D01*
X94069803Y-100673803D01*
X94085597Y-100654557D01*
X94097333Y-100632601D01*
X94104560Y-100608776D01*
X94107000Y-100584000D01*
X94107000Y-98481760D01*
X101031000Y-98481760D01*
X101031000Y-98646240D01*
X101063089Y-98807560D01*
X101126033Y-98959521D01*
X101217413Y-99096281D01*
X101333719Y-99212587D01*
X101470479Y-99303967D01*
X101622440Y-99366911D01*
X101783760Y-99399000D01*
X101861317Y-99399000D01*
X101836753Y-99415413D01*
X101720447Y-99531719D01*
X101629067Y-99668479D01*
X101566123Y-99820440D01*
X101534034Y-99981760D01*
X101534034Y-100146240D01*
X101566123Y-100307560D01*
X101629067Y-100459521D01*
X101720447Y-100596281D01*
X101836753Y-100712587D01*
X101973513Y-100803967D01*
X102125474Y-100866911D01*
X102286794Y-100899000D01*
X102451274Y-100899000D01*
X102612594Y-100866911D01*
X102764555Y-100803967D01*
X102901315Y-100712587D01*
X103017621Y-100596281D01*
X103109001Y-100459521D01*
X103171945Y-100307560D01*
X103204034Y-100146240D01*
X103204034Y-99981760D01*
X103171945Y-99820440D01*
X103109001Y-99668479D01*
X103017621Y-99531719D01*
X102901315Y-99415413D01*
X102764555Y-99324033D01*
X102612594Y-99261089D01*
X102451274Y-99229000D01*
X102373717Y-99229000D01*
X102398281Y-99212587D01*
X102514587Y-99096281D01*
X102605967Y-98959521D01*
X102668911Y-98807560D01*
X102701000Y-98646240D01*
X102701000Y-98481760D01*
X102668911Y-98320440D01*
X102605967Y-98168479D01*
X102514587Y-98031719D01*
X102398281Y-97915413D01*
X102261521Y-97824033D01*
X102109560Y-97761089D01*
X101948240Y-97729000D01*
X101783760Y-97729000D01*
X101622440Y-97761089D01*
X101470479Y-97824033D01*
X101333719Y-97915413D01*
X101217413Y-98031719D01*
X101126033Y-98168479D01*
X101063089Y-98320440D01*
X101031000Y-98481760D01*
X94107000Y-98481760D01*
X94107000Y-98044000D01*
X94104560Y-98019224D01*
X94097333Y-97995399D01*
X94085597Y-97973443D01*
X94069803Y-97954197D01*
X94050557Y-97938403D01*
X94028601Y-97926667D01*
X94004776Y-97919440D01*
X93980000Y-97917000D01*
X91084000Y-97917000D01*
X91084000Y-96691760D01*
X93145000Y-96691760D01*
X93145000Y-96856240D01*
X93177089Y-97017560D01*
X93240033Y-97169521D01*
X93331413Y-97306281D01*
X93447719Y-97422587D01*
X93584479Y-97513967D01*
X93736440Y-97576911D01*
X93897760Y-97609000D01*
X94062240Y-97609000D01*
X94223560Y-97576911D01*
X94375521Y-97513967D01*
X94512281Y-97422587D01*
X94628587Y-97306281D01*
X94719967Y-97169521D01*
X94782911Y-97017560D01*
X94797193Y-96945760D01*
X122609000Y-96945760D01*
X122609000Y-97110240D01*
X122641089Y-97271560D01*
X122698018Y-97409000D01*
X122641089Y-97546440D01*
X122609000Y-97707760D01*
X122609000Y-97872240D01*
X122641089Y-98033560D01*
X122704033Y-98185521D01*
X122795413Y-98322281D01*
X122911719Y-98438587D01*
X123048479Y-98529967D01*
X123200440Y-98592911D01*
X123361760Y-98625000D01*
X123526240Y-98625000D01*
X123687560Y-98592911D01*
X123825000Y-98535982D01*
X123926129Y-98577871D01*
X123968018Y-98679000D01*
X123926129Y-98780129D01*
X123825000Y-98822018D01*
X123687560Y-98765089D01*
X123526240Y-98733000D01*
X123361760Y-98733000D01*
X123200440Y-98765089D01*
X123048479Y-98828033D01*
X122911719Y-98919413D01*
X122795413Y-99035719D01*
X122704033Y-99172479D01*
X122641089Y-99324440D01*
X122609000Y-99485760D01*
X122609000Y-99650240D01*
X122641089Y-99811560D01*
X122698018Y-99949000D01*
X122641089Y-100086440D01*
X122609000Y-100247760D01*
X122609000Y-100412240D01*
X122641089Y-100573560D01*
X122704033Y-100725521D01*
X122795413Y-100862281D01*
X122911719Y-100978587D01*
X123048479Y-101069967D01*
X123200440Y-101132911D01*
X123361760Y-101165000D01*
X123526240Y-101165000D01*
X123687560Y-101132911D01*
X123825000Y-101075982D01*
X123962440Y-101132911D01*
X124123760Y-101165000D01*
X124288240Y-101165000D01*
X124449560Y-101132911D01*
X124601521Y-101069967D01*
X124738281Y-100978587D01*
X124854587Y-100862281D01*
X124945967Y-100725521D01*
X125008911Y-100573560D01*
X125041000Y-100412240D01*
X125041000Y-100247760D01*
X125008911Y-100086440D01*
X124951982Y-99949000D01*
X124993871Y-99847871D01*
X125095000Y-99805982D01*
X125196129Y-99847871D01*
X125238018Y-99949000D01*
X125181089Y-100086440D01*
X125149000Y-100247760D01*
X125149000Y-100412240D01*
X125181089Y-100573560D01*
X125244033Y-100725521D01*
X125335413Y-100862281D01*
X125451719Y-100978587D01*
X125588479Y-101069967D01*
X125740440Y-101132911D01*
X125901760Y-101165000D01*
X126066240Y-101165000D01*
X126227560Y-101132911D01*
X126365000Y-101075982D01*
X126502440Y-101132911D01*
X126663760Y-101165000D01*
X126828240Y-101165000D01*
X126989560Y-101132911D01*
X127141521Y-101069967D01*
X127278281Y-100978587D01*
X127394587Y-100862281D01*
X127485967Y-100725521D01*
X127548911Y-100573560D01*
X127581000Y-100412240D01*
X127581000Y-100247760D01*
X127548911Y-100086440D01*
X127491982Y-99949000D01*
X127548911Y-99811560D01*
X127581000Y-99650240D01*
X127581000Y-99485760D01*
X127548911Y-99324440D01*
X127485967Y-99172479D01*
X127394587Y-99035719D01*
X127278281Y-98919413D01*
X127141521Y-98828033D01*
X126989560Y-98765089D01*
X126828240Y-98733000D01*
X126663760Y-98733000D01*
X126502440Y-98765089D01*
X126365000Y-98822018D01*
X126263871Y-98780129D01*
X126221982Y-98679000D01*
X126263871Y-98577871D01*
X126365000Y-98535982D01*
X126502440Y-98592911D01*
X126663760Y-98625000D01*
X126828240Y-98625000D01*
X126989560Y-98592911D01*
X127141521Y-98529967D01*
X127278281Y-98438587D01*
X127394587Y-98322281D01*
X127485967Y-98185521D01*
X127548911Y-98033560D01*
X127581000Y-97872240D01*
X127581000Y-97707760D01*
X127548911Y-97546440D01*
X127491982Y-97409000D01*
X127548911Y-97271560D01*
X127581000Y-97110240D01*
X127581000Y-96945760D01*
X127548911Y-96784440D01*
X127485967Y-96632479D01*
X127394587Y-96495719D01*
X127278281Y-96379413D01*
X127141521Y-96288033D01*
X126989560Y-96225089D01*
X126828240Y-96193000D01*
X126663760Y-96193000D01*
X126502440Y-96225089D01*
X126365000Y-96282018D01*
X126227560Y-96225089D01*
X126066240Y-96193000D01*
X125901760Y-96193000D01*
X125740440Y-96225089D01*
X125588479Y-96288033D01*
X125451719Y-96379413D01*
X125335413Y-96495719D01*
X125244033Y-96632479D01*
X125181089Y-96784440D01*
X125149000Y-96945760D01*
X125149000Y-97110240D01*
X125181089Y-97271560D01*
X125238018Y-97409000D01*
X125196129Y-97510129D01*
X125095000Y-97552018D01*
X124993871Y-97510129D01*
X124951982Y-97409000D01*
X125008911Y-97271560D01*
X125041000Y-97110240D01*
X125041000Y-96945760D01*
X125008911Y-96784440D01*
X124945967Y-96632479D01*
X124854587Y-96495719D01*
X124738281Y-96379413D01*
X124601521Y-96288033D01*
X124449560Y-96225089D01*
X124288240Y-96193000D01*
X124123760Y-96193000D01*
X123962440Y-96225089D01*
X123825000Y-96282018D01*
X123687560Y-96225089D01*
X123526240Y-96193000D01*
X123361760Y-96193000D01*
X123200440Y-96225089D01*
X123048479Y-96288033D01*
X122911719Y-96379413D01*
X122795413Y-96495719D01*
X122704033Y-96632479D01*
X122641089Y-96784440D01*
X122609000Y-96945760D01*
X94797193Y-96945760D01*
X94815000Y-96856240D01*
X94815000Y-96691760D01*
X94782911Y-96530440D01*
X94719967Y-96378479D01*
X94628587Y-96241719D01*
X94512281Y-96125413D01*
X94375521Y-96034033D01*
X94223560Y-95971089D01*
X94062240Y-95939000D01*
X93897760Y-95939000D01*
X93736440Y-95971089D01*
X93584479Y-96034033D01*
X93447719Y-96125413D01*
X93331413Y-96241719D01*
X93240033Y-96378479D01*
X93177089Y-96530440D01*
X93145000Y-96691760D01*
X91084000Y-96691760D01*
X91084000Y-94511760D01*
X91515000Y-94511760D01*
X91515000Y-94676240D01*
X91547089Y-94837560D01*
X91610033Y-94989521D01*
X91701413Y-95126281D01*
X91817719Y-95242587D01*
X91954479Y-95333967D01*
X92106440Y-95396911D01*
X92267760Y-95429000D01*
X92432240Y-95429000D01*
X92593560Y-95396911D01*
X92745521Y-95333967D01*
X92882281Y-95242587D01*
X92985000Y-95139868D01*
X93087719Y-95242587D01*
X93224479Y-95333967D01*
X93376440Y-95396911D01*
X93537760Y-95429000D01*
X93702240Y-95429000D01*
X93863560Y-95396911D01*
X94015521Y-95333967D01*
X94152281Y-95242587D01*
X94268587Y-95126281D01*
X94359967Y-94989521D01*
X94422911Y-94837560D01*
X94455000Y-94676240D01*
X94455000Y-94511760D01*
X94422911Y-94350440D01*
X94359967Y-94198479D01*
X94328754Y-94151764D01*
X120708997Y-94151764D01*
X120708997Y-94316244D01*
X120741086Y-94477564D01*
X120804030Y-94629525D01*
X120895410Y-94766285D01*
X121011716Y-94882591D01*
X121148476Y-94973971D01*
X121300437Y-95036915D01*
X121461757Y-95069004D01*
X121626237Y-95069004D01*
X121787557Y-95036915D01*
X121939518Y-94973971D01*
X122076278Y-94882591D01*
X122179004Y-94779866D01*
X122281719Y-94882581D01*
X122418479Y-94973961D01*
X122570440Y-95036905D01*
X122731760Y-95068994D01*
X122896240Y-95068994D01*
X123057560Y-95036905D01*
X123209521Y-94973961D01*
X123346281Y-94882581D01*
X123462587Y-94766275D01*
X123553967Y-94629515D01*
X123616911Y-94477554D01*
X123649000Y-94316234D01*
X123649000Y-94151760D01*
X127181000Y-94151760D01*
X127181000Y-94316240D01*
X127213089Y-94477560D01*
X127276033Y-94629521D01*
X127367413Y-94766281D01*
X127483719Y-94882587D01*
X127620479Y-94973967D01*
X127772440Y-95036911D01*
X127933760Y-95069000D01*
X128098240Y-95069000D01*
X128259560Y-95036911D01*
X128397000Y-94979982D01*
X128534440Y-95036911D01*
X128695760Y-95069000D01*
X128860240Y-95069000D01*
X129021560Y-95036911D01*
X129173521Y-94973967D01*
X129256017Y-94918845D01*
X129338513Y-94973967D01*
X129490474Y-95036911D01*
X129651794Y-95069000D01*
X129816274Y-95069000D01*
X129977594Y-95036911D01*
X130129555Y-94973967D01*
X130266315Y-94882587D01*
X130382621Y-94766281D01*
X130474001Y-94629521D01*
X130536945Y-94477560D01*
X130569034Y-94316240D01*
X130569034Y-94151760D01*
X130536945Y-93990440D01*
X130474001Y-93838479D01*
X130382621Y-93701719D01*
X130266315Y-93585413D01*
X130129555Y-93494033D01*
X129977594Y-93431089D01*
X129816274Y-93399000D01*
X129651794Y-93399000D01*
X129490474Y-93431089D01*
X129338513Y-93494033D01*
X129256017Y-93549155D01*
X129173521Y-93494033D01*
X129021560Y-93431089D01*
X128860240Y-93399000D01*
X128695760Y-93399000D01*
X128534440Y-93431089D01*
X128397000Y-93488018D01*
X128259560Y-93431089D01*
X128098240Y-93399000D01*
X127933760Y-93399000D01*
X127772440Y-93431089D01*
X127620479Y-93494033D01*
X127483719Y-93585413D01*
X127367413Y-93701719D01*
X127276033Y-93838479D01*
X127213089Y-93990440D01*
X127181000Y-94151760D01*
X123649000Y-94151760D01*
X123649000Y-94151754D01*
X123616911Y-93990434D01*
X123553967Y-93838473D01*
X123462587Y-93701713D01*
X123346281Y-93585407D01*
X123209521Y-93494027D01*
X123057560Y-93431083D01*
X122896240Y-93398994D01*
X122731760Y-93398994D01*
X122570440Y-93431083D01*
X122418479Y-93494027D01*
X122281719Y-93585407D01*
X122178994Y-93688133D01*
X122076278Y-93585417D01*
X121939518Y-93494037D01*
X121787557Y-93431093D01*
X121626237Y-93399004D01*
X121461757Y-93399004D01*
X121300437Y-93431093D01*
X121148476Y-93494037D01*
X121011716Y-93585417D01*
X120895410Y-93701723D01*
X120804030Y-93838483D01*
X120741086Y-93990444D01*
X120708997Y-94151764D01*
X94328754Y-94151764D01*
X94268587Y-94061719D01*
X94152281Y-93945413D01*
X94015521Y-93854033D01*
X93863560Y-93791089D01*
X93702240Y-93759000D01*
X93537760Y-93759000D01*
X93376440Y-93791089D01*
X93224479Y-93854033D01*
X93087719Y-93945413D01*
X92985000Y-94048132D01*
X92882281Y-93945413D01*
X92745521Y-93854033D01*
X92593560Y-93791089D01*
X92432240Y-93759000D01*
X92267760Y-93759000D01*
X92106440Y-93791089D01*
X91954479Y-93854033D01*
X91817719Y-93945413D01*
X91701413Y-94061719D01*
X91610033Y-94198479D01*
X91547089Y-94350440D01*
X91515000Y-94511760D01*
X91084000Y-94511760D01*
X91084000Y-92881760D01*
X95431000Y-92881760D01*
X95431000Y-93046240D01*
X95463089Y-93207560D01*
X95526033Y-93359521D01*
X95617413Y-93496281D01*
X95733719Y-93612587D01*
X95870479Y-93703967D01*
X96022440Y-93766911D01*
X96183760Y-93799000D01*
X96348240Y-93799000D01*
X96509560Y-93766911D01*
X96661521Y-93703967D01*
X96798281Y-93612587D01*
X96914587Y-93496281D01*
X97005967Y-93359521D01*
X97068911Y-93207560D01*
X97101000Y-93046240D01*
X97101000Y-92881760D01*
X97068911Y-92720440D01*
X97005967Y-92568479D01*
X96914587Y-92431719D01*
X96798281Y-92315413D01*
X96661521Y-92224033D01*
X96509560Y-92161089D01*
X96348240Y-92129000D01*
X96183760Y-92129000D01*
X96022440Y-92161089D01*
X95870479Y-92224033D01*
X95733719Y-92315413D01*
X95617413Y-92431719D01*
X95526033Y-92568479D01*
X95463089Y-92720440D01*
X95431000Y-92881760D01*
X91084000Y-92881760D01*
X91084000Y-92119760D01*
X107369000Y-92119760D01*
X107369000Y-92284240D01*
X107401089Y-92445560D01*
X107464033Y-92597521D01*
X107555413Y-92734281D01*
X107671719Y-92850587D01*
X107808479Y-92941967D01*
X107960440Y-93004911D01*
X108121760Y-93037000D01*
X108286240Y-93037000D01*
X108447560Y-93004911D01*
X108599521Y-92941967D01*
X108736281Y-92850587D01*
X108852587Y-92734281D01*
X108943967Y-92597521D01*
X109006911Y-92445560D01*
X109039000Y-92284240D01*
X109039000Y-92241725D01*
X114359023Y-92241725D01*
X114359023Y-92406205D01*
X114391112Y-92567525D01*
X114454056Y-92719486D01*
X114545436Y-92856246D01*
X114661742Y-92972552D01*
X114798502Y-93063932D01*
X114950463Y-93126876D01*
X115111783Y-93158965D01*
X115276263Y-93158965D01*
X115437583Y-93126876D01*
X115589544Y-93063932D01*
X115726304Y-92972552D01*
X115842610Y-92856246D01*
X115933990Y-92719486D01*
X115996934Y-92567525D01*
X116029023Y-92406205D01*
X116029023Y-92241725D01*
X115996934Y-92080405D01*
X115933990Y-91928444D01*
X115842610Y-91791684D01*
X115726304Y-91675378D01*
X115589544Y-91583998D01*
X115437583Y-91521054D01*
X115276263Y-91488965D01*
X115111783Y-91488965D01*
X114950463Y-91521054D01*
X114798502Y-91583998D01*
X114661742Y-91675378D01*
X114545436Y-91791684D01*
X114454056Y-91928444D01*
X114391112Y-92080405D01*
X114359023Y-92241725D01*
X109039000Y-92241725D01*
X109039000Y-92119760D01*
X109006911Y-91958440D01*
X108943967Y-91806479D01*
X108852587Y-91669719D01*
X108736281Y-91553413D01*
X108599521Y-91462033D01*
X108447560Y-91399089D01*
X108286240Y-91367000D01*
X108121760Y-91367000D01*
X107960440Y-91399089D01*
X107808479Y-91462033D01*
X107671719Y-91553413D01*
X107555413Y-91669719D01*
X107464033Y-91806479D01*
X107401089Y-91958440D01*
X107369000Y-92119760D01*
X91084000Y-92119760D01*
X91084000Y-89325760D01*
X108131000Y-89325760D01*
X108131000Y-89490240D01*
X108163089Y-89651560D01*
X108226033Y-89803521D01*
X108317413Y-89940281D01*
X108433719Y-90056587D01*
X108570479Y-90147967D01*
X108722440Y-90210911D01*
X108883760Y-90243000D01*
X109048240Y-90243000D01*
X109209560Y-90210911D01*
X109361521Y-90147967D01*
X109474000Y-90072811D01*
X109586479Y-90147967D01*
X109738440Y-90210911D01*
X109899760Y-90243000D01*
X110064240Y-90243000D01*
X110225560Y-90210911D01*
X110377521Y-90147967D01*
X110514281Y-90056587D01*
X110630587Y-89940281D01*
X110721967Y-89803521D01*
X110784911Y-89651560D01*
X110817000Y-89490240D01*
X110817000Y-89325760D01*
X110784911Y-89164440D01*
X110721967Y-89012479D01*
X110630587Y-88875719D01*
X110514281Y-88759413D01*
X110377521Y-88668033D01*
X110225560Y-88605089D01*
X110064240Y-88573000D01*
X109899760Y-88573000D01*
X109738440Y-88605089D01*
X109586479Y-88668033D01*
X109474000Y-88743189D01*
X109361521Y-88668033D01*
X109209560Y-88605089D01*
X109048240Y-88573000D01*
X108883760Y-88573000D01*
X108722440Y-88605089D01*
X108570479Y-88668033D01*
X108433719Y-88759413D01*
X108317413Y-88875719D01*
X108226033Y-89012479D01*
X108163089Y-89164440D01*
X108131000Y-89325760D01*
X91084000Y-89325760D01*
X91084000Y-88036000D01*
X98773581Y-88036000D01*
X98806000Y-88039193D01*
X98838419Y-88036000D01*
X98935383Y-88026450D01*
X99059793Y-87988710D01*
X99174450Y-87927425D01*
X99274948Y-87844948D01*
X99357425Y-87744450D01*
X99418710Y-87629793D01*
X99443594Y-87547760D01*
X110163000Y-87547760D01*
X110163000Y-87712240D01*
X110195089Y-87873560D01*
X110258033Y-88025521D01*
X110349413Y-88162281D01*
X110465719Y-88278587D01*
X110602479Y-88369967D01*
X110754440Y-88432911D01*
X110915760Y-88465000D01*
X111080240Y-88465000D01*
X111241560Y-88432911D01*
X111393521Y-88369967D01*
X111483627Y-88309760D01*
X112022997Y-88309760D01*
X112022997Y-88474240D01*
X112055086Y-88635560D01*
X112118030Y-88787521D01*
X112209410Y-88924281D01*
X112325716Y-89040587D01*
X112462476Y-89131967D01*
X112614437Y-89194911D01*
X112775757Y-89227000D01*
X112797915Y-89227000D01*
X112818019Y-89275535D01*
X112909399Y-89412295D01*
X113025705Y-89528601D01*
X113162465Y-89619981D01*
X113314426Y-89682925D01*
X113475746Y-89715014D01*
X113640226Y-89715014D01*
X113801546Y-89682925D01*
X113953507Y-89619981D01*
X114090267Y-89528601D01*
X114206573Y-89412295D01*
X114264393Y-89325760D01*
X117783000Y-89325760D01*
X117783000Y-89490240D01*
X117815089Y-89651560D01*
X117878033Y-89803521D01*
X117969413Y-89940281D01*
X118085719Y-90056587D01*
X118222479Y-90147967D01*
X118374440Y-90210911D01*
X118535760Y-90243000D01*
X118700240Y-90243000D01*
X118861560Y-90210911D01*
X119013521Y-90147967D01*
X119150281Y-90056587D01*
X119266587Y-89940281D01*
X119357967Y-89803521D01*
X119420911Y-89651560D01*
X119453000Y-89490240D01*
X119453000Y-89325760D01*
X119420911Y-89164440D01*
X119357967Y-89012479D01*
X119266587Y-88875719D01*
X119150281Y-88759413D01*
X119013521Y-88668033D01*
X118861560Y-88605089D01*
X118700240Y-88573000D01*
X118535760Y-88573000D01*
X118374440Y-88605089D01*
X118222479Y-88668033D01*
X118085719Y-88759413D01*
X117969413Y-88875719D01*
X117878033Y-89012479D01*
X117815089Y-89164440D01*
X117783000Y-89325760D01*
X114264393Y-89325760D01*
X114297953Y-89275535D01*
X114360897Y-89123574D01*
X114392986Y-88962254D01*
X114392986Y-88797774D01*
X114360897Y-88636454D01*
X114297953Y-88484493D01*
X114206573Y-88347733D01*
X114090267Y-88231427D01*
X113953507Y-88140047D01*
X113801546Y-88077103D01*
X113640226Y-88045014D01*
X113618068Y-88045014D01*
X113597964Y-87996479D01*
X113506584Y-87859719D01*
X113403865Y-87757000D01*
X116332000Y-87757000D01*
X116356776Y-87754560D01*
X116380601Y-87747333D01*
X116402557Y-87735597D01*
X116421803Y-87719803D01*
X116437597Y-87700557D01*
X116449333Y-87678601D01*
X116456560Y-87654776D01*
X116459000Y-87630000D01*
X116459000Y-85261760D01*
X116766982Y-85261760D01*
X116766982Y-85426240D01*
X116799071Y-85587560D01*
X116862015Y-85739521D01*
X116937180Y-85852013D01*
X116862033Y-85964479D01*
X116799089Y-86116440D01*
X116767000Y-86277760D01*
X116767000Y-86442240D01*
X116799089Y-86603560D01*
X116862033Y-86755521D01*
X116953413Y-86892281D01*
X117069719Y-87008587D01*
X117206479Y-87099967D01*
X117358440Y-87162911D01*
X117519760Y-87195000D01*
X117684240Y-87195000D01*
X117845560Y-87162911D01*
X117997521Y-87099967D01*
X118134281Y-87008587D01*
X118250587Y-86892281D01*
X118341967Y-86755521D01*
X118404911Y-86603560D01*
X118437000Y-86442240D01*
X118437000Y-86277760D01*
X118404911Y-86116440D01*
X118341967Y-85964479D01*
X118266802Y-85851987D01*
X118321744Y-85769760D01*
X121338998Y-85769760D01*
X121338998Y-85934240D01*
X121371087Y-86095560D01*
X121434031Y-86247521D01*
X121525411Y-86384281D01*
X121641717Y-86500587D01*
X121778477Y-86591967D01*
X121930438Y-86654911D01*
X122091758Y-86687000D01*
X122256238Y-86687000D01*
X122417558Y-86654911D01*
X122569519Y-86591967D01*
X122706279Y-86500587D01*
X122822585Y-86384281D01*
X122913965Y-86247521D01*
X122976909Y-86095560D01*
X123008998Y-85934240D01*
X123008998Y-85769760D01*
X126365001Y-85769760D01*
X126365001Y-85934240D01*
X126397090Y-86095560D01*
X126460034Y-86247521D01*
X126551414Y-86384281D01*
X126667720Y-86500587D01*
X126804480Y-86591967D01*
X126956441Y-86654911D01*
X127117761Y-86687000D01*
X127282241Y-86687000D01*
X127443561Y-86654911D01*
X127595522Y-86591967D01*
X127732282Y-86500587D01*
X127848588Y-86384281D01*
X127939968Y-86247521D01*
X127957374Y-86205500D01*
X127943000Y-86277760D01*
X127943000Y-86442240D01*
X127975089Y-86603560D01*
X128038033Y-86755521D01*
X128129413Y-86892281D01*
X128245719Y-87008587D01*
X128382479Y-87099967D01*
X128534440Y-87162911D01*
X128695760Y-87195000D01*
X128860240Y-87195000D01*
X129021560Y-87162911D01*
X129173521Y-87099967D01*
X129310281Y-87008587D01*
X129426587Y-86892281D01*
X129517967Y-86755521D01*
X129580911Y-86603560D01*
X129613000Y-86442240D01*
X129613000Y-86277760D01*
X129580911Y-86116440D01*
X129517967Y-85964479D01*
X129426587Y-85827719D01*
X129310281Y-85711413D01*
X129173521Y-85620033D01*
X129021560Y-85557089D01*
X128860240Y-85525000D01*
X128695760Y-85525000D01*
X128534440Y-85557089D01*
X128382479Y-85620033D01*
X128245719Y-85711413D01*
X128129413Y-85827719D01*
X128038033Y-85964479D01*
X128020627Y-86006500D01*
X128035001Y-85934240D01*
X128035001Y-85769760D01*
X128002912Y-85608440D01*
X127939968Y-85456479D01*
X127848588Y-85319719D01*
X127732282Y-85203413D01*
X127595522Y-85112033D01*
X127443561Y-85049089D01*
X127282241Y-85017000D01*
X127117761Y-85017000D01*
X126956441Y-85049089D01*
X126804480Y-85112033D01*
X126667720Y-85203413D01*
X126551414Y-85319719D01*
X126460034Y-85456479D01*
X126397090Y-85608440D01*
X126365001Y-85769760D01*
X123008998Y-85769760D01*
X122976909Y-85608440D01*
X122913965Y-85456479D01*
X122822585Y-85319719D01*
X122706279Y-85203413D01*
X122569519Y-85112033D01*
X122417558Y-85049089D01*
X122256238Y-85017000D01*
X122091758Y-85017000D01*
X121930438Y-85049089D01*
X121778477Y-85112033D01*
X121641717Y-85203413D01*
X121525411Y-85319719D01*
X121434031Y-85456479D01*
X121371087Y-85608440D01*
X121338998Y-85769760D01*
X118321744Y-85769760D01*
X118341949Y-85739521D01*
X118404893Y-85587560D01*
X118436982Y-85426240D01*
X118436982Y-85261760D01*
X118404893Y-85100440D01*
X118341949Y-84948479D01*
X118250569Y-84811719D01*
X118134263Y-84695413D01*
X117997503Y-84604033D01*
X117845542Y-84541089D01*
X117684222Y-84509000D01*
X117519742Y-84509000D01*
X117358422Y-84541089D01*
X117206461Y-84604033D01*
X117069701Y-84695413D01*
X116953395Y-84811719D01*
X116862015Y-84948479D01*
X116799071Y-85100440D01*
X116766982Y-85261760D01*
X116459000Y-85261760D01*
X116459000Y-84582000D01*
X116456560Y-84557224D01*
X116449333Y-84533399D01*
X116437597Y-84511443D01*
X116421803Y-84492197D01*
X116402557Y-84476403D01*
X116380601Y-84464667D01*
X116356776Y-84457440D01*
X116332000Y-84455000D01*
X113284000Y-84455000D01*
X113259224Y-84457440D01*
X113235399Y-84464667D01*
X113213443Y-84476403D01*
X113194197Y-84492197D01*
X113178403Y-84511443D01*
X113166667Y-84533399D01*
X113159440Y-84557224D01*
X113157000Y-84582000D01*
X113157000Y-87612054D01*
X113101557Y-87589089D01*
X112940237Y-87557000D01*
X112775757Y-87557000D01*
X112614437Y-87589089D01*
X112462476Y-87652033D01*
X112325716Y-87743413D01*
X112209410Y-87859719D01*
X112118030Y-87996479D01*
X112055086Y-88148440D01*
X112022997Y-88309760D01*
X111483627Y-88309760D01*
X111530281Y-88278587D01*
X111646587Y-88162281D01*
X111737967Y-88025521D01*
X111800911Y-87873560D01*
X111833000Y-87712240D01*
X111833000Y-87683355D01*
X111931760Y-87703000D01*
X112096240Y-87703000D01*
X112257560Y-87670911D01*
X112409521Y-87607967D01*
X112546281Y-87516587D01*
X112662587Y-87400281D01*
X112753967Y-87263521D01*
X112816911Y-87111560D01*
X112849000Y-86950240D01*
X112849000Y-86785760D01*
X112816911Y-86624440D01*
X112753967Y-86472479D01*
X112662587Y-86335719D01*
X112546281Y-86219413D01*
X112409521Y-86128033D01*
X112257560Y-86065089D01*
X112096240Y-86033000D01*
X111931760Y-86033000D01*
X111770440Y-86065089D01*
X111618479Y-86128033D01*
X111481719Y-86219413D01*
X111365413Y-86335719D01*
X111274033Y-86472479D01*
X111211089Y-86624440D01*
X111179000Y-86785760D01*
X111179000Y-86814645D01*
X111080240Y-86795000D01*
X110915760Y-86795000D01*
X110754440Y-86827089D01*
X110602479Y-86890033D01*
X110465719Y-86981413D01*
X110349413Y-87097719D01*
X110258033Y-87234479D01*
X110195089Y-87386440D01*
X110163000Y-87547760D01*
X99443594Y-87547760D01*
X99456450Y-87505383D01*
X99469193Y-87376000D01*
X99466000Y-87343581D01*
X99466000Y-84614418D01*
X99469193Y-84582000D01*
X99456450Y-84452617D01*
X99418710Y-84328207D01*
X99357425Y-84213550D01*
X99274948Y-84113052D01*
X99174450Y-84030575D01*
X99059793Y-83969290D01*
X98935383Y-83931550D01*
X98838419Y-83922000D01*
X98806000Y-83918807D01*
X98773581Y-83922000D01*
X91084000Y-83922000D01*
X91084000Y-83229766D01*
X112702994Y-83229766D01*
X112702994Y-83394246D01*
X112735083Y-83555566D01*
X112798027Y-83707527D01*
X112889407Y-83844287D01*
X113005713Y-83960593D01*
X113142473Y-84051973D01*
X113294434Y-84114917D01*
X113455754Y-84147006D01*
X113620234Y-84147006D01*
X113781554Y-84114917D01*
X113933515Y-84051973D01*
X114070275Y-83960593D01*
X114186581Y-83844287D01*
X114277961Y-83707527D01*
X114340905Y-83555566D01*
X114372994Y-83394246D01*
X114372994Y-83229766D01*
X114372993Y-83229760D01*
X117783000Y-83229760D01*
X117783000Y-83394240D01*
X117815089Y-83555560D01*
X117878033Y-83707521D01*
X117969413Y-83844281D01*
X118085719Y-83960587D01*
X118222479Y-84051967D01*
X118374440Y-84114911D01*
X118535760Y-84147000D01*
X118700240Y-84147000D01*
X118861560Y-84114911D01*
X119013521Y-84051967D01*
X119150281Y-83960587D01*
X119266587Y-83844281D01*
X119357967Y-83707521D01*
X119420911Y-83555560D01*
X119453000Y-83394240D01*
X119453000Y-83229760D01*
X119420911Y-83068440D01*
X119357967Y-82916479D01*
X119266587Y-82779719D01*
X119150281Y-82663413D01*
X119013521Y-82572033D01*
X118861560Y-82509089D01*
X118700240Y-82477000D01*
X118535760Y-82477000D01*
X118374440Y-82509089D01*
X118222479Y-82572033D01*
X118085719Y-82663413D01*
X117969413Y-82779719D01*
X117878033Y-82916479D01*
X117815089Y-83068440D01*
X117783000Y-83229760D01*
X114372993Y-83229760D01*
X114340905Y-83068446D01*
X114277961Y-82916485D01*
X114186581Y-82779725D01*
X114070275Y-82663419D01*
X113933515Y-82572039D01*
X113781554Y-82509095D01*
X113620234Y-82477006D01*
X113455754Y-82477006D01*
X113294434Y-82509095D01*
X113142473Y-82572039D01*
X113005713Y-82663419D01*
X112889407Y-82779725D01*
X112798027Y-82916485D01*
X112735083Y-83068446D01*
X112702994Y-83229766D01*
X91084000Y-83229766D01*
X91084000Y-81088868D01*
X91161719Y-81166587D01*
X91298479Y-81257967D01*
X91450440Y-81320911D01*
X91611760Y-81353000D01*
X91776240Y-81353000D01*
X91937560Y-81320911D01*
X92089521Y-81257967D01*
X92226281Y-81166587D01*
X92342587Y-81050281D01*
X92433967Y-80913521D01*
X92496911Y-80761560D01*
X92529000Y-80600240D01*
X92529000Y-80469588D01*
X92568479Y-80495967D01*
X92720440Y-80558911D01*
X92881760Y-80591000D01*
X93046240Y-80591000D01*
X93207560Y-80558911D01*
X93359521Y-80495967D01*
X93449627Y-80435760D01*
X117275000Y-80435760D01*
X117275000Y-80600240D01*
X117307089Y-80761560D01*
X117370033Y-80913521D01*
X117461413Y-81050281D01*
X117577719Y-81166587D01*
X117714479Y-81257967D01*
X117866440Y-81320911D01*
X118027760Y-81353000D01*
X118192240Y-81353000D01*
X118353560Y-81320911D01*
X118505521Y-81257967D01*
X118642281Y-81166587D01*
X118758587Y-81050281D01*
X118849967Y-80913521D01*
X118912911Y-80761560D01*
X118945000Y-80600240D01*
X118945000Y-80435760D01*
X118912911Y-80274440D01*
X118849967Y-80122479D01*
X118758587Y-79985719D01*
X118642281Y-79869413D01*
X118505521Y-79778033D01*
X118353560Y-79715089D01*
X118192240Y-79683000D01*
X118027760Y-79683000D01*
X117866440Y-79715089D01*
X117714479Y-79778033D01*
X117577719Y-79869413D01*
X117461413Y-79985719D01*
X117370033Y-80122479D01*
X117307089Y-80274440D01*
X117275000Y-80435760D01*
X93449627Y-80435760D01*
X93496281Y-80404587D01*
X93612587Y-80288281D01*
X93703967Y-80151521D01*
X93766911Y-79999560D01*
X93799000Y-79838240D01*
X93799000Y-79673760D01*
X93766911Y-79512440D01*
X93703967Y-79360479D01*
X93612587Y-79223719D01*
X93496281Y-79107413D01*
X93359521Y-79016033D01*
X93207560Y-78953089D01*
X93046240Y-78921000D01*
X92881760Y-78921000D01*
X92720440Y-78953089D01*
X92568479Y-79016033D01*
X92431719Y-79107413D01*
X92315413Y-79223719D01*
X92224033Y-79360479D01*
X92161089Y-79512440D01*
X92129000Y-79673760D01*
X92129000Y-79804412D01*
X92089521Y-79778033D01*
X91937560Y-79715089D01*
X91776240Y-79683000D01*
X91611760Y-79683000D01*
X91450440Y-79715089D01*
X91298479Y-79778033D01*
X91161719Y-79869413D01*
X91084000Y-79947132D01*
X91084000Y-78487750D01*
X116850962Y-78487750D01*
X116850962Y-78652230D01*
X116883051Y-78813550D01*
X116945995Y-78965511D01*
X117037375Y-79102271D01*
X117153681Y-79218577D01*
X117290441Y-79309957D01*
X117442402Y-79372901D01*
X117603722Y-79404990D01*
X117768202Y-79404990D01*
X117929522Y-79372901D01*
X118081483Y-79309957D01*
X118218243Y-79218577D01*
X118334549Y-79102271D01*
X118425929Y-78965511D01*
X118488873Y-78813550D01*
X118520962Y-78652230D01*
X118520962Y-78487750D01*
X118488873Y-78326430D01*
X118425929Y-78174469D01*
X118334549Y-78037709D01*
X118218243Y-77921403D01*
X118105054Y-77845772D01*
X130433004Y-77845772D01*
X130433004Y-78010252D01*
X130465093Y-78171572D01*
X130528037Y-78323533D01*
X130619417Y-78460293D01*
X130735723Y-78576599D01*
X130872483Y-78667979D01*
X131024444Y-78730923D01*
X131185764Y-78763012D01*
X131350244Y-78763012D01*
X131511564Y-78730923D01*
X131663525Y-78667979D01*
X131800285Y-78576599D01*
X131916591Y-78460293D01*
X132007971Y-78323533D01*
X132070915Y-78171572D01*
X132103004Y-78010252D01*
X132103004Y-77845772D01*
X132078450Y-77722329D01*
X132595571Y-77722329D01*
X132595571Y-77886809D01*
X132627660Y-78048129D01*
X132690604Y-78200090D01*
X132781984Y-78336850D01*
X132898290Y-78453156D01*
X133035050Y-78544536D01*
X133187011Y-78607480D01*
X133348331Y-78639569D01*
X133512811Y-78639569D01*
X133674131Y-78607480D01*
X133826092Y-78544536D01*
X133962852Y-78453156D01*
X134079158Y-78336850D01*
X134170538Y-78200090D01*
X134233482Y-78048129D01*
X134265571Y-77886809D01*
X134265571Y-77722329D01*
X134233482Y-77561009D01*
X134215618Y-77517882D01*
X134324440Y-77562957D01*
X134485760Y-77595046D01*
X134650240Y-77595046D01*
X134811560Y-77562957D01*
X134858947Y-77543329D01*
X134833000Y-77673772D01*
X134833000Y-77838252D01*
X134865089Y-77999572D01*
X134928033Y-78151533D01*
X135019413Y-78288293D01*
X135135719Y-78404599D01*
X135272479Y-78495979D01*
X135424440Y-78558923D01*
X135585760Y-78591012D01*
X135750240Y-78591012D01*
X135911560Y-78558923D01*
X136063521Y-78495979D01*
X136200281Y-78404599D01*
X136303210Y-78301670D01*
X136372487Y-78347959D01*
X136524448Y-78410903D01*
X136685768Y-78442992D01*
X136850248Y-78442992D01*
X137011568Y-78410903D01*
X137163529Y-78347959D01*
X137300289Y-78256579D01*
X137416595Y-78140273D01*
X137507975Y-78003513D01*
X137570919Y-77851552D01*
X137603008Y-77690232D01*
X137603008Y-77525752D01*
X137570919Y-77364432D01*
X137507975Y-77212471D01*
X137416595Y-77075711D01*
X137300289Y-76959405D01*
X137163529Y-76868025D01*
X137011568Y-76805081D01*
X136850248Y-76772992D01*
X136685768Y-76772992D01*
X136524448Y-76805081D01*
X136372487Y-76868025D01*
X136235727Y-76959405D01*
X136132798Y-77062334D01*
X136063521Y-77016045D01*
X135911560Y-76953101D01*
X135750240Y-76921012D01*
X135585760Y-76921012D01*
X135424440Y-76953101D01*
X135377053Y-76972729D01*
X135403000Y-76842286D01*
X135403000Y-76677806D01*
X135370911Y-76516486D01*
X135307967Y-76364525D01*
X135216587Y-76227765D01*
X135100281Y-76111459D01*
X134963521Y-76020079D01*
X134811560Y-75957135D01*
X134650240Y-75925046D01*
X134485760Y-75925046D01*
X134324440Y-75957135D01*
X134172479Y-76020079D01*
X134035719Y-76111459D01*
X133919413Y-76227765D01*
X133828033Y-76364525D01*
X133765089Y-76516486D01*
X133733000Y-76677806D01*
X133733000Y-76842286D01*
X133765089Y-77003606D01*
X133782953Y-77046733D01*
X133674131Y-77001658D01*
X133512811Y-76969569D01*
X133348331Y-76969569D01*
X133187011Y-77001658D01*
X133035050Y-77064602D01*
X132898290Y-77155982D01*
X132781984Y-77272288D01*
X132690604Y-77409048D01*
X132627660Y-77561009D01*
X132595571Y-77722329D01*
X132078450Y-77722329D01*
X132070915Y-77684452D01*
X132007971Y-77532491D01*
X131916591Y-77395731D01*
X131800285Y-77279425D01*
X131663525Y-77188045D01*
X131511564Y-77125101D01*
X131350244Y-77093012D01*
X131185764Y-77093012D01*
X131024444Y-77125101D01*
X130872483Y-77188045D01*
X130735723Y-77279425D01*
X130619417Y-77395731D01*
X130528037Y-77532491D01*
X130465093Y-77684452D01*
X130433004Y-77845772D01*
X118105054Y-77845772D01*
X118081483Y-77830023D01*
X117929522Y-77767079D01*
X117768202Y-77734990D01*
X117603722Y-77734990D01*
X117442402Y-77767079D01*
X117290441Y-77830023D01*
X117153681Y-77921403D01*
X117037375Y-78037709D01*
X116945995Y-78174469D01*
X116883051Y-78326430D01*
X116850962Y-78487750D01*
X91084000Y-78487750D01*
X91084000Y-75990777D01*
X107241983Y-75990777D01*
X107241983Y-76155257D01*
X107274072Y-76316577D01*
X107337016Y-76468538D01*
X107428396Y-76605298D01*
X107544702Y-76721604D01*
X107681462Y-76812984D01*
X107833423Y-76875928D01*
X107994743Y-76908017D01*
X108159223Y-76908017D01*
X108320543Y-76875928D01*
X108472504Y-76812984D01*
X108609264Y-76721604D01*
X108725570Y-76605298D01*
X108816950Y-76468538D01*
X108879894Y-76316577D01*
X108885626Y-76287760D01*
X120660996Y-76287760D01*
X120660996Y-76452240D01*
X120693085Y-76613560D01*
X120756029Y-76765521D01*
X120847409Y-76902281D01*
X120963715Y-77018587D01*
X121100475Y-77109967D01*
X121252436Y-77172911D01*
X121413756Y-77205000D01*
X121578236Y-77205000D01*
X121739556Y-77172911D01*
X121891517Y-77109967D01*
X122028277Y-77018587D01*
X122144583Y-76902281D01*
X122235963Y-76765521D01*
X122298907Y-76613560D01*
X122330996Y-76452240D01*
X122330996Y-76287760D01*
X122298907Y-76126440D01*
X122235963Y-75974479D01*
X122144583Y-75837719D01*
X122028277Y-75721413D01*
X121891517Y-75630033D01*
X121739556Y-75567089D01*
X121578236Y-75535000D01*
X121413756Y-75535000D01*
X121252436Y-75567089D01*
X121100475Y-75630033D01*
X120963715Y-75721413D01*
X120847409Y-75837719D01*
X120756029Y-75974479D01*
X120693085Y-76126440D01*
X120660996Y-76287760D01*
X108885626Y-76287760D01*
X108911983Y-76155257D01*
X108911983Y-75990777D01*
X108879894Y-75829457D01*
X108816950Y-75677496D01*
X108725570Y-75540736D01*
X108670554Y-75485720D01*
X137978960Y-75485720D01*
X137978960Y-75650200D01*
X138011049Y-75811520D01*
X138073993Y-75963481D01*
X138165373Y-76100241D01*
X138281679Y-76216547D01*
X138418439Y-76307927D01*
X138570400Y-76370871D01*
X138731720Y-76402960D01*
X138896200Y-76402960D01*
X139057520Y-76370871D01*
X139209481Y-76307927D01*
X139346241Y-76216547D01*
X139462547Y-76100241D01*
X139553927Y-75963481D01*
X139616871Y-75811520D01*
X139648960Y-75650200D01*
X139648960Y-75485720D01*
X139616871Y-75324400D01*
X139553927Y-75172439D01*
X139462547Y-75035679D01*
X139346241Y-74919373D01*
X139209481Y-74827993D01*
X139057520Y-74765049D01*
X138896200Y-74732960D01*
X138731720Y-74732960D01*
X138570400Y-74765049D01*
X138418439Y-74827993D01*
X138281679Y-74919373D01*
X138165373Y-75035679D01*
X138073993Y-75172439D01*
X138011049Y-75324400D01*
X137978960Y-75485720D01*
X108670554Y-75485720D01*
X108609264Y-75424430D01*
X108472504Y-75333050D01*
X108320543Y-75270106D01*
X108159223Y-75238017D01*
X107994743Y-75238017D01*
X107833423Y-75270106D01*
X107681462Y-75333050D01*
X107544702Y-75424430D01*
X107428396Y-75540736D01*
X107337016Y-75677496D01*
X107274072Y-75829457D01*
X107241983Y-75990777D01*
X91084000Y-75990777D01*
X91084000Y-74339760D01*
X120323000Y-74339760D01*
X120323000Y-74504240D01*
X120355089Y-74665560D01*
X120418033Y-74817521D01*
X120509413Y-74954281D01*
X120625719Y-75070587D01*
X120762479Y-75161967D01*
X120914440Y-75224911D01*
X121075760Y-75257000D01*
X121240240Y-75257000D01*
X121401560Y-75224911D01*
X121553521Y-75161967D01*
X121690281Y-75070587D01*
X121806587Y-74954281D01*
X121897967Y-74817521D01*
X121960911Y-74665560D01*
X121993000Y-74504240D01*
X121993000Y-74485760D01*
X124787000Y-74485760D01*
X124787000Y-74650240D01*
X124819089Y-74811560D01*
X124882033Y-74963521D01*
X124973413Y-75100281D01*
X125089719Y-75216587D01*
X125226479Y-75307967D01*
X125378440Y-75370911D01*
X125539760Y-75403000D01*
X125704240Y-75403000D01*
X125865560Y-75370911D01*
X126017521Y-75307967D01*
X126154281Y-75216587D01*
X126270587Y-75100281D01*
X126361967Y-74963521D01*
X126424911Y-74811560D01*
X126457000Y-74650240D01*
X126457000Y-74485760D01*
X126424911Y-74324440D01*
X126361967Y-74172479D01*
X126270587Y-74035719D01*
X126154281Y-73919413D01*
X126017521Y-73828033D01*
X125865560Y-73765089D01*
X125704240Y-73733000D01*
X125539760Y-73733000D01*
X125378440Y-73765089D01*
X125226479Y-73828033D01*
X125089719Y-73919413D01*
X124973413Y-74035719D01*
X124882033Y-74172479D01*
X124819089Y-74324440D01*
X124787000Y-74485760D01*
X121993000Y-74485760D01*
X121993000Y-74339760D01*
X121960911Y-74178440D01*
X121897967Y-74026479D01*
X121806587Y-73889719D01*
X121690281Y-73773413D01*
X121553521Y-73682033D01*
X121401560Y-73619089D01*
X121240240Y-73587000D01*
X121075760Y-73587000D01*
X120914440Y-73619089D01*
X120762479Y-73682033D01*
X120625719Y-73773413D01*
X120509413Y-73889719D01*
X120418033Y-74026479D01*
X120355089Y-74178440D01*
X120323000Y-74339760D01*
X91084000Y-74339760D01*
X91084000Y-72561760D01*
X104321000Y-72561760D01*
X104321000Y-72726240D01*
X104353089Y-72887560D01*
X104416033Y-73039521D01*
X104507413Y-73176281D01*
X104623719Y-73292587D01*
X104760479Y-73383967D01*
X104912440Y-73446911D01*
X105073760Y-73479000D01*
X105238240Y-73479000D01*
X105399560Y-73446911D01*
X105551521Y-73383967D01*
X105688281Y-73292587D01*
X105804587Y-73176281D01*
X105895967Y-73039521D01*
X105958911Y-72887560D01*
X105991000Y-72726240D01*
X105991000Y-72561760D01*
X105958911Y-72400440D01*
X105895967Y-72248479D01*
X105804587Y-72111719D01*
X105688281Y-71995413D01*
X105551521Y-71904033D01*
X105399560Y-71841089D01*
X105238240Y-71809000D01*
X105073760Y-71809000D01*
X104912440Y-71841089D01*
X104760479Y-71904033D01*
X104623719Y-71995413D01*
X104507413Y-72111719D01*
X104416033Y-72248479D01*
X104353089Y-72400440D01*
X104321000Y-72561760D01*
X91084000Y-72561760D01*
X91084000Y-71037760D01*
X97971000Y-71037760D01*
X97971000Y-71202240D01*
X98003089Y-71363560D01*
X98066033Y-71515521D01*
X98157413Y-71652281D01*
X98273719Y-71768587D01*
X98410479Y-71859967D01*
X98562440Y-71922911D01*
X98723760Y-71955000D01*
X98888240Y-71955000D01*
X99049560Y-71922911D01*
X99201521Y-71859967D01*
X99338281Y-71768587D01*
X99454587Y-71652281D01*
X99545967Y-71515521D01*
X99608911Y-71363560D01*
X99641000Y-71202240D01*
X99641000Y-71037760D01*
X99608911Y-70876440D01*
X99545967Y-70724479D01*
X99454587Y-70587719D01*
X99338281Y-70471413D01*
X99201521Y-70380033D01*
X99049560Y-70317089D01*
X98888240Y-70285000D01*
X98723760Y-70285000D01*
X98562440Y-70317089D01*
X98410479Y-70380033D01*
X98273719Y-70471413D01*
X98157413Y-70587719D01*
X98066033Y-70724479D01*
X98003089Y-70876440D01*
X97971000Y-71037760D01*
X91084000Y-71037760D01*
X91084000Y-70021760D01*
X109655000Y-70021760D01*
X109655000Y-70186240D01*
X109687089Y-70347560D01*
X109750033Y-70499521D01*
X109841413Y-70636281D01*
X109957719Y-70752587D01*
X110094479Y-70843967D01*
X110246440Y-70906911D01*
X110407760Y-70939000D01*
X110572240Y-70939000D01*
X110733560Y-70906911D01*
X110885521Y-70843967D01*
X110975627Y-70783760D01*
X112957000Y-70783760D01*
X112957000Y-70948240D01*
X112989089Y-71109560D01*
X113052033Y-71261521D01*
X113143413Y-71398281D01*
X113259719Y-71514587D01*
X113396479Y-71605967D01*
X113548440Y-71668911D01*
X113709760Y-71701000D01*
X113874240Y-71701000D01*
X114035560Y-71668911D01*
X114187521Y-71605967D01*
X114324281Y-71514587D01*
X114440587Y-71398281D01*
X114531967Y-71261521D01*
X114594911Y-71109560D01*
X114627000Y-70948240D01*
X114627000Y-70783760D01*
X114594911Y-70622440D01*
X114531967Y-70470479D01*
X114440587Y-70333719D01*
X114324281Y-70217413D01*
X114187521Y-70126033D01*
X114035560Y-70063089D01*
X113874240Y-70031000D01*
X113709760Y-70031000D01*
X113548440Y-70063089D01*
X113396479Y-70126033D01*
X113259719Y-70217413D01*
X113143413Y-70333719D01*
X113052033Y-70470479D01*
X112989089Y-70622440D01*
X112957000Y-70783760D01*
X110975627Y-70783760D01*
X111022281Y-70752587D01*
X111138587Y-70636281D01*
X111229967Y-70499521D01*
X111292911Y-70347560D01*
X111325000Y-70186240D01*
X111325000Y-70021760D01*
X111292911Y-69860440D01*
X111229967Y-69708479D01*
X111138587Y-69571719D01*
X111022281Y-69455413D01*
X110885521Y-69364033D01*
X110733560Y-69301089D01*
X110572240Y-69269000D01*
X110407760Y-69269000D01*
X110246440Y-69301089D01*
X110094479Y-69364033D01*
X109957719Y-69455413D01*
X109841413Y-69571719D01*
X109750033Y-69708479D01*
X109687089Y-69860440D01*
X109655000Y-70021760D01*
X91084000Y-70021760D01*
X91084000Y-68765728D01*
X98746968Y-68765728D01*
X98746968Y-68930208D01*
X98779057Y-69091528D01*
X98842001Y-69243489D01*
X98933381Y-69380249D01*
X99049687Y-69496555D01*
X99186447Y-69587935D01*
X99338408Y-69650879D01*
X99499728Y-69682968D01*
X99664208Y-69682968D01*
X99825528Y-69650879D01*
X99977489Y-69587935D01*
X100114249Y-69496555D01*
X100230555Y-69380249D01*
X100321935Y-69243489D01*
X100384879Y-69091528D01*
X100416968Y-68930208D01*
X100416968Y-68765760D01*
X101513000Y-68765760D01*
X101513000Y-68930240D01*
X101545089Y-69091560D01*
X101608033Y-69243521D01*
X101699413Y-69380281D01*
X101815719Y-69496587D01*
X101952479Y-69587967D01*
X102104440Y-69650911D01*
X102265760Y-69683000D01*
X102430240Y-69683000D01*
X102591560Y-69650911D01*
X102743521Y-69587967D01*
X102880281Y-69496587D01*
X102996587Y-69380281D01*
X103087967Y-69243521D01*
X103150911Y-69091560D01*
X103183000Y-68930240D01*
X103183000Y-68765760D01*
X103150911Y-68604440D01*
X103087967Y-68452479D01*
X102996587Y-68315719D01*
X102880281Y-68199413D01*
X102743521Y-68108033D01*
X102591560Y-68045089D01*
X102430240Y-68013000D01*
X102265760Y-68013000D01*
X102104440Y-68045089D01*
X101952479Y-68108033D01*
X101815719Y-68199413D01*
X101699413Y-68315719D01*
X101608033Y-68452479D01*
X101545089Y-68604440D01*
X101513000Y-68765760D01*
X100416968Y-68765760D01*
X100416968Y-68765728D01*
X100384879Y-68604408D01*
X100321935Y-68452447D01*
X100230555Y-68315687D01*
X100114249Y-68199381D01*
X99977489Y-68108001D01*
X99825528Y-68045057D01*
X99664208Y-68012968D01*
X99499728Y-68012968D01*
X99338408Y-68045057D01*
X99186447Y-68108001D01*
X99049687Y-68199381D01*
X98933381Y-68315687D01*
X98842001Y-68452447D01*
X98779057Y-68604408D01*
X98746968Y-68765728D01*
X91084000Y-68765728D01*
X91084000Y-64179760D01*
X91367000Y-64179760D01*
X91367000Y-64344240D01*
X91399089Y-64505560D01*
X91462033Y-64657521D01*
X91553413Y-64794281D01*
X91669719Y-64910587D01*
X91806479Y-65001967D01*
X91958440Y-65064911D01*
X92119760Y-65097000D01*
X92284240Y-65097000D01*
X92445560Y-65064911D01*
X92597521Y-65001967D01*
X92734281Y-64910587D01*
X92850587Y-64794281D01*
X92941967Y-64657521D01*
X93004911Y-64505560D01*
X93027499Y-64392000D01*
X109772630Y-64392000D01*
X109794062Y-64609598D01*
X109857532Y-64818834D01*
X109960604Y-65011666D01*
X110099314Y-65180686D01*
X110268334Y-65319396D01*
X110461166Y-65422468D01*
X110670402Y-65485938D01*
X110833479Y-65502000D01*
X111242521Y-65502000D01*
X111405598Y-65485938D01*
X111614834Y-65422468D01*
X111807666Y-65319396D01*
X111976686Y-65180686D01*
X112115396Y-65011666D01*
X112218468Y-64818834D01*
X112281938Y-64609598D01*
X112303370Y-64392000D01*
X114772630Y-64392000D01*
X114794062Y-64609598D01*
X114857532Y-64818834D01*
X114960604Y-65011666D01*
X115099314Y-65180686D01*
X115268334Y-65319396D01*
X115461166Y-65422468D01*
X115670402Y-65485938D01*
X115833479Y-65502000D01*
X116242521Y-65502000D01*
X116405598Y-65485938D01*
X116614834Y-65422468D01*
X116807666Y-65319396D01*
X116976686Y-65180686D01*
X117115396Y-65011666D01*
X117182694Y-64885760D01*
X123681000Y-64885760D01*
X123681000Y-65050240D01*
X123713089Y-65211560D01*
X123776033Y-65363521D01*
X123867413Y-65500281D01*
X123983719Y-65616587D01*
X124120479Y-65707967D01*
X124272440Y-65770911D01*
X124433760Y-65803000D01*
X124598240Y-65803000D01*
X124759560Y-65770911D01*
X124911521Y-65707967D01*
X125048281Y-65616587D01*
X125164587Y-65500281D01*
X125255967Y-65363521D01*
X125318911Y-65211560D01*
X125351000Y-65050240D01*
X125351000Y-64885760D01*
X125318911Y-64724440D01*
X125255967Y-64572479D01*
X125178280Y-64456212D01*
X127133000Y-64456212D01*
X127133000Y-64679788D01*
X127176617Y-64899067D01*
X127262176Y-65105624D01*
X127386388Y-65291520D01*
X127544480Y-65449612D01*
X127730376Y-65573824D01*
X127936933Y-65659383D01*
X128156212Y-65703000D01*
X128379788Y-65703000D01*
X128599067Y-65659383D01*
X128805624Y-65573824D01*
X128991520Y-65449612D01*
X129149612Y-65291520D01*
X129273824Y-65105624D01*
X129359383Y-64899067D01*
X129403000Y-64679788D01*
X129403000Y-64456212D01*
X135133000Y-64456212D01*
X135133000Y-64679788D01*
X135176617Y-64899067D01*
X135262176Y-65105624D01*
X135386388Y-65291520D01*
X135544480Y-65449612D01*
X135730376Y-65573824D01*
X135936933Y-65659383D01*
X136156212Y-65703000D01*
X136379788Y-65703000D01*
X136599067Y-65659383D01*
X136805624Y-65573824D01*
X136991520Y-65449612D01*
X137149612Y-65291520D01*
X137273824Y-65105624D01*
X137288836Y-65069383D01*
X137317117Y-65211560D01*
X137380061Y-65363521D01*
X137471441Y-65500281D01*
X137587747Y-65616587D01*
X137724507Y-65707967D01*
X137876468Y-65770911D01*
X138037788Y-65803000D01*
X138202268Y-65803000D01*
X138363588Y-65770911D01*
X138515549Y-65707967D01*
X138652309Y-65616587D01*
X138768615Y-65500281D01*
X138859995Y-65363521D01*
X138922939Y-65211560D01*
X138955028Y-65050240D01*
X138955028Y-64885760D01*
X138922939Y-64724440D01*
X138859995Y-64572479D01*
X138768615Y-64435719D01*
X138652309Y-64319413D01*
X138515549Y-64228033D01*
X138363588Y-64165089D01*
X138202268Y-64133000D01*
X138037788Y-64133000D01*
X137876468Y-64165089D01*
X137724507Y-64228033D01*
X137587747Y-64319413D01*
X137471441Y-64435719D01*
X137403000Y-64538148D01*
X137403000Y-64456212D01*
X137359383Y-64236933D01*
X137273824Y-64030376D01*
X137149612Y-63844480D01*
X136991520Y-63686388D01*
X136805624Y-63562176D01*
X136599067Y-63476617D01*
X136379788Y-63433000D01*
X136156212Y-63433000D01*
X135936933Y-63476617D01*
X135730376Y-63562176D01*
X135544480Y-63686388D01*
X135386388Y-63844480D01*
X135262176Y-64030376D01*
X135176617Y-64236933D01*
X135133000Y-64456212D01*
X129403000Y-64456212D01*
X129359383Y-64236933D01*
X129273824Y-64030376D01*
X129149612Y-63844480D01*
X128991520Y-63686388D01*
X128805624Y-63562176D01*
X128599067Y-63476617D01*
X128379788Y-63433000D01*
X128156212Y-63433000D01*
X127936933Y-63476617D01*
X127730376Y-63562176D01*
X127544480Y-63686388D01*
X127386388Y-63844480D01*
X127262176Y-64030376D01*
X127176617Y-64236933D01*
X127133000Y-64456212D01*
X125178280Y-64456212D01*
X125164587Y-64435719D01*
X125048281Y-64319413D01*
X124911521Y-64228033D01*
X124759560Y-64165089D01*
X124598240Y-64133000D01*
X124433760Y-64133000D01*
X124272440Y-64165089D01*
X124120479Y-64228033D01*
X123983719Y-64319413D01*
X123867413Y-64435719D01*
X123776033Y-64572479D01*
X123713089Y-64724440D01*
X123681000Y-64885760D01*
X117182694Y-64885760D01*
X117218468Y-64818834D01*
X117281938Y-64609598D01*
X117303370Y-64392000D01*
X117281938Y-64174402D01*
X117218468Y-63965166D01*
X117115396Y-63772334D01*
X116976686Y-63603314D01*
X116807666Y-63464604D01*
X116614834Y-63361532D01*
X116405598Y-63298062D01*
X116242521Y-63282000D01*
X115833479Y-63282000D01*
X115670402Y-63298062D01*
X115461166Y-63361532D01*
X115268334Y-63464604D01*
X115099314Y-63603314D01*
X114960604Y-63772334D01*
X114857532Y-63965166D01*
X114794062Y-64174402D01*
X114772630Y-64392000D01*
X112303370Y-64392000D01*
X112294802Y-64305009D01*
X112320249Y-64305009D01*
X112481569Y-64272920D01*
X112633530Y-64209976D01*
X112770290Y-64118596D01*
X112886596Y-64002290D01*
X112977976Y-63865530D01*
X113040920Y-63713569D01*
X113073009Y-63552249D01*
X113073009Y-63387769D01*
X113040920Y-63226449D01*
X112977976Y-63074488D01*
X112886596Y-62937728D01*
X112770290Y-62821422D01*
X112633530Y-62730042D01*
X112481569Y-62667098D01*
X112320249Y-62635009D01*
X112155769Y-62635009D01*
X111994449Y-62667098D01*
X111842488Y-62730042D01*
X111705728Y-62821422D01*
X111589422Y-62937728D01*
X111498042Y-63074488D01*
X111435098Y-63226449D01*
X111419985Y-63302426D01*
X111405598Y-63298062D01*
X111242521Y-63282000D01*
X110833479Y-63282000D01*
X110670402Y-63298062D01*
X110461166Y-63361532D01*
X110268334Y-63464604D01*
X110099314Y-63603314D01*
X109960604Y-63772334D01*
X109857532Y-63965166D01*
X109794062Y-64174402D01*
X109772630Y-64392000D01*
X93027499Y-64392000D01*
X93037000Y-64344240D01*
X93037000Y-64179760D01*
X93004911Y-64018440D01*
X92941967Y-63866479D01*
X92850587Y-63729719D01*
X92734281Y-63613413D01*
X92597521Y-63522033D01*
X92445560Y-63459089D01*
X92284240Y-63427000D01*
X92119760Y-63427000D01*
X91958440Y-63459089D01*
X91806479Y-63522033D01*
X91669719Y-63613413D01*
X91553413Y-63729719D01*
X91462033Y-63866479D01*
X91399089Y-64018440D01*
X91367000Y-64179760D01*
X91084000Y-64179760D01*
X91084000Y-61639760D01*
X97717000Y-61639760D01*
X97717000Y-61804240D01*
X97749089Y-61965560D01*
X97812033Y-62117521D01*
X97903413Y-62254281D01*
X98019719Y-62370587D01*
X98156479Y-62461967D01*
X98308440Y-62524911D01*
X98469760Y-62557000D01*
X98634240Y-62557000D01*
X98795560Y-62524911D01*
X98947521Y-62461967D01*
X99084281Y-62370587D01*
X99200587Y-62254281D01*
X99291967Y-62117521D01*
X99354911Y-61965560D01*
X99387000Y-61804240D01*
X99387000Y-61639760D01*
X99354911Y-61478440D01*
X99291967Y-61326479D01*
X99200587Y-61189719D01*
X99084281Y-61073413D01*
X98947521Y-60982033D01*
X98795560Y-60919089D01*
X98634240Y-60887000D01*
X98469760Y-60887000D01*
X98308440Y-60919089D01*
X98156479Y-60982033D01*
X98019719Y-61073413D01*
X97903413Y-61189719D01*
X97812033Y-61326479D01*
X97749089Y-61478440D01*
X97717000Y-61639760D01*
X91084000Y-61639760D01*
X91084000Y-60858000D01*
X109082796Y-60858000D01*
X109035384Y-60946702D01*
G37*
%TD.AperFunction*%
%TD*%
M02*
