%TF.GenerationSoftware,KiCad,Pcbnew,(5.1.10)-1*%
%TF.CreationDate,2021-12-18T14:31:07-08:00*%
%TF.ProjectId,ESP32_Playboard,45535033-325f-4506-9c61-79626f617264,rev?*%
%TF.SameCoordinates,Original*%
%TF.FileFunction,Copper,L2,Inr*%
%TF.FilePolarity,Positive*%
%FSLAX46Y46*%
G04 Gerber Fmt 4.6, Leading zero omitted, Abs format (unit mm)*
G04 Created by KiCad (PCBNEW (5.1.10)-1) date 2021-12-18 14:31:07*
%MOMM*%
%LPD*%
G01*
G04 APERTURE LIST*
%TA.AperFunction,ComponentPad*%
%ADD10O,0.890000X1.550000*%
%TD*%
%TA.AperFunction,ComponentPad*%
%ADD11O,1.250000X0.950000*%
%TD*%
%TA.AperFunction,ViaPad*%
%ADD12C,0.400000*%
%TD*%
%TA.AperFunction,Conductor*%
%ADD13C,0.254000*%
%TD*%
%TA.AperFunction,Conductor*%
%ADD14C,0.100000*%
%TD*%
G04 APERTURE END LIST*
D10*
%TO.N,Net-(J1-Pad6)*%
%TO.C,J1*%
X110038000Y-61692000D03*
X117038000Y-61692000D03*
D11*
X111038000Y-64392000D03*
X116038000Y-64392000D03*
%TD*%
D12*
%TO.N,GND*%
X124714000Y-99060000D03*
X125476000Y-98298000D03*
X124714000Y-98298000D03*
X125476000Y-99060000D03*
X124206000Y-100330000D03*
X124206000Y-99568000D03*
X124206000Y-97790000D03*
X125984000Y-97790000D03*
X125984000Y-99568000D03*
X125984000Y-100330000D03*
X126746000Y-99568000D03*
X126746000Y-97790000D03*
X125984000Y-97028000D03*
X124206000Y-97028000D03*
X123444000Y-97790000D03*
X123444000Y-99568000D03*
X126746000Y-100330000D03*
X123444000Y-100330000D03*
X126746000Y-97028000D03*
X123444000Y-97028000D03*
X98552000Y-61722000D03*
X92202000Y-64262000D03*
X102348000Y-68848000D03*
X99581968Y-68847968D03*
X98806000Y-71120000D03*
X92964000Y-79756000D03*
X91694000Y-80518000D03*
X110490000Y-70104000D03*
X113792000Y-70866000D03*
X112238009Y-63470009D03*
X124516000Y-64968000D03*
X138120028Y-64968000D03*
X125622000Y-74568000D03*
X138813960Y-75567960D03*
X134568000Y-76760046D03*
X133109000Y-86373000D03*
X132973979Y-90301979D03*
X132973978Y-92333978D03*
X115194023Y-92323965D03*
X132973995Y-107827995D03*
X93980000Y-96774000D03*
X92350000Y-94594000D03*
X93620000Y-94594000D03*
X96266000Y-92964000D03*
X113537994Y-83312006D03*
X118618000Y-83312000D03*
X110998000Y-87630000D03*
X118618000Y-89408000D03*
X113557986Y-88880014D03*
X117601982Y-85344000D03*
X117602000Y-86360000D03*
X108076983Y-76073017D03*
X121158000Y-74422000D03*
X121495996Y-76370000D03*
X118110000Y-80518000D03*
X117685962Y-78569990D03*
X92456000Y-101092000D03*
X91280945Y-101092000D03*
%TO.N,/REG_3V3*%
X96012000Y-66548000D03*
X99568000Y-66548000D03*
X97790000Y-66548000D03*
X93218000Y-66548000D03*
X91199014Y-66561014D03*
X94639991Y-64364009D03*
X94639984Y-68682022D03*
X132368000Y-74456000D03*
X115836993Y-81800993D03*
X119621014Y-87109014D03*
X116058000Y-83332000D03*
X96266000Y-82550000D03*
X98044000Y-92964000D03*
X91426995Y-96025005D03*
X105156000Y-105156000D03*
X105156000Y-106934000D03*
X131572000Y-90170000D03*
X131572000Y-86360000D03*
X130809968Y-87122000D03*
X131704019Y-92323981D03*
X117602000Y-87122000D03*
X91281000Y-97790000D03*
%TO.N,/SPI3_D1*%
X136768008Y-77607992D03*
X129734034Y-94234000D03*
%TO.N,/SPI3_D0*%
X135668000Y-77756012D03*
X128016000Y-94234000D03*
%TO.N,/SPI3_CLK*%
X133430571Y-77804569D03*
X122814000Y-94233994D03*
%TO.N,/SPI3_CS0*%
X131268004Y-77928012D03*
X121543997Y-94234004D03*
%TO.N,/SPI3_D3*%
X128778000Y-86360000D03*
X128778000Y-94234000D03*
%TO.N,/SPI3_D2*%
X127200001Y-85852000D03*
X126624008Y-103886000D03*
%TO.N,/GPIO0*%
X108204000Y-92202000D03*
X116463991Y-107827991D03*
%TO.N,/ESP_RX*%
X108966000Y-89408000D03*
X127893983Y-107310017D03*
%TO.N,/ESP_TX*%
X109982000Y-89408000D03*
X129164020Y-107320020D03*
%TO.N,/I2C0_SCL*%
X101866000Y-98564000D03*
X112014000Y-86868000D03*
%TO.N,/I2C0_SDA*%
X102369034Y-100064000D03*
X112857997Y-88392000D03*
%TO.N,/RESET*%
X105156000Y-72644000D03*
X122173998Y-85852000D03*
%TD*%
D13*
%TO.N,GND*%
X109035384Y-60946702D02*
X108973627Y-61150283D01*
X108958000Y-61308949D01*
X108958000Y-62075050D01*
X108973627Y-62233716D01*
X109035383Y-62437297D01*
X109135668Y-62624919D01*
X109270630Y-62789370D01*
X109435081Y-62924332D01*
X109622702Y-63024617D01*
X109826283Y-63086373D01*
X110038000Y-63107225D01*
X110249716Y-63086373D01*
X110453297Y-63024617D01*
X110640919Y-62924332D01*
X110805370Y-62789370D01*
X110940332Y-62624919D01*
X111040617Y-62437298D01*
X111102373Y-62233717D01*
X111118000Y-62075051D01*
X111118000Y-61308950D01*
X111102373Y-61150284D01*
X111040617Y-60946702D01*
X110993205Y-60858000D01*
X116082796Y-60858000D01*
X116035384Y-60946702D01*
X115973627Y-61150283D01*
X115958000Y-61308949D01*
X115958000Y-62075050D01*
X115973627Y-62233716D01*
X116035383Y-62437297D01*
X116135668Y-62624919D01*
X116270630Y-62789370D01*
X116435081Y-62924332D01*
X116622702Y-63024617D01*
X116826283Y-63086373D01*
X117038000Y-63107225D01*
X117249716Y-63086373D01*
X117453297Y-63024617D01*
X117640919Y-62924332D01*
X117805370Y-62789370D01*
X117940332Y-62624919D01*
X118040617Y-62437298D01*
X118102373Y-62233717D01*
X118118000Y-62075051D01*
X118118000Y-61308950D01*
X118102373Y-61150284D01*
X118040617Y-60946702D01*
X117993205Y-60858000D01*
X140056000Y-60858000D01*
X140056000Y-80899000D01*
X139464910Y-80899000D01*
X139394631Y-80729331D01*
X139150038Y-80363271D01*
X138838729Y-80051962D01*
X138472669Y-79807369D01*
X138065925Y-79638890D01*
X137634128Y-79553000D01*
X137193872Y-79553000D01*
X136762075Y-79638890D01*
X136355331Y-79807369D01*
X135989271Y-80051962D01*
X135677962Y-80363271D01*
X135433369Y-80729331D01*
X135363090Y-80899000D01*
X133858000Y-80899000D01*
X133833224Y-80901440D01*
X133809399Y-80908667D01*
X133787443Y-80920403D01*
X133768197Y-80936197D01*
X133752403Y-80955443D01*
X133740667Y-80977399D01*
X133733440Y-81001224D01*
X133731000Y-81026000D01*
X133731000Y-110338000D01*
X91084000Y-110338000D01*
X91084000Y-105697872D01*
X93269000Y-105697872D01*
X93269000Y-106138128D01*
X93354890Y-106569925D01*
X93523369Y-106976669D01*
X93767962Y-107342729D01*
X94079271Y-107654038D01*
X94445331Y-107898631D01*
X94852075Y-108067110D01*
X95283872Y-108153000D01*
X95724128Y-108153000D01*
X96155925Y-108067110D01*
X96562669Y-107898631D01*
X96928729Y-107654038D01*
X97240038Y-107342729D01*
X97484631Y-106976669D01*
X97536370Y-106851760D01*
X104321000Y-106851760D01*
X104321000Y-107016240D01*
X104353089Y-107177560D01*
X104416033Y-107329521D01*
X104507413Y-107466281D01*
X104623719Y-107582587D01*
X104760479Y-107673967D01*
X104912440Y-107736911D01*
X105073760Y-107769000D01*
X105238240Y-107769000D01*
X105355118Y-107745751D01*
X115628991Y-107745751D01*
X115628991Y-107910231D01*
X115661080Y-108071551D01*
X115724024Y-108223512D01*
X115815404Y-108360272D01*
X115931710Y-108476578D01*
X116068470Y-108567958D01*
X116220431Y-108630902D01*
X116381751Y-108662991D01*
X116546231Y-108662991D01*
X116707551Y-108630902D01*
X116859512Y-108567958D01*
X116996272Y-108476578D01*
X117112578Y-108360272D01*
X117203958Y-108223512D01*
X117266902Y-108071551D01*
X117298991Y-107910231D01*
X117298991Y-107745751D01*
X117266902Y-107584431D01*
X117203958Y-107432470D01*
X117112578Y-107295710D01*
X117044645Y-107227777D01*
X127058983Y-107227777D01*
X127058983Y-107392257D01*
X127091072Y-107553577D01*
X127154016Y-107705538D01*
X127245396Y-107842298D01*
X127361702Y-107958604D01*
X127498462Y-108049984D01*
X127650423Y-108112928D01*
X127811743Y-108145017D01*
X127976223Y-108145017D01*
X128137543Y-108112928D01*
X128289504Y-108049984D01*
X128426264Y-107958604D01*
X128524000Y-107860868D01*
X128631739Y-107968607D01*
X128768499Y-108059987D01*
X128920460Y-108122931D01*
X129081780Y-108155020D01*
X129246260Y-108155020D01*
X129407580Y-108122931D01*
X129559541Y-108059987D01*
X129696301Y-107968607D01*
X129812607Y-107852301D01*
X129903987Y-107715541D01*
X129966931Y-107563580D01*
X129999020Y-107402260D01*
X129999020Y-107237780D01*
X129966931Y-107076460D01*
X129903987Y-106924499D01*
X129812607Y-106787739D01*
X129696301Y-106671433D01*
X129559541Y-106580053D01*
X129407580Y-106517109D01*
X129246260Y-106485020D01*
X129081780Y-106485020D01*
X128920460Y-106517109D01*
X128768499Y-106580053D01*
X128631739Y-106671433D01*
X128534003Y-106769169D01*
X128426264Y-106661430D01*
X128289504Y-106570050D01*
X128137543Y-106507106D01*
X127976223Y-106475017D01*
X127811743Y-106475017D01*
X127650423Y-106507106D01*
X127498462Y-106570050D01*
X127361702Y-106661430D01*
X127245396Y-106777736D01*
X127154016Y-106914496D01*
X127091072Y-107066457D01*
X127058983Y-107227777D01*
X117044645Y-107227777D01*
X116996272Y-107179404D01*
X116859512Y-107088024D01*
X116707551Y-107025080D01*
X116546231Y-106992991D01*
X116381751Y-106992991D01*
X116220431Y-107025080D01*
X116068470Y-107088024D01*
X115931710Y-107179404D01*
X115815404Y-107295710D01*
X115724024Y-107432470D01*
X115661080Y-107584431D01*
X115628991Y-107745751D01*
X105355118Y-107745751D01*
X105399560Y-107736911D01*
X105551521Y-107673967D01*
X105688281Y-107582587D01*
X105804587Y-107466281D01*
X105895967Y-107329521D01*
X105958911Y-107177560D01*
X105991000Y-107016240D01*
X105991000Y-106851760D01*
X105958911Y-106690440D01*
X105895967Y-106538479D01*
X105804587Y-106401719D01*
X105688281Y-106285413D01*
X105551521Y-106194033D01*
X105399560Y-106131089D01*
X105238240Y-106099000D01*
X105073760Y-106099000D01*
X104912440Y-106131089D01*
X104760479Y-106194033D01*
X104623719Y-106285413D01*
X104507413Y-106401719D01*
X104416033Y-106538479D01*
X104353089Y-106690440D01*
X104321000Y-106851760D01*
X97536370Y-106851760D01*
X97653110Y-106569925D01*
X97739000Y-106138128D01*
X97739000Y-105697872D01*
X97653110Y-105266075D01*
X97573451Y-105073760D01*
X104321000Y-105073760D01*
X104321000Y-105238240D01*
X104353089Y-105399560D01*
X104416033Y-105551521D01*
X104507413Y-105688281D01*
X104623719Y-105804587D01*
X104760479Y-105895967D01*
X104912440Y-105958911D01*
X105073760Y-105991000D01*
X105238240Y-105991000D01*
X105399560Y-105958911D01*
X105551521Y-105895967D01*
X105688281Y-105804587D01*
X105804587Y-105688281D01*
X105895967Y-105551521D01*
X105958911Y-105399560D01*
X105991000Y-105238240D01*
X105991000Y-105073760D01*
X105958911Y-104912440D01*
X105895967Y-104760479D01*
X105804587Y-104623719D01*
X105688281Y-104507413D01*
X105551521Y-104416033D01*
X105399560Y-104353089D01*
X105238240Y-104321000D01*
X105073760Y-104321000D01*
X104912440Y-104353089D01*
X104760479Y-104416033D01*
X104623719Y-104507413D01*
X104507413Y-104623719D01*
X104416033Y-104760479D01*
X104353089Y-104912440D01*
X104321000Y-105073760D01*
X97573451Y-105073760D01*
X97484631Y-104859331D01*
X97240038Y-104493271D01*
X96928729Y-104181962D01*
X96562669Y-103937369D01*
X96240109Y-103803760D01*
X125789008Y-103803760D01*
X125789008Y-103968240D01*
X125821097Y-104129560D01*
X125884041Y-104281521D01*
X125975421Y-104418281D01*
X126091727Y-104534587D01*
X126228487Y-104625967D01*
X126380448Y-104688911D01*
X126541768Y-104721000D01*
X126706248Y-104721000D01*
X126867568Y-104688911D01*
X127019529Y-104625967D01*
X127156289Y-104534587D01*
X127272595Y-104418281D01*
X127363975Y-104281521D01*
X127426919Y-104129560D01*
X127459008Y-103968240D01*
X127459008Y-103803760D01*
X127426919Y-103642440D01*
X127363975Y-103490479D01*
X127272595Y-103353719D01*
X127156289Y-103237413D01*
X127019529Y-103146033D01*
X126867568Y-103083089D01*
X126706248Y-103051000D01*
X126541768Y-103051000D01*
X126380448Y-103083089D01*
X126228487Y-103146033D01*
X126091727Y-103237413D01*
X125975421Y-103353719D01*
X125884041Y-103490479D01*
X125821097Y-103642440D01*
X125789008Y-103803760D01*
X96240109Y-103803760D01*
X96155925Y-103768890D01*
X95724128Y-103683000D01*
X95283872Y-103683000D01*
X94852075Y-103768890D01*
X94445331Y-103937369D01*
X94079271Y-104181962D01*
X93767962Y-104493271D01*
X93523369Y-104859331D01*
X93354890Y-105266075D01*
X93269000Y-105697872D01*
X91084000Y-105697872D01*
X91084000Y-100711000D01*
X93980000Y-100711000D01*
X94004776Y-100708560D01*
X94028601Y-100701333D01*
X94050557Y-100689597D01*
X94069803Y-100673803D01*
X94085597Y-100654557D01*
X94097333Y-100632601D01*
X94104560Y-100608776D01*
X94107000Y-100584000D01*
X94107000Y-98481760D01*
X101031000Y-98481760D01*
X101031000Y-98646240D01*
X101063089Y-98807560D01*
X101126033Y-98959521D01*
X101217413Y-99096281D01*
X101333719Y-99212587D01*
X101470479Y-99303967D01*
X101622440Y-99366911D01*
X101783760Y-99399000D01*
X101861317Y-99399000D01*
X101836753Y-99415413D01*
X101720447Y-99531719D01*
X101629067Y-99668479D01*
X101566123Y-99820440D01*
X101534034Y-99981760D01*
X101534034Y-100146240D01*
X101566123Y-100307560D01*
X101629067Y-100459521D01*
X101720447Y-100596281D01*
X101836753Y-100712587D01*
X101973513Y-100803967D01*
X102125474Y-100866911D01*
X102286794Y-100899000D01*
X102451274Y-100899000D01*
X102612594Y-100866911D01*
X102764555Y-100803967D01*
X102901315Y-100712587D01*
X103017621Y-100596281D01*
X103109001Y-100459521D01*
X103171945Y-100307560D01*
X103204034Y-100146240D01*
X103204034Y-99981760D01*
X103171945Y-99820440D01*
X103109001Y-99668479D01*
X103017621Y-99531719D01*
X102901315Y-99415413D01*
X102764555Y-99324033D01*
X102612594Y-99261089D01*
X102451274Y-99229000D01*
X102373717Y-99229000D01*
X102398281Y-99212587D01*
X102514587Y-99096281D01*
X102605967Y-98959521D01*
X102668911Y-98807560D01*
X102701000Y-98646240D01*
X102701000Y-98481760D01*
X102668911Y-98320440D01*
X102605967Y-98168479D01*
X102514587Y-98031719D01*
X102398281Y-97915413D01*
X102261521Y-97824033D01*
X102109560Y-97761089D01*
X101948240Y-97729000D01*
X101783760Y-97729000D01*
X101622440Y-97761089D01*
X101470479Y-97824033D01*
X101333719Y-97915413D01*
X101217413Y-98031719D01*
X101126033Y-98168479D01*
X101063089Y-98320440D01*
X101031000Y-98481760D01*
X94107000Y-98481760D01*
X94107000Y-98044000D01*
X94104560Y-98019224D01*
X94097333Y-97995399D01*
X94085597Y-97973443D01*
X94069803Y-97954197D01*
X94050557Y-97938403D01*
X94028601Y-97926667D01*
X94004776Y-97919440D01*
X93980000Y-97917000D01*
X92107097Y-97917000D01*
X92116000Y-97872240D01*
X92116000Y-97707760D01*
X92083911Y-97546440D01*
X92020967Y-97394479D01*
X91929587Y-97257719D01*
X91813281Y-97141413D01*
X91676521Y-97050033D01*
X91524560Y-96987089D01*
X91363240Y-96955000D01*
X91198760Y-96955000D01*
X91084000Y-96977828D01*
X91084000Y-96786729D01*
X91183435Y-96827916D01*
X91344755Y-96860005D01*
X91509235Y-96860005D01*
X91670555Y-96827916D01*
X91822516Y-96764972D01*
X91959276Y-96673592D01*
X92075582Y-96557286D01*
X92166962Y-96420526D01*
X92229906Y-96268565D01*
X92261995Y-96107245D01*
X92261995Y-95942765D01*
X92229906Y-95781445D01*
X92166962Y-95629484D01*
X92075582Y-95492724D01*
X91959276Y-95376418D01*
X91822516Y-95285038D01*
X91670555Y-95222094D01*
X91509235Y-95190005D01*
X91344755Y-95190005D01*
X91183435Y-95222094D01*
X91084000Y-95263281D01*
X91084000Y-94151764D01*
X120708997Y-94151764D01*
X120708997Y-94316244D01*
X120741086Y-94477564D01*
X120804030Y-94629525D01*
X120895410Y-94766285D01*
X121011716Y-94882591D01*
X121148476Y-94973971D01*
X121300437Y-95036915D01*
X121461757Y-95069004D01*
X121626237Y-95069004D01*
X121787557Y-95036915D01*
X121939518Y-94973971D01*
X122076278Y-94882591D01*
X122179004Y-94779866D01*
X122281719Y-94882581D01*
X122418479Y-94973961D01*
X122570440Y-95036905D01*
X122731760Y-95068994D01*
X122896240Y-95068994D01*
X123057560Y-95036905D01*
X123209521Y-94973961D01*
X123346281Y-94882581D01*
X123462587Y-94766275D01*
X123553967Y-94629515D01*
X123616911Y-94477554D01*
X123649000Y-94316234D01*
X123649000Y-94151760D01*
X127181000Y-94151760D01*
X127181000Y-94316240D01*
X127213089Y-94477560D01*
X127276033Y-94629521D01*
X127367413Y-94766281D01*
X127483719Y-94882587D01*
X127620479Y-94973967D01*
X127772440Y-95036911D01*
X127933760Y-95069000D01*
X128098240Y-95069000D01*
X128259560Y-95036911D01*
X128397000Y-94979982D01*
X128534440Y-95036911D01*
X128695760Y-95069000D01*
X128860240Y-95069000D01*
X129021560Y-95036911D01*
X129173521Y-94973967D01*
X129256017Y-94918845D01*
X129338513Y-94973967D01*
X129490474Y-95036911D01*
X129651794Y-95069000D01*
X129816274Y-95069000D01*
X129977594Y-95036911D01*
X130129555Y-94973967D01*
X130266315Y-94882587D01*
X130382621Y-94766281D01*
X130474001Y-94629521D01*
X130536945Y-94477560D01*
X130569034Y-94316240D01*
X130569034Y-94151760D01*
X130536945Y-93990440D01*
X130474001Y-93838479D01*
X130382621Y-93701719D01*
X130266315Y-93585413D01*
X130129555Y-93494033D01*
X129977594Y-93431089D01*
X129816274Y-93399000D01*
X129651794Y-93399000D01*
X129490474Y-93431089D01*
X129338513Y-93494033D01*
X129256017Y-93549155D01*
X129173521Y-93494033D01*
X129021560Y-93431089D01*
X128860240Y-93399000D01*
X128695760Y-93399000D01*
X128534440Y-93431089D01*
X128397000Y-93488018D01*
X128259560Y-93431089D01*
X128098240Y-93399000D01*
X127933760Y-93399000D01*
X127772440Y-93431089D01*
X127620479Y-93494033D01*
X127483719Y-93585413D01*
X127367413Y-93701719D01*
X127276033Y-93838479D01*
X127213089Y-93990440D01*
X127181000Y-94151760D01*
X123649000Y-94151760D01*
X123649000Y-94151754D01*
X123616911Y-93990434D01*
X123553967Y-93838473D01*
X123462587Y-93701713D01*
X123346281Y-93585407D01*
X123209521Y-93494027D01*
X123057560Y-93431083D01*
X122896240Y-93398994D01*
X122731760Y-93398994D01*
X122570440Y-93431083D01*
X122418479Y-93494027D01*
X122281719Y-93585407D01*
X122178994Y-93688133D01*
X122076278Y-93585417D01*
X121939518Y-93494037D01*
X121787557Y-93431093D01*
X121626237Y-93399004D01*
X121461757Y-93399004D01*
X121300437Y-93431093D01*
X121148476Y-93494037D01*
X121011716Y-93585417D01*
X120895410Y-93701723D01*
X120804030Y-93838483D01*
X120741086Y-93990444D01*
X120708997Y-94151764D01*
X91084000Y-94151764D01*
X91084000Y-92881760D01*
X97209000Y-92881760D01*
X97209000Y-93046240D01*
X97241089Y-93207560D01*
X97304033Y-93359521D01*
X97395413Y-93496281D01*
X97511719Y-93612587D01*
X97648479Y-93703967D01*
X97800440Y-93766911D01*
X97961760Y-93799000D01*
X98126240Y-93799000D01*
X98287560Y-93766911D01*
X98439521Y-93703967D01*
X98576281Y-93612587D01*
X98692587Y-93496281D01*
X98783967Y-93359521D01*
X98846911Y-93207560D01*
X98879000Y-93046240D01*
X98879000Y-92881760D01*
X98846911Y-92720440D01*
X98783967Y-92568479D01*
X98692587Y-92431719D01*
X98576281Y-92315413D01*
X98439521Y-92224033D01*
X98287560Y-92161089D01*
X98126240Y-92129000D01*
X97961760Y-92129000D01*
X97800440Y-92161089D01*
X97648479Y-92224033D01*
X97511719Y-92315413D01*
X97395413Y-92431719D01*
X97304033Y-92568479D01*
X97241089Y-92720440D01*
X97209000Y-92881760D01*
X91084000Y-92881760D01*
X91084000Y-92119760D01*
X107369000Y-92119760D01*
X107369000Y-92284240D01*
X107401089Y-92445560D01*
X107464033Y-92597521D01*
X107555413Y-92734281D01*
X107671719Y-92850587D01*
X107808479Y-92941967D01*
X107960440Y-93004911D01*
X108121760Y-93037000D01*
X108286240Y-93037000D01*
X108447560Y-93004911D01*
X108599521Y-92941967D01*
X108736281Y-92850587D01*
X108852587Y-92734281D01*
X108943967Y-92597521D01*
X109006911Y-92445560D01*
X109039000Y-92284240D01*
X109039000Y-92241741D01*
X130869019Y-92241741D01*
X130869019Y-92406221D01*
X130901108Y-92567541D01*
X130964052Y-92719502D01*
X131055432Y-92856262D01*
X131171738Y-92972568D01*
X131308498Y-93063948D01*
X131460459Y-93126892D01*
X131621779Y-93158981D01*
X131786259Y-93158981D01*
X131947579Y-93126892D01*
X132099540Y-93063948D01*
X132236300Y-92972568D01*
X132352606Y-92856262D01*
X132443986Y-92719502D01*
X132506930Y-92567541D01*
X132539019Y-92406221D01*
X132539019Y-92241741D01*
X132506930Y-92080421D01*
X132443986Y-91928460D01*
X132352606Y-91791700D01*
X132236300Y-91675394D01*
X132099540Y-91584014D01*
X131947579Y-91521070D01*
X131786259Y-91488981D01*
X131621779Y-91488981D01*
X131460459Y-91521070D01*
X131308498Y-91584014D01*
X131171738Y-91675394D01*
X131055432Y-91791700D01*
X130964052Y-91928460D01*
X130901108Y-92080421D01*
X130869019Y-92241741D01*
X109039000Y-92241741D01*
X109039000Y-92119760D01*
X109006911Y-91958440D01*
X108943967Y-91806479D01*
X108852587Y-91669719D01*
X108736281Y-91553413D01*
X108599521Y-91462033D01*
X108447560Y-91399089D01*
X108286240Y-91367000D01*
X108121760Y-91367000D01*
X107960440Y-91399089D01*
X107808479Y-91462033D01*
X107671719Y-91553413D01*
X107555413Y-91669719D01*
X107464033Y-91806479D01*
X107401089Y-91958440D01*
X107369000Y-92119760D01*
X91084000Y-92119760D01*
X91084000Y-89325760D01*
X108131000Y-89325760D01*
X108131000Y-89490240D01*
X108163089Y-89651560D01*
X108226033Y-89803521D01*
X108317413Y-89940281D01*
X108433719Y-90056587D01*
X108570479Y-90147967D01*
X108722440Y-90210911D01*
X108883760Y-90243000D01*
X109048240Y-90243000D01*
X109209560Y-90210911D01*
X109361521Y-90147967D01*
X109474000Y-90072811D01*
X109586479Y-90147967D01*
X109738440Y-90210911D01*
X109899760Y-90243000D01*
X110064240Y-90243000D01*
X110225560Y-90210911D01*
X110377521Y-90147967D01*
X110467627Y-90087760D01*
X130737000Y-90087760D01*
X130737000Y-90252240D01*
X130769089Y-90413560D01*
X130832033Y-90565521D01*
X130923413Y-90702281D01*
X131039719Y-90818587D01*
X131176479Y-90909967D01*
X131328440Y-90972911D01*
X131489760Y-91005000D01*
X131654240Y-91005000D01*
X131815560Y-90972911D01*
X131967521Y-90909967D01*
X132104281Y-90818587D01*
X132220587Y-90702281D01*
X132311967Y-90565521D01*
X132374911Y-90413560D01*
X132407000Y-90252240D01*
X132407000Y-90087760D01*
X132374911Y-89926440D01*
X132311967Y-89774479D01*
X132220587Y-89637719D01*
X132104281Y-89521413D01*
X131967521Y-89430033D01*
X131815560Y-89367089D01*
X131654240Y-89335000D01*
X131489760Y-89335000D01*
X131328440Y-89367089D01*
X131176479Y-89430033D01*
X131039719Y-89521413D01*
X130923413Y-89637719D01*
X130832033Y-89774479D01*
X130769089Y-89926440D01*
X130737000Y-90087760D01*
X110467627Y-90087760D01*
X110514281Y-90056587D01*
X110630587Y-89940281D01*
X110721967Y-89803521D01*
X110784911Y-89651560D01*
X110817000Y-89490240D01*
X110817000Y-89325760D01*
X110784911Y-89164440D01*
X110721967Y-89012479D01*
X110630587Y-88875719D01*
X110514281Y-88759413D01*
X110377521Y-88668033D01*
X110225560Y-88605089D01*
X110064240Y-88573000D01*
X109899760Y-88573000D01*
X109738440Y-88605089D01*
X109586479Y-88668033D01*
X109474000Y-88743189D01*
X109361521Y-88668033D01*
X109209560Y-88605089D01*
X109048240Y-88573000D01*
X108883760Y-88573000D01*
X108722440Y-88605089D01*
X108570479Y-88668033D01*
X108433719Y-88759413D01*
X108317413Y-88875719D01*
X108226033Y-89012479D01*
X108163089Y-89164440D01*
X108131000Y-89325760D01*
X91084000Y-89325760D01*
X91084000Y-88309760D01*
X112022997Y-88309760D01*
X112022997Y-88474240D01*
X112055086Y-88635560D01*
X112118030Y-88787521D01*
X112209410Y-88924281D01*
X112325716Y-89040587D01*
X112462476Y-89131967D01*
X112614437Y-89194911D01*
X112775757Y-89227000D01*
X112940237Y-89227000D01*
X113101557Y-89194911D01*
X113253518Y-89131967D01*
X113390278Y-89040587D01*
X113506584Y-88924281D01*
X113597964Y-88787521D01*
X113660908Y-88635560D01*
X113692997Y-88474240D01*
X113692997Y-88309760D01*
X113660908Y-88148440D01*
X113597964Y-87996479D01*
X113506584Y-87859719D01*
X113403865Y-87757000D01*
X116332000Y-87757000D01*
X116356776Y-87754560D01*
X116380601Y-87747333D01*
X116402557Y-87735597D01*
X116421803Y-87719803D01*
X116437597Y-87700557D01*
X116449333Y-87678601D01*
X116456560Y-87654776D01*
X116459000Y-87630000D01*
X116459000Y-87039760D01*
X116767000Y-87039760D01*
X116767000Y-87204240D01*
X116799089Y-87365560D01*
X116862033Y-87517521D01*
X116953413Y-87654281D01*
X117069719Y-87770587D01*
X117206479Y-87861967D01*
X117358440Y-87924911D01*
X117519760Y-87957000D01*
X117684240Y-87957000D01*
X117845560Y-87924911D01*
X117997521Y-87861967D01*
X118134281Y-87770587D01*
X118250587Y-87654281D01*
X118341967Y-87517521D01*
X118404911Y-87365560D01*
X118437000Y-87204240D01*
X118437000Y-87039760D01*
X118434417Y-87026774D01*
X118786014Y-87026774D01*
X118786014Y-87191254D01*
X118818103Y-87352574D01*
X118881047Y-87504535D01*
X118972427Y-87641295D01*
X119088733Y-87757601D01*
X119225493Y-87848981D01*
X119377454Y-87911925D01*
X119538774Y-87944014D01*
X119703254Y-87944014D01*
X119864574Y-87911925D01*
X120016535Y-87848981D01*
X120153295Y-87757601D01*
X120269601Y-87641295D01*
X120360981Y-87504535D01*
X120423925Y-87352574D01*
X120456014Y-87191254D01*
X120456014Y-87026774D01*
X120423925Y-86865454D01*
X120360981Y-86713493D01*
X120269601Y-86576733D01*
X120153295Y-86460427D01*
X120016535Y-86369047D01*
X119864574Y-86306103D01*
X119703254Y-86274014D01*
X119538774Y-86274014D01*
X119377454Y-86306103D01*
X119225493Y-86369047D01*
X119088733Y-86460427D01*
X118972427Y-86576733D01*
X118881047Y-86713493D01*
X118818103Y-86865454D01*
X118786014Y-87026774D01*
X118434417Y-87026774D01*
X118404911Y-86878440D01*
X118341967Y-86726479D01*
X118250587Y-86589719D01*
X118134281Y-86473413D01*
X117997521Y-86382033D01*
X117845560Y-86319089D01*
X117684240Y-86287000D01*
X117519760Y-86287000D01*
X117358440Y-86319089D01*
X117206479Y-86382033D01*
X117069719Y-86473413D01*
X116953413Y-86589719D01*
X116862033Y-86726479D01*
X116799089Y-86878440D01*
X116767000Y-87039760D01*
X116459000Y-87039760D01*
X116459000Y-85769760D01*
X121338998Y-85769760D01*
X121338998Y-85934240D01*
X121371087Y-86095560D01*
X121434031Y-86247521D01*
X121525411Y-86384281D01*
X121641717Y-86500587D01*
X121778477Y-86591967D01*
X121930438Y-86654911D01*
X122091758Y-86687000D01*
X122256238Y-86687000D01*
X122417558Y-86654911D01*
X122569519Y-86591967D01*
X122706279Y-86500587D01*
X122822585Y-86384281D01*
X122913965Y-86247521D01*
X122976909Y-86095560D01*
X123008998Y-85934240D01*
X123008998Y-85769760D01*
X126365001Y-85769760D01*
X126365001Y-85934240D01*
X126397090Y-86095560D01*
X126460034Y-86247521D01*
X126551414Y-86384281D01*
X126667720Y-86500587D01*
X126804480Y-86591967D01*
X126956441Y-86654911D01*
X127117761Y-86687000D01*
X127282241Y-86687000D01*
X127443561Y-86654911D01*
X127595522Y-86591967D01*
X127732282Y-86500587D01*
X127848588Y-86384281D01*
X127939968Y-86247521D01*
X127957374Y-86205500D01*
X127943000Y-86277760D01*
X127943000Y-86442240D01*
X127975089Y-86603560D01*
X128038033Y-86755521D01*
X128129413Y-86892281D01*
X128245719Y-87008587D01*
X128382479Y-87099967D01*
X128534440Y-87162911D01*
X128695760Y-87195000D01*
X128860240Y-87195000D01*
X129021560Y-87162911D01*
X129173521Y-87099967D01*
X129263627Y-87039760D01*
X129974968Y-87039760D01*
X129974968Y-87204240D01*
X130007057Y-87365560D01*
X130070001Y-87517521D01*
X130161381Y-87654281D01*
X130277687Y-87770587D01*
X130414447Y-87861967D01*
X130566408Y-87924911D01*
X130727728Y-87957000D01*
X130892208Y-87957000D01*
X131053528Y-87924911D01*
X131205489Y-87861967D01*
X131342249Y-87770587D01*
X131458555Y-87654281D01*
X131549935Y-87517521D01*
X131612879Y-87365560D01*
X131644968Y-87204240D01*
X131644968Y-87195000D01*
X131654240Y-87195000D01*
X131815560Y-87162911D01*
X131967521Y-87099967D01*
X132104281Y-87008587D01*
X132220587Y-86892281D01*
X132311967Y-86755521D01*
X132374911Y-86603560D01*
X132407000Y-86442240D01*
X132407000Y-86277760D01*
X132374911Y-86116440D01*
X132311967Y-85964479D01*
X132220587Y-85827719D01*
X132104281Y-85711413D01*
X131967521Y-85620033D01*
X131815560Y-85557089D01*
X131654240Y-85525000D01*
X131489760Y-85525000D01*
X131328440Y-85557089D01*
X131176479Y-85620033D01*
X131039719Y-85711413D01*
X130923413Y-85827719D01*
X130832033Y-85964479D01*
X130769089Y-86116440D01*
X130737000Y-86277760D01*
X130737000Y-86287000D01*
X130727728Y-86287000D01*
X130566408Y-86319089D01*
X130414447Y-86382033D01*
X130277687Y-86473413D01*
X130161381Y-86589719D01*
X130070001Y-86726479D01*
X130007057Y-86878440D01*
X129974968Y-87039760D01*
X129263627Y-87039760D01*
X129310281Y-87008587D01*
X129426587Y-86892281D01*
X129517967Y-86755521D01*
X129580911Y-86603560D01*
X129613000Y-86442240D01*
X129613000Y-86277760D01*
X129580911Y-86116440D01*
X129517967Y-85964479D01*
X129426587Y-85827719D01*
X129310281Y-85711413D01*
X129173521Y-85620033D01*
X129021560Y-85557089D01*
X128860240Y-85525000D01*
X128695760Y-85525000D01*
X128534440Y-85557089D01*
X128382479Y-85620033D01*
X128245719Y-85711413D01*
X128129413Y-85827719D01*
X128038033Y-85964479D01*
X128020627Y-86006500D01*
X128035001Y-85934240D01*
X128035001Y-85769760D01*
X128002912Y-85608440D01*
X127939968Y-85456479D01*
X127848588Y-85319719D01*
X127732282Y-85203413D01*
X127595522Y-85112033D01*
X127443561Y-85049089D01*
X127282241Y-85017000D01*
X127117761Y-85017000D01*
X126956441Y-85049089D01*
X126804480Y-85112033D01*
X126667720Y-85203413D01*
X126551414Y-85319719D01*
X126460034Y-85456479D01*
X126397090Y-85608440D01*
X126365001Y-85769760D01*
X123008998Y-85769760D01*
X122976909Y-85608440D01*
X122913965Y-85456479D01*
X122822585Y-85319719D01*
X122706279Y-85203413D01*
X122569519Y-85112033D01*
X122417558Y-85049089D01*
X122256238Y-85017000D01*
X122091758Y-85017000D01*
X121930438Y-85049089D01*
X121778477Y-85112033D01*
X121641717Y-85203413D01*
X121525411Y-85319719D01*
X121434031Y-85456479D01*
X121371087Y-85608440D01*
X121338998Y-85769760D01*
X116459000Y-85769760D01*
X116459000Y-84582000D01*
X116456560Y-84557224D01*
X116449333Y-84533399D01*
X116437597Y-84511443D01*
X116421803Y-84492197D01*
X116402557Y-84476403D01*
X116380601Y-84464667D01*
X116356776Y-84457440D01*
X116332000Y-84455000D01*
X113284000Y-84455000D01*
X113259224Y-84457440D01*
X113235399Y-84464667D01*
X113213443Y-84476403D01*
X113194197Y-84492197D01*
X113178403Y-84511443D01*
X113166667Y-84533399D01*
X113159440Y-84557224D01*
X113157000Y-84582000D01*
X113157000Y-87612054D01*
X113101557Y-87589089D01*
X112940237Y-87557000D01*
X112775757Y-87557000D01*
X112614437Y-87589089D01*
X112462476Y-87652033D01*
X112325716Y-87743413D01*
X112209410Y-87859719D01*
X112118030Y-87996479D01*
X112055086Y-88148440D01*
X112022997Y-88309760D01*
X91084000Y-88309760D01*
X91084000Y-88036000D01*
X98773581Y-88036000D01*
X98806000Y-88039193D01*
X98838419Y-88036000D01*
X98935383Y-88026450D01*
X99059793Y-87988710D01*
X99174450Y-87927425D01*
X99274948Y-87844948D01*
X99357425Y-87744450D01*
X99418710Y-87629793D01*
X99456450Y-87505383D01*
X99469193Y-87376000D01*
X99466000Y-87343581D01*
X99466000Y-86785760D01*
X111179000Y-86785760D01*
X111179000Y-86950240D01*
X111211089Y-87111560D01*
X111274033Y-87263521D01*
X111365413Y-87400281D01*
X111481719Y-87516587D01*
X111618479Y-87607967D01*
X111770440Y-87670911D01*
X111931760Y-87703000D01*
X112096240Y-87703000D01*
X112257560Y-87670911D01*
X112409521Y-87607967D01*
X112546281Y-87516587D01*
X112662587Y-87400281D01*
X112753967Y-87263521D01*
X112816911Y-87111560D01*
X112849000Y-86950240D01*
X112849000Y-86785760D01*
X112816911Y-86624440D01*
X112753967Y-86472479D01*
X112662587Y-86335719D01*
X112546281Y-86219413D01*
X112409521Y-86128033D01*
X112257560Y-86065089D01*
X112096240Y-86033000D01*
X111931760Y-86033000D01*
X111770440Y-86065089D01*
X111618479Y-86128033D01*
X111481719Y-86219413D01*
X111365413Y-86335719D01*
X111274033Y-86472479D01*
X111211089Y-86624440D01*
X111179000Y-86785760D01*
X99466000Y-86785760D01*
X99466000Y-84614418D01*
X99469193Y-84582000D01*
X99456450Y-84452617D01*
X99418710Y-84328207D01*
X99357425Y-84213550D01*
X99274948Y-84113052D01*
X99174450Y-84030575D01*
X99059793Y-83969290D01*
X98935383Y-83931550D01*
X98838419Y-83922000D01*
X98806000Y-83918807D01*
X98773581Y-83922000D01*
X91084000Y-83922000D01*
X91084000Y-82467760D01*
X95431000Y-82467760D01*
X95431000Y-82632240D01*
X95463089Y-82793560D01*
X95526033Y-82945521D01*
X95617413Y-83082281D01*
X95733719Y-83198587D01*
X95870479Y-83289967D01*
X96022440Y-83352911D01*
X96183760Y-83385000D01*
X96348240Y-83385000D01*
X96509560Y-83352911D01*
X96661521Y-83289967D01*
X96798281Y-83198587D01*
X96914587Y-83082281D01*
X97005967Y-82945521D01*
X97068911Y-82793560D01*
X97101000Y-82632240D01*
X97101000Y-82467760D01*
X97068911Y-82306440D01*
X97005967Y-82154479D01*
X96914587Y-82017719D01*
X96798281Y-81901413D01*
X96661521Y-81810033D01*
X96509560Y-81747089D01*
X96367108Y-81718753D01*
X115001993Y-81718753D01*
X115001993Y-81883233D01*
X115034082Y-82044553D01*
X115097026Y-82196514D01*
X115188406Y-82333274D01*
X115304712Y-82449580D01*
X115441472Y-82540960D01*
X115593433Y-82603904D01*
X115632949Y-82611764D01*
X115525719Y-82683413D01*
X115409413Y-82799719D01*
X115318033Y-82936479D01*
X115255089Y-83088440D01*
X115223000Y-83249760D01*
X115223000Y-83414240D01*
X115255089Y-83575560D01*
X115318033Y-83727521D01*
X115409413Y-83864281D01*
X115525719Y-83980587D01*
X115662479Y-84071967D01*
X115814440Y-84134911D01*
X115975760Y-84167000D01*
X116140240Y-84167000D01*
X116301560Y-84134911D01*
X116453521Y-84071967D01*
X116590281Y-83980587D01*
X116706587Y-83864281D01*
X116797967Y-83727521D01*
X116860911Y-83575560D01*
X116893000Y-83414240D01*
X116893000Y-83249760D01*
X116860911Y-83088440D01*
X116797967Y-82936479D01*
X116706587Y-82799719D01*
X116590281Y-82683413D01*
X116453521Y-82592033D01*
X116301560Y-82529089D01*
X116262044Y-82521229D01*
X116369274Y-82449580D01*
X116485580Y-82333274D01*
X116576960Y-82196514D01*
X116639904Y-82044553D01*
X116671993Y-81883233D01*
X116671993Y-81718753D01*
X116639904Y-81557433D01*
X116576960Y-81405472D01*
X116485580Y-81268712D01*
X116369274Y-81152406D01*
X116232514Y-81061026D01*
X116080553Y-80998082D01*
X115919233Y-80965993D01*
X115754753Y-80965993D01*
X115593433Y-80998082D01*
X115441472Y-81061026D01*
X115304712Y-81152406D01*
X115188406Y-81268712D01*
X115097026Y-81405472D01*
X115034082Y-81557433D01*
X115001993Y-81718753D01*
X96367108Y-81718753D01*
X96348240Y-81715000D01*
X96183760Y-81715000D01*
X96022440Y-81747089D01*
X95870479Y-81810033D01*
X95733719Y-81901413D01*
X95617413Y-82017719D01*
X95526033Y-82154479D01*
X95463089Y-82306440D01*
X95431000Y-82467760D01*
X91084000Y-82467760D01*
X91084000Y-77845772D01*
X130433004Y-77845772D01*
X130433004Y-78010252D01*
X130465093Y-78171572D01*
X130528037Y-78323533D01*
X130619417Y-78460293D01*
X130735723Y-78576599D01*
X130872483Y-78667979D01*
X131024444Y-78730923D01*
X131185764Y-78763012D01*
X131350244Y-78763012D01*
X131511564Y-78730923D01*
X131663525Y-78667979D01*
X131800285Y-78576599D01*
X131916591Y-78460293D01*
X132007971Y-78323533D01*
X132070915Y-78171572D01*
X132103004Y-78010252D01*
X132103004Y-77845772D01*
X132078450Y-77722329D01*
X132595571Y-77722329D01*
X132595571Y-77886809D01*
X132627660Y-78048129D01*
X132690604Y-78200090D01*
X132781984Y-78336850D01*
X132898290Y-78453156D01*
X133035050Y-78544536D01*
X133187011Y-78607480D01*
X133348331Y-78639569D01*
X133512811Y-78639569D01*
X133674131Y-78607480D01*
X133826092Y-78544536D01*
X133962852Y-78453156D01*
X134079158Y-78336850D01*
X134170538Y-78200090D01*
X134233482Y-78048129D01*
X134265571Y-77886809D01*
X134265571Y-77722329D01*
X134255913Y-77673772D01*
X134833000Y-77673772D01*
X134833000Y-77838252D01*
X134865089Y-77999572D01*
X134928033Y-78151533D01*
X135019413Y-78288293D01*
X135135719Y-78404599D01*
X135272479Y-78495979D01*
X135424440Y-78558923D01*
X135585760Y-78591012D01*
X135750240Y-78591012D01*
X135911560Y-78558923D01*
X136063521Y-78495979D01*
X136200281Y-78404599D01*
X136303210Y-78301670D01*
X136372487Y-78347959D01*
X136524448Y-78410903D01*
X136685768Y-78442992D01*
X136850248Y-78442992D01*
X137011568Y-78410903D01*
X137163529Y-78347959D01*
X137300289Y-78256579D01*
X137416595Y-78140273D01*
X137507975Y-78003513D01*
X137570919Y-77851552D01*
X137603008Y-77690232D01*
X137603008Y-77525752D01*
X137570919Y-77364432D01*
X137507975Y-77212471D01*
X137416595Y-77075711D01*
X137300289Y-76959405D01*
X137163529Y-76868025D01*
X137011568Y-76805081D01*
X136850248Y-76772992D01*
X136685768Y-76772992D01*
X136524448Y-76805081D01*
X136372487Y-76868025D01*
X136235727Y-76959405D01*
X136132798Y-77062334D01*
X136063521Y-77016045D01*
X135911560Y-76953101D01*
X135750240Y-76921012D01*
X135585760Y-76921012D01*
X135424440Y-76953101D01*
X135272479Y-77016045D01*
X135135719Y-77107425D01*
X135019413Y-77223731D01*
X134928033Y-77360491D01*
X134865089Y-77512452D01*
X134833000Y-77673772D01*
X134255913Y-77673772D01*
X134233482Y-77561009D01*
X134170538Y-77409048D01*
X134079158Y-77272288D01*
X133962852Y-77155982D01*
X133826092Y-77064602D01*
X133674131Y-77001658D01*
X133512811Y-76969569D01*
X133348331Y-76969569D01*
X133187011Y-77001658D01*
X133035050Y-77064602D01*
X132898290Y-77155982D01*
X132781984Y-77272288D01*
X132690604Y-77409048D01*
X132627660Y-77561009D01*
X132595571Y-77722329D01*
X132078450Y-77722329D01*
X132070915Y-77684452D01*
X132007971Y-77532491D01*
X131916591Y-77395731D01*
X131800285Y-77279425D01*
X131663525Y-77188045D01*
X131511564Y-77125101D01*
X131350244Y-77093012D01*
X131185764Y-77093012D01*
X131024444Y-77125101D01*
X130872483Y-77188045D01*
X130735723Y-77279425D01*
X130619417Y-77395731D01*
X130528037Y-77532491D01*
X130465093Y-77684452D01*
X130433004Y-77845772D01*
X91084000Y-77845772D01*
X91084000Y-74373760D01*
X131533000Y-74373760D01*
X131533000Y-74538240D01*
X131565089Y-74699560D01*
X131628033Y-74851521D01*
X131719413Y-74988281D01*
X131835719Y-75104587D01*
X131972479Y-75195967D01*
X132124440Y-75258911D01*
X132285760Y-75291000D01*
X132450240Y-75291000D01*
X132611560Y-75258911D01*
X132763521Y-75195967D01*
X132900281Y-75104587D01*
X133016587Y-74988281D01*
X133107967Y-74851521D01*
X133170911Y-74699560D01*
X133203000Y-74538240D01*
X133203000Y-74373760D01*
X133170911Y-74212440D01*
X133107967Y-74060479D01*
X133016587Y-73923719D01*
X132900281Y-73807413D01*
X132763521Y-73716033D01*
X132611560Y-73653089D01*
X132450240Y-73621000D01*
X132285760Y-73621000D01*
X132124440Y-73653089D01*
X131972479Y-73716033D01*
X131835719Y-73807413D01*
X131719413Y-73923719D01*
X131628033Y-74060479D01*
X131565089Y-74212440D01*
X131533000Y-74373760D01*
X91084000Y-74373760D01*
X91084000Y-72561760D01*
X104321000Y-72561760D01*
X104321000Y-72726240D01*
X104353089Y-72887560D01*
X104416033Y-73039521D01*
X104507413Y-73176281D01*
X104623719Y-73292587D01*
X104760479Y-73383967D01*
X104912440Y-73446911D01*
X105073760Y-73479000D01*
X105238240Y-73479000D01*
X105399560Y-73446911D01*
X105551521Y-73383967D01*
X105688281Y-73292587D01*
X105804587Y-73176281D01*
X105895967Y-73039521D01*
X105958911Y-72887560D01*
X105991000Y-72726240D01*
X105991000Y-72561760D01*
X105958911Y-72400440D01*
X105895967Y-72248479D01*
X105804587Y-72111719D01*
X105688281Y-71995413D01*
X105551521Y-71904033D01*
X105399560Y-71841089D01*
X105238240Y-71809000D01*
X105073760Y-71809000D01*
X104912440Y-71841089D01*
X104760479Y-71904033D01*
X104623719Y-71995413D01*
X104507413Y-72111719D01*
X104416033Y-72248479D01*
X104353089Y-72400440D01*
X104321000Y-72561760D01*
X91084000Y-72561760D01*
X91084000Y-68599782D01*
X93804984Y-68599782D01*
X93804984Y-68764262D01*
X93837073Y-68925582D01*
X93900017Y-69077543D01*
X93991397Y-69214303D01*
X94107703Y-69330609D01*
X94244463Y-69421989D01*
X94396424Y-69484933D01*
X94557744Y-69517022D01*
X94722224Y-69517022D01*
X94883544Y-69484933D01*
X95035505Y-69421989D01*
X95172265Y-69330609D01*
X95288571Y-69214303D01*
X95379951Y-69077543D01*
X95442895Y-68925582D01*
X95474984Y-68764262D01*
X95474984Y-68599782D01*
X95442895Y-68438462D01*
X95379951Y-68286501D01*
X95288571Y-68149741D01*
X95172265Y-68033435D01*
X95035505Y-67942055D01*
X94883544Y-67879111D01*
X94722224Y-67847022D01*
X94557744Y-67847022D01*
X94396424Y-67879111D01*
X94244463Y-67942055D01*
X94107703Y-68033435D01*
X93991397Y-68149741D01*
X93900017Y-68286501D01*
X93837073Y-68438462D01*
X93804984Y-68599782D01*
X91084000Y-68599782D01*
X91084000Y-67389495D01*
X91116774Y-67396014D01*
X91281254Y-67396014D01*
X91442574Y-67363925D01*
X91594535Y-67300981D01*
X91731295Y-67209601D01*
X91847601Y-67093295D01*
X91938981Y-66956535D01*
X92001925Y-66804574D01*
X92034014Y-66643254D01*
X92034014Y-66478774D01*
X92031426Y-66465760D01*
X92383000Y-66465760D01*
X92383000Y-66630240D01*
X92415089Y-66791560D01*
X92478033Y-66943521D01*
X92569413Y-67080281D01*
X92685719Y-67196587D01*
X92822479Y-67287967D01*
X92974440Y-67350911D01*
X93135760Y-67383000D01*
X93300240Y-67383000D01*
X93461560Y-67350911D01*
X93613521Y-67287967D01*
X93750281Y-67196587D01*
X93866587Y-67080281D01*
X93957967Y-66943521D01*
X94020911Y-66791560D01*
X94053000Y-66630240D01*
X94053000Y-66465760D01*
X95177000Y-66465760D01*
X95177000Y-66630240D01*
X95209089Y-66791560D01*
X95272033Y-66943521D01*
X95363413Y-67080281D01*
X95479719Y-67196587D01*
X95616479Y-67287967D01*
X95768440Y-67350911D01*
X95929760Y-67383000D01*
X96094240Y-67383000D01*
X96255560Y-67350911D01*
X96407521Y-67287967D01*
X96544281Y-67196587D01*
X96660587Y-67080281D01*
X96751967Y-66943521D01*
X96814911Y-66791560D01*
X96847000Y-66630240D01*
X96847000Y-66465760D01*
X96955000Y-66465760D01*
X96955000Y-66630240D01*
X96987089Y-66791560D01*
X97050033Y-66943521D01*
X97141413Y-67080281D01*
X97257719Y-67196587D01*
X97394479Y-67287967D01*
X97546440Y-67350911D01*
X97707760Y-67383000D01*
X97872240Y-67383000D01*
X98033560Y-67350911D01*
X98185521Y-67287967D01*
X98322281Y-67196587D01*
X98438587Y-67080281D01*
X98529967Y-66943521D01*
X98592911Y-66791560D01*
X98625000Y-66630240D01*
X98625000Y-66465760D01*
X98733000Y-66465760D01*
X98733000Y-66630240D01*
X98765089Y-66791560D01*
X98828033Y-66943521D01*
X98919413Y-67080281D01*
X99035719Y-67196587D01*
X99172479Y-67287967D01*
X99324440Y-67350911D01*
X99485760Y-67383000D01*
X99650240Y-67383000D01*
X99811560Y-67350911D01*
X99963521Y-67287967D01*
X100100281Y-67196587D01*
X100216587Y-67080281D01*
X100307967Y-66943521D01*
X100370911Y-66791560D01*
X100403000Y-66630240D01*
X100403000Y-66465760D01*
X100370911Y-66304440D01*
X100307967Y-66152479D01*
X100216587Y-66015719D01*
X100100281Y-65899413D01*
X99963521Y-65808033D01*
X99811560Y-65745089D01*
X99650240Y-65713000D01*
X99485760Y-65713000D01*
X99324440Y-65745089D01*
X99172479Y-65808033D01*
X99035719Y-65899413D01*
X98919413Y-66015719D01*
X98828033Y-66152479D01*
X98765089Y-66304440D01*
X98733000Y-66465760D01*
X98625000Y-66465760D01*
X98592911Y-66304440D01*
X98529967Y-66152479D01*
X98438587Y-66015719D01*
X98322281Y-65899413D01*
X98185521Y-65808033D01*
X98033560Y-65745089D01*
X97872240Y-65713000D01*
X97707760Y-65713000D01*
X97546440Y-65745089D01*
X97394479Y-65808033D01*
X97257719Y-65899413D01*
X97141413Y-66015719D01*
X97050033Y-66152479D01*
X96987089Y-66304440D01*
X96955000Y-66465760D01*
X96847000Y-66465760D01*
X96814911Y-66304440D01*
X96751967Y-66152479D01*
X96660587Y-66015719D01*
X96544281Y-65899413D01*
X96407521Y-65808033D01*
X96255560Y-65745089D01*
X96094240Y-65713000D01*
X95929760Y-65713000D01*
X95768440Y-65745089D01*
X95616479Y-65808033D01*
X95479719Y-65899413D01*
X95363413Y-66015719D01*
X95272033Y-66152479D01*
X95209089Y-66304440D01*
X95177000Y-66465760D01*
X94053000Y-66465760D01*
X94020911Y-66304440D01*
X93957967Y-66152479D01*
X93866587Y-66015719D01*
X93750281Y-65899413D01*
X93613521Y-65808033D01*
X93461560Y-65745089D01*
X93300240Y-65713000D01*
X93135760Y-65713000D01*
X92974440Y-65745089D01*
X92822479Y-65808033D01*
X92685719Y-65899413D01*
X92569413Y-66015719D01*
X92478033Y-66152479D01*
X92415089Y-66304440D01*
X92383000Y-66465760D01*
X92031426Y-66465760D01*
X92001925Y-66317454D01*
X91938981Y-66165493D01*
X91847601Y-66028733D01*
X91731295Y-65912427D01*
X91594535Y-65821047D01*
X91442574Y-65758103D01*
X91281254Y-65726014D01*
X91116774Y-65726014D01*
X91084000Y-65732533D01*
X91084000Y-64281769D01*
X93804991Y-64281769D01*
X93804991Y-64446249D01*
X93837080Y-64607569D01*
X93900024Y-64759530D01*
X93991404Y-64896290D01*
X94107710Y-65012596D01*
X94244470Y-65103976D01*
X94396431Y-65166920D01*
X94557751Y-65199009D01*
X94722231Y-65199009D01*
X94883551Y-65166920D01*
X95035512Y-65103976D01*
X95172272Y-65012596D01*
X95288578Y-64896290D01*
X95379958Y-64759530D01*
X95442902Y-64607569D01*
X95474991Y-64446249D01*
X95474991Y-64392000D01*
X109772630Y-64392000D01*
X109794062Y-64609598D01*
X109857532Y-64818834D01*
X109960604Y-65011666D01*
X110099314Y-65180686D01*
X110268334Y-65319396D01*
X110461166Y-65422468D01*
X110670402Y-65485938D01*
X110833479Y-65502000D01*
X111242521Y-65502000D01*
X111405598Y-65485938D01*
X111614834Y-65422468D01*
X111807666Y-65319396D01*
X111976686Y-65180686D01*
X112115396Y-65011666D01*
X112218468Y-64818834D01*
X112281938Y-64609598D01*
X112303370Y-64392000D01*
X114772630Y-64392000D01*
X114794062Y-64609598D01*
X114857532Y-64818834D01*
X114960604Y-65011666D01*
X115099314Y-65180686D01*
X115268334Y-65319396D01*
X115461166Y-65422468D01*
X115670402Y-65485938D01*
X115833479Y-65502000D01*
X116242521Y-65502000D01*
X116405598Y-65485938D01*
X116614834Y-65422468D01*
X116807666Y-65319396D01*
X116976686Y-65180686D01*
X117115396Y-65011666D01*
X117218468Y-64818834D01*
X117281938Y-64609598D01*
X117297045Y-64456212D01*
X127133000Y-64456212D01*
X127133000Y-64679788D01*
X127176617Y-64899067D01*
X127262176Y-65105624D01*
X127386388Y-65291520D01*
X127544480Y-65449612D01*
X127730376Y-65573824D01*
X127936933Y-65659383D01*
X128156212Y-65703000D01*
X128379788Y-65703000D01*
X128599067Y-65659383D01*
X128805624Y-65573824D01*
X128991520Y-65449612D01*
X129149612Y-65291520D01*
X129273824Y-65105624D01*
X129359383Y-64899067D01*
X129403000Y-64679788D01*
X129403000Y-64456212D01*
X135133000Y-64456212D01*
X135133000Y-64679788D01*
X135176617Y-64899067D01*
X135262176Y-65105624D01*
X135386388Y-65291520D01*
X135544480Y-65449612D01*
X135730376Y-65573824D01*
X135936933Y-65659383D01*
X136156212Y-65703000D01*
X136379788Y-65703000D01*
X136599067Y-65659383D01*
X136805624Y-65573824D01*
X136991520Y-65449612D01*
X137149612Y-65291520D01*
X137273824Y-65105624D01*
X137359383Y-64899067D01*
X137403000Y-64679788D01*
X137403000Y-64456212D01*
X137359383Y-64236933D01*
X137273824Y-64030376D01*
X137149612Y-63844480D01*
X136991520Y-63686388D01*
X136805624Y-63562176D01*
X136599067Y-63476617D01*
X136379788Y-63433000D01*
X136156212Y-63433000D01*
X135936933Y-63476617D01*
X135730376Y-63562176D01*
X135544480Y-63686388D01*
X135386388Y-63844480D01*
X135262176Y-64030376D01*
X135176617Y-64236933D01*
X135133000Y-64456212D01*
X129403000Y-64456212D01*
X129359383Y-64236933D01*
X129273824Y-64030376D01*
X129149612Y-63844480D01*
X128991520Y-63686388D01*
X128805624Y-63562176D01*
X128599067Y-63476617D01*
X128379788Y-63433000D01*
X128156212Y-63433000D01*
X127936933Y-63476617D01*
X127730376Y-63562176D01*
X127544480Y-63686388D01*
X127386388Y-63844480D01*
X127262176Y-64030376D01*
X127176617Y-64236933D01*
X127133000Y-64456212D01*
X117297045Y-64456212D01*
X117303370Y-64392000D01*
X117281938Y-64174402D01*
X117218468Y-63965166D01*
X117115396Y-63772334D01*
X116976686Y-63603314D01*
X116807666Y-63464604D01*
X116614834Y-63361532D01*
X116405598Y-63298062D01*
X116242521Y-63282000D01*
X115833479Y-63282000D01*
X115670402Y-63298062D01*
X115461166Y-63361532D01*
X115268334Y-63464604D01*
X115099314Y-63603314D01*
X114960604Y-63772334D01*
X114857532Y-63965166D01*
X114794062Y-64174402D01*
X114772630Y-64392000D01*
X112303370Y-64392000D01*
X112281938Y-64174402D01*
X112218468Y-63965166D01*
X112115396Y-63772334D01*
X111976686Y-63603314D01*
X111807666Y-63464604D01*
X111614834Y-63361532D01*
X111405598Y-63298062D01*
X111242521Y-63282000D01*
X110833479Y-63282000D01*
X110670402Y-63298062D01*
X110461166Y-63361532D01*
X110268334Y-63464604D01*
X110099314Y-63603314D01*
X109960604Y-63772334D01*
X109857532Y-63965166D01*
X109794062Y-64174402D01*
X109772630Y-64392000D01*
X95474991Y-64392000D01*
X95474991Y-64281769D01*
X95442902Y-64120449D01*
X95379958Y-63968488D01*
X95288578Y-63831728D01*
X95172272Y-63715422D01*
X95035512Y-63624042D01*
X94883551Y-63561098D01*
X94722231Y-63529009D01*
X94557751Y-63529009D01*
X94396431Y-63561098D01*
X94244470Y-63624042D01*
X94107710Y-63715422D01*
X93991404Y-63831728D01*
X93900024Y-63968488D01*
X93837080Y-64120449D01*
X93804991Y-64281769D01*
X91084000Y-64281769D01*
X91084000Y-60858000D01*
X109082796Y-60858000D01*
X109035384Y-60946702D01*
%TA.AperFunction,Conductor*%
D14*
G36*
X109035384Y-60946702D02*
G01*
X108973627Y-61150283D01*
X108958000Y-61308949D01*
X108958000Y-62075050D01*
X108973627Y-62233716D01*
X109035383Y-62437297D01*
X109135668Y-62624919D01*
X109270630Y-62789370D01*
X109435081Y-62924332D01*
X109622702Y-63024617D01*
X109826283Y-63086373D01*
X110038000Y-63107225D01*
X110249716Y-63086373D01*
X110453297Y-63024617D01*
X110640919Y-62924332D01*
X110805370Y-62789370D01*
X110940332Y-62624919D01*
X111040617Y-62437298D01*
X111102373Y-62233717D01*
X111118000Y-62075051D01*
X111118000Y-61308950D01*
X111102373Y-61150284D01*
X111040617Y-60946702D01*
X110993205Y-60858000D01*
X116082796Y-60858000D01*
X116035384Y-60946702D01*
X115973627Y-61150283D01*
X115958000Y-61308949D01*
X115958000Y-62075050D01*
X115973627Y-62233716D01*
X116035383Y-62437297D01*
X116135668Y-62624919D01*
X116270630Y-62789370D01*
X116435081Y-62924332D01*
X116622702Y-63024617D01*
X116826283Y-63086373D01*
X117038000Y-63107225D01*
X117249716Y-63086373D01*
X117453297Y-63024617D01*
X117640919Y-62924332D01*
X117805370Y-62789370D01*
X117940332Y-62624919D01*
X118040617Y-62437298D01*
X118102373Y-62233717D01*
X118118000Y-62075051D01*
X118118000Y-61308950D01*
X118102373Y-61150284D01*
X118040617Y-60946702D01*
X117993205Y-60858000D01*
X140056000Y-60858000D01*
X140056000Y-80899000D01*
X139464910Y-80899000D01*
X139394631Y-80729331D01*
X139150038Y-80363271D01*
X138838729Y-80051962D01*
X138472669Y-79807369D01*
X138065925Y-79638890D01*
X137634128Y-79553000D01*
X137193872Y-79553000D01*
X136762075Y-79638890D01*
X136355331Y-79807369D01*
X135989271Y-80051962D01*
X135677962Y-80363271D01*
X135433369Y-80729331D01*
X135363090Y-80899000D01*
X133858000Y-80899000D01*
X133833224Y-80901440D01*
X133809399Y-80908667D01*
X133787443Y-80920403D01*
X133768197Y-80936197D01*
X133752403Y-80955443D01*
X133740667Y-80977399D01*
X133733440Y-81001224D01*
X133731000Y-81026000D01*
X133731000Y-110338000D01*
X91084000Y-110338000D01*
X91084000Y-105697872D01*
X93269000Y-105697872D01*
X93269000Y-106138128D01*
X93354890Y-106569925D01*
X93523369Y-106976669D01*
X93767962Y-107342729D01*
X94079271Y-107654038D01*
X94445331Y-107898631D01*
X94852075Y-108067110D01*
X95283872Y-108153000D01*
X95724128Y-108153000D01*
X96155925Y-108067110D01*
X96562669Y-107898631D01*
X96928729Y-107654038D01*
X97240038Y-107342729D01*
X97484631Y-106976669D01*
X97536370Y-106851760D01*
X104321000Y-106851760D01*
X104321000Y-107016240D01*
X104353089Y-107177560D01*
X104416033Y-107329521D01*
X104507413Y-107466281D01*
X104623719Y-107582587D01*
X104760479Y-107673967D01*
X104912440Y-107736911D01*
X105073760Y-107769000D01*
X105238240Y-107769000D01*
X105355118Y-107745751D01*
X115628991Y-107745751D01*
X115628991Y-107910231D01*
X115661080Y-108071551D01*
X115724024Y-108223512D01*
X115815404Y-108360272D01*
X115931710Y-108476578D01*
X116068470Y-108567958D01*
X116220431Y-108630902D01*
X116381751Y-108662991D01*
X116546231Y-108662991D01*
X116707551Y-108630902D01*
X116859512Y-108567958D01*
X116996272Y-108476578D01*
X117112578Y-108360272D01*
X117203958Y-108223512D01*
X117266902Y-108071551D01*
X117298991Y-107910231D01*
X117298991Y-107745751D01*
X117266902Y-107584431D01*
X117203958Y-107432470D01*
X117112578Y-107295710D01*
X117044645Y-107227777D01*
X127058983Y-107227777D01*
X127058983Y-107392257D01*
X127091072Y-107553577D01*
X127154016Y-107705538D01*
X127245396Y-107842298D01*
X127361702Y-107958604D01*
X127498462Y-108049984D01*
X127650423Y-108112928D01*
X127811743Y-108145017D01*
X127976223Y-108145017D01*
X128137543Y-108112928D01*
X128289504Y-108049984D01*
X128426264Y-107958604D01*
X128524000Y-107860868D01*
X128631739Y-107968607D01*
X128768499Y-108059987D01*
X128920460Y-108122931D01*
X129081780Y-108155020D01*
X129246260Y-108155020D01*
X129407580Y-108122931D01*
X129559541Y-108059987D01*
X129696301Y-107968607D01*
X129812607Y-107852301D01*
X129903987Y-107715541D01*
X129966931Y-107563580D01*
X129999020Y-107402260D01*
X129999020Y-107237780D01*
X129966931Y-107076460D01*
X129903987Y-106924499D01*
X129812607Y-106787739D01*
X129696301Y-106671433D01*
X129559541Y-106580053D01*
X129407580Y-106517109D01*
X129246260Y-106485020D01*
X129081780Y-106485020D01*
X128920460Y-106517109D01*
X128768499Y-106580053D01*
X128631739Y-106671433D01*
X128534003Y-106769169D01*
X128426264Y-106661430D01*
X128289504Y-106570050D01*
X128137543Y-106507106D01*
X127976223Y-106475017D01*
X127811743Y-106475017D01*
X127650423Y-106507106D01*
X127498462Y-106570050D01*
X127361702Y-106661430D01*
X127245396Y-106777736D01*
X127154016Y-106914496D01*
X127091072Y-107066457D01*
X127058983Y-107227777D01*
X117044645Y-107227777D01*
X116996272Y-107179404D01*
X116859512Y-107088024D01*
X116707551Y-107025080D01*
X116546231Y-106992991D01*
X116381751Y-106992991D01*
X116220431Y-107025080D01*
X116068470Y-107088024D01*
X115931710Y-107179404D01*
X115815404Y-107295710D01*
X115724024Y-107432470D01*
X115661080Y-107584431D01*
X115628991Y-107745751D01*
X105355118Y-107745751D01*
X105399560Y-107736911D01*
X105551521Y-107673967D01*
X105688281Y-107582587D01*
X105804587Y-107466281D01*
X105895967Y-107329521D01*
X105958911Y-107177560D01*
X105991000Y-107016240D01*
X105991000Y-106851760D01*
X105958911Y-106690440D01*
X105895967Y-106538479D01*
X105804587Y-106401719D01*
X105688281Y-106285413D01*
X105551521Y-106194033D01*
X105399560Y-106131089D01*
X105238240Y-106099000D01*
X105073760Y-106099000D01*
X104912440Y-106131089D01*
X104760479Y-106194033D01*
X104623719Y-106285413D01*
X104507413Y-106401719D01*
X104416033Y-106538479D01*
X104353089Y-106690440D01*
X104321000Y-106851760D01*
X97536370Y-106851760D01*
X97653110Y-106569925D01*
X97739000Y-106138128D01*
X97739000Y-105697872D01*
X97653110Y-105266075D01*
X97573451Y-105073760D01*
X104321000Y-105073760D01*
X104321000Y-105238240D01*
X104353089Y-105399560D01*
X104416033Y-105551521D01*
X104507413Y-105688281D01*
X104623719Y-105804587D01*
X104760479Y-105895967D01*
X104912440Y-105958911D01*
X105073760Y-105991000D01*
X105238240Y-105991000D01*
X105399560Y-105958911D01*
X105551521Y-105895967D01*
X105688281Y-105804587D01*
X105804587Y-105688281D01*
X105895967Y-105551521D01*
X105958911Y-105399560D01*
X105991000Y-105238240D01*
X105991000Y-105073760D01*
X105958911Y-104912440D01*
X105895967Y-104760479D01*
X105804587Y-104623719D01*
X105688281Y-104507413D01*
X105551521Y-104416033D01*
X105399560Y-104353089D01*
X105238240Y-104321000D01*
X105073760Y-104321000D01*
X104912440Y-104353089D01*
X104760479Y-104416033D01*
X104623719Y-104507413D01*
X104507413Y-104623719D01*
X104416033Y-104760479D01*
X104353089Y-104912440D01*
X104321000Y-105073760D01*
X97573451Y-105073760D01*
X97484631Y-104859331D01*
X97240038Y-104493271D01*
X96928729Y-104181962D01*
X96562669Y-103937369D01*
X96240109Y-103803760D01*
X125789008Y-103803760D01*
X125789008Y-103968240D01*
X125821097Y-104129560D01*
X125884041Y-104281521D01*
X125975421Y-104418281D01*
X126091727Y-104534587D01*
X126228487Y-104625967D01*
X126380448Y-104688911D01*
X126541768Y-104721000D01*
X126706248Y-104721000D01*
X126867568Y-104688911D01*
X127019529Y-104625967D01*
X127156289Y-104534587D01*
X127272595Y-104418281D01*
X127363975Y-104281521D01*
X127426919Y-104129560D01*
X127459008Y-103968240D01*
X127459008Y-103803760D01*
X127426919Y-103642440D01*
X127363975Y-103490479D01*
X127272595Y-103353719D01*
X127156289Y-103237413D01*
X127019529Y-103146033D01*
X126867568Y-103083089D01*
X126706248Y-103051000D01*
X126541768Y-103051000D01*
X126380448Y-103083089D01*
X126228487Y-103146033D01*
X126091727Y-103237413D01*
X125975421Y-103353719D01*
X125884041Y-103490479D01*
X125821097Y-103642440D01*
X125789008Y-103803760D01*
X96240109Y-103803760D01*
X96155925Y-103768890D01*
X95724128Y-103683000D01*
X95283872Y-103683000D01*
X94852075Y-103768890D01*
X94445331Y-103937369D01*
X94079271Y-104181962D01*
X93767962Y-104493271D01*
X93523369Y-104859331D01*
X93354890Y-105266075D01*
X93269000Y-105697872D01*
X91084000Y-105697872D01*
X91084000Y-100711000D01*
X93980000Y-100711000D01*
X94004776Y-100708560D01*
X94028601Y-100701333D01*
X94050557Y-100689597D01*
X94069803Y-100673803D01*
X94085597Y-100654557D01*
X94097333Y-100632601D01*
X94104560Y-100608776D01*
X94107000Y-100584000D01*
X94107000Y-98481760D01*
X101031000Y-98481760D01*
X101031000Y-98646240D01*
X101063089Y-98807560D01*
X101126033Y-98959521D01*
X101217413Y-99096281D01*
X101333719Y-99212587D01*
X101470479Y-99303967D01*
X101622440Y-99366911D01*
X101783760Y-99399000D01*
X101861317Y-99399000D01*
X101836753Y-99415413D01*
X101720447Y-99531719D01*
X101629067Y-99668479D01*
X101566123Y-99820440D01*
X101534034Y-99981760D01*
X101534034Y-100146240D01*
X101566123Y-100307560D01*
X101629067Y-100459521D01*
X101720447Y-100596281D01*
X101836753Y-100712587D01*
X101973513Y-100803967D01*
X102125474Y-100866911D01*
X102286794Y-100899000D01*
X102451274Y-100899000D01*
X102612594Y-100866911D01*
X102764555Y-100803967D01*
X102901315Y-100712587D01*
X103017621Y-100596281D01*
X103109001Y-100459521D01*
X103171945Y-100307560D01*
X103204034Y-100146240D01*
X103204034Y-99981760D01*
X103171945Y-99820440D01*
X103109001Y-99668479D01*
X103017621Y-99531719D01*
X102901315Y-99415413D01*
X102764555Y-99324033D01*
X102612594Y-99261089D01*
X102451274Y-99229000D01*
X102373717Y-99229000D01*
X102398281Y-99212587D01*
X102514587Y-99096281D01*
X102605967Y-98959521D01*
X102668911Y-98807560D01*
X102701000Y-98646240D01*
X102701000Y-98481760D01*
X102668911Y-98320440D01*
X102605967Y-98168479D01*
X102514587Y-98031719D01*
X102398281Y-97915413D01*
X102261521Y-97824033D01*
X102109560Y-97761089D01*
X101948240Y-97729000D01*
X101783760Y-97729000D01*
X101622440Y-97761089D01*
X101470479Y-97824033D01*
X101333719Y-97915413D01*
X101217413Y-98031719D01*
X101126033Y-98168479D01*
X101063089Y-98320440D01*
X101031000Y-98481760D01*
X94107000Y-98481760D01*
X94107000Y-98044000D01*
X94104560Y-98019224D01*
X94097333Y-97995399D01*
X94085597Y-97973443D01*
X94069803Y-97954197D01*
X94050557Y-97938403D01*
X94028601Y-97926667D01*
X94004776Y-97919440D01*
X93980000Y-97917000D01*
X92107097Y-97917000D01*
X92116000Y-97872240D01*
X92116000Y-97707760D01*
X92083911Y-97546440D01*
X92020967Y-97394479D01*
X91929587Y-97257719D01*
X91813281Y-97141413D01*
X91676521Y-97050033D01*
X91524560Y-96987089D01*
X91363240Y-96955000D01*
X91198760Y-96955000D01*
X91084000Y-96977828D01*
X91084000Y-96786729D01*
X91183435Y-96827916D01*
X91344755Y-96860005D01*
X91509235Y-96860005D01*
X91670555Y-96827916D01*
X91822516Y-96764972D01*
X91959276Y-96673592D01*
X92075582Y-96557286D01*
X92166962Y-96420526D01*
X92229906Y-96268565D01*
X92261995Y-96107245D01*
X92261995Y-95942765D01*
X92229906Y-95781445D01*
X92166962Y-95629484D01*
X92075582Y-95492724D01*
X91959276Y-95376418D01*
X91822516Y-95285038D01*
X91670555Y-95222094D01*
X91509235Y-95190005D01*
X91344755Y-95190005D01*
X91183435Y-95222094D01*
X91084000Y-95263281D01*
X91084000Y-94151764D01*
X120708997Y-94151764D01*
X120708997Y-94316244D01*
X120741086Y-94477564D01*
X120804030Y-94629525D01*
X120895410Y-94766285D01*
X121011716Y-94882591D01*
X121148476Y-94973971D01*
X121300437Y-95036915D01*
X121461757Y-95069004D01*
X121626237Y-95069004D01*
X121787557Y-95036915D01*
X121939518Y-94973971D01*
X122076278Y-94882591D01*
X122179004Y-94779866D01*
X122281719Y-94882581D01*
X122418479Y-94973961D01*
X122570440Y-95036905D01*
X122731760Y-95068994D01*
X122896240Y-95068994D01*
X123057560Y-95036905D01*
X123209521Y-94973961D01*
X123346281Y-94882581D01*
X123462587Y-94766275D01*
X123553967Y-94629515D01*
X123616911Y-94477554D01*
X123649000Y-94316234D01*
X123649000Y-94151760D01*
X127181000Y-94151760D01*
X127181000Y-94316240D01*
X127213089Y-94477560D01*
X127276033Y-94629521D01*
X127367413Y-94766281D01*
X127483719Y-94882587D01*
X127620479Y-94973967D01*
X127772440Y-95036911D01*
X127933760Y-95069000D01*
X128098240Y-95069000D01*
X128259560Y-95036911D01*
X128397000Y-94979982D01*
X128534440Y-95036911D01*
X128695760Y-95069000D01*
X128860240Y-95069000D01*
X129021560Y-95036911D01*
X129173521Y-94973967D01*
X129256017Y-94918845D01*
X129338513Y-94973967D01*
X129490474Y-95036911D01*
X129651794Y-95069000D01*
X129816274Y-95069000D01*
X129977594Y-95036911D01*
X130129555Y-94973967D01*
X130266315Y-94882587D01*
X130382621Y-94766281D01*
X130474001Y-94629521D01*
X130536945Y-94477560D01*
X130569034Y-94316240D01*
X130569034Y-94151760D01*
X130536945Y-93990440D01*
X130474001Y-93838479D01*
X130382621Y-93701719D01*
X130266315Y-93585413D01*
X130129555Y-93494033D01*
X129977594Y-93431089D01*
X129816274Y-93399000D01*
X129651794Y-93399000D01*
X129490474Y-93431089D01*
X129338513Y-93494033D01*
X129256017Y-93549155D01*
X129173521Y-93494033D01*
X129021560Y-93431089D01*
X128860240Y-93399000D01*
X128695760Y-93399000D01*
X128534440Y-93431089D01*
X128397000Y-93488018D01*
X128259560Y-93431089D01*
X128098240Y-93399000D01*
X127933760Y-93399000D01*
X127772440Y-93431089D01*
X127620479Y-93494033D01*
X127483719Y-93585413D01*
X127367413Y-93701719D01*
X127276033Y-93838479D01*
X127213089Y-93990440D01*
X127181000Y-94151760D01*
X123649000Y-94151760D01*
X123649000Y-94151754D01*
X123616911Y-93990434D01*
X123553967Y-93838473D01*
X123462587Y-93701713D01*
X123346281Y-93585407D01*
X123209521Y-93494027D01*
X123057560Y-93431083D01*
X122896240Y-93398994D01*
X122731760Y-93398994D01*
X122570440Y-93431083D01*
X122418479Y-93494027D01*
X122281719Y-93585407D01*
X122178994Y-93688133D01*
X122076278Y-93585417D01*
X121939518Y-93494037D01*
X121787557Y-93431093D01*
X121626237Y-93399004D01*
X121461757Y-93399004D01*
X121300437Y-93431093D01*
X121148476Y-93494037D01*
X121011716Y-93585417D01*
X120895410Y-93701723D01*
X120804030Y-93838483D01*
X120741086Y-93990444D01*
X120708997Y-94151764D01*
X91084000Y-94151764D01*
X91084000Y-92881760D01*
X97209000Y-92881760D01*
X97209000Y-93046240D01*
X97241089Y-93207560D01*
X97304033Y-93359521D01*
X97395413Y-93496281D01*
X97511719Y-93612587D01*
X97648479Y-93703967D01*
X97800440Y-93766911D01*
X97961760Y-93799000D01*
X98126240Y-93799000D01*
X98287560Y-93766911D01*
X98439521Y-93703967D01*
X98576281Y-93612587D01*
X98692587Y-93496281D01*
X98783967Y-93359521D01*
X98846911Y-93207560D01*
X98879000Y-93046240D01*
X98879000Y-92881760D01*
X98846911Y-92720440D01*
X98783967Y-92568479D01*
X98692587Y-92431719D01*
X98576281Y-92315413D01*
X98439521Y-92224033D01*
X98287560Y-92161089D01*
X98126240Y-92129000D01*
X97961760Y-92129000D01*
X97800440Y-92161089D01*
X97648479Y-92224033D01*
X97511719Y-92315413D01*
X97395413Y-92431719D01*
X97304033Y-92568479D01*
X97241089Y-92720440D01*
X97209000Y-92881760D01*
X91084000Y-92881760D01*
X91084000Y-92119760D01*
X107369000Y-92119760D01*
X107369000Y-92284240D01*
X107401089Y-92445560D01*
X107464033Y-92597521D01*
X107555413Y-92734281D01*
X107671719Y-92850587D01*
X107808479Y-92941967D01*
X107960440Y-93004911D01*
X108121760Y-93037000D01*
X108286240Y-93037000D01*
X108447560Y-93004911D01*
X108599521Y-92941967D01*
X108736281Y-92850587D01*
X108852587Y-92734281D01*
X108943967Y-92597521D01*
X109006911Y-92445560D01*
X109039000Y-92284240D01*
X109039000Y-92241741D01*
X130869019Y-92241741D01*
X130869019Y-92406221D01*
X130901108Y-92567541D01*
X130964052Y-92719502D01*
X131055432Y-92856262D01*
X131171738Y-92972568D01*
X131308498Y-93063948D01*
X131460459Y-93126892D01*
X131621779Y-93158981D01*
X131786259Y-93158981D01*
X131947579Y-93126892D01*
X132099540Y-93063948D01*
X132236300Y-92972568D01*
X132352606Y-92856262D01*
X132443986Y-92719502D01*
X132506930Y-92567541D01*
X132539019Y-92406221D01*
X132539019Y-92241741D01*
X132506930Y-92080421D01*
X132443986Y-91928460D01*
X132352606Y-91791700D01*
X132236300Y-91675394D01*
X132099540Y-91584014D01*
X131947579Y-91521070D01*
X131786259Y-91488981D01*
X131621779Y-91488981D01*
X131460459Y-91521070D01*
X131308498Y-91584014D01*
X131171738Y-91675394D01*
X131055432Y-91791700D01*
X130964052Y-91928460D01*
X130901108Y-92080421D01*
X130869019Y-92241741D01*
X109039000Y-92241741D01*
X109039000Y-92119760D01*
X109006911Y-91958440D01*
X108943967Y-91806479D01*
X108852587Y-91669719D01*
X108736281Y-91553413D01*
X108599521Y-91462033D01*
X108447560Y-91399089D01*
X108286240Y-91367000D01*
X108121760Y-91367000D01*
X107960440Y-91399089D01*
X107808479Y-91462033D01*
X107671719Y-91553413D01*
X107555413Y-91669719D01*
X107464033Y-91806479D01*
X107401089Y-91958440D01*
X107369000Y-92119760D01*
X91084000Y-92119760D01*
X91084000Y-89325760D01*
X108131000Y-89325760D01*
X108131000Y-89490240D01*
X108163089Y-89651560D01*
X108226033Y-89803521D01*
X108317413Y-89940281D01*
X108433719Y-90056587D01*
X108570479Y-90147967D01*
X108722440Y-90210911D01*
X108883760Y-90243000D01*
X109048240Y-90243000D01*
X109209560Y-90210911D01*
X109361521Y-90147967D01*
X109474000Y-90072811D01*
X109586479Y-90147967D01*
X109738440Y-90210911D01*
X109899760Y-90243000D01*
X110064240Y-90243000D01*
X110225560Y-90210911D01*
X110377521Y-90147967D01*
X110467627Y-90087760D01*
X130737000Y-90087760D01*
X130737000Y-90252240D01*
X130769089Y-90413560D01*
X130832033Y-90565521D01*
X130923413Y-90702281D01*
X131039719Y-90818587D01*
X131176479Y-90909967D01*
X131328440Y-90972911D01*
X131489760Y-91005000D01*
X131654240Y-91005000D01*
X131815560Y-90972911D01*
X131967521Y-90909967D01*
X132104281Y-90818587D01*
X132220587Y-90702281D01*
X132311967Y-90565521D01*
X132374911Y-90413560D01*
X132407000Y-90252240D01*
X132407000Y-90087760D01*
X132374911Y-89926440D01*
X132311967Y-89774479D01*
X132220587Y-89637719D01*
X132104281Y-89521413D01*
X131967521Y-89430033D01*
X131815560Y-89367089D01*
X131654240Y-89335000D01*
X131489760Y-89335000D01*
X131328440Y-89367089D01*
X131176479Y-89430033D01*
X131039719Y-89521413D01*
X130923413Y-89637719D01*
X130832033Y-89774479D01*
X130769089Y-89926440D01*
X130737000Y-90087760D01*
X110467627Y-90087760D01*
X110514281Y-90056587D01*
X110630587Y-89940281D01*
X110721967Y-89803521D01*
X110784911Y-89651560D01*
X110817000Y-89490240D01*
X110817000Y-89325760D01*
X110784911Y-89164440D01*
X110721967Y-89012479D01*
X110630587Y-88875719D01*
X110514281Y-88759413D01*
X110377521Y-88668033D01*
X110225560Y-88605089D01*
X110064240Y-88573000D01*
X109899760Y-88573000D01*
X109738440Y-88605089D01*
X109586479Y-88668033D01*
X109474000Y-88743189D01*
X109361521Y-88668033D01*
X109209560Y-88605089D01*
X109048240Y-88573000D01*
X108883760Y-88573000D01*
X108722440Y-88605089D01*
X108570479Y-88668033D01*
X108433719Y-88759413D01*
X108317413Y-88875719D01*
X108226033Y-89012479D01*
X108163089Y-89164440D01*
X108131000Y-89325760D01*
X91084000Y-89325760D01*
X91084000Y-88309760D01*
X112022997Y-88309760D01*
X112022997Y-88474240D01*
X112055086Y-88635560D01*
X112118030Y-88787521D01*
X112209410Y-88924281D01*
X112325716Y-89040587D01*
X112462476Y-89131967D01*
X112614437Y-89194911D01*
X112775757Y-89227000D01*
X112940237Y-89227000D01*
X113101557Y-89194911D01*
X113253518Y-89131967D01*
X113390278Y-89040587D01*
X113506584Y-88924281D01*
X113597964Y-88787521D01*
X113660908Y-88635560D01*
X113692997Y-88474240D01*
X113692997Y-88309760D01*
X113660908Y-88148440D01*
X113597964Y-87996479D01*
X113506584Y-87859719D01*
X113403865Y-87757000D01*
X116332000Y-87757000D01*
X116356776Y-87754560D01*
X116380601Y-87747333D01*
X116402557Y-87735597D01*
X116421803Y-87719803D01*
X116437597Y-87700557D01*
X116449333Y-87678601D01*
X116456560Y-87654776D01*
X116459000Y-87630000D01*
X116459000Y-87039760D01*
X116767000Y-87039760D01*
X116767000Y-87204240D01*
X116799089Y-87365560D01*
X116862033Y-87517521D01*
X116953413Y-87654281D01*
X117069719Y-87770587D01*
X117206479Y-87861967D01*
X117358440Y-87924911D01*
X117519760Y-87957000D01*
X117684240Y-87957000D01*
X117845560Y-87924911D01*
X117997521Y-87861967D01*
X118134281Y-87770587D01*
X118250587Y-87654281D01*
X118341967Y-87517521D01*
X118404911Y-87365560D01*
X118437000Y-87204240D01*
X118437000Y-87039760D01*
X118434417Y-87026774D01*
X118786014Y-87026774D01*
X118786014Y-87191254D01*
X118818103Y-87352574D01*
X118881047Y-87504535D01*
X118972427Y-87641295D01*
X119088733Y-87757601D01*
X119225493Y-87848981D01*
X119377454Y-87911925D01*
X119538774Y-87944014D01*
X119703254Y-87944014D01*
X119864574Y-87911925D01*
X120016535Y-87848981D01*
X120153295Y-87757601D01*
X120269601Y-87641295D01*
X120360981Y-87504535D01*
X120423925Y-87352574D01*
X120456014Y-87191254D01*
X120456014Y-87026774D01*
X120423925Y-86865454D01*
X120360981Y-86713493D01*
X120269601Y-86576733D01*
X120153295Y-86460427D01*
X120016535Y-86369047D01*
X119864574Y-86306103D01*
X119703254Y-86274014D01*
X119538774Y-86274014D01*
X119377454Y-86306103D01*
X119225493Y-86369047D01*
X119088733Y-86460427D01*
X118972427Y-86576733D01*
X118881047Y-86713493D01*
X118818103Y-86865454D01*
X118786014Y-87026774D01*
X118434417Y-87026774D01*
X118404911Y-86878440D01*
X118341967Y-86726479D01*
X118250587Y-86589719D01*
X118134281Y-86473413D01*
X117997521Y-86382033D01*
X117845560Y-86319089D01*
X117684240Y-86287000D01*
X117519760Y-86287000D01*
X117358440Y-86319089D01*
X117206479Y-86382033D01*
X117069719Y-86473413D01*
X116953413Y-86589719D01*
X116862033Y-86726479D01*
X116799089Y-86878440D01*
X116767000Y-87039760D01*
X116459000Y-87039760D01*
X116459000Y-85769760D01*
X121338998Y-85769760D01*
X121338998Y-85934240D01*
X121371087Y-86095560D01*
X121434031Y-86247521D01*
X121525411Y-86384281D01*
X121641717Y-86500587D01*
X121778477Y-86591967D01*
X121930438Y-86654911D01*
X122091758Y-86687000D01*
X122256238Y-86687000D01*
X122417558Y-86654911D01*
X122569519Y-86591967D01*
X122706279Y-86500587D01*
X122822585Y-86384281D01*
X122913965Y-86247521D01*
X122976909Y-86095560D01*
X123008998Y-85934240D01*
X123008998Y-85769760D01*
X126365001Y-85769760D01*
X126365001Y-85934240D01*
X126397090Y-86095560D01*
X126460034Y-86247521D01*
X126551414Y-86384281D01*
X126667720Y-86500587D01*
X126804480Y-86591967D01*
X126956441Y-86654911D01*
X127117761Y-86687000D01*
X127282241Y-86687000D01*
X127443561Y-86654911D01*
X127595522Y-86591967D01*
X127732282Y-86500587D01*
X127848588Y-86384281D01*
X127939968Y-86247521D01*
X127957374Y-86205500D01*
X127943000Y-86277760D01*
X127943000Y-86442240D01*
X127975089Y-86603560D01*
X128038033Y-86755521D01*
X128129413Y-86892281D01*
X128245719Y-87008587D01*
X128382479Y-87099967D01*
X128534440Y-87162911D01*
X128695760Y-87195000D01*
X128860240Y-87195000D01*
X129021560Y-87162911D01*
X129173521Y-87099967D01*
X129263627Y-87039760D01*
X129974968Y-87039760D01*
X129974968Y-87204240D01*
X130007057Y-87365560D01*
X130070001Y-87517521D01*
X130161381Y-87654281D01*
X130277687Y-87770587D01*
X130414447Y-87861967D01*
X130566408Y-87924911D01*
X130727728Y-87957000D01*
X130892208Y-87957000D01*
X131053528Y-87924911D01*
X131205489Y-87861967D01*
X131342249Y-87770587D01*
X131458555Y-87654281D01*
X131549935Y-87517521D01*
X131612879Y-87365560D01*
X131644968Y-87204240D01*
X131644968Y-87195000D01*
X131654240Y-87195000D01*
X131815560Y-87162911D01*
X131967521Y-87099967D01*
X132104281Y-87008587D01*
X132220587Y-86892281D01*
X132311967Y-86755521D01*
X132374911Y-86603560D01*
X132407000Y-86442240D01*
X132407000Y-86277760D01*
X132374911Y-86116440D01*
X132311967Y-85964479D01*
X132220587Y-85827719D01*
X132104281Y-85711413D01*
X131967521Y-85620033D01*
X131815560Y-85557089D01*
X131654240Y-85525000D01*
X131489760Y-85525000D01*
X131328440Y-85557089D01*
X131176479Y-85620033D01*
X131039719Y-85711413D01*
X130923413Y-85827719D01*
X130832033Y-85964479D01*
X130769089Y-86116440D01*
X130737000Y-86277760D01*
X130737000Y-86287000D01*
X130727728Y-86287000D01*
X130566408Y-86319089D01*
X130414447Y-86382033D01*
X130277687Y-86473413D01*
X130161381Y-86589719D01*
X130070001Y-86726479D01*
X130007057Y-86878440D01*
X129974968Y-87039760D01*
X129263627Y-87039760D01*
X129310281Y-87008587D01*
X129426587Y-86892281D01*
X129517967Y-86755521D01*
X129580911Y-86603560D01*
X129613000Y-86442240D01*
X129613000Y-86277760D01*
X129580911Y-86116440D01*
X129517967Y-85964479D01*
X129426587Y-85827719D01*
X129310281Y-85711413D01*
X129173521Y-85620033D01*
X129021560Y-85557089D01*
X128860240Y-85525000D01*
X128695760Y-85525000D01*
X128534440Y-85557089D01*
X128382479Y-85620033D01*
X128245719Y-85711413D01*
X128129413Y-85827719D01*
X128038033Y-85964479D01*
X128020627Y-86006500D01*
X128035001Y-85934240D01*
X128035001Y-85769760D01*
X128002912Y-85608440D01*
X127939968Y-85456479D01*
X127848588Y-85319719D01*
X127732282Y-85203413D01*
X127595522Y-85112033D01*
X127443561Y-85049089D01*
X127282241Y-85017000D01*
X127117761Y-85017000D01*
X126956441Y-85049089D01*
X126804480Y-85112033D01*
X126667720Y-85203413D01*
X126551414Y-85319719D01*
X126460034Y-85456479D01*
X126397090Y-85608440D01*
X126365001Y-85769760D01*
X123008998Y-85769760D01*
X122976909Y-85608440D01*
X122913965Y-85456479D01*
X122822585Y-85319719D01*
X122706279Y-85203413D01*
X122569519Y-85112033D01*
X122417558Y-85049089D01*
X122256238Y-85017000D01*
X122091758Y-85017000D01*
X121930438Y-85049089D01*
X121778477Y-85112033D01*
X121641717Y-85203413D01*
X121525411Y-85319719D01*
X121434031Y-85456479D01*
X121371087Y-85608440D01*
X121338998Y-85769760D01*
X116459000Y-85769760D01*
X116459000Y-84582000D01*
X116456560Y-84557224D01*
X116449333Y-84533399D01*
X116437597Y-84511443D01*
X116421803Y-84492197D01*
X116402557Y-84476403D01*
X116380601Y-84464667D01*
X116356776Y-84457440D01*
X116332000Y-84455000D01*
X113284000Y-84455000D01*
X113259224Y-84457440D01*
X113235399Y-84464667D01*
X113213443Y-84476403D01*
X113194197Y-84492197D01*
X113178403Y-84511443D01*
X113166667Y-84533399D01*
X113159440Y-84557224D01*
X113157000Y-84582000D01*
X113157000Y-87612054D01*
X113101557Y-87589089D01*
X112940237Y-87557000D01*
X112775757Y-87557000D01*
X112614437Y-87589089D01*
X112462476Y-87652033D01*
X112325716Y-87743413D01*
X112209410Y-87859719D01*
X112118030Y-87996479D01*
X112055086Y-88148440D01*
X112022997Y-88309760D01*
X91084000Y-88309760D01*
X91084000Y-88036000D01*
X98773581Y-88036000D01*
X98806000Y-88039193D01*
X98838419Y-88036000D01*
X98935383Y-88026450D01*
X99059793Y-87988710D01*
X99174450Y-87927425D01*
X99274948Y-87844948D01*
X99357425Y-87744450D01*
X99418710Y-87629793D01*
X99456450Y-87505383D01*
X99469193Y-87376000D01*
X99466000Y-87343581D01*
X99466000Y-86785760D01*
X111179000Y-86785760D01*
X111179000Y-86950240D01*
X111211089Y-87111560D01*
X111274033Y-87263521D01*
X111365413Y-87400281D01*
X111481719Y-87516587D01*
X111618479Y-87607967D01*
X111770440Y-87670911D01*
X111931760Y-87703000D01*
X112096240Y-87703000D01*
X112257560Y-87670911D01*
X112409521Y-87607967D01*
X112546281Y-87516587D01*
X112662587Y-87400281D01*
X112753967Y-87263521D01*
X112816911Y-87111560D01*
X112849000Y-86950240D01*
X112849000Y-86785760D01*
X112816911Y-86624440D01*
X112753967Y-86472479D01*
X112662587Y-86335719D01*
X112546281Y-86219413D01*
X112409521Y-86128033D01*
X112257560Y-86065089D01*
X112096240Y-86033000D01*
X111931760Y-86033000D01*
X111770440Y-86065089D01*
X111618479Y-86128033D01*
X111481719Y-86219413D01*
X111365413Y-86335719D01*
X111274033Y-86472479D01*
X111211089Y-86624440D01*
X111179000Y-86785760D01*
X99466000Y-86785760D01*
X99466000Y-84614418D01*
X99469193Y-84582000D01*
X99456450Y-84452617D01*
X99418710Y-84328207D01*
X99357425Y-84213550D01*
X99274948Y-84113052D01*
X99174450Y-84030575D01*
X99059793Y-83969290D01*
X98935383Y-83931550D01*
X98838419Y-83922000D01*
X98806000Y-83918807D01*
X98773581Y-83922000D01*
X91084000Y-83922000D01*
X91084000Y-82467760D01*
X95431000Y-82467760D01*
X95431000Y-82632240D01*
X95463089Y-82793560D01*
X95526033Y-82945521D01*
X95617413Y-83082281D01*
X95733719Y-83198587D01*
X95870479Y-83289967D01*
X96022440Y-83352911D01*
X96183760Y-83385000D01*
X96348240Y-83385000D01*
X96509560Y-83352911D01*
X96661521Y-83289967D01*
X96798281Y-83198587D01*
X96914587Y-83082281D01*
X97005967Y-82945521D01*
X97068911Y-82793560D01*
X97101000Y-82632240D01*
X97101000Y-82467760D01*
X97068911Y-82306440D01*
X97005967Y-82154479D01*
X96914587Y-82017719D01*
X96798281Y-81901413D01*
X96661521Y-81810033D01*
X96509560Y-81747089D01*
X96367108Y-81718753D01*
X115001993Y-81718753D01*
X115001993Y-81883233D01*
X115034082Y-82044553D01*
X115097026Y-82196514D01*
X115188406Y-82333274D01*
X115304712Y-82449580D01*
X115441472Y-82540960D01*
X115593433Y-82603904D01*
X115632949Y-82611764D01*
X115525719Y-82683413D01*
X115409413Y-82799719D01*
X115318033Y-82936479D01*
X115255089Y-83088440D01*
X115223000Y-83249760D01*
X115223000Y-83414240D01*
X115255089Y-83575560D01*
X115318033Y-83727521D01*
X115409413Y-83864281D01*
X115525719Y-83980587D01*
X115662479Y-84071967D01*
X115814440Y-84134911D01*
X115975760Y-84167000D01*
X116140240Y-84167000D01*
X116301560Y-84134911D01*
X116453521Y-84071967D01*
X116590281Y-83980587D01*
X116706587Y-83864281D01*
X116797967Y-83727521D01*
X116860911Y-83575560D01*
X116893000Y-83414240D01*
X116893000Y-83249760D01*
X116860911Y-83088440D01*
X116797967Y-82936479D01*
X116706587Y-82799719D01*
X116590281Y-82683413D01*
X116453521Y-82592033D01*
X116301560Y-82529089D01*
X116262044Y-82521229D01*
X116369274Y-82449580D01*
X116485580Y-82333274D01*
X116576960Y-82196514D01*
X116639904Y-82044553D01*
X116671993Y-81883233D01*
X116671993Y-81718753D01*
X116639904Y-81557433D01*
X116576960Y-81405472D01*
X116485580Y-81268712D01*
X116369274Y-81152406D01*
X116232514Y-81061026D01*
X116080553Y-80998082D01*
X115919233Y-80965993D01*
X115754753Y-80965993D01*
X115593433Y-80998082D01*
X115441472Y-81061026D01*
X115304712Y-81152406D01*
X115188406Y-81268712D01*
X115097026Y-81405472D01*
X115034082Y-81557433D01*
X115001993Y-81718753D01*
X96367108Y-81718753D01*
X96348240Y-81715000D01*
X96183760Y-81715000D01*
X96022440Y-81747089D01*
X95870479Y-81810033D01*
X95733719Y-81901413D01*
X95617413Y-82017719D01*
X95526033Y-82154479D01*
X95463089Y-82306440D01*
X95431000Y-82467760D01*
X91084000Y-82467760D01*
X91084000Y-77845772D01*
X130433004Y-77845772D01*
X130433004Y-78010252D01*
X130465093Y-78171572D01*
X130528037Y-78323533D01*
X130619417Y-78460293D01*
X130735723Y-78576599D01*
X130872483Y-78667979D01*
X131024444Y-78730923D01*
X131185764Y-78763012D01*
X131350244Y-78763012D01*
X131511564Y-78730923D01*
X131663525Y-78667979D01*
X131800285Y-78576599D01*
X131916591Y-78460293D01*
X132007971Y-78323533D01*
X132070915Y-78171572D01*
X132103004Y-78010252D01*
X132103004Y-77845772D01*
X132078450Y-77722329D01*
X132595571Y-77722329D01*
X132595571Y-77886809D01*
X132627660Y-78048129D01*
X132690604Y-78200090D01*
X132781984Y-78336850D01*
X132898290Y-78453156D01*
X133035050Y-78544536D01*
X133187011Y-78607480D01*
X133348331Y-78639569D01*
X133512811Y-78639569D01*
X133674131Y-78607480D01*
X133826092Y-78544536D01*
X133962852Y-78453156D01*
X134079158Y-78336850D01*
X134170538Y-78200090D01*
X134233482Y-78048129D01*
X134265571Y-77886809D01*
X134265571Y-77722329D01*
X134255913Y-77673772D01*
X134833000Y-77673772D01*
X134833000Y-77838252D01*
X134865089Y-77999572D01*
X134928033Y-78151533D01*
X135019413Y-78288293D01*
X135135719Y-78404599D01*
X135272479Y-78495979D01*
X135424440Y-78558923D01*
X135585760Y-78591012D01*
X135750240Y-78591012D01*
X135911560Y-78558923D01*
X136063521Y-78495979D01*
X136200281Y-78404599D01*
X136303210Y-78301670D01*
X136372487Y-78347959D01*
X136524448Y-78410903D01*
X136685768Y-78442992D01*
X136850248Y-78442992D01*
X137011568Y-78410903D01*
X137163529Y-78347959D01*
X137300289Y-78256579D01*
X137416595Y-78140273D01*
X137507975Y-78003513D01*
X137570919Y-77851552D01*
X137603008Y-77690232D01*
X137603008Y-77525752D01*
X137570919Y-77364432D01*
X137507975Y-77212471D01*
X137416595Y-77075711D01*
X137300289Y-76959405D01*
X137163529Y-76868025D01*
X137011568Y-76805081D01*
X136850248Y-76772992D01*
X136685768Y-76772992D01*
X136524448Y-76805081D01*
X136372487Y-76868025D01*
X136235727Y-76959405D01*
X136132798Y-77062334D01*
X136063521Y-77016045D01*
X135911560Y-76953101D01*
X135750240Y-76921012D01*
X135585760Y-76921012D01*
X135424440Y-76953101D01*
X135272479Y-77016045D01*
X135135719Y-77107425D01*
X135019413Y-77223731D01*
X134928033Y-77360491D01*
X134865089Y-77512452D01*
X134833000Y-77673772D01*
X134255913Y-77673772D01*
X134233482Y-77561009D01*
X134170538Y-77409048D01*
X134079158Y-77272288D01*
X133962852Y-77155982D01*
X133826092Y-77064602D01*
X133674131Y-77001658D01*
X133512811Y-76969569D01*
X133348331Y-76969569D01*
X133187011Y-77001658D01*
X133035050Y-77064602D01*
X132898290Y-77155982D01*
X132781984Y-77272288D01*
X132690604Y-77409048D01*
X132627660Y-77561009D01*
X132595571Y-77722329D01*
X132078450Y-77722329D01*
X132070915Y-77684452D01*
X132007971Y-77532491D01*
X131916591Y-77395731D01*
X131800285Y-77279425D01*
X131663525Y-77188045D01*
X131511564Y-77125101D01*
X131350244Y-77093012D01*
X131185764Y-77093012D01*
X131024444Y-77125101D01*
X130872483Y-77188045D01*
X130735723Y-77279425D01*
X130619417Y-77395731D01*
X130528037Y-77532491D01*
X130465093Y-77684452D01*
X130433004Y-77845772D01*
X91084000Y-77845772D01*
X91084000Y-74373760D01*
X131533000Y-74373760D01*
X131533000Y-74538240D01*
X131565089Y-74699560D01*
X131628033Y-74851521D01*
X131719413Y-74988281D01*
X131835719Y-75104587D01*
X131972479Y-75195967D01*
X132124440Y-75258911D01*
X132285760Y-75291000D01*
X132450240Y-75291000D01*
X132611560Y-75258911D01*
X132763521Y-75195967D01*
X132900281Y-75104587D01*
X133016587Y-74988281D01*
X133107967Y-74851521D01*
X133170911Y-74699560D01*
X133203000Y-74538240D01*
X133203000Y-74373760D01*
X133170911Y-74212440D01*
X133107967Y-74060479D01*
X133016587Y-73923719D01*
X132900281Y-73807413D01*
X132763521Y-73716033D01*
X132611560Y-73653089D01*
X132450240Y-73621000D01*
X132285760Y-73621000D01*
X132124440Y-73653089D01*
X131972479Y-73716033D01*
X131835719Y-73807413D01*
X131719413Y-73923719D01*
X131628033Y-74060479D01*
X131565089Y-74212440D01*
X131533000Y-74373760D01*
X91084000Y-74373760D01*
X91084000Y-72561760D01*
X104321000Y-72561760D01*
X104321000Y-72726240D01*
X104353089Y-72887560D01*
X104416033Y-73039521D01*
X104507413Y-73176281D01*
X104623719Y-73292587D01*
X104760479Y-73383967D01*
X104912440Y-73446911D01*
X105073760Y-73479000D01*
X105238240Y-73479000D01*
X105399560Y-73446911D01*
X105551521Y-73383967D01*
X105688281Y-73292587D01*
X105804587Y-73176281D01*
X105895967Y-73039521D01*
X105958911Y-72887560D01*
X105991000Y-72726240D01*
X105991000Y-72561760D01*
X105958911Y-72400440D01*
X105895967Y-72248479D01*
X105804587Y-72111719D01*
X105688281Y-71995413D01*
X105551521Y-71904033D01*
X105399560Y-71841089D01*
X105238240Y-71809000D01*
X105073760Y-71809000D01*
X104912440Y-71841089D01*
X104760479Y-71904033D01*
X104623719Y-71995413D01*
X104507413Y-72111719D01*
X104416033Y-72248479D01*
X104353089Y-72400440D01*
X104321000Y-72561760D01*
X91084000Y-72561760D01*
X91084000Y-68599782D01*
X93804984Y-68599782D01*
X93804984Y-68764262D01*
X93837073Y-68925582D01*
X93900017Y-69077543D01*
X93991397Y-69214303D01*
X94107703Y-69330609D01*
X94244463Y-69421989D01*
X94396424Y-69484933D01*
X94557744Y-69517022D01*
X94722224Y-69517022D01*
X94883544Y-69484933D01*
X95035505Y-69421989D01*
X95172265Y-69330609D01*
X95288571Y-69214303D01*
X95379951Y-69077543D01*
X95442895Y-68925582D01*
X95474984Y-68764262D01*
X95474984Y-68599782D01*
X95442895Y-68438462D01*
X95379951Y-68286501D01*
X95288571Y-68149741D01*
X95172265Y-68033435D01*
X95035505Y-67942055D01*
X94883544Y-67879111D01*
X94722224Y-67847022D01*
X94557744Y-67847022D01*
X94396424Y-67879111D01*
X94244463Y-67942055D01*
X94107703Y-68033435D01*
X93991397Y-68149741D01*
X93900017Y-68286501D01*
X93837073Y-68438462D01*
X93804984Y-68599782D01*
X91084000Y-68599782D01*
X91084000Y-67389495D01*
X91116774Y-67396014D01*
X91281254Y-67396014D01*
X91442574Y-67363925D01*
X91594535Y-67300981D01*
X91731295Y-67209601D01*
X91847601Y-67093295D01*
X91938981Y-66956535D01*
X92001925Y-66804574D01*
X92034014Y-66643254D01*
X92034014Y-66478774D01*
X92031426Y-66465760D01*
X92383000Y-66465760D01*
X92383000Y-66630240D01*
X92415089Y-66791560D01*
X92478033Y-66943521D01*
X92569413Y-67080281D01*
X92685719Y-67196587D01*
X92822479Y-67287967D01*
X92974440Y-67350911D01*
X93135760Y-67383000D01*
X93300240Y-67383000D01*
X93461560Y-67350911D01*
X93613521Y-67287967D01*
X93750281Y-67196587D01*
X93866587Y-67080281D01*
X93957967Y-66943521D01*
X94020911Y-66791560D01*
X94053000Y-66630240D01*
X94053000Y-66465760D01*
X95177000Y-66465760D01*
X95177000Y-66630240D01*
X95209089Y-66791560D01*
X95272033Y-66943521D01*
X95363413Y-67080281D01*
X95479719Y-67196587D01*
X95616479Y-67287967D01*
X95768440Y-67350911D01*
X95929760Y-67383000D01*
X96094240Y-67383000D01*
X96255560Y-67350911D01*
X96407521Y-67287967D01*
X96544281Y-67196587D01*
X96660587Y-67080281D01*
X96751967Y-66943521D01*
X96814911Y-66791560D01*
X96847000Y-66630240D01*
X96847000Y-66465760D01*
X96955000Y-66465760D01*
X96955000Y-66630240D01*
X96987089Y-66791560D01*
X97050033Y-66943521D01*
X97141413Y-67080281D01*
X97257719Y-67196587D01*
X97394479Y-67287967D01*
X97546440Y-67350911D01*
X97707760Y-67383000D01*
X97872240Y-67383000D01*
X98033560Y-67350911D01*
X98185521Y-67287967D01*
X98322281Y-67196587D01*
X98438587Y-67080281D01*
X98529967Y-66943521D01*
X98592911Y-66791560D01*
X98625000Y-66630240D01*
X98625000Y-66465760D01*
X98733000Y-66465760D01*
X98733000Y-66630240D01*
X98765089Y-66791560D01*
X98828033Y-66943521D01*
X98919413Y-67080281D01*
X99035719Y-67196587D01*
X99172479Y-67287967D01*
X99324440Y-67350911D01*
X99485760Y-67383000D01*
X99650240Y-67383000D01*
X99811560Y-67350911D01*
X99963521Y-67287967D01*
X100100281Y-67196587D01*
X100216587Y-67080281D01*
X100307967Y-66943521D01*
X100370911Y-66791560D01*
X100403000Y-66630240D01*
X100403000Y-66465760D01*
X100370911Y-66304440D01*
X100307967Y-66152479D01*
X100216587Y-66015719D01*
X100100281Y-65899413D01*
X99963521Y-65808033D01*
X99811560Y-65745089D01*
X99650240Y-65713000D01*
X99485760Y-65713000D01*
X99324440Y-65745089D01*
X99172479Y-65808033D01*
X99035719Y-65899413D01*
X98919413Y-66015719D01*
X98828033Y-66152479D01*
X98765089Y-66304440D01*
X98733000Y-66465760D01*
X98625000Y-66465760D01*
X98592911Y-66304440D01*
X98529967Y-66152479D01*
X98438587Y-66015719D01*
X98322281Y-65899413D01*
X98185521Y-65808033D01*
X98033560Y-65745089D01*
X97872240Y-65713000D01*
X97707760Y-65713000D01*
X97546440Y-65745089D01*
X97394479Y-65808033D01*
X97257719Y-65899413D01*
X97141413Y-66015719D01*
X97050033Y-66152479D01*
X96987089Y-66304440D01*
X96955000Y-66465760D01*
X96847000Y-66465760D01*
X96814911Y-66304440D01*
X96751967Y-66152479D01*
X96660587Y-66015719D01*
X96544281Y-65899413D01*
X96407521Y-65808033D01*
X96255560Y-65745089D01*
X96094240Y-65713000D01*
X95929760Y-65713000D01*
X95768440Y-65745089D01*
X95616479Y-65808033D01*
X95479719Y-65899413D01*
X95363413Y-66015719D01*
X95272033Y-66152479D01*
X95209089Y-66304440D01*
X95177000Y-66465760D01*
X94053000Y-66465760D01*
X94020911Y-66304440D01*
X93957967Y-66152479D01*
X93866587Y-66015719D01*
X93750281Y-65899413D01*
X93613521Y-65808033D01*
X93461560Y-65745089D01*
X93300240Y-65713000D01*
X93135760Y-65713000D01*
X92974440Y-65745089D01*
X92822479Y-65808033D01*
X92685719Y-65899413D01*
X92569413Y-66015719D01*
X92478033Y-66152479D01*
X92415089Y-66304440D01*
X92383000Y-66465760D01*
X92031426Y-66465760D01*
X92001925Y-66317454D01*
X91938981Y-66165493D01*
X91847601Y-66028733D01*
X91731295Y-65912427D01*
X91594535Y-65821047D01*
X91442574Y-65758103D01*
X91281254Y-65726014D01*
X91116774Y-65726014D01*
X91084000Y-65732533D01*
X91084000Y-64281769D01*
X93804991Y-64281769D01*
X93804991Y-64446249D01*
X93837080Y-64607569D01*
X93900024Y-64759530D01*
X93991404Y-64896290D01*
X94107710Y-65012596D01*
X94244470Y-65103976D01*
X94396431Y-65166920D01*
X94557751Y-65199009D01*
X94722231Y-65199009D01*
X94883551Y-65166920D01*
X95035512Y-65103976D01*
X95172272Y-65012596D01*
X95288578Y-64896290D01*
X95379958Y-64759530D01*
X95442902Y-64607569D01*
X95474991Y-64446249D01*
X95474991Y-64392000D01*
X109772630Y-64392000D01*
X109794062Y-64609598D01*
X109857532Y-64818834D01*
X109960604Y-65011666D01*
X110099314Y-65180686D01*
X110268334Y-65319396D01*
X110461166Y-65422468D01*
X110670402Y-65485938D01*
X110833479Y-65502000D01*
X111242521Y-65502000D01*
X111405598Y-65485938D01*
X111614834Y-65422468D01*
X111807666Y-65319396D01*
X111976686Y-65180686D01*
X112115396Y-65011666D01*
X112218468Y-64818834D01*
X112281938Y-64609598D01*
X112303370Y-64392000D01*
X114772630Y-64392000D01*
X114794062Y-64609598D01*
X114857532Y-64818834D01*
X114960604Y-65011666D01*
X115099314Y-65180686D01*
X115268334Y-65319396D01*
X115461166Y-65422468D01*
X115670402Y-65485938D01*
X115833479Y-65502000D01*
X116242521Y-65502000D01*
X116405598Y-65485938D01*
X116614834Y-65422468D01*
X116807666Y-65319396D01*
X116976686Y-65180686D01*
X117115396Y-65011666D01*
X117218468Y-64818834D01*
X117281938Y-64609598D01*
X117297045Y-64456212D01*
X127133000Y-64456212D01*
X127133000Y-64679788D01*
X127176617Y-64899067D01*
X127262176Y-65105624D01*
X127386388Y-65291520D01*
X127544480Y-65449612D01*
X127730376Y-65573824D01*
X127936933Y-65659383D01*
X128156212Y-65703000D01*
X128379788Y-65703000D01*
X128599067Y-65659383D01*
X128805624Y-65573824D01*
X128991520Y-65449612D01*
X129149612Y-65291520D01*
X129273824Y-65105624D01*
X129359383Y-64899067D01*
X129403000Y-64679788D01*
X129403000Y-64456212D01*
X135133000Y-64456212D01*
X135133000Y-64679788D01*
X135176617Y-64899067D01*
X135262176Y-65105624D01*
X135386388Y-65291520D01*
X135544480Y-65449612D01*
X135730376Y-65573824D01*
X135936933Y-65659383D01*
X136156212Y-65703000D01*
X136379788Y-65703000D01*
X136599067Y-65659383D01*
X136805624Y-65573824D01*
X136991520Y-65449612D01*
X137149612Y-65291520D01*
X137273824Y-65105624D01*
X137359383Y-64899067D01*
X137403000Y-64679788D01*
X137403000Y-64456212D01*
X137359383Y-64236933D01*
X137273824Y-64030376D01*
X137149612Y-63844480D01*
X136991520Y-63686388D01*
X136805624Y-63562176D01*
X136599067Y-63476617D01*
X136379788Y-63433000D01*
X136156212Y-63433000D01*
X135936933Y-63476617D01*
X135730376Y-63562176D01*
X135544480Y-63686388D01*
X135386388Y-63844480D01*
X135262176Y-64030376D01*
X135176617Y-64236933D01*
X135133000Y-64456212D01*
X129403000Y-64456212D01*
X129359383Y-64236933D01*
X129273824Y-64030376D01*
X129149612Y-63844480D01*
X128991520Y-63686388D01*
X128805624Y-63562176D01*
X128599067Y-63476617D01*
X128379788Y-63433000D01*
X128156212Y-63433000D01*
X127936933Y-63476617D01*
X127730376Y-63562176D01*
X127544480Y-63686388D01*
X127386388Y-63844480D01*
X127262176Y-64030376D01*
X127176617Y-64236933D01*
X127133000Y-64456212D01*
X117297045Y-64456212D01*
X117303370Y-64392000D01*
X117281938Y-64174402D01*
X117218468Y-63965166D01*
X117115396Y-63772334D01*
X116976686Y-63603314D01*
X116807666Y-63464604D01*
X116614834Y-63361532D01*
X116405598Y-63298062D01*
X116242521Y-63282000D01*
X115833479Y-63282000D01*
X115670402Y-63298062D01*
X115461166Y-63361532D01*
X115268334Y-63464604D01*
X115099314Y-63603314D01*
X114960604Y-63772334D01*
X114857532Y-63965166D01*
X114794062Y-64174402D01*
X114772630Y-64392000D01*
X112303370Y-64392000D01*
X112281938Y-64174402D01*
X112218468Y-63965166D01*
X112115396Y-63772334D01*
X111976686Y-63603314D01*
X111807666Y-63464604D01*
X111614834Y-63361532D01*
X111405598Y-63298062D01*
X111242521Y-63282000D01*
X110833479Y-63282000D01*
X110670402Y-63298062D01*
X110461166Y-63361532D01*
X110268334Y-63464604D01*
X110099314Y-63603314D01*
X109960604Y-63772334D01*
X109857532Y-63965166D01*
X109794062Y-64174402D01*
X109772630Y-64392000D01*
X95474991Y-64392000D01*
X95474991Y-64281769D01*
X95442902Y-64120449D01*
X95379958Y-63968488D01*
X95288578Y-63831728D01*
X95172272Y-63715422D01*
X95035512Y-63624042D01*
X94883551Y-63561098D01*
X94722231Y-63529009D01*
X94557751Y-63529009D01*
X94396431Y-63561098D01*
X94244470Y-63624042D01*
X94107710Y-63715422D01*
X93991404Y-63831728D01*
X93900024Y-63968488D01*
X93837080Y-64120449D01*
X93804991Y-64281769D01*
X91084000Y-64281769D01*
X91084000Y-60858000D01*
X109082796Y-60858000D01*
X109035384Y-60946702D01*
G37*
%TD.AperFunction*%
%TD*%
M02*
